<?xml version="1.0" standalone="no"?>
<!DOCTYPE svg PUBLIC "-//W3C//DTD SVG 1.1//EN" "http://www.w3.org/Graphics/SVG/1.1/DTD/svg11.dtd" >
<svg>
<metadata>
Created by FontForge 20120731 at Tue Oct  4 17:52:36 2016
 By ,,,
Copyright (C) 2013, 2014 Hoefler &#38; Co. http://www.typography.com
</metadata>
<defs>
<font id="Fatman-Black" horiz-adv-x="376" >
  <font-face 
    font-family="Tungsten Rounded Black"
    font-weight="450"
    font-stretch="normal"
    units-per-em="1000"
    panose-1="0 0 0 0 0 0 0 0 0 0"
    ascent="800"
    descent="-200"
    x-height="570"
    cap-height="700"
    bbox="-39 -282 653 923"
    underline-thickness="50"
    underline-position="-50"
    unicode-range="U+0020-FB04"
  />
<missing-glyph horiz-adv-x="500" 
d="M0 -200v1000h500v-1000h-500zM71 750l179 -390l179 390h-358zM450 676l-172 -376l172 -376v752zM50 -76l172 376l-172 376v-752zM250 240l-179 -390h358z" />
    <glyph glyph-name=".notdef" horiz-adv-x="500" 
d="M0 -200v1000h500v-1000h-500zM71 750l179 -390l179 390h-358zM450 676l-172 -376l172 -376v752zM50 -76l172 376l-172 376v-752zM250 240l-179 -390h358z" />
    <glyph glyph-name=".null" horiz-adv-x="0" 
 />
    <glyph glyph-name="nonmarkingreturn" horiz-adv-x="333" 
 />
    <glyph glyph-name="space" unicode=" " horiz-adv-x="90" 
 />
    <glyph glyph-name="exclam" unicode="!" horiz-adv-x="190" 
d="M113 201h-36q-33 0 -36 33l-28 303v127q0 36 36 36h92q36 0 36 -36v-127l-28 -303q-3 -33 -36 -33zM54 182h82q36 0 36 -36v-110q0 -36 -36 -36h-82q-36 0 -36 36v110q0 36 36 36z" />
    <glyph glyph-name="quotedbl" unicode="&#x22;" horiz-adv-x="327" 
d="M72 700h42q26 0 38 -13.5t8 -38.5l-38 -239q-7 -35 -41 -35h-29q-19 0 -30.5 11.5t-10.5 31.5l14 239q3 44 47 44zM226 700h42q26 0 38 -13.5t8 -38.5l-38 -239q-7 -35 -41 -35h-29q-19 0 -30.5 11.5t-10.5 31.5l14 239q3 44 47 44z" />
    <glyph glyph-name="numbersign" unicode="#" horiz-adv-x="364" 
d="M168 285l28 8v131l-28 -8v-131zM168 34q0 -36 -36 -36h-48q-36 0 -36 36v57q-44 -11 -44 35v91q0 28 28 35l16 4v129q-44 -12 -44 34v91q0 28 27 35l17 4v117q0 36 36 36h48q36 0 36 -36v-86l28 7v79q0 36 36 36h48q36 0 36 -36v-48q44 11 44 -35v-91q0 -28 -28 -35
l-16 -4v-129q44 12 44 -34v-91q0 -28 -27 -35l-17 -4v-126q0 -36 -36 -36h-48q-36 0 -36 36v95l-28 -7v-88z" />
    <glyph glyph-name="dollar" unicode="$" horiz-adv-x="382" 
d="M247 -2v-39q0 -36 -36 -36h-36q-36 0 -36 36v39q-127 10 -127 149v80q0 36 36 36h90q36 0 36 -36v-80q0 -13 18 -13q17 0 17 13v87q0 16 -14 24l-121 72q-35 21 -48.5 50.5t-13.5 74.5v98q0 139 126 149v37q0 34 35 34h39q34 0 34 -34v-37q126 -10 126 -149v-70
q0 -36 -36 -36h-90q-36 0 -36 36v70q0 13 -17 13t-17 -13v-77q0 -16 14 -24l122 -73q62 -38 62 -125v-107q0 -139 -127 -149z" />
    <glyph glyph-name="percent" unicode="%" horiz-adv-x="478" 
d="M468 85q0 -91 -93 -91h-48q-93 0 -93 91v135l-57 -196q-8 -26 -35 -26h-17q-51 0 -34 47l72 217q-12 -3 -24 -3h-36q-93 0 -93 91v265q0 91 93 91h48q93 0 93 -91v-135l57 196q8 26 35 26h17q51 0 34 -47l-72 -217q12 3 24 3h36q93 0 93 -91v-265zM145 602q0 8 -8 8h-12
q-8 0 -8 -8v-241q0 -8 8 -8h12q8 0 8 8v241zM361 339q0 8 -8 8h-12q-8 0 -8 -8v-241q0 -8 8 -8h12q8 0 8 8v241z" />
    <glyph glyph-name="ampersand" unicode="&#x26;" horiz-adv-x="466" 
d="M179 128h3q10 0 15 12l18 44l-44 83q-6 -12 -6 -32v-93q0 -14 14 -14zM297 26l-8 16q-28 -48 -99 -48h-42q-138 0 -138 138v111q0 90 53 136l28 25l-23 40q-15 26 -18.5 47t-3.5 61q0 154 150 154h49q150 0 150 -150v-43q0 -36 -36 -36h-83q-36 0 -36 36v40q0 15 -14 15
h-8q-15 0 -15 -15v-18q0 -25 9 -41l88 -160l16 46q12 32 47 32h67q22 0 31.5 -14t1.5 -34l-76 -189l74 -134q8 -15 2 -28t-24 -13h-92q-36 0 -50 26z" />
    <glyph glyph-name="quotesingle" unicode="'" horiz-adv-x="181" 
d="M72 700h50q26 0 38 -13.5t8 -38.5l-38 -239q-7 -35 -41 -35h-37q-19 0 -30.5 11.5t-10.5 31.5l14 239q3 44 47 44z" />
    <glyph glyph-name="parenleft" unicode="(" horiz-adv-x="208" 
d="M142 290q0 -97 10.5 -153.5t38.5 -105.5q22 -38 -19 -55l-19 -9q-23 -9 -39 9q-56 60 -76 128t-20 187v118q0 119 20 187t76 128q16 18 39 9l19 -9q41 -17 19 -55q-28 -49 -38.5 -105.5t-10.5 -153.5v-120z" />
    <glyph glyph-name="parenright" unicode=")" horiz-adv-x="208" 
d="M66 410q0 97 -10.5 153.5t-38.5 105.5q-22 38 19 55l19 9q23 9 39 -9q56 -60 76 -128t20 -187v-118q0 -119 -20 -187t-76 -128q-16 -18 -39 -9l-19 9q-41 17 -19 55q28 49 38.5 105.5t10.5 153.5v120z" />
    <glyph glyph-name="asterisk" unicode="*" horiz-adv-x="318" 
d="M101 529l-70 27q-24 9 -24 35v22q0 19 12.5 25.5t29.5 -2.5l74 -39l-6 78q-3 36 35 36h14q38 0 35 -36l-6 -78l74 39q17 9 29.5 2.5t12.5 -25.5v-22q0 -26 -24 -35l-70 -27l70 -27q24 -9 24 -35v-22q0 -19 -12.5 -25.5t-29.5 2.5l-74 39l6 -78q3 -36 -35 -36h-14
q-38 0 -35 36l6 78l-74 -39q-17 -9 -29.5 -2.5t-12.5 25.5v22q0 26 24 35z" />
    <glyph glyph-name="plus" unicode="+" horiz-adv-x="334" 
d="M328 375v-45q0 -36 -36 -36h-64v-66q0 -36 -36 -36h-50q-36 0 -36 36v66h-64q-36 0 -36 36v45q0 36 36 36h64v66q0 36 36 36h50q36 0 36 -36v-66h64q36 0 36 -36z" />
    <glyph glyph-name="comma" unicode="," horiz-adv-x="184" 
d="M80 -134q-17 -17 -39 -6l-9 5q-21 11 -8 33l6 10q25 41 31 56.5t6 35.5h-19q-36 0 -36 36v120q0 19 11 30t30 11h78q19 0 30 -11t11 -30v-112q0 -56 -15 -84.5t-56 -71.5z" />
    <glyph glyph-name="hyphen" unicode="-" horiz-adv-x="246" 
d="M6 257v76q0 36 36 36h162q36 0 36 -36v-76q0 -36 -36 -36h-162q-36 0 -36 36z" />
    <glyph glyph-name="period" unicode="." horiz-adv-x="184" 
d="M48 197h88q36 0 36 -36v-125q0 -36 -36 -36h-88q-36 0 -36 36v125q0 36 36 36z" />
    <glyph glyph-name="slash" unicode="/" horiz-adv-x="250" 
d="M162 732h43q43 0 36 -42l-118 -692q-6 -30 -35 -30h-43q-43 0 -36 42l118 692q6 30 35 30z" />
    <glyph glyph-name="zero" unicode="0" horiz-adv-x="402" 
d="M389 556v-412q0 -150 -150 -150h-76q-150 0 -150 150v412q0 150 150 150h76q150 0 150 -150zM220 150v400q0 16 -15 16h-8q-15 0 -15 -16v-400q0 -16 15 -16h8q15 0 15 16z" />
    <glyph glyph-name="one" unicode="1" horiz-adv-x="251" 
d="M129 703h71q36 0 36 -36v-631q0 -36 -36 -36h-95q-36 0 -36 36v488h-38q-33 0 -33 33v45q0 20 7 29t24 13q37 9 53 30l8 11q13 18 39 18z" />
    <glyph glyph-name="two" unicode="2" horiz-adv-x="379" 
d="M11 140q0 86 56 149l113 128q22 24 22 58v75q0 16 -17 16t-17 -16v-70q0 -36 -36 -36h-83q-36 0 -36 36v76q0 150 150 150h55q150 0 150 -150v-85q0 -82 -59 -147l-115 -130q-19 -22 -19 -49h157q36 0 36 -36v-73q0 -36 -36 -36h-285q-36 0 -36 36v104z" />
    <glyph glyph-name="three" unicode="3" horiz-adv-x="386" 
d="M190 134q17 0 17 16v123q0 13 -13 13h-83q-36 0 -36 36v67q0 36 36 36h81q13 0 13 13v112q0 16 -15 16q-16 0 -16 -16v-48q0 -36 -36 -36h-88q-36 0 -36 36v54q0 150 150 150h58q150 0 150 -150v-68q0 -54 -13 -79.5t-45 -44.5q35 -17 47.5 -39.5t12.5 -70.5v-110
q0 -150 -150 -150h-62q-150 0 -150 150v67q0 36 36 36h88q36 0 36 -36v-61q0 -16 18 -16z" />
    <glyph glyph-name="four" unicode="4" horiz-adv-x="407" 
d="M405 120q0 -24 -24 -24h-27v-60q0 -36 -36 -36h-86q-36 0 -36 36v60h-148q-36 0 -36 36v73q0 29 6 56l102 412q7 27 35 27h163q36 0 36 -36v-427h27q24 0 24 -24v-93zM199 503l-59 -267h58z" />
    <glyph glyph-name="five" unicode="5" horiz-adv-x="386" 
d="M208 150v158q0 18 -14 18q-10 0 -19 -12q-12 -16 -36 -16h-89q-36 0 -36 36v330q0 36 36 36h278q36 0 36 -36v-73q0 -36 -36 -36h-152v-109q46 26 87 26q111 0 111 -133v-195q0 -150 -150 -150h-62q-150 0 -150 150v72q0 36 36 36h89q36 0 36 -36v-66q0 -16 18 -16
q17 0 17 16z" />
    <glyph glyph-name="six" unicode="6" horiz-adv-x="393" 
d="M381 310v-166q0 -150 -150 -150h-68q-150 0 -150 150v412q0 150 150 150h65q150 0 150 -150v-56q0 -36 -36 -36h-91q-36 0 -36 36v50q0 16 -17 16q-18 0 -18 -16v-137q44 18 88 18q113 0 113 -121zM180 148q0 -14 15 -14h5q15 0 15 14v130q0 16 -15 16q-8 0 -20 -3v-143z
" />
    <glyph glyph-name="seven" unicode="7" horiz-adv-x="333" 
d="M42 44l114 511h-120q-36 0 -36 36v73q0 36 36 36h253q36 0 36 -36v-81q0 -29 -6 -56l-110 -499q-6 -28 -35 -28h-96q-45 0 -36 44z" />
    <glyph glyph-name="eight" unicode="8" horiz-adv-x="394" 
d="M15 556q0 150 150 150h64q150 0 150 -150v-85q0 -90 -64 -115q66 -19 66 -99v-113q0 -150 -150 -150h-68q-150 0 -150 150v113q0 80 66 99q-64 25 -64 115v85zM179 432q0 -15 15 -15h6q15 0 15 15v120q0 16 -18 16t-18 -16v-120zM194 288q-16 0 -16 -16v-124
q0 -16 16 -16h6q16 0 16 16v124q0 16 -16 16h-6z" />
    <glyph glyph-name="nine" unicode="9" horiz-adv-x="393" 
d="M213 550q0 16 -17 16q-18 0 -18 -16v-146q0 -16 15 -16q8 0 20 3v159zM213 148v121q-44 -18 -88 -18q-113 0 -113 121v184q0 150 150 150h68q150 0 150 -150v-412q0 -150 -150 -150h-67q-150 0 -150 150v41q0 33 34 33h97q32 0 32 -32v-38q0 -14 15 -14h7q15 0 15 14z
" />
    <glyph glyph-name="colon" unicode=":" horiz-adv-x="184" 
d="M48 570h88q36 0 36 -36v-125q0 -36 -36 -36h-88q-36 0 -36 36v125q0 36 36 36zM48 197h88q36 0 36 -36v-125q0 -36 -36 -36h-88q-36 0 -36 36v125q0 36 36 36z" />
    <glyph glyph-name="semicolon" unicode=";" horiz-adv-x="184" 
d="M48 570h88q36 0 36 -36v-125q0 -36 -36 -36h-88q-36 0 -36 36v125q0 36 36 36zM80 -134q-17 -17 -39 -6l-9 5q-21 11 -8 33l6 10q25 41 31 56.5t6 35.5h-19q-36 0 -36 36v120q0 19 11 30t30 11h78q19 0 30 -11t11 -30v-112q0 -56 -15 -84.5t-56 -71.5z" />
    <glyph glyph-name="less" unicode="&#x3c;" horiz-adv-x="322" 
d="M10 317v72q0 36 41 50l213 74q48 17 48 -34v-44q0 -31 -31 -39l-153 -42l153 -42q31 -8 31 -39v-46q0 -51 -48 -34l-213 74q-41 14 -41 50z" />
    <glyph glyph-name="equal" unicode="=" horiz-adv-x="334" 
d="M6 406v43q0 36 36 36h250q36 0 36 -36v-43q0 -36 -36 -36h-250q-36 0 -36 36zM6 256v43q0 36 36 36h250q36 0 36 -36v-43q0 -36 -36 -36h-250q-36 0 -36 36z" />
    <glyph glyph-name="greater" unicode="&#x3e;" horiz-adv-x="322" 
d="M312 391v-72q0 -36 -41 -50l-213 -74q-48 -17 -48 34v44q0 31 31 39l153 42l-153 42q-31 8 -31 39v46q0 51 48 34l213 -74q41 -14 41 -50z" />
    <glyph glyph-name="question" unicode="?" horiz-adv-x="367" 
d="M239 239q0 -36 -36 -36h-60q-36 0 -36 36v46q0 45 6.5 67.5t30.5 48.5l26 28q24 27 24 54v70q0 13 -17 13t-17 -13v-65q0 -36 -36 -36h-79q-36 0 -36 36v68q0 150 150 150h49q150 0 150 -150v-59q0 -83 -50 -139l-45 -51q-24 -27 -24 -66v-2zM132 182h82q36 0 36 -36
v-110q0 -36 -36 -36h-82q-36 0 -36 36v110q0 36 36 36z" />
    <glyph glyph-name="at" unicode="@" horiz-adv-x="533" 
d="M215 366h-62q-34 0 -34 34v38q0 117 117 117h63q117 0 117 -117v-355q0 -19 19 -19h17q19 0 19 19v379q0 79 -30 112t-107 33h-134q-77 0 -107 -33t-30 -112v-352q0 -79 30 -112t107 -33h243q19 0 19 -19v-2q0 -19 -19 -19h-243q-97 0 -138 43.5t-41 141.5v352
q0 98 41 141.5t138 43.5h134q97 0 138 -42.5t41 -142.5v-379q0 -61 -62 -61h-83q-30 0 -46.5 11t-31.5 36q-36 -48 -93 -48q-83 0 -83 90v117q0 42 15.5 63t58.5 36l89 31v74q0 9 -13 9q-15 0 -15 -9v-32q0 -34 -34 -34zM245 149q0 -13 16 -13q8 0 16 2v110l-14 -6
q-18 -7 -18 -30v-63z" />
    <glyph glyph-name="A" unicode="A" horiz-adv-x="386" 
d="M158 229h49l-24 273zM353 0h-93q-33 0 -36 33l-5 54h-73l-5 -54q-3 -33 -36 -33h-73q-41 0 -35 41l82 628q4 31 36 31h156q32 0 35 -31l83 -628q6 -41 -36 -41z" />
    <glyph glyph-name="B" unicode="B" horiz-adv-x="400" 
d="M386 471q0 -90 -76 -115q41 -10 59.5 -33.5t18.5 -65.5v-107q0 -150 -150 -150h-187q-36 0 -36 36v628q0 36 36 36h185q150 0 150 -150v-79zM219 429v120q0 13 -13 13h-23v-145h23q13 0 13 12zM207 288h-24v-150h24q13 0 13 12v126q0 12 -13 12z" />
    <glyph glyph-name="C" unicode="C" horiz-adv-x="402" 
d="M221 147v151q0 36 36 36h96q36 0 36 -36v-154q0 -150 -150 -150h-76q-150 0 -150 150v412q0 150 150 150h76q148 0 148 -150v-133q0 -36 -36 -36h-96q-36 0 -36 36v130q0 13 -18 13t-18 -13v-406q0 -13 13 -13h12q13 0 13 13z" />
    <glyph glyph-name="D" unicode="D" horiz-adv-x="405" 
d="M222 0h-171q-36 0 -36 36v628q0 36 36 36h171q170 0 170 -170v-360q0 -170 -170 -170zM203 560h-18v-420h18q19 0 19 20v381q0 19 -19 19z" />
    <glyph glyph-name="E" unicode="E" horiz-adv-x="322" 
d="M15 36v628q0 36 36 36h228q36 0 36 -36v-73q0 -36 -36 -36h-94v-128h89q36 0 36 -36v-73q0 -36 -36 -36h-89v-137h96q36 0 36 -36v-73q0 -36 -36 -36h-230q-36 0 -36 36z" />
    <glyph glyph-name="F" unicode="F" horiz-adv-x="316" 
d="M15 36v628q0 36 36 36h223q36 0 36 -36v-73q0 -36 -36 -36h-89v-140h84q36 0 36 -36v-73q0 -36 -36 -36h-84v-234q0 -36 -36 -36h-98q-36 0 -36 36z" />
    <glyph glyph-name="G" unicode="G" horiz-adv-x="406" 
d="M225 147v111h-5q-21 0 -21 21v80q0 19 7.5 27.5t25.5 8.5h125q36 0 36 -36v-215q0 -150 -150 -150h-80q-150 0 -150 150v412q0 150 150 150h78q150 0 150 -150v-93q0 -36 -36 -36h-96q-36 0 -36 36v90q0 13 -14 13h-13q-13 0 -13 -13v-405q0 -14 13 -14h16q13 0 13 13z
" />
    <glyph glyph-name="H" unicode="H" horiz-adv-x="408" 
d="M185 664v-237h38v237q0 36 36 36h98q36 0 36 -36v-628q0 -36 -36 -36h-98q-36 0 -36 36v246h-38v-246q0 -36 -36 -36h-98q-36 0 -36 36v628q0 36 36 36h98q36 0 36 -36z" />
    <glyph glyph-name="I" unicode="I" horiz-adv-x="202" 
d="M52 700h98q36 0 36 -36v-628q0 -36 -36 -36h-98q-36 0 -36 36v628q0 36 36 36z" />
    <glyph glyph-name="J" unicode="J" horiz-adv-x="273" 
d="M39 0q-36 0 -36 36v73q0 36 36 36h27q23 0 23 23v496q0 36 36 36h98q36 0 36 -36v-514q0 -150 -150 -150h-70z" />
    <glyph glyph-name="K" unicode="K" horiz-adv-x="396" 
d="M359 0h-102q-31 0 -35 31l-37 258v-253q0 -36 -36 -36h-98q-36 0 -36 36v628q0 36 36 36h98q36 0 36 -36v-261l43 267q6 30 36 30h96q43 0 36 -43l-57 -295l56 -320q7 -42 -36 -42z" />
    <glyph glyph-name="L" unicode="L" horiz-adv-x="304" 
d="M15 36v628q0 36 36 36h98q36 0 36 -36v-519h81q36 0 36 -36v-73q0 -36 -36 -36h-215q-36 0 -36 36z" />
    <glyph glyph-name="M" unicode="M" horiz-adv-x="558" 
d="M300 0h-77q-18 0 -26 7.5t-10 24.5l-40 392v-388q0 -36 -36 -36h-60q-36 0 -36 36v628q0 36 36 36h168q33 0 36 -33l24 -301l23 301q3 33 36 33h169q36 0 36 -36v-628q0 -36 -36 -36h-96q-36 0 -36 36v382l-40 -386q-3 -32 -35 -32z" />
    <glyph glyph-name="N" unicode="N" horiz-adv-x="392" 
d="M341 0h-92q-28 0 -35 28l-61 255l2 -247q0 -36 -36 -36h-68q-36 0 -36 36v628q0 36 36 36h98q29 0 36 -28l52 -224v216q0 36 36 36h68q36 0 36 -36v-628q0 -36 -36 -36z" />
    <glyph glyph-name="O" unicode="O" horiz-adv-x="406" 
d="M393 556v-412q0 -150 -150 -150h-80q-150 0 -150 150v412q0 150 150 150h80q150 0 150 -150zM223 147v406q0 13 -13 13h-14q-13 0 -13 -13v-406q0 -13 13 -13h14q13 0 13 13z" />
    <glyph glyph-name="P" unicode="P" horiz-adv-x="394" 
d="M237 233h-52v-197q0 -36 -36 -36h-98q-36 0 -36 36v628q0 36 36 36h186q150 0 150 -150v-167q0 -150 -150 -150zM220 386v161q0 13 -13 13h-22v-187h22q13 0 13 13z" />
    <glyph glyph-name="Q" unicode="Q" horiz-adv-x="406" 
d="M393 -14l-31 -53q-17 -28 -47 -14l-148 75q-154 0 -154 150v412q0 150 150 150h80q150 0 150 -150v-397q0 -83 -44 -119l28 -11q34 -12 16 -43zM223 147v406q0 13 -13 13h-14q-13 0 -13 -13v-406q0 -13 13 -13h14q13 0 13 13z" />
    <glyph glyph-name="R" unicode="R" horiz-adv-x="403" 
d="M220 402v143q0 13 -13 13h-22v-169h22q13 0 13 13zM390 436q0 -90 -76 -115q40 -10 58.5 -33.5t18.5 -65.5v-186q0 -36 -36 -36h-98q-36 0 -36 36v201q0 13 -13 13h-23v-214q0 -36 -36 -36h-98q-36 0 -36 36v628q0 36 36 36h189q150 0 150 -150v-114z" />
    <glyph glyph-name="S" unicode="S" horiz-adv-x="394" 
d="M195 452l127 -76q62 -38 62 -125v-107q0 -150 -150 -150h-70q-150 0 -150 150v87q0 36 36 36h93q36 0 36 -36v-87q0 -13 13 -13h11q13 0 13 13v90q0 16 -14 24l-126 75q-35 21 -48.5 50.5t-13.5 74.5v98q0 150 150 150h68q150 0 150 -150v-77q0 -36 -36 -36h-93
q-36 0 -36 36v77q0 13 -18 13t-18 -13v-80q0 -16 14 -24z" />
    <glyph glyph-name="T" unicode="T" horiz-adv-x="360" 
d="M265 555v-519q0 -36 -36 -36h-98q-36 0 -36 36v519h-53q-36 0 -36 36v73q0 36 36 36h276q36 0 36 -36v-73q0 -36 -36 -36h-53z" />
    <glyph glyph-name="U" unicode="U" horiz-adv-x="404" 
d="M256 700h98q36 0 36 -36v-520q0 -150 -150 -150h-76q-150 0 -150 150v520q0 36 36 36h98q36 0 36 -36v-517q0 -13 18 -13t18 13v517q0 36 36 36z" />
    <glyph glyph-name="V" unicode="V" horiz-adv-x="382" 
d="M266 0h-149q-32 0 -36 31l-84 628q-6 41 35 41h96q33 0 36 -33l36 -434l38 434q3 33 36 33h76q40 0 36 -41l-85 -628q-4 -31 -35 -31z" />
    <glyph glyph-name="W" unicode="W" horiz-adv-x="564" 
d="M218 0h-109q-32 0 -36 32l-76 628q-6 40 35 40h104q33 0 36 -33l22 -253l23 253q3 33 35 33h89q33 0 36 -33l22 -253l23 253q3 33 36 33h73q40 0 36 -40l-76 -628q-4 -32 -36 -32h-110q-32 0 -36 32l-28 259l-27 -259q-3 -32 -36 -32z" />
    <glyph glyph-name="X" unicode="X" horiz-adv-x="379" 
d="M342 0h-100q-31 0 -35 30l-27 151l-31 -152q-6 -29 -35 -29h-77q-47 0 -35 45l80 293l-79 317q-11 45 35 45h100q29 0 35 -30l25 -146l29 147q6 29 36 29h76q47 0 35 -45l-78 -293l81 -317q11 -45 -35 -45z" />
    <glyph glyph-name="Y" unicode="Y" horiz-adv-x="370" 
d="M270 253v-217q0 -36 -36 -36h-98q-36 0 -36 36v206l-102 413q-10 45 35 45h99q32 0 36 -31l27 -179l30 180q6 30 36 30h76q47 0 35 -45z" />
    <glyph glyph-name="Z" unicode="Z" horiz-adv-x="331" 
d="M13 166l135 389h-106q-36 0 -36 36v73q0 36 36 36h246q36 0 36 -36v-83q0 -27 -7 -47l-135 -389h106q36 0 36 -36v-73q0 -36 -36 -36h-246q-36 0 -36 36v83q0 27 7 47z" />
    <glyph glyph-name="bracketleft" unicode="[" horiz-adv-x="213" 
d="M135 52h43q36 0 36 -36v-12q0 -36 -36 -36h-122q-36 0 -36 36v692q0 36 36 36h122q36 0 36 -36v-12q0 -36 -36 -36h-43v-596z" />
    <glyph glyph-name="backslash" unicode="\" horiz-adv-x="250" 
d="M205 -32h-43q-29 0 -35 30l-118 692q-7 42 36 42h43q29 0 35 -30l118 -692q7 -42 -36 -42z" />
    <glyph glyph-name="bracketright" unicode="]" horiz-adv-x="213" 
d="M35 52h43v596h-43q-36 0 -36 36v12q0 36 36 36h122q36 0 36 -36v-692q0 -36 -36 -36h-122q-36 0 -36 36v12q0 36 36 36z" />
    <glyph glyph-name="asciicircum" unicode="^" horiz-adv-x="412" 
d="M187 706h38q35 0 48 -31l87 -199q8 -17 -0.5 -31t-28.5 -14h-32q-32 0 -43 27l-50 123l-50 -123q-11 -27 -43 -27h-31q-20 0 -28.5 14t-0.5 31l86 199q13 31 48 31z" />
    <glyph glyph-name="underscore" unicode="_" horiz-adv-x="475" 
d="M-2 -104v46q0 36 36 36h407q36 0 36 -36v-46q0 -36 -36 -36h-407q-36 0 -36 36z" />
    <glyph glyph-name="grave" unicode="`" horiz-adv-x="500" 
d="M203 733h72q22 0 32.5 -8.5t16.5 -28.5l22 -66q5 -16 -4 -28t-27 -12h-43q-35 0 -50 23l-45 70q-13 19 -5 34.5t31 15.5z" />
    <glyph glyph-name="a" unicode="a" horiz-adv-x="364" 
d="M160 139q0 -15 16 -15q9 0 18 3v114l-17 -8q-17 -9 -17 -30v-64zM196 34v3q-41 -43 -100 -43q-86 0 -86 94v129q0 48 17 71.5t65 40.5l102 37v69q0 11 -15 11q-16 0 -16 -11v-37q0 -31 -30 -31h-82q-35 0 -35 35v42q0 132 132 132h72q132 0 132 -132v-408q0 -36 -36 -36
h-86q-34 0 -34 34z" />
    <glyph glyph-name="b" unicode="b" 
d="M271 -6q-55 0 -101 39q-1 -33 -36 -33h-86q-36 0 -36 36v638q0 36 36 36h88q36 0 36 -36v-137q49 39 99 39q45 0 69 -27t24 -78v-372q0 -51 -24 -78t-69 -27zM189 438q-8 0 -17 -3v-300q9 -3 17 -3q15 0 15 15v276q0 15 -15 15z" />
    <glyph glyph-name="c" unicode="c" horiz-adv-x="371" 
d="M324 318h-84q-36 0 -36 36v77q0 11 -16 11t-16 -11v-292q0 -11 16 -11t16 11v85q0 36 36 36h84q36 0 36 -36v-92q0 -138 -138 -138h-72q-138 0 -138 138v306q0 138 138 138h72q138 0 138 -138v-84q0 -36 -36 -36z" />
    <glyph glyph-name="d" unicode="d" 
d="M187 132q8 0 17 3v300q-9 3 -17 3q-15 0 -15 -15v-276q0 -15 15 -15zM206 34v1q-43 -41 -101 -41q-45 0 -69 27t-24 78v372q0 51 24 78t69 27q49 0 99 -37v135q0 36 36 36h88q36 0 36 -36v-638q0 -36 -36 -36h-86q-36 0 -36 34z" />
    <glyph glyph-name="e" unicode="e" horiz-adv-x="370" 
d="M358 172v-40q0 -138 -138 -138h-70q-138 0 -138 138v306q0 138 138 138h70q138 0 138 -138v-180q0 -36 -36 -36h-152v-86q0 -11 11 -11h12q11 0 11 11v38q0 33 33 33h86q35 0 35 -35zM186 445q-16 0 -16 -11v-93h32v93q0 11 -16 11z" />
    <glyph glyph-name="f" unicode="f" horiz-adv-x="252" 
d="M196 36q0 -36 -36 -36h-88q-36 0 -36 36v401q-36 0 -36 36v61q0 36 36 36v24q0 116 116 116h60q36 0 36 -36v-44q0 -36 -36 -36h-3q-23 0 -23 -24h26q36 0 36 -36v-61q0 -36 -36 -36h-16v-401z" />
    <glyph glyph-name="g" unicode="g" 
d="M187 187q8 0 17 3v245q-9 3 -17 3q-15 0 -15 -15v-221q0 -15 15 -15zM242 -114h-109q-118 0 -118 111v2q0 36 36 36h79q32 0 32 -28q0 -14 15 -14h14q15 0 15 15v82q-47 -38 -101 -38q-45 0 -69 27t-24 78v314q0 51 24 78t69 27q54 0 101 -39q1 33 36 33h86q36 0 36 -36
v-526q0 -122 -122 -122z" />
    <glyph glyph-name="h" unicode="h" 
d="M172 435v-399q0 -36 -36 -36h-88q-36 0 -36 36v638q0 36 36 36h88q36 0 36 -36v-137q49 39 99 39q45 0 69 -27t24 -78v-435q0 -36 -36 -36h-88q-36 0 -36 36v387q0 15 -15 15q-8 0 -17 -3z" />
    <glyph glyph-name="i" unicode="i" horiz-adv-x="186" 
d="M139 588h-92q-36 0 -36 36v53q0 36 36 36h92q36 0 36 -36v-53q0 -36 -36 -36zM137 0h-88q-36 0 -36 36v498q0 36 36 36h88q36 0 36 -36v-498q0 -36 -36 -36z" />
    <glyph glyph-name="j" unicode="j" horiz-adv-x="186" 
d="M139 588h-92q-36 0 -36 36v53q0 36 36 36h92q36 0 36 -36v-53q0 -36 -36 -36zM22 -110q-46 0 -46 36v33q0 22 7 29q6 6 15 7.5t11 3.5q4 4 4 18v517q0 36 36 36h88q36 0 36 -36v-535q0 -109 -109 -109h-42z" />
    <glyph glyph-name="k" unicode="k" horiz-adv-x="381" 
d="M344 0h-93q-31 0 -35 30l-44 237v-231q0 -36 -36 -36h-88q-36 0 -36 36v638q0 36 36 36h88q36 0 36 -36v-371l52 239q6 28 35 28h87q46 0 35 -45l-60 -233l58 -248q11 -44 -35 -44z" />
    <glyph glyph-name="l" unicode="l" horiz-adv-x="186" 
d="M137 0h-88q-36 0 -36 36v638q0 36 36 36h88q36 0 36 -36v-638q0 -36 -36 -36z" />
    <glyph glyph-name="m" unicode="m" horiz-adv-x="566" 
d="M172 36q0 -36 -36 -36h-88q-36 0 -36 36v498q0 36 36 36h86q36 0 36 -33q53 39 101 39q58 0 80 -45q56 45 111 45q92 0 92 -105v-435q0 -36 -36 -36h-88q-36 0 -36 36v387q0 15 -14 15q-8 0 -17 -3v-399q0 -36 -36 -36h-88q-36 0 -36 36v387q0 15 -14 15q-8 0 -17 -3
v-399z" />
    <glyph glyph-name="n" unicode="n" 
d="M172 36q0 -36 -36 -36h-88q-36 0 -36 36v498q0 36 36 36h86q36 0 36 -33q55 39 101 39q45 0 69 -27t24 -78v-435q0 -36 -36 -36h-88q-36 0 -36 36v387q0 15 -15 15q-8 0 -17 -3v-399z" />
    <glyph glyph-name="o" unicode="o" 
d="M364 132q0 -138 -138 -138h-76q-138 0 -138 138v306q0 138 138 138h76q138 0 138 -138v-306zM204 431q0 11 -11 11h-10q-11 0 -11 -11v-292q0 -11 16 -11t16 11v292z" />
    <glyph glyph-name="p" unicode="p" 
d="M189 438q-8 0 -17 -3v-300q9 -3 17 -3q15 0 15 15v276q0 15 -15 15zM172 -74q0 -36 -36 -36h-88q-36 0 -36 36v608q0 36 36 36h86q36 0 36 -33q53 39 101 39q45 0 69 -27t24 -78v-372q0 -51 -24 -78t-69 -27q-49 0 -99 37v-105z" />
    <glyph glyph-name="q" unicode="q" 
d="M328 -110h-88q-36 0 -36 36v107q-49 -39 -99 -39q-45 0 -69 27t-24 78v372q0 51 24 78t69 27q49 0 101 -38q3 32 36 32h86q36 0 36 -36v-608q0 -36 -36 -36zM187 132q8 0 17 3v300q-9 3 -17 3q-15 0 -15 -15v-276q0 -15 15 -15z" />
    <glyph glyph-name="r" unicode="r" horiz-adv-x="266" 
d="M136 0h-88q-36 0 -36 36v498q0 36 36 36h81q36 0 36 -36v-39q19 43 32.5 61.5t31.5 18.5h1q31 0 31 -40v-93q0 -35 -43 -50q-33 -13 -46 -21v-335q0 -36 -36 -36z" />
    <glyph glyph-name="s" unicode="s" horiz-adv-x="361" 
d="M315 359h-86q-17 0 -24.5 7.5t-7.5 24.5v43q0 11 -15 11q-16 0 -16 -11v-44q0 -17 17 -25l76 -37q52 -25 71 -53.5t19 -80.5v-62q0 -138 -138 -138h-61q-138 0 -138 138v47q0 34 35 34h84q32 0 32 -32v-45q0 -11 11 -11h11q11 0 11 11v44q0 17 -17 25l-76 38
q-52 25 -71 53.5t-19 80.5v61q0 138 138 138h59q138 0 138 -138v-45q0 -34 -33 -34z" />
    <glyph glyph-name="t" unicode="t" horiz-adv-x="252" 
d="M196 36q0 -36 -36 -36h-88q-36 0 -36 36v401q-36 0 -36 36v61q0 36 36 36v54q0 36 36 36h88q36 0 36 -36v-54h16q36 0 36 -36v-61q0 -36 -36 -36h-16v-401z" />
    <glyph glyph-name="u" unicode="u" 
d="M206 34q-50 -40 -101 -40q-45 0 -69 27t-24 78v435q0 36 36 36h88q36 0 36 -36v-387q0 -15 15 -15q8 0 17 3v399q0 36 36 36h88q36 0 36 -36v-498q0 -36 -36 -36h-86q-35 0 -36 34z" />
    <glyph glyph-name="v" unicode="v" horiz-adv-x="369" 
d="M257 0h-144q-32 0 -36 31l-75 498q-6 41 35 41h85q33 0 36 -32l31 -308l30 308q4 32 36 32h77q42 0 35 -41l-75 -498q-4 -31 -35 -31z" />
    <glyph glyph-name="w" unicode="w" horiz-adv-x="561" 
d="M219 0h-114q-32 0 -36 31l-66 498q-6 41 35 41h79q33 0 36 -33l20 -284l28 285q3 32 36 32h97q32 0 35 -33l27 -281l22 281q3 33 36 33h68q42 0 36 -41l-67 -498q-4 -31 -35 -31h-115q-32 0 -35 32l-26 228l-25 -228q-4 -32 -36 -32z" />
    <glyph glyph-name="x" unicode="x" horiz-adv-x="352" 
d="M313 0h-84q-31 0 -36 30l-20 126l-29 -128q-7 -28 -35 -28h-72q-47 0 -34 46l65 228l-63 251q-10 45 35 45h84q30 0 36 -30l19 -122l27 124q6 28 35 28h71q47 0 35 -46l-63 -227l64 -252q12 -45 -35 -45z" />
    <glyph glyph-name="y" unicode="y" horiz-adv-x="363" 
d="M365 527l-128 -608q-7 -29 -35 -29h-82q-45 0 -36 44l18 78l-105 515q-7 43 36 43h88q32 0 36 -32l11 -88q7 -59 16 -194q11 139 17 194l11 88q4 32 36 32h81q45 0 36 -43z" />
    <glyph glyph-name="z" unicode="z" horiz-adv-x="314" 
d="M7 104q0 29 14 60l126 273h-104q-36 0 -36 36v61q0 36 36 36h228q36 0 36 -36v-68q0 -29 -14 -60l-126 -273h104q36 0 36 -36v-61q0 -36 -36 -36h-228q-36 0 -36 36v68z" />
    <glyph glyph-name="braceleft" unicode="{" horiz-adv-x="267" 
d="M251 672q-30 -42 -38 -78.5t-8 -105.5v-33q0 -46 -17.5 -69t-49.5 -35q34 -10 50.5 -29.5t16.5 -60.5v-49q0 -68 8 -104.5t38 -80.5q20 -30 -13 -50l-8 -5q-32 -19 -62 10q-51 47 -69 94t-18 137v51q0 17 -9 25t-27 11l-10 2q-29 6 -29 34v29q0 28 29 34l10 2
q19 4 27.5 11.5t8.5 24.5v50q0 88 16.5 133t69.5 97q28 28 62 10l9 -5q13 -7 18 -20t-5 -30z" />
    <glyph glyph-name="bar" unicode="|" horiz-adv-x="202" 
d="M85 763h32q36 0 36 -36v-758q0 -36 -36 -36h-32q-36 0 -36 36v758q0 36 36 36z" />
    <glyph glyph-name="braceright" unicode="}" horiz-adv-x="267" 
d="M62 488q0 69 -8 105.5t-38 78.5q-10 17 -5 30t18 20l9 5q34 18 62 -10q53 -52 69.5 -97t16.5 -133v-50q0 -17 8.5 -24.5t27.5 -11.5l10 -2q29 -6 29 -34v-29q0 -28 -29 -34l-10 -2q-18 -3 -27 -11t-9 -25v-51q0 -90 -18 -137t-69 -94q-30 -29 -62 -10l-8 5q-33 20 -13 50
q30 44 38 80.5t8 104.5v49q0 41 16.5 60.5t50.5 29.5q-32 12 -49.5 35t-17.5 69v33z" />
    <glyph glyph-name="asciitilde" unicode="~" horiz-adv-x="406" 
d="M201 414q44 -15 63 -15q26 0 60 25q11 10 27 4.5t16 -24.5v-54q0 -29 -19 -48q-29 -29 -76 -29q-25 0 -70 15q-44 15 -63 15q-26 0 -60 -25q-11 -10 -27 -4.5t-16 24.5v53q0 30 19 49q29 29 76 29q29 0 70 -15z" />
    <glyph glyph-name="uni00A0" unicode="&#xa0;" horiz-adv-x="90" 
 />
    <glyph glyph-name="exclamdown" unicode="&#xa1;" horiz-adv-x="190" 
d="M136 518h-82q-36 0 -36 36v110q0 36 36 36h82q36 0 36 -36v-110q0 -36 -36 -36zM141 0h-92q-36 0 -36 36v127l28 303q3 33 36 33h36q33 0 36 -33l28 -303v-127q0 -36 -36 -36z" />
    <glyph glyph-name="cent" unicode="&#xa2;" horiz-adv-x="364" 
d="M352 293v-92q0 -124 -112 -137v-34q0 -33 -32 -33h-43q-33 0 -33 33v34q-118 9 -118 137v302q0 127 117 137v33q0 30 31 30h47q30 0 30 -30v-33q113 -12 113 -137v-80q0 -36 -36 -36h-80q-36 0 -36 36v76q0 11 -15 11t-15 -11v-294q0 -11 15 -11t15 11v88q0 36 36 36h80
q36 0 36 -36z" />
    <glyph glyph-name="sterling" unicode="&#xa3;" horiz-adv-x="408" 
d="M39 0h-1q-35 0 -35 36v73v1q0 35 36 35h8v111h-8q-36 0 -36 36v71q0 36 36 36h8v157q0 150 150 150h54q150 0 150 -150v-60q0 -36 -36 -36h-83q-36 0 -36 36v57q0 13 -16 13q-17 0 -17 -13v-154h89q36 0 36 -36v-71q0 -36 -36 -36h-89v-111h154q36 0 36 -36v-73
q0 -36 -36 -36h-328z" />
    <glyph glyph-name="yen" unicode="&#xa5;" horiz-adv-x="372" 
d="M270 36q0 -36 -36 -36h-94q-36 0 -36 36v74h-55q-36 0 -36 36v18q0 36 36 36h55v19h-55q-36 0 -36 36v18q0 36 36 36h38l-85 346q-11 45 35 45h99q31 0 35 -31l26 -182l28 183q6 30 36 30h74q45 0 35 -45l-86 -346h39q36 0 36 -36v-18q0 -36 -36 -36h-53v-19h53
q36 0 36 -36v-18q0 -36 -36 -36h-53v-74z" />
    <glyph glyph-name="section" unicode="&#xa7;" horiz-adv-x="390" 
d="M331 427q24 -10 33 -22.5t9 -36.5v-36q0 -19 -12 -26t-28 -1l-243 99q-41 17 -57 42.5t-16 64.5v45q0 150 150 150h57q150 0 150 -150v-37q0 -30 -30 -30h-99q-31 0 -31 31v31q0 20 -18 20t-18 -20v-38q0 -25 31 -37zM59 273q-24 10 -33 22.5t-9 36.5v36q0 19 12 26t28 1
l243 -99q41 -17 57 -42.5t16 -64.5v-45q0 -150 -150 -150h-57q-150 0 -150 150v37q0 30 30 30h99q31 0 31 -31v-31q0 -20 18 -20t18 20v38q0 25 -31 37z" />
    <glyph glyph-name="dieresis" unicode="&#xa8;" horiz-adv-x="500" 
d="M156 733h48q36 0 36 -36v-71q0 -36 -36 -36h-48q-36 0 -36 36v71q0 36 36 36zM344 590h-48q-36 0 -36 36v71q0 36 36 36h48q36 0 36 -36v-71q0 -36 -36 -36z" />
    <glyph glyph-name="copyright" unicode="&#xa9;" horiz-adv-x="500" 
d="M329 -6h-158q-79 0 -114.5 37t-35.5 123v392q0 86 35.5 123t114.5 37h158q79 0 114.5 -37t35.5 -123v-392q0 -86 -35.5 -123t-114.5 -37zM329 18q68 0 96 30t28 106v392q0 76 -28 106t-96 30h-158q-68 0 -96 -30t-28 -106v-392q0 -76 28 -106t96 -30h158zM263 201v100
q0 36 36 36h58q36 0 36 -36v-109q0 -115 -115 -115h-56q-115 0 -115 115v317q0 115 115 115h55q114 0 114 -114v-96q0 -36 -36 -36h-58q-36 0 -36 36v86q0 10 -11 10t-11 -10v-299q0 -10 12 -10t12 10z" />
    <glyph glyph-name="ordfeminine" unicode="&#xaa;" horiz-adv-x="248" 
d="M106 446q0 -12 12 -12q10 0 17 5v60l-15 -4q-14 -5 -14 -20v-29zM82 577h-41q-26 0 -26 26v17q0 86 86 86h48q86 0 86 -86v-228q0 -36 -36 -36h-41q-22 0 -22 19v1q-37 -24 -68 -24q-57 0 -57 60v70q0 33 11.5 49t45.5 26l67 19v36q0 12 -13 12q-14 0 -14 -12v-9
q0 -26 -26 -26z" />
    <glyph glyph-name="guillemotleft" unicode="&#xab;" horiz-adv-x="305" 
d="M148 269q-7 21 0 42l41 126q10 32 45 32h28q17 0 26 -11t5 -29l-30 -139l30 -139q4 -18 -5 -29t-26 -11h-28q-35 0 -45 32zM10 268q-8 22 0 44l48 127q11 30 45 30h26q19 0 27.5 -11t3.5 -31l-36 -137l36 -137q5 -20 -3.5 -31t-27.5 -11h-26q-34 0 -45 30z" />
    <glyph glyph-name="registered" unicode="&#xae;" horiz-adv-x="327" 
d="M207 285h-87q-110 0 -110 112v197q0 112 110 112h87q110 0 110 -112v-197q0 -112 -110 -112zM207 687h-87q-48 0 -69 -22.5t-21 -70.5v-197q0 -48 21 -70.5t69 -22.5h87q48 0 69 22.5t21 70.5v197q0 48 -21 70.5t-69 22.5zM175 572q0 10 -10 10h-9v-68h9q10 0 10 10v48z
M262 537q0 -43 -39 -55q39 -9 39 -49v-56q0 -29 -31 -29h-23q-31 0 -31 29v62q0 10 -10 10h-11v-72q0 -29 -31 -29h-22q-31 0 -31 29v223q0 44 44 44h76q70 0 70 -70v-37z" />
    <glyph glyph-name="macron" unicode="&#xaf;" horiz-adv-x="500" 
d="M118 638v34q0 36 36 36h192q36 0 36 -36v-34q0 -36 -36 -36h-192q-36 0 -36 36z" />
    <glyph glyph-name="degree" unicode="&#xb0;" horiz-adv-x="298" 
d="M286 390q0 -50 -27.5 -77.5t-77.5 -27.5h-66q-50 0 -77.5 27.5t-27.5 77.5v211q0 50 27.5 77.5t77.5 27.5h66q50 0 77.5 -27.5t27.5 -77.5v-211zM167 590q0 10 -10 10h-18q-10 0 -10 -10v-189q0 -10 10 -10h18q10 0 10 10v189z" />
    <glyph glyph-name="plusminus" unicode="&#xb1;" horiz-adv-x="334" 
d="M328 446v-45q0 -36 -36 -36h-64v-66q0 -36 -36 -36h-50q-36 0 -36 36v66h-64q-36 0 -36 36v45q0 36 36 36h64v66q0 36 36 36h50q36 0 36 -36v-66h64q36 0 36 -36zM6 158v44q0 36 36 36h250q36 0 36 -36v-44q0 -36 -36 -36h-250q-36 0 -36 36z" />
    <glyph glyph-name="acute" unicode="&#xb4;" horiz-adv-x="500" 
d="M317 733q23 0 31 -15.5t-5 -34.5l-45 -70q-15 -23 -50 -23h-43q-18 0 -27 12t-4 28l22 66q6 20 16.5 28.5t32.5 8.5h72z" />
    <glyph glyph-name="paragraph" unicode="&#xb6;" horiz-adv-x="369" 
d="M354 664v-628q0 -36 -36 -36h-30q-36 0 -36 36v574h-30v-574q0 -36 -44 -36q-66 0 -115.5 47.5t-49.5 141.5v317q0 99 47.5 146.5t146.5 47.5h111q36 0 36 -36z" />
    <glyph glyph-name="periodcentered" unicode="&#xb7;" horiz-adv-x="184" 
d="M48 401h88q36 0 36 -36v-125q0 -36 -36 -36h-88q-36 0 -36 36v125q0 36 36 36z" />
    <glyph glyph-name="cedilla" unicode="&#xb8;" horiz-adv-x="500" 
d="M271 50h30q37 0 30 -37l-20 -98q-8 -37 -47 -37h-51q-22 0 -31.5 14t0.5 37l49 101q10 20 40 20z" />
    <glyph glyph-name="ordmasculine" unicode="&#xba;" horiz-adv-x="254" 
d="M242 441q0 -43 -23 -66t-66 -23h-52q-43 0 -66 23t-23 66v176q0 43 23 66t66 23h52q43 0 66 -23t23 -66v-176zM140 613q0 8 -8 8h-10q-8 0 -8 -8v-168q0 -8 13 -8t13 8v168z" />
    <glyph glyph-name="guillemotright" unicode="&#xbb;" horiz-adv-x="305" 
d="M157 311q7 -21 0 -42l-41 -126q-10 -32 -45 -32h-28q-17 0 -26 11t-5 29l30 139l-30 139q-4 18 5 29t26 11h28q35 0 45 -32zM295 312q8 -22 0 -44l-48 -127q-11 -30 -45 -30h-26q-19 0 -27.5 11t-3.5 31l36 137l-36 137q-5 20 3.5 31t27.5 11h26q34 0 45 -30z" />
    <glyph glyph-name="questiondown" unicode="&#xbf;" horiz-adv-x="367" 
d="M235 524h-82q-36 0 -36 36v110q0 36 36 36h82q36 0 36 -36v-110q0 -36 -36 -36zM128 467q0 36 36 36h60q36 0 36 -36v-46q0 -45 -6.5 -67.5t-30.5 -48.5l-26 -28q-24 -27 -24 -54v-70q0 -13 17 -13t17 13v65q0 36 36 36h79q36 0 36 -36v-68q0 -150 -150 -150h-49
q-150 0 -150 150v59q0 83 50 139l45 51q24 27 24 66v2z" />
    <glyph glyph-name="Agrave" unicode="&#xc0;" horiz-adv-x="386" 
d="M105 843h63q36 0 50 -31l25 -53q6 -14 -1.5 -26.5t-26.5 -12.5h-47q-30 0 -45 18l-45 56q-14 18 -6 33.5t33 15.5zM158 229h49l-24 273zM353 0h-93q-33 0 -36 33l-5 54h-73l-5 -54q-3 -33 -36 -33h-73q-41 0 -35 41l82 628q4 31 36 31h156q32 0 35 -31l83 -628
q6 -41 -36 -41z" />
    <glyph glyph-name="Aacute" unicode="&#xc1;" horiz-adv-x="386" 
d="M283 843q25 0 33 -15.5t-6 -33.5l-45 -56q-15 -18 -45 -18h-47q-19 0 -26.5 12.5t-1.5 26.5l25 53q14 31 50 31h63zM158 229h49l-24 273zM353 0h-93q-33 0 -36 33l-5 54h-73l-5 -54q-3 -33 -36 -33h-73q-41 0 -35 41l82 628q4 31 36 31h156q32 0 35 -31l83 -628
q6 -41 -36 -41z" />
    <glyph glyph-name="Acircumflex" unicode="&#xc2;" horiz-adv-x="386" 
d="M157 851h74q32 0 48 -27l41 -67q6 -11 0 -21.5t-21 -10.5h-45q-22 0 -35 14l-25 31l-25 -31q-13 -14 -35 -14h-45q-15 0 -21 10.5t0 21.5l41 67q16 27 48 27zM158 229h49l-24 273zM353 0h-93q-33 0 -36 33l-5 54h-73l-5 -54q-3 -33 -36 -33h-73q-41 0 -35 41l82 628
q4 31 36 31h156q32 0 35 -31l83 -628q6 -41 -36 -41z" />
    <glyph glyph-name="Atilde" unicode="&#xc3;" horiz-adv-x="386" 
d="M52 786q0 62 60 62h15q33 0 62 -17l24 -14q18 -10 21 -10q7 0 7 7v4q0 30 31 30h33q31 0 31 -31v-30q0 -62 -60 -62h-15q-33 0 -62 17l-24 14q-18 10 -21 10q-7 0 -7 -7v-4q0 -30 -31 -30h-33q-31 0 -31 31v30zM158 229h49l-24 273zM353 0h-93q-33 0 -36 33l-5 54h-73
l-5 -54q-3 -33 -36 -33h-73q-41 0 -35 41l82 628q4 31 36 31h156q32 0 35 -31l83 -628q6 -41 -36 -41z" />
    <glyph glyph-name="Adieresis" unicode="&#xc4;" horiz-adv-x="386" 
d="M98 843h50q36 0 36 -36v-51q0 -36 -36 -36h-50q-36 0 -36 36v51q0 36 36 36zM290 720h-50q-36 0 -36 36v51q0 36 36 36h50q36 0 36 -36v-51q0 -36 -36 -36zM158 229h49l-24 273zM353 0h-93q-33 0 -36 33l-5 54h-73l-5 -54q-3 -33 -36 -33h-73q-41 0 -35 41l82 628
q4 31 36 31h156q32 0 35 -31l83 -628q6 -41 -36 -41z" />
    <glyph glyph-name="Aring" unicode="&#xc5;" horiz-adv-x="386" 
d="M241 761h-96q-50 0 -50 -43q0 -44 50 -44h96q50 0 50 42v3q0 42 -50 42zM158 229h49l-24 273zM141 33q-3 -33 -36 -33h-73q-41 0 -35 41l83 634q-12 17 -12 43q0 67 77 67h96q77 0 77 -65v-5q0 -25 -13 -41l84 -633q6 -41 -36 -41h-93q-33 0 -36 33l-5 54h-73z" />
    <glyph glyph-name="AE" unicode="&#xc6;" horiz-adv-x="518" 
d="M168 229h43v320zM477 0h-230q-36 0 -36 36v51h-58l-8 -56q-4 -31 -35 -31h-73q-43 0 -36 42l105 628q6 30 35 30h334q36 0 36 -36v-73q0 -36 -36 -36h-94v-128h89q36 0 36 -36v-73q0 -36 -36 -36h-89v-137h96q36 0 36 -36v-73q0 -36 -36 -36z" />
    <glyph glyph-name="Ccedilla" unicode="&#xc7;" horiz-adv-x="402" 
d="M242 -84q-8 -37 -47 -37h-51q-22 0 -31.5 14.5t0.5 36.5l31 65q-131 7 -131 149v412q0 150 150 150h76q148 0 148 -150v-133q0 -36 -36 -36h-96q-36 0 -36 36v130q0 13 -18 13t-18 -13v-406q0 -13 13 -13h12q13 0 13 13v151q0 36 36 36h96q36 0 36 -36v-154
q0 -140 -131 -149z" />
    <glyph glyph-name="Egrave" unicode="&#xc8;" horiz-adv-x="322" 
d="M77 843h63q36 0 50 -31l25 -53q6 -14 -1.5 -26.5t-26.5 -12.5h-47q-30 0 -45 18l-45 56q-14 18 -6 33.5t33 15.5zM15 36v628q0 36 36 36h228q36 0 36 -36v-73q0 -36 -36 -36h-94v-128h89q36 0 36 -36v-73q0 -36 -36 -36h-89v-137h96q36 0 36 -36v-73q0 -36 -36 -36h-230
q-36 0 -36 36z" />
    <glyph glyph-name="Eacute" unicode="&#xc9;" horiz-adv-x="322" 
d="M255 843q25 0 33 -15.5t-6 -33.5l-45 -56q-15 -18 -45 -18h-47q-19 0 -26.5 12.5t-1.5 26.5l25 53q14 31 50 31h63zM15 36v628q0 36 36 36h228q36 0 36 -36v-73q0 -36 -36 -36h-94v-128h89q36 0 36 -36v-73q0 -36 -36 -36h-89v-137h96q36 0 36 -36v-73q0 -36 -36 -36
h-230q-36 0 -36 36z" />
    <glyph glyph-name="Ecircumflex" unicode="&#xca;" horiz-adv-x="322" 
d="M129 851h74q32 0 48 -27l41 -67q6 -11 0 -21.5t-21 -10.5h-45q-22 0 -35 14l-25 31l-25 -31q-13 -14 -35 -14h-45q-15 0 -21 10.5t0 21.5l41 67q16 27 48 27zM15 36v628q0 36 36 36h228q36 0 36 -36v-73q0 -36 -36 -36h-94v-128h89q36 0 36 -36v-73q0 -36 -36 -36h-89
v-137h96q36 0 36 -36v-73q0 -36 -36 -36h-230q-36 0 -36 36z" />
    <glyph glyph-name="Edieresis" unicode="&#xcb;" horiz-adv-x="322" 
d="M70 843h50q36 0 36 -36v-51q0 -36 -36 -36h-50q-36 0 -36 36v51q0 36 36 36zM262 720h-50q-36 0 -36 36v51q0 36 36 36h50q36 0 36 -36v-51q0 -36 -36 -36zM15 36v628q0 36 36 36h228q36 0 36 -36v-73q0 -36 -36 -36h-94v-128h89q36 0 36 -36v-73q0 -36 -36 -36h-89v-137
h96q36 0 36 -36v-73q0 -36 -36 -36h-230q-36 0 -36 36z" />
    <glyph glyph-name="Igrave" unicode="&#xcc;" horiz-adv-x="202" 
d="M12 843h63q36 0 50 -31l25 -53q6 -14 -1.5 -26.5t-26.5 -12.5h-47q-30 0 -45 18l-45 56q-14 18 -6 33.5t33 15.5zM52 700h98q36 0 36 -36v-628q0 -36 -36 -36h-98q-36 0 -36 36v628q0 36 36 36z" />
    <glyph glyph-name="Iacute" unicode="&#xcd;" horiz-adv-x="202" 
d="M190 843q25 0 33 -15.5t-6 -33.5l-45 -56q-15 -18 -45 -18h-47q-19 0 -26.5 12.5t-1.5 26.5l25 53q14 31 50 31h63zM52 700h98q36 0 36 -36v-628q0 -36 -36 -36h-98q-36 0 -36 36v628q0 36 36 36z" />
    <glyph glyph-name="Icircumflex" unicode="&#xce;" horiz-adv-x="202" 
d="M64 851h74q32 0 48 -27l41 -67q6 -11 0 -21.5t-21 -10.5h-45q-22 0 -35 14l-25 31l-25 -31q-13 -14 -35 -14h-45q-15 0 -21 10.5t0 21.5l41 67q16 27 48 27zM52 700h98q36 0 36 -36v-628q0 -36 -36 -36h-98q-36 0 -36 36v628q0 36 36 36z" />
    <glyph glyph-name="Idieresis" unicode="&#xcf;" horiz-adv-x="202" 
d="M5 843h50q36 0 36 -36v-51q0 -36 -36 -36h-50q-36 0 -36 36v51q0 36 36 36zM197 720h-50q-36 0 -36 36v51q0 36 36 36h50q36 0 36 -36v-51q0 -36 -36 -36zM52 700h98q36 0 36 -36v-628q0 -36 -36 -36h-98q-36 0 -36 36v628q0 36 36 36z" />
    <glyph glyph-name="Eth" unicode="&#xd0;" horiz-adv-x="425" 
d="M242 0h-171q-36 0 -36 36v254q-35 0 -35 36v58q0 36 35 36v244q0 36 36 36h171q170 0 170 -170v-360q0 -170 -170 -170zM205 140h18q19 0 19 20v381q0 19 -19 19h-18v-141q23 -6 23 -35v-58q0 -29 -23 -35v-151z" />
    <glyph glyph-name="Ntilde" unicode="&#xd1;" horiz-adv-x="392" 
d="M54 786q0 62 60 62h15q33 0 62 -17l24 -14q18 -10 21 -10q7 0 7 7v4q0 30 31 30h33q31 0 31 -31v-30q0 -62 -60 -62h-15q-33 0 -62 17l-24 14q-18 10 -21 10q-7 0 -7 -7v-4q0 -30 -31 -30h-33q-31 0 -31 31v30zM341 0h-92q-28 0 -35 28l-61 255l2 -247q0 -36 -36 -36h-68
q-36 0 -36 36v628q0 36 36 36h98q29 0 36 -28l52 -224v216q0 36 36 36h68q36 0 36 -36v-628q0 -36 -36 -36z" />
    <glyph glyph-name="Ograve" unicode="&#xd2;" horiz-adv-x="406" 
d="M114 843h63q36 0 50 -31l25 -53q6 -14 -1.5 -26.5t-26.5 -12.5h-47q-30 0 -45 18l-45 56q-14 18 -6 33.5t33 15.5zM393 556v-412q0 -150 -150 -150h-80q-150 0 -150 150v412q0 150 150 150h80q150 0 150 -150zM223 147v406q0 13 -13 13h-14q-13 0 -13 -13v-406
q0 -13 13 -13h14q13 0 13 13z" />
    <glyph glyph-name="Oacute" unicode="&#xd3;" horiz-adv-x="406" 
d="M292 843q25 0 33 -15.5t-6 -33.5l-45 -56q-15 -18 -45 -18h-47q-19 0 -26.5 12.5t-1.5 26.5l25 53q14 31 50 31h63zM393 556v-412q0 -150 -150 -150h-80q-150 0 -150 150v412q0 150 150 150h80q150 0 150 -150zM223 147v406q0 13 -13 13h-14q-13 0 -13 -13v-406
q0 -13 13 -13h14q13 0 13 13z" />
    <glyph glyph-name="Ocircumflex" unicode="&#xd4;" horiz-adv-x="406" 
d="M166 851h74q32 0 48 -27l41 -67q6 -11 0 -21.5t-21 -10.5h-45q-22 0 -35 14l-25 31l-25 -31q-13 -14 -35 -14h-45q-15 0 -21 10.5t0 21.5l41 67q16 27 48 27zM393 556v-412q0 -150 -150 -150h-80q-150 0 -150 150v412q0 150 150 150h80q150 0 150 -150zM223 147v406
q0 13 -13 13h-14q-13 0 -13 -13v-406q0 -13 13 -13h14q13 0 13 13z" />
    <glyph glyph-name="Otilde" unicode="&#xd5;" horiz-adv-x="406" 
d="M61 786q0 62 60 62h15q33 0 62 -17l24 -14q18 -10 21 -10q7 0 7 7v4q0 30 31 30h33q31 0 31 -31v-30q0 -62 -60 -62h-15q-33 0 -62 17l-24 14q-18 10 -21 10q-7 0 -7 -7v-4q0 -30 -31 -30h-33q-31 0 -31 31v30zM393 556v-412q0 -150 -150 -150h-80q-150 0 -150 150v412
q0 150 150 150h80q150 0 150 -150zM223 147v406q0 13 -13 13h-14q-13 0 -13 -13v-406q0 -13 13 -13h14q13 0 13 13z" />
    <glyph glyph-name="Odieresis" unicode="&#xd6;" horiz-adv-x="406" 
d="M107 843h50q36 0 36 -36v-51q0 -36 -36 -36h-50q-36 0 -36 36v51q0 36 36 36zM299 720h-50q-36 0 -36 36v51q0 36 36 36h50q36 0 36 -36v-51q0 -36 -36 -36zM393 556v-412q0 -150 -150 -150h-80q-150 0 -150 150v412q0 150 150 150h80q150 0 150 -150zM223 147v406
q0 13 -13 13h-14q-13 0 -13 -13v-406q0 -13 13 -13h14q13 0 13 13z" />
    <glyph glyph-name="multiply" unicode="&#xd7;" horiz-adv-x="344" 
d="M310 250l-36 -36q-25 -25 -50 0l-54 54l-54 -54q-25 -25 -50 0l-33 33q-25 25 0 50l54 54l-53 53q-26 26 0 51l36 36q25 25 50 0l54 -54l54 54q25 25 50 0l33 -33q25 -25 0 -50l-54 -54l53 -53q26 -26 0 -51z" />
    <glyph glyph-name="Oslash" unicode="&#xd8;" horiz-adv-x="406" 
d="M393 556v-412q0 -150 -150 -150h-80q-150 0 -150 150v412q0 150 150 150h80q150 0 150 -150zM195 567q-13 0 -13 -13l-3 -221l45 191v30q0 13 -13 13h-16zM182 146q0 -13 13 -13h16q13 0 13 13l3 221l-45 -191v-30z" />
    <glyph glyph-name="Ugrave" unicode="&#xd9;" horiz-adv-x="404" 
d="M113 843h63q36 0 50 -31l25 -53q6 -14 -1.5 -26.5t-26.5 -12.5h-47q-30 0 -45 18l-45 56q-14 18 -6 33.5t33 15.5zM256 700h98q36 0 36 -36v-520q0 -150 -150 -150h-76q-150 0 -150 150v520q0 36 36 36h98q36 0 36 -36v-517q0 -13 18 -13t18 13v517q0 36 36 36z" />
    <glyph glyph-name="Uacute" unicode="&#xda;" horiz-adv-x="404" 
d="M291 843q25 0 33 -15.5t-6 -33.5l-45 -56q-15 -18 -45 -18h-47q-19 0 -26.5 12.5t-1.5 26.5l25 53q14 31 50 31h63zM256 700h98q36 0 36 -36v-520q0 -150 -150 -150h-76q-150 0 -150 150v520q0 36 36 36h98q36 0 36 -36v-517q0 -13 18 -13t18 13v517q0 36 36 36z" />
    <glyph glyph-name="Ucircumflex" unicode="&#xdb;" horiz-adv-x="404" 
d="M165 851h74q32 0 48 -27l41 -67q6 -11 0 -21.5t-21 -10.5h-45q-22 0 -35 14l-25 31l-25 -31q-13 -14 -35 -14h-45q-15 0 -21 10.5t0 21.5l41 67q16 27 48 27zM256 700h98q36 0 36 -36v-520q0 -150 -150 -150h-76q-150 0 -150 150v520q0 36 36 36h98q36 0 36 -36v-517
q0 -13 18 -13t18 13v517q0 36 36 36z" />
    <glyph glyph-name="Udieresis" unicode="&#xdc;" horiz-adv-x="404" 
d="M106 843h50q36 0 36 -36v-51q0 -36 -36 -36h-50q-36 0 -36 36v51q0 36 36 36zM298 720h-50q-36 0 -36 36v51q0 36 36 36h50q36 0 36 -36v-51q0 -36 -36 -36zM256 700h98q36 0 36 -36v-520q0 -150 -150 -150h-76q-150 0 -150 150v520q0 36 36 36h98q36 0 36 -36v-517
q0 -13 18 -13t18 13v517q0 36 36 36z" />
    <glyph glyph-name="Yacute" unicode="&#xdd;" horiz-adv-x="370" 
d="M285 843q25 0 33 -15.5t-6 -33.5l-45 -56q-15 -18 -45 -18h-47q-19 0 -26.5 12.5t-1.5 26.5l25 53q14 31 50 31h63zM270 253v-217q0 -36 -36 -36h-98q-36 0 -36 36v206l-102 413q-10 45 35 45h99q32 0 36 -31l27 -179l30 180q6 30 36 30h76q47 0 35 -45z" />
    <glyph glyph-name="Thorn" unicode="&#xde;" horiz-adv-x="394" 
d="M237 119h-52v-83q0 -36 -36 -36h-98q-36 0 -36 36v628q0 36 36 36h98q36 0 36 -36v-78h52q150 0 150 -150v-167q0 -150 -150 -150zM220 272v161q0 13 -13 13h-22v-187h22q13 0 13 13z" />
    <glyph glyph-name="germandbls" unicode="&#xdf;" horiz-adv-x="383" 
d="M311 368q35 -15 47.5 -37.5t12.5 -69.5v-123q0 -138 -138 -138h-25q-26 0 -26 24v91q0 19 17 19h4q12 0 12 12v135q0 13 -13 13h-3q-17 0 -17 17v99q0 19 17 19h1q13 0 13 13v118q0 16 -15 16h-15q-15 0 -15 -16v-524q0 -36 -36 -36h-84q-36 0 -36 36v526q0 148 148 148
h61q148 0 148 -148v-73q0 -52 -13 -78t-45 -43z" />
    <glyph glyph-name="agrave" unicode="&#xe0;" horiz-adv-x="364" 
d="M98 733h72q22 0 32.5 -8.5t16.5 -28.5l22 -66q5 -16 -4 -28t-27 -12h-43q-35 0 -50 23l-45 70q-13 19 -5 34.5t31 15.5zM160 139q0 -15 16 -15q9 0 18 3v114l-17 -8q-17 -9 -17 -30v-64zM196 34v3q-41 -43 -100 -43q-86 0 -86 94v129q0 48 17 71.5t65 40.5l102 37v69
q0 11 -15 11q-16 0 -16 -11v-37q0 -31 -30 -31h-82q-35 0 -35 35v42q0 132 132 132h72q132 0 132 -132v-408q0 -36 -36 -36h-86q-34 0 -34 34z" />
    <glyph glyph-name="aacute" unicode="&#xe1;" horiz-adv-x="364" 
d="M282 733q23 0 31 -15.5t-5 -34.5l-45 -70q-15 -23 -50 -23h-43q-18 0 -27 12t-4 28l22 66q6 20 16.5 28.5t32.5 8.5h72zM160 139q0 -15 16 -15q9 0 18 3v114l-17 -8q-17 -9 -17 -30v-64zM196 34v3q-41 -43 -100 -43q-86 0 -86 94v129q0 48 17 71.5t65 40.5l102 37v69
q0 11 -15 11q-16 0 -16 -11v-37q0 -31 -30 -31h-82q-35 0 -35 35v42q0 132 132 132h72q132 0 132 -132v-408q0 -36 -36 -36h-86q-34 0 -34 34z" />
    <glyph glyph-name="acircumflex" unicode="&#xe2;" horiz-adv-x="364" 
d="M160 738h60q36 0 55 -34l36 -64q10 -20 2.5 -32.5t-25.5 -12.5h-26q-34 0 -51 25l-21 31l-21 -31q-17 -25 -51 -25h-26q-19 0 -26 12.5t3 32.5l36 64q19 34 55 34zM160 139q0 -15 16 -15q9 0 18 3v114l-17 -8q-17 -9 -17 -30v-64zM196 34v3q-41 -43 -100 -43
q-86 0 -86 94v129q0 48 17 71.5t65 40.5l102 37v69q0 11 -15 11q-16 0 -16 -11v-37q0 -31 -30 -31h-82q-35 0 -35 35v42q0 132 132 132h72q132 0 132 -132v-408q0 -36 -36 -36h-86q-34 0 -34 34z" />
    <glyph glyph-name="atilde" unicode="&#xe3;" horiz-adv-x="364" 
d="M50 666q0 62 62 62h11q38 0 66 -20l20 -14q14 -9 17 -9q9 0 9 12q0 31 34 31h27q34 0 34 -31v-40q0 -62 -62 -62h-11q-38 0 -66 20l-20 14q-13 9 -17 9q-9 0 -9 -12q0 -31 -34 -31h-27q-34 0 -34 31v40zM160 139q0 -15 16 -15q9 0 18 3v114l-17 -8q-17 -9 -17 -30v-64z
M196 34v3q-41 -43 -100 -43q-86 0 -86 94v129q0 48 17 71.5t65 40.5l102 37v69q0 11 -15 11q-16 0 -16 -11v-37q0 -31 -30 -31h-82q-35 0 -35 35v42q0 132 132 132h72q132 0 132 -132v-408q0 -36 -36 -36h-86q-34 0 -34 34z" />
    <glyph glyph-name="adieresis" unicode="&#xe4;" horiz-adv-x="364" 
d="M96 733h48q36 0 36 -36v-71q0 -36 -36 -36h-48q-36 0 -36 36v71q0 36 36 36zM284 590h-48q-36 0 -36 36v71q0 36 36 36h48q36 0 36 -36v-71q0 -36 -36 -36zM160 139q0 -15 16 -15q9 0 18 3v114l-17 -8q-17 -9 -17 -30v-64zM196 34v3q-41 -43 -100 -43q-86 0 -86 94v129
q0 48 17 71.5t65 40.5l102 37v69q0 11 -15 11q-16 0 -16 -11v-37q0 -31 -30 -31h-82q-35 0 -35 35v42q0 132 132 132h72q132 0 132 -132v-408q0 -36 -36 -36h-86q-34 0 -34 34z" />
    <glyph glyph-name="aring" unicode="&#xe5;" horiz-adv-x="364" 
d="M216 731q77 0 77 -65v-9q0 -65 -77 -65h-52q-77 0 -77 70q0 69 77 69h52zM216 614q52 0 52 43v9q0 43 -52 43h-52q-52 0 -52 -47q0 -48 52 -48h52zM160 139q0 -15 16 -15q9 0 18 3v114l-17 -8q-17 -9 -17 -30v-64zM196 34v3q-41 -43 -100 -43q-86 0 -86 94v129
q0 48 17 71.5t65 40.5l102 37v69q0 11 -15 11q-16 0 -16 -11v-37q0 -31 -30 -31h-82q-35 0 -35 35v42q0 132 132 132h72q132 0 132 -132v-408q0 -36 -36 -36h-86q-34 0 -34 34z" />
    <glyph glyph-name="ae" unicode="&#xe6;" horiz-adv-x="552" 
d="M540 171v-39q0 -138 -138 -138h-70q-81 0 -114 46l-12 -8q-57 -38 -110 -38q-86 0 -86 94v129q0 48 17 71.5t65 40.5l102 37v69q0 11 -15 11q-16 0 -16 -11v-37q0 -31 -30 -31h-82q-35 0 -35 35v42q0 132 132 132h29q64 0 96 -34q30 34 96 34h33q138 0 138 -138v-180
q0 -36 -36 -36h-152v-86q0 -11 11 -11h12q11 0 11 11v37q0 33 33 33h86q35 0 35 -35zM368 445q-16 0 -16 -11v-93h32v93q0 11 -16 11zM160 139q0 -15 16 -15q9 0 18 3v114l-17 -8q-17 -9 -17 -30v-64z" />
    <glyph glyph-name="ccedilla" unicode="&#xe7;" horiz-adv-x="371" 
d="M229 -85q-8 -37 -47 -37h-51q-22 0 -31.5 14t0.5 37l32 66q-120 7 -120 137v306q0 138 138 138h72q138 0 138 -138v-84q0 -36 -36 -36h-84q-36 0 -36 36v77q0 11 -16 11t-16 -11v-292q0 -11 16 -11t16 11v85q0 36 36 36h84q36 0 36 -36v-92q0 -125 -115 -137z" />
    <glyph glyph-name="egrave" unicode="&#xe8;" horiz-adv-x="370" 
d="M93 733h72q22 0 32.5 -8.5t16.5 -28.5l22 -66q5 -16 -4 -28t-27 -12h-43q-35 0 -50 23l-45 70q-13 19 -5 34.5t31 15.5zM358 172v-40q0 -138 -138 -138h-70q-138 0 -138 138v306q0 138 138 138h70q138 0 138 -138v-180q0 -36 -36 -36h-152v-86q0 -11 11 -11h12
q11 0 11 11v38q0 33 33 33h86q35 0 35 -35zM186 445q-16 0 -16 -11v-93h32v93q0 11 -16 11z" />
    <glyph glyph-name="eacute" unicode="&#xe9;" horiz-adv-x="370" 
d="M277 733q23 0 31 -15.5t-5 -34.5l-45 -70q-15 -23 -50 -23h-43q-18 0 -27 12t-4 28l22 66q6 20 16.5 28.5t32.5 8.5h72zM358 172v-40q0 -138 -138 -138h-70q-138 0 -138 138v306q0 138 138 138h70q138 0 138 -138v-180q0 -36 -36 -36h-152v-86q0 -11 11 -11h12
q11 0 11 11v38q0 33 33 33h86q35 0 35 -35zM186 445q-16 0 -16 -11v-93h32v93q0 11 -16 11z" />
    <glyph glyph-name="ecircumflex" unicode="&#xea;" horiz-adv-x="370" 
d="M155 738h60q36 0 55 -34l36 -64q10 -20 2.5 -32.5t-25.5 -12.5h-26q-34 0 -51 25l-21 31l-21 -31q-17 -25 -51 -25h-26q-19 0 -26 12.5t3 32.5l36 64q19 34 55 34zM358 172v-40q0 -138 -138 -138h-70q-138 0 -138 138v306q0 138 138 138h70q138 0 138 -138v-180
q0 -36 -36 -36h-152v-86q0 -11 11 -11h12q11 0 11 11v38q0 33 33 33h86q35 0 35 -35zM186 445q-16 0 -16 -11v-93h32v93q0 11 -16 11z" />
    <glyph glyph-name="edieresis" unicode="&#xeb;" horiz-adv-x="370" 
d="M91 733h48q36 0 36 -36v-71q0 -36 -36 -36h-48q-36 0 -36 36v71q0 36 36 36zM279 590h-48q-36 0 -36 36v71q0 36 36 36h48q36 0 36 -36v-71q0 -36 -36 -36zM358 172v-40q0 -138 -138 -138h-70q-138 0 -138 138v306q0 138 138 138h70q138 0 138 -138v-180q0 -36 -36 -36
h-152v-86q0 -11 11 -11h12q11 0 11 11v38q0 33 33 33h86q35 0 35 -35zM186 445q-16 0 -16 -11v-93h32v93q0 11 -16 11z" />
    <glyph glyph-name="igrave" unicode="&#xec;" horiz-adv-x="186" 
d="M1 733h72q22 0 32.5 -8.5t16.5 -28.5l22 -66q5 -16 -4 -28t-27 -12h-43q-35 0 -50 23l-45 70q-13 19 -5 34.5t31 15.5zM137 0h-88q-36 0 -36 36v498q0 36 36 36h88q36 0 36 -36v-498q0 -36 -36 -36z" />
    <glyph glyph-name="iacute" unicode="&#xed;" horiz-adv-x="186" 
d="M185 733q23 0 31 -15.5t-5 -34.5l-45 -70q-15 -23 -50 -23h-43q-18 0 -27 12t-4 28l22 66q6 20 16.5 28.5t32.5 8.5h72zM137 0h-88q-36 0 -36 36v498q0 36 36 36h88q36 0 36 -36v-498q0 -36 -36 -36z" />
    <glyph glyph-name="icircumflex" unicode="&#xee;" horiz-adv-x="186" 
d="M63 738h60q36 0 55 -34l36 -64q10 -20 2.5 -32.5t-25.5 -12.5h-26q-34 0 -51 25l-21 31l-21 -31q-17 -25 -51 -25h-26q-19 0 -26 12.5t3 32.5l36 64q19 34 55 34zM137 0h-88q-36 0 -36 36v498q0 36 36 36h88q36 0 36 -36v-498q0 -36 -36 -36z" />
    <glyph glyph-name="idieresis" unicode="&#xef;" horiz-adv-x="186" 
d="M-1 733h48q36 0 36 -36v-71q0 -36 -36 -36h-48q-36 0 -36 36v71q0 36 36 36zM187 590h-48q-36 0 -36 36v71q0 36 36 36h48q36 0 36 -36v-71q0 -36 -36 -36zM137 0h-88q-36 0 -36 36v498q0 36 36 36h88q36 0 36 -36v-498q0 -36 -36 -36z" />
    <glyph glyph-name="eth" unicode="&#xf0;" 
d="M364 550v-418q0 -138 -138 -138h-76q-138 0 -138 138v321q0 105 94 105q64 0 110 -51v17q0 18 -7.5 26t-26.5 16l-43 18q-14 6 -19 19.5t2 27.5l26 53q15 30 46 16l41 -18l20 35q13 24 39 12l30 -14q27 -12 12 -40l-18 -32q46 -28 46 -93zM204 427q0 11 -11 11h-10
q-11 0 -11 -11v-288q0 -11 16 -11t16 11v288z" />
    <glyph glyph-name="ntilde" unicode="&#xf1;" 
d="M48 666q0 62 62 62h11q38 0 66 -20l20 -14q13 -9 17 -9q9 0 9 12q0 31 34 31h27q34 0 34 -31v-40q0 -62 -62 -62h-11q-38 0 -66 20l-20 14q-13 9 -17 9q-9 0 -9 -12q0 -31 -34 -31h-27q-34 0 -34 31v40zM172 36q0 -36 -36 -36h-88q-36 0 -36 36v498q0 36 36 36h86
q36 0 36 -33q55 39 101 39q45 0 69 -27t24 -78v-435q0 -36 -36 -36h-88q-36 0 -36 36v387q0 15 -15 15q-8 0 -17 -3v-399z" />
    <glyph glyph-name="ograve" unicode="&#xf2;" 
d="M96 733h72q22 0 32.5 -8.5t16.5 -28.5l22 -66q5 -16 -4 -28t-27 -12h-43q-35 0 -50 23l-45 70q-13 19 -5 34.5t31 15.5zM364 132q0 -138 -138 -138h-76q-138 0 -138 138v306q0 138 138 138h76q138 0 138 -138v-306zM204 431q0 11 -11 11h-10q-11 0 -11 -11v-292
q0 -11 16 -11t16 11v292z" />
    <glyph glyph-name="oacute" unicode="&#xf3;" 
d="M280 733q23 0 31 -15.5t-5 -34.5l-45 -70q-15 -23 -50 -23h-43q-18 0 -27 12t-4 28l22 66q6 20 16.5 28.5t32.5 8.5h72zM364 132q0 -138 -138 -138h-76q-138 0 -138 138v306q0 138 138 138h76q138 0 138 -138v-306zM204 431q0 11 -11 11h-10q-11 0 -11 -11v-292
q0 -11 16 -11t16 11v292z" />
    <glyph glyph-name="ocircumflex" unicode="&#xf4;" 
d="M158 738h60q36 0 55 -34l36 -64q10 -20 2.5 -32.5t-25.5 -12.5h-26q-34 0 -51 25l-21 31l-21 -31q-17 -25 -51 -25h-26q-19 0 -26 12.5t3 32.5l36 64q19 34 55 34zM364 132q0 -138 -138 -138h-76q-138 0 -138 138v306q0 138 138 138h76q138 0 138 -138v-306zM204 431
q0 11 -11 11h-10q-11 0 -11 -11v-292q0 -11 16 -11t16 11v292z" />
    <glyph glyph-name="otilde" unicode="&#xf5;" 
d="M48 666q0 62 62 62h11q38 0 66 -20l20 -14q13 -9 17 -9q9 0 9 12q0 31 34 31h27q34 0 34 -31v-40q0 -62 -62 -62h-11q-38 0 -66 20l-20 14q-13 9 -17 9q-9 0 -9 -12q0 -31 -34 -31h-27q-34 0 -34 31v40zM364 132q0 -138 -138 -138h-76q-138 0 -138 138v306q0 138 138 138
h76q138 0 138 -138v-306zM204 431q0 11 -11 11h-10q-11 0 -11 -11v-292q0 -11 16 -11t16 11v292z" />
    <glyph glyph-name="odieresis" unicode="&#xf6;" 
d="M94 733h48q36 0 36 -36v-71q0 -36 -36 -36h-48q-36 0 -36 36v71q0 36 36 36zM282 590h-48q-36 0 -36 36v71q0 36 36 36h48q36 0 36 -36v-71q0 -36 -36 -36zM364 132q0 -138 -138 -138h-76q-138 0 -138 138v306q0 138 138 138h76q138 0 138 -138v-306zM204 431
q0 11 -11 11h-10q-11 0 -11 -11v-292q0 -11 16 -11t16 11v292z" />
    <glyph glyph-name="divide" unicode="&#xf7;" horiz-adv-x="334" 
d="M190 433h-46q-36 0 -36 36v36q0 36 36 36h46q36 0 36 -36v-36q0 -36 -36 -36zM6 330v45q0 36 36 36h250q36 0 36 -36v-45q0 -36 -36 -36h-250q-36 0 -36 36zM190 164h-46q-36 0 -36 36v36q0 36 36 36h46q36 0 36 -36v-36q0 -36 -36 -36z" />
    <glyph glyph-name="oslash" unicode="&#xf8;" 
d="M364 132q0 -138 -138 -138h-76q-138 0 -138 138v306q0 138 138 138h76q138 0 138 -138v-306zM182 443q-11 0 -11 -11l-3 -154l37 135v19q0 11 -11 11h-12zM171 138q0 -11 11 -11h12q11 0 11 11l3 154l-37 -134v-20z" />
    <glyph glyph-name="ugrave" unicode="&#xf9;" 
d="M96 733h72q22 0 32.5 -8.5t16.5 -28.5l22 -66q5 -16 -4 -28t-27 -12h-43q-35 0 -50 23l-45 70q-13 19 -5 34.5t31 15.5zM206 34q-50 -40 -101 -40q-45 0 -69 27t-24 78v435q0 36 36 36h88q36 0 36 -36v-387q0 -15 15 -15q8 0 17 3v399q0 36 36 36h88q36 0 36 -36v-498
q0 -36 -36 -36h-86q-35 0 -36 34z" />
    <glyph glyph-name="uacute" unicode="&#xfa;" 
d="M280 733q23 0 31 -15.5t-5 -34.5l-45 -70q-15 -23 -50 -23h-43q-18 0 -27 12t-4 28l22 66q6 20 16.5 28.5t32.5 8.5h72zM206 34q-50 -40 -101 -40q-45 0 -69 27t-24 78v435q0 36 36 36h88q36 0 36 -36v-387q0 -15 15 -15q8 0 17 3v399q0 36 36 36h88q36 0 36 -36v-498
q0 -36 -36 -36h-86q-35 0 -36 34z" />
    <glyph glyph-name="ucircumflex" unicode="&#xfb;" 
d="M158 738h60q36 0 55 -34l36 -64q10 -20 2.5 -32.5t-25.5 -12.5h-26q-34 0 -51 25l-21 31l-21 -31q-17 -25 -51 -25h-26q-19 0 -26 12.5t3 32.5l36 64q19 34 55 34zM206 34q-50 -40 -101 -40q-45 0 -69 27t-24 78v435q0 36 36 36h88q36 0 36 -36v-387q0 -15 15 -15
q8 0 17 3v399q0 36 36 36h88q36 0 36 -36v-498q0 -36 -36 -36h-86q-35 0 -36 34z" />
    <glyph glyph-name="udieresis" unicode="&#xfc;" 
d="M94 733h48q36 0 36 -36v-71q0 -36 -36 -36h-48q-36 0 -36 36v71q0 36 36 36zM282 590h-48q-36 0 -36 36v71q0 36 36 36h48q36 0 36 -36v-71q0 -36 -36 -36zM206 34q-50 -40 -101 -40q-45 0 -69 27t-24 78v435q0 36 36 36h88q36 0 36 -36v-387q0 -15 15 -15q8 0 17 3v399
q0 36 36 36h88q36 0 36 -36v-498q0 -36 -36 -36h-86q-35 0 -36 34z" />
    <glyph glyph-name="yacute" unicode="&#xfd;" horiz-adv-x="363" 
d="M277 733q23 0 31 -15.5t-5 -34.5l-45 -70q-15 -23 -50 -23h-43q-18 0 -27 12t-4 28l22 66q6 20 16.5 28.5t32.5 8.5h72zM365 527l-128 -608q-7 -29 -35 -29h-82q-45 0 -36 44l18 78l-105 515q-7 43 36 43h88q32 0 36 -32l11 -88q7 -59 16 -194q11 139 17 194l11 88
q4 32 36 32h81q45 0 36 -43z" />
    <glyph glyph-name="thorn" unicode="&#xfe;" 
d="M189 438q-8 0 -17 -3v-300q9 -3 17 -3q15 0 15 15v276q0 15 -15 15zM12 -74v748q0 36 36 36h88q36 0 36 -36v-137q49 39 99 39q45 0 69 -27t24 -78v-372q0 -51 -24 -78t-69 -27q-49 0 -99 37v-105q0 -36 -36 -36h-88q-36 0 -36 36z" />
    <glyph glyph-name="ydieresis" unicode="&#xff;" horiz-adv-x="363" 
d="M91 733h48q36 0 36 -36v-71q0 -36 -36 -36h-48q-36 0 -36 36v71q0 36 36 36zM279 590h-48q-36 0 -36 36v71q0 36 36 36h48q36 0 36 -36v-71q0 -36 -36 -36zM365 527l-128 -608q-7 -29 -35 -29h-82q-45 0 -36 44l18 78l-105 515q-7 43 36 43h88q32 0 36 -32l11 -88
q7 -59 16 -194q11 139 17 194l11 88q4 32 36 32h81q45 0 36 -43z" />
    <glyph glyph-name="Amacron" unicode="&#x100;" horiz-adv-x="386" 
d="M62 768v24q0 36 36 36h192q36 0 36 -36v-24q0 -36 -36 -36h-192q-36 0 -36 36zM158 229h49l-24 273zM353 0h-93q-33 0 -36 33l-5 54h-73l-5 -54q-3 -33 -36 -33h-73q-41 0 -35 41l82 628q4 31 36 31h156q32 0 35 -31l83 -628q6 -41 -36 -41z" />
    <glyph glyph-name="amacron" unicode="&#x101;" horiz-adv-x="364" 
d="M58 638v34q0 36 36 36h192q36 0 36 -36v-34q0 -36 -36 -36h-192q-36 0 -36 36zM160 139q0 -15 16 -15q9 0 18 3v114l-17 -8q-17 -9 -17 -30v-64zM196 34v3q-41 -43 -100 -43q-86 0 -86 94v129q0 48 17 71.5t65 40.5l102 37v69q0 11 -15 11q-16 0 -16 -11v-37
q0 -31 -30 -31h-82q-35 0 -35 35v42q0 132 132 132h72q132 0 132 -132v-408q0 -36 -36 -36h-86q-34 0 -34 34z" />
    <glyph glyph-name="Abreve" unicode="&#x102;" horiz-adv-x="386" 
d="M164 722q-45 0 -72 26t-27 71v5q0 30 27 30h58q22 0 22 -24v-4q0 -19 19 -19h6q19 0 19 19v4q0 24 23 24h57q27 0 27 -30v-5q0 -45 -27 -71t-72 -26h-60zM158 229h49l-24 273zM353 0h-93q-33 0 -36 33l-5 54h-73l-5 -54q-3 -33 -36 -33h-73q-41 0 -35 41l82 628
q4 31 36 31h156q32 0 35 -31l83 -628q6 -41 -36 -41z" />
    <glyph glyph-name="abreve" unicode="&#x103;" horiz-adv-x="364" 
d="M166 592q-46 0 -74.5 26.5t-28.5 70.5v5q0 14 8 24t22 10h50q12 0 19.5 -8.5t7.5 -19.5v-1q0 -19 20 -19t20 19v1q0 11 7.5 19.5t20.5 8.5h49q14 0 22 -10t8 -24v-5q0 -44 -28.5 -70.5t-74.5 -26.5h-48zM160 139q0 -15 16 -15q9 0 18 3v114l-17 -8q-17 -9 -17 -30v-64z
M196 34v3q-41 -43 -100 -43q-86 0 -86 94v129q0 48 17 71.5t65 40.5l102 37v69q0 11 -15 11q-16 0 -16 -11v-37q0 -31 -30 -31h-82q-35 0 -35 35v42q0 132 132 132h72q132 0 132 -132v-408q0 -36 -36 -36h-86q-34 0 -34 34z" />
    <glyph glyph-name="Aogonek" unicode="&#x104;" horiz-adv-x="386" 
d="M352 -130h-44q-30 0 -47 15t-17 41v10q0 29 28 64h-12q-33 0 -36 33l-5 54h-73l-5 -54q-3 -33 -36 -33h-73q-41 0 -35 41l82 628q4 31 36 31h156q32 0 35 -31l83 -628q3 -21 -7 -34l-10 -13q-18 -22 -18 -30q0 -10 12 -10h1q29 0 29 -28v-20q0 -36 -44 -36zM158 229h49
l-24 273z" />
    <glyph glyph-name="aogonek" unicode="&#x105;" horiz-adv-x="364" 
d="M320 -130h-44q-30 0 -47 15t-17 41v10q0 28 22 64h-4q-34 0 -34 34v2q-42 -42 -100 -42q-86 0 -86 94v129q0 48 17 71.5t65 40.5l102 37v69q0 11 -15 11q-16 0 -16 -11v-37q0 -31 -30 -31h-82q-35 0 -35 35v42q0 132 132 132h72q132 0 132 -132v-408q0 -17 -7 -28
l-11 -18q-12 -21 -12 -26q0 -10 12 -10h1q29 0 29 -28v-20q0 -36 -44 -36zM160 139q0 -15 16 -15q9 0 18 3v114l-17 -8q-17 -9 -17 -30v-64z" />
    <glyph glyph-name="Cacute" unicode="&#x106;" horiz-adv-x="402" 
d="M290 843q25 0 33 -15.5t-6 -33.5l-45 -56q-15 -18 -45 -18h-47q-19 0 -26.5 12.5t-1.5 26.5l25 53q14 31 50 31h63zM221 147v151q0 36 36 36h96q36 0 36 -36v-154q0 -150 -150 -150h-76q-150 0 -150 150v412q0 150 150 150h76q148 0 148 -150v-133q0 -36 -36 -36h-96
q-36 0 -36 36v130q0 13 -18 13t-18 -13v-406q0 -13 13 -13h12q13 0 13 13z" />
    <glyph glyph-name="cacute" unicode="&#x107;" horiz-adv-x="371" 
d="M278 733q23 0 31 -15.5t-5 -34.5l-45 -70q-15 -23 -50 -23h-43q-18 0 -27 12t-4 28l22 66q6 20 16.5 28.5t32.5 8.5h72zM324 318h-84q-36 0 -36 36v77q0 11 -16 11t-16 -11v-292q0 -11 16 -11t16 11v85q0 36 36 36h84q36 0 36 -36v-92q0 -138 -138 -138h-72
q-138 0 -138 138v306q0 138 138 138h72q138 0 138 -138v-84q0 -36 -36 -36z" />
    <glyph glyph-name="Cdotaccent" unicode="&#x10a;" horiz-adv-x="402" 
d="M168 829h66q36 0 36 -36v-37q0 -36 -36 -36h-66q-36 0 -36 36v37q0 36 36 36zM221 147v151q0 36 36 36h96q36 0 36 -36v-154q0 -150 -150 -150h-76q-150 0 -150 150v412q0 150 150 150h76q148 0 148 -150v-133q0 -36 -36 -36h-96q-36 0 -36 36v130q0 13 -18 13t-18 -13
v-406q0 -13 13 -13h12q13 0 13 13z" />
    <glyph glyph-name="cdotaccent" unicode="&#x10b;" horiz-adv-x="371" 
d="M154 719h64q36 0 36 -36v-57q0 -36 -36 -36h-64q-36 0 -36 36v57q0 36 36 36zM324 318h-84q-36 0 -36 36v77q0 11 -16 11t-16 -11v-292q0 -11 16 -11t16 11v85q0 36 36 36h84q36 0 36 -36v-92q0 -138 -138 -138h-72q-138 0 -138 138v306q0 138 138 138h72q138 0 138 -138
v-84q0 -36 -36 -36z" />
    <glyph glyph-name="Ccaron" unicode="&#x10c;" horiz-adv-x="402" 
d="M238 725h-74q-32 0 -48 27l-41 67q-6 11 0 21.5t21 10.5h45q22 0 35 -14l25 -31l25 31q13 14 35 14h45q15 0 21 -10.5t0 -21.5l-41 -67q-16 -27 -48 -27zM221 147v151q0 36 36 36h96q36 0 36 -36v-154q0 -150 -150 -150h-76q-150 0 -150 150v412q0 150 150 150h76
q148 0 148 -150v-133q0 -36 -36 -36h-96q-36 0 -36 36v130q0 13 -18 13t-18 -13v-406q0 -13 13 -13h12q13 0 13 13z" />
    <glyph glyph-name="ccaron" unicode="&#x10d;" horiz-adv-x="371" 
d="M216 595h-60q-36 0 -55 34l-36 64q-10 20 -2.5 32.5t25.5 12.5h26q34 0 51 -25l21 -31l21 31q17 25 51 25h26q19 0 26 -12.5t-3 -32.5l-36 -64q-19 -34 -55 -34zM324 318h-84q-36 0 -36 36v77q0 11 -16 11t-16 -11v-292q0 -11 16 -11t16 11v85q0 36 36 36h84q36 0 36 -36
v-92q0 -138 -138 -138h-72q-138 0 -138 138v306q0 138 138 138h72q138 0 138 -138v-84q0 -36 -36 -36z" />
    <glyph glyph-name="Dcaron" unicode="&#x10e;" horiz-adv-x="405" 
d="M232 725h-74q-32 0 -48 27l-41 67q-6 11 0 21.5t21 10.5h45q22 0 35 -14l25 -31l25 31q13 14 35 14h45q15 0 21 -10.5t0 -21.5l-41 -67q-16 -27 -48 -27zM222 0h-171q-36 0 -36 36v628q0 36 36 36h171q170 0 170 -170v-360q0 -170 -170 -170zM203 560h-18v-420h18
q19 0 19 20v381q0 19 -19 19z" />
    <glyph glyph-name="dcaron" unicode="&#x10f;" 
d="M432 578h-13q-35 0 -35 36v56q0 40 38 40h29q46 0 35 -44l-16 -60q-7 -28 -38 -28zM187 132q8 0 17 3v300q-9 3 -17 3q-15 0 -15 -15v-276q0 -15 15 -15zM206 34v1q-43 -41 -101 -41q-45 0 -69 27t-24 78v372q0 51 24 78t69 27q49 0 99 -37v135q0 36 36 36h88
q36 0 36 -36v-638q0 -36 -36 -36h-86q-36 0 -36 34z" />
    <glyph glyph-name="Dcroat" unicode="&#x110;" horiz-adv-x="425" 
d="M242 0h-171q-36 0 -36 36v254q-35 0 -35 36v58q0 36 35 36v244q0 36 36 36h171q170 0 170 -170v-360q0 -170 -170 -170zM205 140h18q19 0 19 20v381q0 19 -19 19h-18v-141q23 -6 23 -35v-58q0 -29 -23 -35v-151z" />
    <glyph glyph-name="dcroat" unicode="&#x111;" horiz-adv-x="397" 
d="M187 132q8 0 17 3v300q-9 3 -17 3q-15 0 -15 -15v-276q0 -15 15 -15zM206 34v1q-43 -41 -101 -41q-45 0 -69 27t-24 78v372q0 51 24 78t69 27q49 0 99 -37v40l-35 1q-35 1 -35 36v23q0 36 36 36h34q1 35 36 35h88q36 0 36 -35q35 0 35 -36v-30q0 -19 -9 -28t-26 -8v-537
q0 -36 -36 -36h-86q-36 0 -36 34z" />
    <glyph glyph-name="Emacron" unicode="&#x112;" horiz-adv-x="322" 
d="M34 768v24q0 36 36 36h192q36 0 36 -36v-24q0 -36 -36 -36h-192q-36 0 -36 36zM15 36v628q0 36 36 36h228q36 0 36 -36v-73q0 -36 -36 -36h-94v-128h89q36 0 36 -36v-73q0 -36 -36 -36h-89v-137h96q36 0 36 -36v-73q0 -36 -36 -36h-230q-36 0 -36 36z" />
    <glyph glyph-name="emacron" unicode="&#x113;" horiz-adv-x="370" 
d="M53 638v34q0 36 36 36h192q36 0 36 -36v-34q0 -36 -36 -36h-192q-36 0 -36 36zM358 172v-40q0 -138 -138 -138h-70q-138 0 -138 138v306q0 138 138 138h70q138 0 138 -138v-180q0 -36 -36 -36h-152v-86q0 -11 11 -11h12q11 0 11 11v38q0 33 33 33h86q35 0 35 -35z
M186 445q-16 0 -16 -11v-93h32v93q0 11 -16 11z" />
    <glyph glyph-name="Ebreve" unicode="&#x114;" horiz-adv-x="322" 
d="M136 722q-45 0 -72 26t-27 71v5q0 30 27 30h58q22 0 22 -24v-4q0 -19 19 -19h6q19 0 19 19v4q0 24 23 24h57q27 0 27 -30v-5q0 -45 -27 -71t-72 -26h-60zM15 36v628q0 36 36 36h228q36 0 36 -36v-73q0 -36 -36 -36h-94v-128h89q36 0 36 -36v-73q0 -36 -36 -36h-89v-137
h96q36 0 36 -36v-73q0 -36 -36 -36h-230q-36 0 -36 36z" />
    <glyph glyph-name="ebreve" unicode="&#x115;" horiz-adv-x="370" 
d="M161 592q-46 0 -74.5 26.5t-28.5 70.5v5q0 14 8 24t22 10h50q12 0 19.5 -8.5t7.5 -19.5v-1q0 -19 20 -19t20 19v1q0 11 7.5 19.5t20.5 8.5h49q14 0 22 -10t8 -24v-5q0 -44 -28.5 -70.5t-74.5 -26.5h-48zM358 172v-40q0 -138 -138 -138h-70q-138 0 -138 138v306
q0 138 138 138h70q138 0 138 -138v-180q0 -36 -36 -36h-152v-86q0 -11 11 -11h12q11 0 11 11v38q0 33 33 33h86q35 0 35 -35zM186 445q-16 0 -16 -11v-93h32v93q0 11 -16 11z" />
    <glyph glyph-name="Edotaccent" unicode="&#x116;" horiz-adv-x="322" 
d="M133 829h66q36 0 36 -36v-37q0 -36 -36 -36h-66q-36 0 -36 36v37q0 36 36 36zM15 36v628q0 36 36 36h228q36 0 36 -36v-73q0 -36 -36 -36h-94v-128h89q36 0 36 -36v-73q0 -36 -36 -36h-89v-137h96q36 0 36 -36v-73q0 -36 -36 -36h-230q-36 0 -36 36z" />
    <glyph glyph-name="edotaccent" unicode="&#x117;" horiz-adv-x="370" 
d="M153 719h64q36 0 36 -36v-57q0 -36 -36 -36h-64q-36 0 -36 36v57q0 36 36 36zM358 172v-40q0 -138 -138 -138h-70q-138 0 -138 138v306q0 138 138 138h70q138 0 138 -138v-180q0 -36 -36 -36h-152v-86q0 -11 11 -11h12q11 0 11 11v38q0 33 33 33h86q35 0 35 -35zM186 445
q-16 0 -16 -11v-93h32v93q0 11 -16 11z" />
    <glyph glyph-name="Eogonek" unicode="&#x118;" horiz-adv-x="322" 
d="M285 -130h-44q-30 0 -47 15t-17 41v10q0 28 22 64h-148q-36 0 -36 36v628q0 36 36 36h228q36 0 36 -36v-73q0 -36 -36 -36h-94v-128h89q36 0 36 -36v-73q0 -36 -36 -36h-89v-137h96q36 0 36 -36v-73q0 -16 -7 -28l-11 -18q-12 -21 -12 -26q0 -10 12 -10h1q29 0 29 -28
v-20q0 -36 -44 -36z" />
    <glyph glyph-name="eogonek" unicode="&#x119;" horiz-adv-x="370" 
d="M305 -130h-44q-30 0 -47 15t-17 41v10q0 18 18 58h-65q-138 0 -138 138v306q0 138 138 138h70q138 0 138 -138v-180q0 -36 -36 -36h-152v-86q0 -11 11 -11h12q11 0 11 11v38q0 33 33 33h86q35 0 35 -35v-40q0 -43 -13 -72l-27 -64q-11 -25 -11 -32q0 -10 12 -10h1
q29 0 29 -28v-20q0 -36 -44 -36zM186 445q-16 0 -16 -11v-93h32v93q0 11 -16 11z" />
    <glyph glyph-name="Ecaron" unicode="&#x11a;" horiz-adv-x="322" 
d="M203 725h-74q-32 0 -48 27l-41 67q-6 11 0 21.5t21 10.5h45q22 0 35 -14l25 -31l25 31q13 14 35 14h45q15 0 21 -10.5t0 -21.5l-41 -67q-16 -27 -48 -27zM15 36v628q0 36 36 36h228q36 0 36 -36v-73q0 -36 -36 -36h-94v-128h89q36 0 36 -36v-73q0 -36 -36 -36h-89v-137
h96q36 0 36 -36v-73q0 -36 -36 -36h-230q-36 0 -36 36z" />
    <glyph glyph-name="ecaron" unicode="&#x11b;" horiz-adv-x="370" 
d="M215 595h-60q-36 0 -55 34l-36 64q-10 20 -2.5 32.5t25.5 12.5h26q34 0 51 -25l21 -31l21 31q17 25 51 25h26q19 0 26 -12.5t-3 -32.5l-36 -64q-19 -34 -55 -34zM358 172v-40q0 -138 -138 -138h-70q-138 0 -138 138v306q0 138 138 138h70q138 0 138 -138v-180
q0 -36 -36 -36h-152v-86q0 -11 11 -11h12q11 0 11 11v38q0 33 33 33h86q35 0 35 -35zM186 445q-16 0 -16 -11v-93h32v93q0 11 -16 11z" />
    <glyph glyph-name="Gbreve" unicode="&#x11e;" horiz-adv-x="406" 
d="M173 722q-45 0 -72 26t-27 71v5q0 30 27 30h58q22 0 22 -24v-4q0 -19 19 -19h6q19 0 19 19v4q0 24 23 24h57q27 0 27 -30v-5q0 -45 -27 -71t-72 -26h-60zM225 147v111h-5q-21 0 -21 21v80q0 19 7.5 27.5t25.5 8.5h125q36 0 36 -36v-215q0 -150 -150 -150h-80
q-150 0 -150 150v412q0 150 150 150h78q150 0 150 -150v-93q0 -36 -36 -36h-96q-36 0 -36 36v90q0 13 -14 13h-13q-13 0 -13 -13v-405q0 -14 13 -14h16q13 0 13 13z" />
    <glyph glyph-name="gbreve" unicode="&#x11f;" 
d="M164 592q-46 0 -74.5 26.5t-28.5 70.5v5q0 14 8 24t22 10h50q12 0 19.5 -8.5t7.5 -19.5v-1q0 -19 20 -19t20 19v1q0 11 7.5 19.5t20.5 8.5h49q14 0 22 -10t8 -24v-5q0 -44 -28.5 -70.5t-74.5 -26.5h-48zM187 187q8 0 17 3v245q-9 3 -17 3q-15 0 -15 -15v-221
q0 -15 15 -15zM242 -114h-109q-118 0 -118 111v2q0 36 36 36h79q32 0 32 -28q0 -14 15 -14h14q15 0 15 15v82q-47 -38 -101 -38q-45 0 -69 27t-24 78v314q0 51 24 78t69 27q54 0 101 -39q1 33 36 33h86q36 0 36 -36v-526q0 -122 -122 -122z" />
    <glyph glyph-name="Gdotaccent" unicode="&#x120;" horiz-adv-x="406" 
d="M170 829h66q36 0 36 -36v-37q0 -36 -36 -36h-66q-36 0 -36 36v37q0 36 36 36zM225 147v111h-5q-21 0 -21 21v80q0 19 7.5 27.5t25.5 8.5h125q36 0 36 -36v-215q0 -150 -150 -150h-80q-150 0 -150 150v412q0 150 150 150h78q150 0 150 -150v-93q0 -36 -36 -36h-96
q-36 0 -36 36v90q0 13 -14 13h-13q-13 0 -13 -13v-405q0 -14 13 -14h16q13 0 13 13z" />
    <glyph glyph-name="gdotaccent" unicode="&#x121;" 
d="M156 719h64q36 0 36 -36v-57q0 -36 -36 -36h-64q-36 0 -36 36v57q0 36 36 36zM187 187q8 0 17 3v245q-9 3 -17 3q-15 0 -15 -15v-221q0 -15 15 -15zM242 -114h-109q-118 0 -118 111v2q0 36 36 36h79q32 0 32 -28q0 -14 15 -14h14q15 0 15 15v82q-47 -38 -101 -38
q-45 0 -69 27t-24 78v314q0 51 24 78t69 27q54 0 101 -39q1 33 36 33h86q36 0 36 -36v-526q0 -122 -122 -122z" />
    <glyph glyph-name="Gcommaaccent" unicode="&#x122;" horiz-adv-x="406" 
d="M225 147v111h-5q-21 0 -21 21v80q0 19 7.5 27.5t25.5 8.5h125q36 0 36 -36v-215q0 -150 -150 -150h-80q-150 0 -150 150v412q0 150 150 150h78q150 0 150 -150v-93q0 -36 -36 -36h-96q-36 0 -36 36v90q0 13 -14 13h-13q-13 0 -13 -13v-405q0 -14 13 -14h16q13 0 13 13z
M190 -275q-15 -14 -31 0l-5 4q-14 11 -2 27l6 9q27 40 27 67h-9q-36 0 -36 36v71q0 36 36 36h54q36 0 36 -36v-84q0 -36 -12 -60t-46 -54z" />
    <glyph glyph-name="gcommaaccent" unicode="&#x123;" 
d="M215 595h-54q-36 0 -36 36v84q0 36 12 60t46 54l18 16q15 14 31 0l5 -4q14 -11 2 -27l-6 -9q-27 -40 -27 -67h9q36 0 36 -36v-71q0 -36 -36 -36zM187 187q8 0 17 3v245q-9 3 -17 3q-15 0 -15 -15v-221q0 -15 15 -15zM242 -114h-109q-118 0 -118 111v2q0 36 36 36h79
q32 0 32 -28q0 -14 15 -14h14q15 0 15 15v82q-47 -38 -101 -38q-45 0 -69 27t-24 78v314q0 51 24 78t69 27q54 0 101 -39q1 33 36 33h86q36 0 36 -36v-526q0 -122 -122 -122z" />
    <glyph glyph-name="Hbar" unicode="&#x126;" horiz-adv-x="448" 
d="M205 427h38v82h-38v-82zM205 36q0 -36 -36 -36h-98q-36 0 -36 36v458q-35 0 -35 36v58q0 36 35 36v40q0 36 36 36h98q36 0 36 -36v-55h38v55q0 36 36 36h98q36 0 36 -36v-40q35 0 35 -36v-58q0 -36 -35 -36v-458q0 -36 -36 -36h-98q-36 0 -36 36v246h-38v-246z" />
    <glyph glyph-name="hbar" unicode="&#x127;" horiz-adv-x="406" 
d="M202 36q0 -36 -36 -36h-88q-36 0 -36 36v537q-35 0 -35 36v30q0 36 35 36q0 35 36 35h88q36 0 36 -35h34q36 0 36 -36v-23q0 -35 -35 -36l-35 -1v-42q49 39 99 39q45 0 69 -27t24 -78v-435q0 -36 -36 -36h-88q-36 0 -36 36v387q0 15 -15 15q-8 0 -17 -3v-399z" />
    <glyph glyph-name="Imacron" unicode="&#x12a;" horiz-adv-x="202" 
d="M-31 768v24q0 36 36 36h192q36 0 36 -36v-24q0 -36 -36 -36h-192q-36 0 -36 36zM52 700h98q36 0 36 -36v-628q0 -36 -36 -36h-98q-36 0 -36 36v628q0 36 36 36z" />
    <glyph glyph-name="imacron" unicode="&#x12b;" horiz-adv-x="186" 
d="M-39 638v34q0 36 36 36h192q36 0 36 -36v-34q0 -36 -36 -36h-192q-36 0 -36 36zM137 0h-88q-36 0 -36 36v498q0 36 36 36h88q36 0 36 -36v-498q0 -36 -36 -36z" />
    <glyph glyph-name="Ibreve" unicode="&#x12c;" horiz-adv-x="202" 
d="M71 722q-45 0 -72 26t-27 71v5q0 30 27 30h58q22 0 22 -24v-4q0 -19 19 -19h6q19 0 19 19v4q0 24 23 24h57q27 0 27 -30v-5q0 -45 -27 -71t-72 -26h-60zM52 700h98q36 0 36 -36v-628q0 -36 -36 -36h-98q-36 0 -36 36v628q0 36 36 36z" />
    <glyph glyph-name="ibreve" unicode="&#x12d;" horiz-adv-x="186" 
d="M69 592q-46 0 -74.5 26.5t-28.5 70.5v5q0 14 8 24t22 10h50q12 0 19.5 -8.5t7.5 -19.5v-1q0 -19 20 -19t20 19v1q0 11 7.5 19.5t20.5 8.5h49q14 0 22 -10t8 -24v-5q0 -44 -28.5 -70.5t-74.5 -26.5h-48zM137 0h-88q-36 0 -36 36v498q0 36 36 36h88q36 0 36 -36v-498
q0 -36 -36 -36z" />
    <glyph glyph-name="Iogonek" unicode="&#x12e;" horiz-adv-x="202" 
d="M153 -130h-44q-30 0 -47 15t-17 41v10q0 28 22 64h-15q-36 0 -36 36v628q0 36 36 36h98q36 0 36 -36v-628q0 -16 -8 -28l-11 -18q-12 -18 -12 -26q0 -10 12 -10h1q29 0 29 -28v-20q0 -36 -44 -36z" />
    <glyph glyph-name="iogonek" unicode="&#x12f;" horiz-adv-x="186" 
d="M139 588h-92q-36 0 -36 36v53q0 36 36 36h92q36 0 36 -36v-53q0 -36 -36 -36zM141 -130h-44q-30 0 -47 15t-17 41v10q0 28 22 64h-6q-36 0 -36 36v498q0 36 36 36h88q36 0 36 -36v-498q0 -16 -7 -28l-11 -18q-12 -21 -12 -26q0 -10 12 -10h1q29 0 29 -28v-20
q0 -36 -44 -36z" />
    <glyph glyph-name="Idotaccent" unicode="&#x130;" horiz-adv-x="202" 
d="M68 829h66q36 0 36 -36v-37q0 -36 -36 -36h-66q-36 0 -36 36v37q0 36 36 36zM52 700h98q36 0 36 -36v-628q0 -36 -36 -36h-98q-36 0 -36 36v628q0 36 36 36z" />
    <glyph glyph-name="dotlessi" unicode="&#x131;" horiz-adv-x="186" 
d="M137 0h-88q-36 0 -36 36v498q0 36 36 36h88q36 0 36 -36v-498q0 -36 -36 -36z" />
    <glyph glyph-name="Kcommaaccent" unicode="&#x136;" horiz-adv-x="396" 
d="M359 0h-102q-31 0 -35 31l-37 258v-253q0 -36 -36 -36h-98q-36 0 -36 36v628q0 36 36 36h98q36 0 36 -36v-261l43 267q6 30 36 30h96q43 0 36 -43l-57 -295l56 -320q7 -42 -36 -42zM192 -275q-15 -14 -31 0l-5 4q-14 11 -2 27l6 9q27 40 27 67h-9q-36 0 -36 36v71
q0 36 36 36h54q36 0 36 -36v-84q0 -36 -12 -60t-46 -54z" />
    <glyph glyph-name="kcommaaccent" unicode="&#x137;" horiz-adv-x="381" 
d="M344 0h-93q-31 0 -35 30l-44 237v-231q0 -36 -36 -36h-88q-36 0 -36 36v638q0 36 36 36h88q36 0 36 -36v-371l52 239q6 28 35 28h87q46 0 35 -45l-60 -233l58 -248q11 -44 -35 -44zM182 -275q-15 -14 -31 0l-5 4q-14 11 -2 27l6 9q27 40 27 67h-9q-36 0 -36 36v71
q0 36 36 36h54q36 0 36 -36v-84q0 -36 -12 -60t-46 -54z" />
    <glyph glyph-name="Lacute" unicode="&#x139;" horiz-adv-x="304" 
d="M189 843q25 0 33 -15.5t-6 -33.5l-45 -56q-15 -18 -45 -18h-47q-19 0 -26.5 12.5t-1.5 26.5l25 53q14 31 50 31h63zM15 36v628q0 36 36 36h98q36 0 36 -36v-519h81q36 0 36 -36v-73q0 -36 -36 -36h-215q-36 0 -36 36z" />
    <glyph glyph-name="lacute" unicode="&#x13a;" horiz-adv-x="186" 
d="M185 873q23 0 31 -15.5t-5 -34.5l-45 -70q-15 -23 -50 -23h-43q-18 0 -27 12t-4 28l22 66q6 20 16.5 28.5t32.5 8.5h72zM137 0h-88q-36 0 -36 36v638q0 36 36 36h88q36 0 36 -36v-638q0 -36 -36 -36z" />
    <glyph glyph-name="Lcommaaccent" unicode="&#x13b;" horiz-adv-x="304" 
d="M15 36v628q0 36 36 36h98q36 0 36 -36v-519h81q36 0 36 -36v-73q0 -36 -36 -36h-215q-36 0 -36 36zM145 -275q-15 -14 -31 0l-5 4q-14 11 -2 27l6 9q27 40 27 67h-9q-36 0 -36 36v71q0 36 36 36h54q36 0 36 -36v-84q0 -36 -12 -60t-46 -54z" />
    <glyph glyph-name="lcommaaccent" unicode="&#x13c;" horiz-adv-x="186" 
d="M137 0h-88q-36 0 -36 36v638q0 36 36 36h88q36 0 36 -36v-638q0 -36 -36 -36zM80 -275q-15 -14 -31 0l-5 4q-14 11 -2 27l6 9q27 40 27 67h-9q-36 0 -36 36v71q0 36 36 36h54q36 0 36 -36v-84q0 -36 -12 -60t-46 -54z" />
    <glyph glyph-name="Lcaron" unicode="&#x13d;" horiz-adv-x="304" 
d="M253 568h-13q-35 0 -35 36v56q0 40 38 40h29q46 0 35 -44l-16 -60q-7 -28 -38 -28zM15 36v628q0 36 36 36h98q36 0 36 -36v-519h81q36 0 36 -36v-73q0 -36 -36 -36h-215q-36 0 -36 36z" />
    <glyph glyph-name="lcaron" unicode="&#x13e;" horiz-adv-x="186" 
d="M241 578h-13q-35 0 -35 36v56q0 40 38 40h29q46 0 35 -44l-16 -60q-7 -28 -38 -28zM137 0h-88q-36 0 -36 36v638q0 36 36 36h88q36 0 36 -36v-638q0 -36 -36 -36z" />
    <glyph glyph-name="Ldot" unicode="&#x13f;" horiz-adv-x="304" 
d="M15 36v628q0 36 36 36h98q36 0 36 -36v-519h81q36 0 36 -36v-73q0 -36 -36 -36h-215q-36 0 -36 36zM241 416h15q36 0 36 -36v-57q0 -36 -36 -36h-15q-36 0 -36 36v57q0 36 36 36z" />
    <glyph glyph-name="ldot" unicode="&#x140;" horiz-adv-x="287" 
d="M137 0h-88q-36 0 -36 36v638q0 36 36 36h88q36 0 36 -36v-638q0 -36 -36 -36zM229 420h15q36 0 36 -36v-57q0 -36 -36 -36h-15q-36 0 -36 36v57q0 36 36 36z" />
    <glyph glyph-name="Lslash" unicode="&#x141;" horiz-adv-x="324" 
d="M286 0h-215q-36 0 -36 36v218q-15 -3 -25 5t-10 24v68q0 23 19 32l16 8v273q0 36 36 36h98q36 0 36 -36v-182l19 10q20 11 35 4.5t15 -27.5v-69q0 -22 -19 -32l-50 -26v-197h81q36 0 36 -36v-73q0 -36 -36 -36z" />
    <glyph glyph-name="lslash" unicode="&#x142;" horiz-adv-x="226" 
d="M157 0h-88q-36 0 -36 36v201q-13 -7 -25.5 -1t-12.5 23v65q0 21 16 32l22 14v304q0 36 36 36h88q36 0 36 -36v-197q13 7 25.5 1t12.5 -23v-65q0 -21 -16 -32l-22 -14v-308q0 -36 -36 -36z" />
    <glyph glyph-name="Nacute" unicode="&#x143;" horiz-adv-x="392" 
d="M285 843q25 0 33 -15.5t-6 -33.5l-45 -56q-15 -18 -45 -18h-47q-19 0 -26.5 12.5t-1.5 26.5l25 53q14 31 50 31h63zM341 0h-92q-28 0 -35 28l-61 255l2 -247q0 -36 -36 -36h-68q-36 0 -36 36v628q0 36 36 36h98q29 0 36 -28l52 -224v216q0 36 36 36h68q36 0 36 -36v-628
q0 -36 -36 -36z" />
    <glyph glyph-name="nacute" unicode="&#x144;" 
d="M280 733q23 0 31 -15.5t-5 -34.5l-45 -70q-15 -23 -50 -23h-43q-18 0 -27 12t-4 28l22 66q6 20 16.5 28.5t32.5 8.5h72zM172 36q0 -36 -36 -36h-88q-36 0 -36 36v498q0 36 36 36h86q36 0 36 -33q55 39 101 39q45 0 69 -27t24 -78v-435q0 -36 -36 -36h-88q-36 0 -36 36
v387q0 15 -15 15q-8 0 -17 -3v-399z" />
    <glyph glyph-name="Ncommaaccent" unicode="&#x145;" horiz-adv-x="392" 
d="M341 0h-92q-28 0 -35 28l-61 255l2 -247q0 -36 -36 -36h-68q-36 0 -36 36v628q0 36 36 36h98q29 0 36 -28l52 -224v216q0 36 36 36h68q36 0 36 -36v-628q0 -36 -36 -36zM183 -275q-15 -14 -31 0l-5 4q-14 11 -2 27l6 9q27 40 27 67h-9q-36 0 -36 36v71q0 36 36 36h54
q36 0 36 -36v-84q0 -36 -12 -60t-46 -54z" />
    <glyph glyph-name="ncommaaccent" unicode="&#x146;" 
d="M172 36q0 -36 -36 -36h-88q-36 0 -36 36v498q0 36 36 36h86q36 0 36 -33q55 39 101 39q45 0 69 -27t24 -78v-435q0 -36 -36 -36h-88q-36 0 -36 36v387q0 15 -15 15q-8 0 -17 -3v-399zM175 -275q-15 -14 -31 0l-5 4q-14 11 -2 27l6 9q27 40 27 67h-9q-36 0 -36 36v71
q0 36 36 36h54q36 0 36 -36v-84q0 -36 -12 -60t-46 -54z" />
    <glyph glyph-name="Ncaron" unicode="&#x147;" horiz-adv-x="392" 
d="M233 725h-74q-32 0 -48 27l-41 67q-6 11 0 21.5t21 10.5h45q22 0 35 -14l25 -31l25 31q13 14 35 14h45q15 0 21 -10.5t0 -21.5l-41 -67q-16 -27 -48 -27zM341 0h-92q-28 0 -35 28l-61 255l2 -247q0 -36 -36 -36h-68q-36 0 -36 36v628q0 36 36 36h98q29 0 36 -28l52 -224
v216q0 36 36 36h68q36 0 36 -36v-628q0 -36 -36 -36z" />
    <glyph glyph-name="ncaron" unicode="&#x148;" 
d="M218 595h-60q-36 0 -55 34l-36 64q-10 20 -2.5 32.5t25.5 12.5h26q34 0 51 -25l21 -31l21 31q17 25 51 25h26q19 0 26 -12.5t-3 -32.5l-36 -64q-19 -34 -55 -34zM172 36q0 -36 -36 -36h-88q-36 0 -36 36v498q0 36 36 36h86q36 0 36 -33q55 39 101 39q45 0 69 -27t24 -78
v-435q0 -36 -36 -36h-88q-36 0 -36 36v387q0 15 -15 15q-8 0 -17 -3v-399z" />
    <glyph glyph-name="Omacron" unicode="&#x14c;" horiz-adv-x="406" 
d="M71 768v24q0 36 36 36h192q36 0 36 -36v-24q0 -36 -36 -36h-192q-36 0 -36 36zM393 556v-412q0 -150 -150 -150h-80q-150 0 -150 150v412q0 150 150 150h80q150 0 150 -150zM223 147v406q0 13 -13 13h-14q-13 0 -13 -13v-406q0 -13 13 -13h14q13 0 13 13z" />
    <glyph glyph-name="omacron" unicode="&#x14d;" 
d="M56 638v34q0 36 36 36h192q36 0 36 -36v-34q0 -36 -36 -36h-192q-36 0 -36 36zM364 132q0 -138 -138 -138h-76q-138 0 -138 138v306q0 138 138 138h76q138 0 138 -138v-306zM204 431q0 11 -11 11h-10q-11 0 -11 -11v-292q0 -11 16 -11t16 11v292z" />
    <glyph glyph-name="Obreve" unicode="&#x14e;" horiz-adv-x="406" 
d="M173 722q-45 0 -72 26t-27 71v5q0 30 27 30h58q22 0 22 -24v-4q0 -19 19 -19h6q19 0 19 19v4q0 24 23 24h57q27 0 27 -30v-5q0 -45 -27 -71t-72 -26h-60zM393 556v-412q0 -150 -150 -150h-80q-150 0 -150 150v412q0 150 150 150h80q150 0 150 -150zM223 147v406
q0 13 -13 13h-14q-13 0 -13 -13v-406q0 -13 13 -13h14q13 0 13 13z" />
    <glyph glyph-name="obreve" unicode="&#x14f;" 
d="M164 592q-46 0 -74.5 26.5t-28.5 70.5v5q0 14 8 24t22 10h50q12 0 19.5 -8.5t7.5 -19.5v-1q0 -19 20 -19t20 19v1q0 11 7.5 19.5t20.5 8.5h49q14 0 22 -10t8 -24v-5q0 -44 -28.5 -70.5t-74.5 -26.5h-48zM364 132q0 -138 -138 -138h-76q-138 0 -138 138v306q0 138 138 138
h76q138 0 138 -138v-306zM204 431q0 11 -11 11h-10q-11 0 -11 -11v-292q0 -11 16 -11t16 11v292z" />
    <glyph glyph-name="Ohungarumlaut" unicode="&#x150;" horiz-adv-x="406" 
d="M281 720h-16q-16 0 -24 10t-2 28l15 56q11 29 45 29h33q26 0 33 -15.5t-5 -32.5l-33 -52q-14 -23 -46 -23zM157 720h-16q-16 0 -24 10t-2 28l15 56q11 29 45 29h33q26 0 33 -15.5t-5 -32.5l-33 -52q-14 -23 -46 -23zM393 556v-412q0 -150 -150 -150h-80q-150 0 -150 150
v412q0 150 150 150h80q150 0 150 -150zM223 147v406q0 13 -13 13h-14q-13 0 -13 -13v-406q0 -13 13 -13h14q13 0 13 13z" />
    <glyph glyph-name="ohungarumlaut" unicode="&#x151;" 
d="M157 733h43q23 0 29.5 -15.5t-5.5 -35.5l-38 -70q-12 -22 -42 -22h-15q-42 0 -32 43l17 69q7 31 43 31zM285 733h43q23 0 29.5 -15.5t-5.5 -35.5l-38 -70q-12 -22 -42 -22h-15q-42 0 -32 43l17 69q7 31 43 31zM364 132q0 -138 -138 -138h-76q-138 0 -138 138v306
q0 138 138 138h76q138 0 138 -138v-306zM204 431q0 11 -11 11h-10q-11 0 -11 -11v-292q0 -11 16 -11t16 11v292z" />
    <glyph glyph-name="OE" unicode="&#x152;" horiz-adv-x="527" 
d="M486 0h-303q-170 0 -170 170v360q0 170 170 170h301q36 0 36 -36v-73q0 -36 -36 -36h-94v-128h89q36 0 36 -36v-73q0 -36 -36 -36h-89v-137h96q36 0 36 -36v-73q0 -36 -36 -36zM202 140h18v420h-18q-19 0 -19 -20v-381q0 -19 19 -19z" />
    <glyph glyph-name="oe" unicode="&#x153;" horiz-adv-x="562" 
d="M378 445q-16 0 -16 -11v-93h32v93q0 11 -16 11zM204 431q0 11 -11 11h-10q-11 0 -11 -11v-292q0 -11 16 -11t16 11v292zM379 -6q-66 0 -96 34q-32 -34 -96 -34h-37q-138 0 -138 138v306q0 138 138 138h37q64 0 96 -34q30 34 96 34h33q138 0 138 -138v-180q0 -36 -36 -36
h-152v-86q0 -11 11 -11h12q11 0 11 11v38q0 33 33 33h86q35 0 35 -35v-40q0 -138 -138 -138h-33z" />
    <glyph glyph-name="Racute" unicode="&#x154;" horiz-adv-x="403" 
d="M292 843q25 0 33 -15.5t-6 -33.5l-45 -56q-15 -18 -45 -18h-47q-19 0 -26.5 12.5t-1.5 26.5l25 53q14 31 50 31h63zM220 402v143q0 13 -13 13h-22v-169h22q13 0 13 13zM390 436q0 -90 -76 -115q40 -10 58.5 -33.5t18.5 -65.5v-186q0 -36 -36 -36h-98q-36 0 -36 36v201
q0 13 -13 13h-23v-214q0 -36 -36 -36h-98q-36 0 -36 36v628q0 36 36 36h189q150 0 150 -150v-114z" />
    <glyph glyph-name="racute" unicode="&#x155;" horiz-adv-x="266" 
d="M217 733q23 0 31 -15.5t-5 -34.5l-45 -70q-15 -23 -50 -23h-43q-18 0 -27 12t-4 28l22 66q6 20 16.5 28.5t32.5 8.5h72zM136 0h-88q-36 0 -36 36v498q0 36 36 36h81q36 0 36 -36v-39q19 43 32.5 61.5t31.5 18.5h1q31 0 31 -40v-93q0 -35 -43 -50q-33 -13 -46 -21v-335
q0 -36 -36 -36z" />
    <glyph glyph-name="Rcommaaccent" unicode="&#x156;" horiz-adv-x="403" 
d="M220 402v143q0 13 -13 13h-22v-169h22q13 0 13 13zM390 436q0 -90 -76 -115q40 -10 58.5 -33.5t18.5 -65.5v-186q0 -36 -36 -36h-98q-36 0 -36 36v201q0 13 -13 13h-23v-214q0 -36 -36 -36h-98q-36 0 -36 36v628q0 36 36 36h189q150 0 150 -150v-114zM190 -275
q-15 -14 -31 0l-5 4q-14 11 -2 27l6 9q27 40 27 67h-9q-36 0 -36 36v71q0 36 36 36h54q36 0 36 -36v-84q0 -36 -12 -60t-46 -54z" />
    <glyph glyph-name="rcommaaccent" unicode="&#x157;" horiz-adv-x="266" 
d="M136 0h-88q-36 0 -36 36v498q0 36 36 36h81q36 0 36 -36v-39q19 43 32.5 61.5t31.5 18.5h1q31 0 31 -40v-93q0 -35 -43 -50q-33 -13 -46 -21v-335q0 -36 -36 -36zM79 -275q-15 -14 -31 0l-5 4q-14 11 -2 27l6 9q27 40 27 67h-9q-36 0 -36 36v71q0 36 36 36h54
q36 0 36 -36v-84q0 -36 -12 -60t-46 -54z" />
    <glyph glyph-name="Rcaron" unicode="&#x158;" horiz-adv-x="403" 
d="M240 725h-74q-32 0 -48 27l-41 67q-6 11 0 21.5t21 10.5h45q22 0 35 -14l25 -31l25 31q13 14 35 14h45q15 0 21 -10.5t0 -21.5l-41 -67q-16 -27 -48 -27zM220 402v143q0 13 -13 13h-22v-169h22q13 0 13 13zM390 436q0 -90 -76 -115q40 -10 58.5 -33.5t18.5 -65.5v-186
q0 -36 -36 -36h-98q-36 0 -36 36v201q0 13 -13 13h-23v-214q0 -36 -36 -36h-98q-36 0 -36 36v628q0 36 36 36h189q150 0 150 -150v-114z" />
    <glyph glyph-name="rcaron" unicode="&#x159;" horiz-adv-x="266" 
d="M155 595h-60q-36 0 -55 34l-36 64q-10 20 -2.5 32.5t25.5 12.5h26q34 0 51 -25l21 -31l21 31q17 25 51 25h26q19 0 26 -12.5t-3 -32.5l-36 -64q-19 -34 -55 -34zM136 0h-88q-36 0 -36 36v498q0 36 36 36h81q36 0 36 -36v-39q19 43 32.5 61.5t31.5 18.5h1q31 0 31 -40v-93
q0 -35 -43 -50q-33 -13 -46 -21v-335q0 -36 -36 -36z" />
    <glyph glyph-name="Sacute" unicode="&#x15a;" horiz-adv-x="394" 
d="M288 843q25 0 33 -15.5t-6 -33.5l-45 -56q-15 -18 -45 -18h-47q-19 0 -26.5 12.5t-1.5 26.5l25 53q14 31 50 31h63zM195 452l127 -76q62 -38 62 -125v-107q0 -150 -150 -150h-70q-150 0 -150 150v87q0 36 36 36h93q36 0 36 -36v-87q0 -13 13 -13h11q13 0 13 13v90
q0 16 -14 24l-126 75q-35 21 -48.5 50.5t-13.5 74.5v98q0 150 150 150h68q150 0 150 -150v-77q0 -36 -36 -36h-93q-36 0 -36 36v77q0 13 -18 13t-18 -13v-80q0 -16 14 -24z" />
    <glyph glyph-name="sacute" unicode="&#x15b;" horiz-adv-x="361" 
d="M272 733q23 0 31 -15.5t-5 -34.5l-45 -70q-15 -23 -50 -23h-43q-18 0 -27 12t-4 28l22 66q6 20 16.5 28.5t32.5 8.5h72zM315 359h-86q-17 0 -24.5 7.5t-7.5 24.5v43q0 11 -15 11q-16 0 -16 -11v-44q0 -17 17 -25l76 -37q52 -25 71 -53.5t19 -80.5v-62q0 -138 -138 -138
h-61q-138 0 -138 138v47q0 34 35 34h84q32 0 32 -32v-45q0 -11 11 -11h11q11 0 11 11v44q0 17 -17 25l-76 38q-52 25 -71 53.5t-19 80.5v61q0 138 138 138h59q138 0 138 -138v-45q0 -34 -33 -34z" />
    <glyph glyph-name="Scedilla" unicode="&#x15e;" horiz-adv-x="394" 
d="M192 -122h-51q-22 0 -31.5 14t0.5 37l32 66q-128 10 -128 149v87q0 36 36 36h93q36 0 36 -36v-87q0 -13 13 -13h11q13 0 13 13v90q0 16 -14 24l-126 75q-35 21 -48.5 50.5t-13.5 74.5v98q0 150 150 150h68q150 0 150 -150v-77q0 -36 -36 -36h-93q-36 0 -36 36v77
q0 13 -18 13t-18 -13v-80q0 -16 14 -24l127 -76q62 -38 62 -125v-107q0 -140 -129 -149l-16 -80q-8 -37 -47 -37z" />
    <glyph glyph-name="scedilla" unicode="&#x15f;" horiz-adv-x="361" 
d="M175 -122h-51q-22 0 -31.5 14t0.5 37l32 66q-113 12 -113 137v47q0 34 35 34h84q32 0 32 -32v-45q0 -11 11 -11h11q11 0 11 11v44q0 17 -17 25l-76 38q-52 25 -71 53.5t-19 80.5v61q0 138 138 138h59q138 0 138 -138v-45q0 -34 -33 -34h-86q-17 0 -24.5 7.5t-7.5 24.5v43
q0 11 -15 11q-16 0 -16 -11v-44q0 -17 17 -25l76 -37q52 -25 71 -53.5t19 -80.5v-62q0 -124 -111 -136l-16 -81q-8 -37 -47 -37z" />
    <glyph glyph-name="Scaron" unicode="&#x160;" horiz-adv-x="394" 
d="M236 725h-74q-32 0 -48 27l-41 67q-6 11 0 21.5t21 10.5h45q22 0 35 -14l25 -31l25 31q13 14 35 14h45q15 0 21 -10.5t0 -21.5l-41 -67q-16 -27 -48 -27zM195 452l127 -76q62 -38 62 -125v-107q0 -150 -150 -150h-70q-150 0 -150 150v87q0 36 36 36h93q36 0 36 -36v-87
q0 -13 13 -13h11q13 0 13 13v90q0 16 -14 24l-126 75q-35 21 -48.5 50.5t-13.5 74.5v98q0 150 150 150h68q150 0 150 -150v-77q0 -36 -36 -36h-93q-36 0 -36 36v77q0 13 -18 13t-18 -13v-80q0 -16 14 -24z" />
    <glyph glyph-name="scaron" unicode="&#x161;" horiz-adv-x="361" 
d="M210 595h-60q-36 0 -55 34l-36 64q-10 20 -2.5 32.5t25.5 12.5h26q34 0 51 -25l21 -31l21 31q17 25 51 25h26q19 0 26 -12.5t-3 -32.5l-36 -64q-19 -34 -55 -34zM315 359h-86q-17 0 -24.5 7.5t-7.5 24.5v43q0 11 -15 11q-16 0 -16 -11v-44q0 -17 17 -25l76 -37
q52 -25 71 -53.5t19 -80.5v-62q0 -138 -138 -138h-61q-138 0 -138 138v47q0 34 35 34h84q32 0 32 -32v-45q0 -11 11 -11h11q11 0 11 11v44q0 17 -17 25l-76 38q-52 25 -71 53.5t-19 80.5v61q0 138 138 138h59q138 0 138 -138v-45q0 -34 -33 -34z" />
    <glyph glyph-name="Tcommaaccent" unicode="&#x162;" horiz-adv-x="360" 
d="M265 555v-519q0 -36 -36 -36h-98q-36 0 -36 36v519h-53q-36 0 -36 36v73q0 36 36 36h276q36 0 36 -36v-73q0 -36 -36 -36h-53zM167 -275q-15 -14 -31 0l-5 4q-14 11 -2 27l6 9q27 40 27 67h-9q-36 0 -36 36v71q0 36 36 36h54q36 0 36 -36v-84q0 -36 -12 -60t-46 -54z" />
    <glyph glyph-name="tcommaaccent" unicode="&#x163;" horiz-adv-x="252" 
d="M196 36q0 -36 -36 -36h-88q-36 0 -36 36v401q-36 0 -36 36v61q0 36 36 36v54q0 36 36 36h88q36 0 36 -36v-54h16q36 0 36 -36v-61q0 -36 -36 -36h-16v-401zM102 -275q-15 -14 -31 0l-5 4q-14 11 -2 27l6 9q27 40 27 67h-9q-36 0 -36 36v71q0 36 36 36h54q36 0 36 -36v-84
q0 -36 -12 -60t-46 -54z" />
    <glyph glyph-name="Tcaron" unicode="&#x164;" horiz-adv-x="360" 
d="M217 725h-74q-32 0 -48 27l-41 67q-6 11 0 21.5t21 10.5h45q22 0 35 -14l25 -31l25 31q13 14 35 14h45q15 0 21 -10.5t0 -21.5l-41 -67q-16 -27 -48 -27zM265 555v-519q0 -36 -36 -36h-98q-36 0 -36 36v519h-53q-36 0 -36 36v73q0 36 36 36h276q36 0 36 -36v-73
q0 -36 -36 -36h-53z" />
    <glyph glyph-name="tcaron" unicode="&#x165;" horiz-adv-x="252" 
d="M264 583h-13q-35 0 -35 36v56q0 40 38 40h29q46 0 35 -44l-16 -60q-7 -28 -38 -28zM196 36q0 -36 -36 -36h-88q-36 0 -36 36v401q-36 0 -36 36v61q0 36 36 36v54q0 36 36 36h88q36 0 36 -36v-54h16q36 0 36 -36v-61q0 -36 -36 -36h-16v-401z" />
    <glyph glyph-name="Umacron" unicode="&#x16a;" horiz-adv-x="404" 
d="M70 768v24q0 36 36 36h192q36 0 36 -36v-24q0 -36 -36 -36h-192q-36 0 -36 36zM256 700h98q36 0 36 -36v-520q0 -150 -150 -150h-76q-150 0 -150 150v520q0 36 36 36h98q36 0 36 -36v-517q0 -13 18 -13t18 13v517q0 36 36 36z" />
    <glyph glyph-name="umacron" unicode="&#x16b;" 
d="M56 638v34q0 36 36 36h192q36 0 36 -36v-34q0 -36 -36 -36h-192q-36 0 -36 36zM206 34q-50 -40 -101 -40q-45 0 -69 27t-24 78v435q0 36 36 36h88q36 0 36 -36v-387q0 -15 15 -15q8 0 17 3v399q0 36 36 36h88q36 0 36 -36v-498q0 -36 -36 -36h-86q-35 0 -36 34z" />
    <glyph glyph-name="Ubreve" unicode="&#x16c;" horiz-adv-x="404" 
d="M172 722q-45 0 -72 26t-27 71v5q0 30 27 30h58q22 0 22 -24v-4q0 -19 19 -19h6q19 0 19 19v4q0 24 23 24h57q27 0 27 -30v-5q0 -45 -27 -71t-72 -26h-60zM256 700h98q36 0 36 -36v-520q0 -150 -150 -150h-76q-150 0 -150 150v520q0 36 36 36h98q36 0 36 -36v-517
q0 -13 18 -13t18 13v517q0 36 36 36z" />
    <glyph glyph-name="ubreve" unicode="&#x16d;" 
d="M164 592q-46 0 -74.5 26.5t-28.5 70.5v5q0 14 8 24t22 10h50q12 0 19.5 -8.5t7.5 -19.5v-1q0 -19 20 -19t20 19v1q0 11 7.5 19.5t20.5 8.5h49q14 0 22 -10t8 -24v-5q0 -44 -28.5 -70.5t-74.5 -26.5h-48zM206 34q-50 -40 -101 -40q-45 0 -69 27t-24 78v435q0 36 36 36h88
q36 0 36 -36v-387q0 -15 15 -15q8 0 17 3v399q0 36 36 36h88q36 0 36 -36v-498q0 -36 -36 -36h-86q-35 0 -36 34z" />
    <glyph glyph-name="Uring" unicode="&#x16e;" horiz-adv-x="404" 
d="M250 722h-96q-77 0 -77 68q0 67 77 67h96q77 0 77 -65v-5q0 -65 -77 -65zM250 833h-96q-50 0 -50 -43q0 -44 50 -44h96q50 0 50 42v3q0 42 -50 42zM256 700h98q36 0 36 -36v-520q0 -150 -150 -150h-76q-150 0 -150 150v520q0 36 36 36h98q36 0 36 -36v-517q0 -13 18 -13
t18 13v517q0 36 36 36z" />
    <glyph glyph-name="uring" unicode="&#x16f;" 
d="M214 731q77 0 77 -65v-9q0 -65 -77 -65h-52q-77 0 -77 70q0 69 77 69h52zM214 614q52 0 52 43v9q0 43 -52 43h-52q-52 0 -52 -47q0 -48 52 -48h52zM206 34q-50 -40 -101 -40q-45 0 -69 27t-24 78v435q0 36 36 36h88q36 0 36 -36v-387q0 -15 15 -15q8 0 17 3v399
q0 36 36 36h88q36 0 36 -36v-498q0 -36 -36 -36h-86q-35 0 -36 34z" />
    <glyph glyph-name="Uhungarumlaut" unicode="&#x170;" horiz-adv-x="404" 
d="M280 720h-16q-16 0 -24 10t-2 28l15 56q11 29 45 29h33q26 0 33 -15.5t-5 -32.5l-33 -52q-14 -23 -46 -23zM156 720h-16q-16 0 -24 10t-2 28l15 56q11 29 45 29h33q26 0 33 -15.5t-5 -32.5l-33 -52q-14 -23 -46 -23zM256 700h98q36 0 36 -36v-520q0 -150 -150 -150h-76
q-150 0 -150 150v520q0 36 36 36h98q36 0 36 -36v-517q0 -13 18 -13t18 13v517q0 36 36 36z" />
    <glyph glyph-name="uhungarumlaut" unicode="&#x171;" 
d="M157 733h43q23 0 29.5 -15.5t-5.5 -35.5l-38 -70q-12 -22 -42 -22h-15q-42 0 -32 43l17 69q7 31 43 31zM285 733h43q23 0 29.5 -15.5t-5.5 -35.5l-38 -70q-12 -22 -42 -22h-15q-42 0 -32 43l17 69q7 31 43 31zM206 34q-50 -40 -101 -40q-45 0 -69 27t-24 78v435
q0 36 36 36h88q36 0 36 -36v-387q0 -15 15 -15q8 0 17 3v399q0 36 36 36h88q36 0 36 -36v-498q0 -36 -36 -36h-86q-35 0 -36 34z" />
    <glyph glyph-name="Uogonek" unicode="&#x172;" horiz-adv-x="404" 
d="M236 -130h-44q-30 0 -47 15t-17 41v10q0 24 19 59q-133 7 -133 149v520q0 36 36 36h98q36 0 36 -36v-517q0 -13 18 -13t18 13v517q0 36 36 36h98q36 0 36 -36v-520q0 -144 -137 -150l-3 -4q-12 -21 -12 -26q0 -10 12 -10h1q29 0 29 -28v-20q0 -36 -44 -36z" />
    <glyph glyph-name="uogonek" unicode="&#x173;" 
d="M332 -130h-44q-30 0 -47 15t-17 41v10q0 28 22 64h-4q-35 0 -36 34q-50 -40 -101 -40q-45 0 -69 27t-24 78v435q0 36 36 36h88q36 0 36 -36v-387q0 -15 15 -15q8 0 17 3v399q0 36 36 36h88q36 0 36 -36v-498q0 -17 -8 -30l-11 -18q-11 -18 -11 -24q0 -10 12 -10h1
q29 0 29 -28v-20q0 -36 -44 -36z" />
    <glyph glyph-name="Wcircumflex" unicode="&#x174;" horiz-adv-x="564" 
d="M263 851h74q32 0 48 -27l41 -67q6 -11 0 -21.5t-21 -10.5h-45q-22 0 -35 14l-25 31l-25 -31q-13 -14 -35 -14h-45q-15 0 -21 10.5t0 21.5l41 67q16 27 48 27zM218 0h-109q-32 0 -36 32l-76 628q-6 40 35 40h104q33 0 36 -33l22 -253l23 253q3 33 35 33h89q33 0 36 -33
l22 -253l23 253q3 33 36 33h73q40 0 36 -40l-76 -628q-4 -32 -36 -32h-110q-32 0 -36 32l-28 259l-27 -259q-3 -32 -36 -32z" />
    <glyph glyph-name="wcircumflex" unicode="&#x175;" horiz-adv-x="561" 
d="M254 738h60q36 0 55 -34l36 -64q10 -20 2.5 -32.5t-25.5 -12.5h-26q-34 0 -51 25l-21 31l-21 -31q-17 -25 -51 -25h-26q-19 0 -26 12.5t3 32.5l36 64q19 34 55 34zM219 0h-114q-32 0 -36 31l-66 498q-6 41 35 41h79q33 0 36 -33l20 -284l28 285q3 32 36 32h97
q32 0 35 -33l27 -281l22 281q3 33 36 33h68q42 0 36 -41l-67 -498q-4 -31 -35 -31h-115q-32 0 -35 32l-26 228l-25 -228q-4 -32 -36 -32z" />
    <glyph glyph-name="Ycircumflex" unicode="&#x176;" horiz-adv-x="370" 
d="M159 851h74q32 0 48 -27l41 -67q6 -11 0 -21.5t-21 -10.5h-45q-22 0 -35 14l-25 31l-25 -31q-13 -14 -35 -14h-45q-15 0 -21 10.5t0 21.5l41 67q16 27 48 27zM270 253v-217q0 -36 -36 -36h-98q-36 0 -36 36v206l-102 413q-10 45 35 45h99q32 0 36 -31l27 -179l30 180
q6 30 36 30h76q47 0 35 -45z" />
    <glyph glyph-name="ycircumflex" unicode="&#x177;" horiz-adv-x="363" 
d="M155 738h60q36 0 55 -34l36 -64q10 -20 2.5 -32.5t-25.5 -12.5h-26q-34 0 -51 25l-21 31l-21 -31q-17 -25 -51 -25h-26q-19 0 -26 12.5t3 32.5l36 64q19 34 55 34zM365 527l-128 -608q-7 -29 -35 -29h-82q-45 0 -36 44l18 78l-105 515q-7 43 36 43h88q32 0 36 -32l11 -88
q7 -59 16 -194q11 139 17 194l11 88q4 32 36 32h81q45 0 36 -43z" />
    <glyph glyph-name="Ydieresis" unicode="&#x178;" horiz-adv-x="370" 
d="M100 843h50q36 0 36 -36v-51q0 -36 -36 -36h-50q-36 0 -36 36v51q0 36 36 36zM292 720h-50q-36 0 -36 36v51q0 36 36 36h50q36 0 36 -36v-51q0 -36 -36 -36zM270 253v-217q0 -36 -36 -36h-98q-36 0 -36 36v206l-102 413q-10 45 35 45h99q32 0 36 -31l27 -179l30 180
q6 30 36 30h76q47 0 35 -45z" />
    <glyph glyph-name="Zacute" unicode="&#x179;" horiz-adv-x="331" 
d="M259 843q25 0 33 -15.5t-6 -33.5l-45 -56q-15 -18 -45 -18h-47q-19 0 -26.5 12.5t-1.5 26.5l25 53q14 31 50 31h63zM13 166l135 389h-106q-36 0 -36 36v73q0 36 36 36h246q36 0 36 -36v-83q0 -27 -7 -47l-135 -389h106q36 0 36 -36v-73q0 -36 -36 -36h-246q-36 0 -36 36
v83q0 27 7 47z" />
    <glyph glyph-name="zacute" unicode="&#x17a;" horiz-adv-x="314" 
d="M254 733q23 0 31 -15.5t-5 -34.5l-45 -70q-15 -23 -50 -23h-43q-18 0 -27 12t-4 28l22 66q6 20 16.5 28.5t32.5 8.5h72zM7 104q0 29 14 60l126 273h-104q-36 0 -36 36v61q0 36 36 36h228q36 0 36 -36v-68q0 -29 -14 -60l-126 -273h104q36 0 36 -36v-61q0 -36 -36 -36
h-228q-36 0 -36 36v68z" />
    <glyph glyph-name="Zdotaccent" unicode="&#x17b;" horiz-adv-x="331" 
d="M137 829h66q36 0 36 -36v-37q0 -36 -36 -36h-66q-36 0 -36 36v37q0 36 36 36zM13 166l135 389h-106q-36 0 -36 36v73q0 36 36 36h246q36 0 36 -36v-83q0 -27 -7 -47l-135 -389h106q36 0 36 -36v-73q0 -36 -36 -36h-246q-36 0 -36 36v83q0 27 7 47z" />
    <glyph glyph-name="zdotaccent" unicode="&#x17c;" horiz-adv-x="314" 
d="M130 719h64q36 0 36 -36v-57q0 -36 -36 -36h-64q-36 0 -36 36v57q0 36 36 36zM7 104q0 29 14 60l126 273h-104q-36 0 -36 36v61q0 36 36 36h228q36 0 36 -36v-68q0 -29 -14 -60l-126 -273h104q36 0 36 -36v-61q0 -36 -36 -36h-228q-36 0 -36 36v68z" />
    <glyph glyph-name="Zcaron" unicode="&#x17d;" horiz-adv-x="331" 
d="M207 725h-74q-32 0 -48 27l-41 67q-6 11 0 21.5t21 10.5h45q22 0 35 -14l25 -31l25 31q13 14 35 14h45q15 0 21 -10.5t0 -21.5l-41 -67q-16 -27 -48 -27zM13 166l135 389h-106q-36 0 -36 36v73q0 36 36 36h246q36 0 36 -36v-83q0 -27 -7 -47l-135 -389h106q36 0 36 -36
v-73q0 -36 -36 -36h-246q-36 0 -36 36v83q0 27 7 47z" />
    <glyph glyph-name="zcaron" unicode="&#x17e;" horiz-adv-x="314" 
d="M192 595h-60q-36 0 -55 34l-36 64q-10 20 -2.5 32.5t25.5 12.5h26q34 0 51 -25l21 -31l21 31q17 25 51 25h26q19 0 26 -12.5t-3 -32.5l-36 -64q-19 -34 -55 -34zM7 104q0 29 14 60l126 273h-104q-36 0 -36 36v61q0 36 36 36h228q36 0 36 -36v-68q0 -29 -14 -60l-126 -273
h104q36 0 36 -36v-61q0 -36 -36 -36h-228q-36 0 -36 36v68z" />
    <glyph glyph-name="Aringacute" unicode="&#x1fa;" horiz-adv-x="386" 
d="M284 923q25 0 33 -15.5t-6 -33.5l-45 -56q-15 -18 -45 -18h-47q-19 0 -26.5 12.5t-1.5 26.5l25 53q14 31 50 31h63zM241 761h-96q-50 0 -50 -43q0 -44 50 -44h96q50 0 50 42v3q0 42 -50 42zM158 229h49l-24 273zM141 33q-3 -33 -36 -33h-73q-41 0 -35 41l83 634
q-12 17 -12 43q0 67 77 67h96q77 0 77 -65v-5q0 -25 -13 -41l84 -633q6 -41 -36 -41h-93q-33 0 -36 33l-5 54h-73z" />
    <glyph glyph-name="aringacute" unicode="&#x1fb;" horiz-adv-x="364" 
d="M277 885q23 0 31 -15.5t-5 -34.5l-45 -70q-15 -23 -50 -23h-43q-18 0 -27 12t-4 28l22 66q6 20 16.5 28.5t32.5 8.5h72zM208 731q77 0 77 -65v-9q0 -65 -77 -65h-52q-77 0 -77 70q0 69 77 69h52zM208 614q52 0 52 43v9q0 43 -52 43h-52q-52 0 -52 -47q0 -48 52 -48h52z
M160 139q0 -15 16 -15q9 0 18 3v114l-17 -8q-17 -9 -17 -30v-64zM196 34v3q-41 -43 -100 -43q-86 0 -86 94v129q0 48 17 71.5t65 40.5l102 37v69q0 11 -15 11q-16 0 -16 -11v-37q0 -31 -30 -31h-82q-35 0 -35 35v42q0 132 132 132h72q132 0 132 -132v-408q0 -36 -36 -36h-86
q-34 0 -34 34z" />
    <glyph glyph-name="AEacute" unicode="&#x1fc;" horiz-adv-x="518" 
d="M386 843q25 0 33 -15.5t-6 -33.5l-45 -56q-15 -18 -45 -18h-47q-19 0 -26.5 12.5t-1.5 26.5l25 53q14 31 50 31h63zM168 229h43v320zM477 0h-230q-36 0 -36 36v51h-58l-8 -56q-4 -31 -35 -31h-73q-43 0 -36 42l105 628q6 30 35 30h334q36 0 36 -36v-73q0 -36 -36 -36h-94
v-128h89q36 0 36 -36v-73q0 -36 -36 -36h-89v-137h96q36 0 36 -36v-73q0 -36 -36 -36z" />
    <glyph glyph-name="aeacute" unicode="&#x1fd;" horiz-adv-x="552" 
d="M372 733q23 0 31 -15.5t-5 -34.5l-45 -70q-15 -23 -50 -23h-43q-18 0 -27 12t-4 28l22 66q6 20 16.5 28.5t32.5 8.5h72zM540 171v-39q0 -138 -138 -138h-70q-81 0 -114 46l-12 -8q-57 -38 -110 -38q-86 0 -86 94v129q0 48 17 71.5t65 40.5l102 37v69q0 11 -15 11
q-16 0 -16 -11v-37q0 -31 -30 -31h-82q-35 0 -35 35v42q0 132 132 132h29q64 0 96 -34q30 34 96 34h33q138 0 138 -138v-180q0 -36 -36 -36h-152v-86q0 -11 11 -11h12q11 0 11 11v37q0 33 33 33h86q35 0 35 -35zM368 445q-16 0 -16 -11v-93h32v93q0 11 -16 11zM160 139
q0 -15 16 -15q9 0 18 3v114l-17 -8q-17 -9 -17 -30v-64z" />
    <glyph glyph-name="Oslashacute" unicode="&#x1fe;" horiz-adv-x="406" 
d="M292 843q25 0 33 -15.5t-6 -33.5l-45 -56q-15 -18 -45 -18h-47q-19 0 -26.5 12.5t-1.5 26.5l25 53q14 31 50 31h63zM393 556v-412q0 -150 -150 -150h-80q-150 0 -150 150v412q0 150 150 150h80q150 0 150 -150zM195 567q-13 0 -13 -13l-3 -221l45 191v30q0 13 -13 13h-16
zM182 146q0 -13 13 -13h16q13 0 13 13l3 221l-45 -191v-30z" />
    <glyph glyph-name="oslashacute" unicode="&#x1ff;" 
d="M280 733q23 0 31 -15.5t-5 -34.5l-45 -70q-15 -23 -50 -23h-43q-18 0 -27 12t-4 28l22 66q6 20 16.5 28.5t32.5 8.5h72zM364 132q0 -138 -138 -138h-76q-138 0 -138 138v306q0 138 138 138h76q138 0 138 -138v-306zM182 443q-11 0 -11 -11l-3 -154l37 135v19q0 11 -11 11
h-12zM171 138q0 -11 11 -11h12q11 0 11 11l3 154l-37 -134v-20z" />
    <glyph glyph-name="Scommaaccent" unicode="&#x218;" horiz-adv-x="394" 
d="M195 452l127 -76q62 -38 62 -125v-107q0 -150 -150 -150h-70q-150 0 -150 150v87q0 36 36 36h93q36 0 36 -36v-87q0 -13 13 -13h11q13 0 13 13v90q0 16 -14 24l-126 75q-35 21 -48.5 50.5t-13.5 74.5v98q0 150 150 150h68q150 0 150 -150v-77q0 -36 -36 -36h-93
q-36 0 -36 36v77q0 13 -18 13t-18 -13v-80q0 -16 14 -24zM186 -275q-15 -14 -31 0l-5 4q-14 11 -2 27l6 9q27 40 27 67h-9q-36 0 -36 36v71q0 36 36 36h54q36 0 36 -36v-84q0 -36 -12 -60t-46 -54z" />
    <glyph glyph-name="scommaaccent" unicode="&#x219;" horiz-adv-x="361" 
d="M315 359h-86q-17 0 -24.5 7.5t-7.5 24.5v43q0 11 -15 11q-16 0 -16 -11v-44q0 -17 17 -25l76 -37q52 -25 71 -53.5t19 -80.5v-62q0 -138 -138 -138h-61q-138 0 -138 138v47q0 34 35 34h84q32 0 32 -32v-45q0 -11 11 -11h11q11 0 11 11v44q0 17 -17 25l-76 38
q-52 25 -71 53.5t-19 80.5v61q0 138 138 138h59q138 0 138 -138v-45q0 -34 -33 -34zM167 -275q-15 -14 -31 0l-5 4q-14 11 -2 27l6 9q27 40 27 67h-9q-36 0 -36 36v71q0 36 36 36h54q36 0 36 -36v-84q0 -36 -12 -60t-46 -54z" />
    <glyph glyph-name="schwa" unicode="&#x259;" horiz-adv-x="370" 
d="M12 398v40q0 138 138 138h70q138 0 138 -138v-306q0 -138 -138 -138h-70q-138 0 -138 138v180q0 36 36 36h152v86q0 11 -11 11h-12q-11 0 -11 -11v-38q0 -33 -33 -33h-86q-35 0 -35 35zM184 125q16 0 16 11v93h-32v-93q0 -11 16 -11z" />
    <glyph glyph-name="circumflex" unicode="&#x2c6;" horiz-adv-x="500" 
d="M220 738h60q36 0 55 -34l36 -64q10 -20 2.5 -32.5t-25.5 -12.5h-26q-34 0 -51 25l-21 31l-21 -31q-17 -25 -51 -25h-26q-19 0 -26 12.5t3 32.5l36 64q19 34 55 34z" />
    <glyph glyph-name="caron" unicode="&#x2c7;" horiz-adv-x="500" 
d="M280 595h-60q-36 0 -55 34l-36 64q-10 20 -2.5 32.5t25.5 12.5h26q34 0 51 -25l21 -31l21 31q17 25 51 25h26q19 0 26 -12.5t-3 -32.5l-36 -64q-19 -34 -55 -34z" />
    <glyph glyph-name="breve" unicode="&#x2d8;" horiz-adv-x="500" 
d="M226 592q-46 0 -74.5 26.5t-28.5 70.5v5q0 14 8 24t22 10h50q12 0 19.5 -8.5t7.5 -19.5v-1q0 -19 20 -19t20 19v1q0 11 7.5 19.5t20.5 8.5h49q14 0 22 -10t8 -24v-5q0 -44 -28.5 -70.5t-74.5 -26.5h-48z" />
    <glyph glyph-name="dotaccent" unicode="&#x2d9;" horiz-adv-x="500" 
d="M218 719h64q36 0 36 -36v-57q0 -36 -36 -36h-64q-36 0 -36 36v57q0 36 36 36z" />
    <glyph glyph-name="ring" unicode="&#x2da;" horiz-adv-x="500" 
d="M276 731q77 0 77 -65v-9q0 -65 -77 -65h-52q-77 0 -77 70q0 69 77 69h52zM276 614q52 0 52 43v9q0 43 -52 43h-52q-52 0 -52 -47q0 -48 52 -48h52z" />
    <glyph glyph-name="ogonek" unicode="&#x2db;" horiz-adv-x="500" 
d="M229 11l5 7q12 18 31 18h52q13 0 18 -7.5t-2 -20.5l-11 -18q-12 -21 -12 -26q0 -10 12 -10h1q29 0 29 -28v-20q0 -36 -44 -36h-44q-30 0 -47 15t-17 41v10q0 33 29 75z" />
    <glyph glyph-name="tilde" unicode="&#x2dc;" horiz-adv-x="500" 
d="M110 666q0 62 62 62h11q38 0 66 -20l20 -14q14 -9 17 -9q9 0 9 12q0 31 34 31h27q34 0 34 -31v-40q0 -62 -62 -62h-11q-38 0 -66 20l-20 14q-13 9 -17 9q-9 0 -9 -12q0 -31 -34 -31h-27q-34 0 -34 31v40z" />
    <glyph glyph-name="hungarumlaut" unicode="&#x2dd;" horiz-adv-x="500" 
d="M194 733h43q23 0 29.5 -15.5t-5.5 -35.5l-38 -70q-12 -22 -42 -22h-15q-42 0 -32 43l17 69q7 31 43 31zM322 733h43q23 0 29.5 -15.5t-5.5 -35.5l-38 -70q-12 -22 -42 -22h-15q-42 0 -32 43l17 69q7 31 43 31z" />
    <glyph glyph-name="commaaccent" unicode="&#x326;" horiz-adv-x="500" 
d="M238 -275q-15 -14 -31 0l-5 4q-14 11 -2 27l6 9q27 40 27 67h-9q-36 0 -36 36v71q0 36 36 36h54q36 0 36 -36v-84q0 -36 -12 -60t-46 -54z" />
    <glyph glyph-name="Wgrave" unicode="&#x1e80;" horiz-adv-x="564" 
d="M211 843h63q36 0 50 -31l25 -53q6 -14 -1.5 -26.5t-26.5 -12.5h-47q-30 0 -45 18l-45 56q-14 18 -6 33.5t33 15.5zM218 0h-109q-32 0 -36 32l-76 628q-6 40 35 40h104q33 0 36 -33l22 -253l23 253q3 33 35 33h89q33 0 36 -33l22 -253l23 253q3 33 36 33h73q40 0 36 -40
l-76 -628q-4 -32 -36 -32h-110q-32 0 -36 32l-28 259l-27 -259q-3 -32 -36 -32z" />
    <glyph glyph-name="wgrave" unicode="&#x1e81;" horiz-adv-x="561" 
d="M192 733h72q22 0 32.5 -8.5t16.5 -28.5l22 -66q5 -16 -4 -28t-27 -12h-43q-35 0 -50 23l-45 70q-13 19 -5 34.5t31 15.5zM219 0h-114q-32 0 -36 31l-66 498q-6 41 35 41h79q33 0 36 -33l20 -284l28 285q3 32 36 32h97q32 0 35 -33l27 -281l22 281q3 33 36 33h68
q42 0 36 -41l-67 -498q-4 -31 -35 -31h-115q-32 0 -35 32l-26 228l-25 -228q-4 -32 -36 -32z" />
    <glyph glyph-name="Wacute" unicode="&#x1e82;" horiz-adv-x="564" 
d="M389 843q25 0 33 -15.5t-6 -33.5l-45 -56q-15 -18 -45 -18h-47q-19 0 -26.5 12.5t-1.5 26.5l25 53q14 31 50 31h63zM218 0h-109q-32 0 -36 32l-76 628q-6 40 35 40h104q33 0 36 -33l22 -253l23 253q3 33 35 33h89q33 0 36 -33l22 -253l23 253q3 33 36 33h73q40 0 36 -40
l-76 -628q-4 -32 -36 -32h-110q-32 0 -36 32l-28 259l-27 -259q-3 -32 -36 -32z" />
    <glyph glyph-name="wacute" unicode="&#x1e83;" horiz-adv-x="561" 
d="M376 733q23 0 31 -15.5t-5 -34.5l-45 -70q-15 -23 -50 -23h-43q-18 0 -27 12t-4 28l22 66q6 20 16.5 28.5t32.5 8.5h72zM219 0h-114q-32 0 -36 31l-66 498q-6 41 35 41h79q33 0 36 -33l20 -284l28 285q3 32 36 32h97q32 0 35 -33l27 -281l22 281q3 33 36 33h68
q42 0 36 -41l-67 -498q-4 -31 -35 -31h-115q-32 0 -35 32l-26 228l-25 -228q-4 -32 -36 -32z" />
    <glyph glyph-name="Wdieresis" unicode="&#x1e84;" horiz-adv-x="564" 
d="M204 843h50q36 0 36 -36v-51q0 -36 -36 -36h-50q-36 0 -36 36v51q0 36 36 36zM396 720h-50q-36 0 -36 36v51q0 36 36 36h50q36 0 36 -36v-51q0 -36 -36 -36zM218 0h-109q-32 0 -36 32l-76 628q-6 40 35 40h104q33 0 36 -33l22 -253l23 253q3 33 35 33h89q33 0 36 -33
l22 -253l23 253q3 33 36 33h73q40 0 36 -40l-76 -628q-4 -32 -36 -32h-110q-32 0 -36 32l-28 259l-27 -259q-3 -32 -36 -32z" />
    <glyph glyph-name="wdieresis" unicode="&#x1e85;" horiz-adv-x="561" 
d="M190 733h48q36 0 36 -36v-71q0 -36 -36 -36h-48q-36 0 -36 36v71q0 36 36 36zM378 590h-48q-36 0 -36 36v71q0 36 36 36h48q36 0 36 -36v-71q0 -36 -36 -36zM219 0h-114q-32 0 -36 31l-66 498q-6 41 35 41h79q33 0 36 -33l20 -284l28 285q3 32 36 32h97q32 0 35 -33
l27 -281l22 281q3 33 36 33h68q42 0 36 -41l-67 -498q-4 -31 -35 -31h-115q-32 0 -35 32l-26 228l-25 -228q-4 -32 -36 -32z" />
    <glyph glyph-name="Ygrave" unicode="&#x1ef2;" horiz-adv-x="370" 
d="M107 843h63q36 0 50 -31l25 -53q6 -14 -1.5 -26.5t-26.5 -12.5h-47q-30 0 -45 18l-45 56q-14 18 -6 33.5t33 15.5zM270 253v-217q0 -36 -36 -36h-98q-36 0 -36 36v206l-102 413q-10 45 35 45h99q32 0 36 -31l27 -179l30 180q6 30 36 30h76q47 0 35 -45z" />
    <glyph glyph-name="ygrave" unicode="&#x1ef3;" horiz-adv-x="363" 
d="M93 733h72q22 0 32.5 -8.5t16.5 -28.5l22 -66q5 -16 -4 -28t-27 -12h-43q-35 0 -50 23l-45 70q-13 19 -5 34.5t31 15.5zM365 527l-128 -608q-7 -29 -35 -29h-82q-45 0 -36 44l18 78l-105 515q-7 43 36 43h88q32 0 36 -32l11 -88q7 -59 16 -194q11 139 17 194l11 88
q4 32 36 32h81q45 0 36 -43z" />
    <glyph glyph-name="enspace" unicode="&#x2002;" horiz-adv-x="500" 
 />
    <glyph glyph-name="emspace" unicode="&#x2003;" horiz-adv-x="1000" 
 />
    <glyph glyph-name="threeperemspace" unicode="&#x2004;" horiz-adv-x="333" 
 />
    <glyph glyph-name="fourperemspace" unicode="&#x2005;" horiz-adv-x="250" 
 />
    <glyph glyph-name="thinspace" unicode="&#x2009;" horiz-adv-x="133" 
 />
    <glyph glyph-name="hairspace" unicode="&#x200a;" horiz-adv-x="75" 
 />
    <glyph glyph-name="endash" unicode="&#x2013;" 
d="M6 272v46q0 36 36 36h292q36 0 36 -36v-46q0 -36 -36 -36h-292q-36 0 -36 36z" />
    <glyph glyph-name="emdash" unicode="&#x2014;" horiz-adv-x="566" 
d="M6 272v46q0 36 36 36h482q36 0 36 -36v-46q0 -36 -36 -36h-482q-36 0 -36 36z" />
    <glyph glyph-name="quoteleft" unicode="&#x2018;" horiz-adv-x="184" 
d="M136 354h-88q-36 0 -36 36v115q0 40 9.5 70t19.5 44.5t42 54.5l15 19q14 18 36 8l14 -6q10 -4 13 -13t-3 -20l-4 -7q-23 -40 -30 -59.5t-7 -44.5h19q36 0 36 -36v-125q0 -36 -36 -36z" />
    <glyph glyph-name="quoteright" unicode="&#x2019;" horiz-adv-x="184" 
d="M86 361q-14 -18 -36 -8l-14 6q-10 4 -13 13t3 20l4 7q23 40 30 59.5t7 44.5h-19q-36 0 -36 36v125q0 36 36 36h88q36 0 36 -36v-115q0 -40 -9.5 -70t-19.5 -44.5t-42 -54.5z" />
    <glyph glyph-name="quotesinglbase" unicode="&#x201a;" horiz-adv-x="184" 
d="M86 -142q-14 -18 -36 -8l-14 6q-10 4 -13 13t3 20l4 7q23 40 30 59.5t7 44.5h-19q-36 0 -36 36v125q0 36 36 36h88q36 0 36 -36v-115q0 -40 -9.5 -70t-19.5 -44.5t-42 -54.5z" />
    <glyph glyph-name="quotedblleft" unicode="&#x201c;" horiz-adv-x="340" 
d="M124 354h-76q-36 0 -36 36v115q0 40 9 70.5t17.5 44t37.5 54.5l7 10q18 26 44 15l10 -4q9 -4 12 -13t-3 -20l-4 -7q-23 -40 -30 -59.5t-7 -44.5h19q36 0 36 -36v-125q0 -36 -36 -36zM292 354h-76q-36 0 -36 36v115q0 40 9 70.5t17.5 44t37.5 54.5l7 10q18 26 44 15l10 -4
q22 -9 9 -33l-4 -7q-23 -40 -30 -59.5t-7 -44.5h19q36 0 36 -36v-125q0 -36 -36 -36z" />
    <glyph glyph-name="quotedblright" unicode="&#x201d;" horiz-adv-x="340" 
d="M257 370q-18 -26 -44 -15l-10 4q-9 4 -12 13t3 20l4 7q23 40 30 59.5t7 44.5h-19q-36 0 -36 36v125q0 36 36 36h76q36 0 36 -36v-115q0 -40 -9 -70.5t-17.5 -44t-37.5 -54.5zM89 370q-18 -26 -44 -15l-10 4q-9 4 -12 13t3 20l4 7q23 40 30 59.5t7 44.5h-19q-36 0 -36 36
v125q0 36 36 36h76q36 0 36 -36v-115q0 -40 -9 -70.5t-17.5 -44t-37.5 -54.5z" />
    <glyph glyph-name="quotedblbase" unicode="&#x201e;" horiz-adv-x="340" 
d="M257 -133q-18 -26 -44 -15l-10 4q-9 4 -12 13t3 20l4 7q23 40 30 59.5t7 44.5h-19q-36 0 -36 36v125q0 36 36 36h76q36 0 36 -36v-115q0 -40 -9 -70.5t-17.5 -44t-37.5 -54.5zM89 -133q-18 -26 -44 -15l-10 4q-9 4 -12 13t3 20l4 7q23 40 30 59.5t7 44.5h-19
q-36 0 -36 36v125q0 36 36 36h76q36 0 36 -36v-115q0 -40 -9 -70.5t-17.5 -44t-37.5 -54.5z" />
    <glyph glyph-name="dagger" unicode="&#x2020;" horiz-adv-x="284" 
d="M282 572v-19q0 -39 -39 -38l-58 7l6 -190q0 -38 -37 -38h-24q-37 0 -37 38l6 190l-58 -7q-39 -1 -39 38v19q0 39 39 38l58 -6l-5 64q-1 39 38 39h21q38 0 37 -39l-5 -64l58 6q39 1 39 -38z" />
    <glyph glyph-name="daggerdbl" unicode="&#x2021;" horiz-adv-x="284" 
d="M282 258v-19q0 -39 -39 -38l-57 5l4 -63q1 -39 -37 -39h-21q-39 0 -38 39l4 63l-57 -5q-39 -1 -39 38v19q0 39 39 38l57 -6l-5 115l5 116l-57 -6q-39 -1 -39 38v19q0 39 39 38l57 -5l-4 63q-1 39 38 39h21q38 0 37 -39l-4 -63l57 5q39 1 39 -38v-19q0 -39 -39 -38l-57 6
l5 -116l-5 -115l57 6q39 1 39 -38z" />
    <glyph glyph-name="bullet" unicode="&#x2022;" horiz-adv-x="260" 
d="M153 498q43 0 66.5 -23t23.5 -67v-112q0 -44 -23.5 -67t-66.5 -23h-46q-43 0 -66.5 23t-23.5 67v112q0 44 23.5 67t66.5 23h46z" />
    <glyph glyph-name="ellipsis" unicode="&#x2026;" horiz-adv-x="552" 
d="M416 197h88q36 0 36 -36v-125q0 -36 -36 -36h-88q-36 0 -36 36v125q0 36 36 36zM232 197h88q36 0 36 -36v-125q0 -36 -36 -36h-88q-36 0 -36 36v125q0 36 36 36zM48 197h88q36 0 36 -36v-125q0 -36 -36 -36h-88q-36 0 -36 36v125q0 36 36 36z" />
    <glyph glyph-name="guilsinglleft" unicode="&#x2039;" horiz-adv-x="216" 
d="M13 264q-11 24 0 50l55 123q14 32 48 32h47q22 0 31 -13t1 -35l-44 -132l44 -130q8 -22 -1 -35t-31 -13h-47q-34 0 -48 32z" />
    <glyph glyph-name="guilsinglright" unicode="&#x203a;" horiz-adv-x="216" 
d="M203 314q11 -26 0 -50l-55 -121q-14 -32 -48 -32h-47q-22 0 -31 13t-1 35l44 130l-44 132q-8 22 1 35t31 13h47q34 0 48 -32z" />
    <glyph glyph-name="Euro" unicode="&#x20ac;" horiz-adv-x="412" 
d="M253 -6h-61q-150 0 -150 150v110h-1q-36 0 -36 36v18q0 36 36 36h1v19h-1q-36 0 -36 36v18q0 36 36 36h1v103q0 150 150 150h59q151 0 150 -150v-46q0 -36 -36 -36h-89q-36 0 -36 36v43q0 13 -16 13q-17 0 -17 -13v-100h112q36 0 36 -36v-18q0 -36 -36 -36h-112v-19h112
q36 0 36 -36v-18q0 -36 -36 -36h-112v-107q0 -13 18 -13q17 0 17 13v50q0 36 36 36h89q36 0 36 -36v-53q0 -150 -150 -150z" />
    <glyph glyph-name="published" unicode="&#x2117;" horiz-adv-x="500" 
d="M329 -6h-158q-79 0 -114.5 37t-35.5 123v392q0 86 35.5 123t114.5 37h158q79 0 114.5 -37t35.5 -123v-392q0 -86 -35.5 -123t-114.5 -37zM329 18q68 0 96 30t28 106v392q0 76 -28 106t-96 30h-158q-68 0 -96 -30t-28 -106v-392q0 -76 28 -106t96 -30h158zM280 254h-36
v-138q0 -36 -36 -36h-60q-36 0 -36 36v464q0 19 11 30t30 11h126q115 0 115 -115v-138q0 -114 -114 -114zM266 372v130q0 10 -11 10h-11v-151h11q11 0 11 11z" />
    <glyph glyph-name="servicemark" unicode="&#x2120;" horiz-adv-x="534" 
d="M428 381v178l-23 -173q-4 -31 -36 -31h-7q-32 0 -36 32l-20 172l-1 -179q0 -25 -29 -25h-10q-30 0 -30 26v283q0 36 36 36h53q18 0 26 -7.5t10 -24.5l14 -134l13 133q3 33 36 33h54q36 0 36 -36v-284q0 -25 -29 -25h-27q-30 0 -30 26zM118 578l61 -34q38 -20 38 -65v-53
q0 -74 -82 -74h-38q-79 0 -79 74v30q0 25 25 25h36q23 0 23 -23v-26q0 -10 10 -10h7q10 0 10 10v27q0 15 -12 22l-63 35q-36 20 -36 65v48q0 74 79 74h38q82 0 82 -74v-27q0 -23 -22 -23h-41q-21 0 -21 21v23q0 10 -10 10h-7q-10 0 -10 -10v-23q0 -15 12 -22z" />
    <glyph glyph-name="trademark" unicode="&#x2122;" horiz-adv-x="526" 
d="M40 623q-30 0 -30 27v23q0 27 30 27h140q30 0 30 -27v-23q0 -27 -30 -27h-26v-231q0 -36 -36 -36h-16q-36 0 -36 36v231h-26zM420 381v178l-23 -173q-4 -31 -36 -31h-7q-32 0 -36 32l-20 172l-1 -179q0 -25 -29 -25h-10q-30 0 -30 26v283q0 36 36 36h53q18 0 26 -7.5
t10 -24.5l14 -134l13 133q3 33 36 33h54q36 0 36 -36v-284q0 -25 -29 -25h-27q-30 0 -30 26z" />
    <glyph glyph-name="minus" unicode="&#x2212;" horiz-adv-x="334" 
d="M6 328v49q0 36 36 36h250q36 0 36 -36v-49q0 -36 -36 -36h-250q-36 0 -36 36z" />
    <glyph glyph-name="f_f" unicode="&#xfb00;" horiz-adv-x="478" 
d="M196 36q0 -36 -36 -36h-88q-36 0 -36 36v401q-36 0 -36 36v61q0 36 36 36v24q0 116 116 116h60q36 0 36 -36v-44q0 -36 -36 -36h-3q-23 0 -23 -24h76v24q0 116 116 116h60q36 0 36 -36v-44q0 -36 -36 -36h-3q-23 0 -23 -24h26q36 0 36 -36v-61q0 -36 -36 -36h-16v-401
q0 -36 -36 -36h-88q-36 0 -36 36v401h-66v-401z" />
    <glyph glyph-name="fi" unicode="&#xfb01;" horiz-adv-x="438" 
d="M391 588h-92q-36 0 -36 36v53q0 36 36 36h92q36 0 36 -36v-53q0 -36 -36 -36zM389 0h-88q-36 0 -36 36v498q0 36 36 36h88q36 0 36 -36v-498q0 -36 -36 -36zM196 36q0 -36 -36 -36h-88q-36 0 -36 36v401q-36 0 -36 36v61q0 36 36 36v24q0 116 116 116h60q36 0 36 -36v-44
q0 -36 -36 -36h-3q-23 0 -23 -24h26q36 0 36 -36v-61q0 -36 -36 -36h-16v-401z" />
    <glyph glyph-name="fl" unicode="&#xfb02;" horiz-adv-x="438" 
d="M389 0h-88q-36 0 -36 36v638q0 36 36 36h88q36 0 36 -36v-638q0 -36 -36 -36zM196 36q0 -36 -36 -36h-88q-36 0 -36 36v401q-36 0 -36 36v61q0 36 36 36v24q0 116 116 116h60q36 0 36 -36v-44q0 -36 -36 -36h-3q-23 0 -23 -24h26q36 0 36 -36v-61q0 -36 -36 -36h-16v-401
z" />
    <glyph glyph-name="f_f_i" unicode="&#xfb03;" horiz-adv-x="664" 
d="M617 588h-92q-36 0 -36 36v53q0 36 36 36h92q36 0 36 -36v-53q0 -36 -36 -36zM615 0h-88q-36 0 -36 36v498q0 36 36 36h88q36 0 36 -36v-498q0 -36 -36 -36zM196 36q0 -36 -36 -36h-88q-36 0 -36 36v401q-36 0 -36 36v61q0 36 36 36v24q0 116 116 116h60q36 0 36 -36v-44
q0 -36 -36 -36h-3q-23 0 -23 -24h76v24q0 116 116 116h60q36 0 36 -36v-44q0 -36 -36 -36h-3q-23 0 -23 -24h26q36 0 36 -36v-61q0 -36 -36 -36h-16v-401q0 -36 -36 -36h-88q-36 0 -36 36v401h-66v-401z" />
    <glyph glyph-name="f_f_l" unicode="&#xfb04;" horiz-adv-x="664" 
d="M615 0h-88q-36 0 -36 36v638q0 36 36 36h88q36 0 36 -36v-638q0 -36 -36 -36zM196 36q0 -36 -36 -36h-88q-36 0 -36 36v401q-36 0 -36 36v61q0 36 36 36v24q0 116 116 116h60q36 0 36 -36v-44q0 -36 -36 -36h-3q-23 0 -23 -24h76v24q0 116 116 116h60q36 0 36 -36v-44
q0 -36 -36 -36h-3q-23 0 -23 -24h26q36 0 36 -36v-61q0 -36 -36 -36h-16v-401q0 -36 -36 -36h-88q-36 0 -36 36v401h-66v-401z" />
    <glyph glyph-name="Q.alt" horiz-adv-x="406" 
d="M365 0h-202q-150 0 -150 150v406q0 150 150 150h80q150 0 150 -150v-339q0 -58 -12.5 -89t-46.5 -54q17 1 34 3q32 2 32 -30l1 -10q1 -37 -36 -37zM183 141q0 -13 13 -13h14q13 0 13 13v412q0 13 -13 13h-14q-13 0 -13 -13v-412z" />
    <glyph glyph-name="a.alt" 
d="M187 132q8 0 17 3v300q-9 3 -17 3q-15 0 -15 -15v-276q0 -15 15 -15zM206 32v3q-45 -41 -101 -41q-45 0 -69 27t-24 78v372q0 51 24 78t69 27q56 0 99 -38q3 32 36 32h88q36 0 36 -36v-498q0 -36 -36 -36h-90q-32 0 -32 32z" />
    <glyph glyph-name="y.alt" horiz-adv-x="363" 
d="M269 -28q-8 -48 -26.5 -65t-59.5 -17h-106q-40 0 -40 36v73q0 32 30 32h1q14 0 11 14l-80 483q-7 42 36 42h84q32 0 35 -32l27 -267l33 267q4 32 36 32h78q44 0 36 -42z" />
    <glyph glyph-name="aacute.alt" 
d="M287 733q23 0 31 -15.5t-5 -34.5l-45 -70q-15 -23 -50 -23h-43q-18 0 -27 12t-4 28l22 66q6 20 16.5 28.5t32.5 8.5h72zM187 132q8 0 17 3v300q-9 3 -17 3q-15 0 -15 -15v-276q0 -15 15 -15zM206 32v3q-45 -41 -101 -41q-45 0 -69 27t-24 78v372q0 51 24 78t69 27
q56 0 99 -38q3 32 36 32h88q36 0 36 -36v-498q0 -36 -36 -36h-90q-32 0 -32 32z" />
    <glyph glyph-name="abreve.alt" 
d="M171 592q-46 0 -74.5 26.5t-28.5 70.5v5q0 14 8 24t22 10h50q12 0 19.5 -8.5t7.5 -19.5v-1q0 -19 20 -19t20 19v1q0 11 7.5 19.5t20.5 8.5h49q14 0 22 -10t8 -24v-5q0 -44 -28.5 -70.5t-74.5 -26.5h-48zM187 132q8 0 17 3v300q-9 3 -17 3q-15 0 -15 -15v-276
q0 -15 15 -15zM206 32v3q-45 -41 -101 -41q-45 0 -69 27t-24 78v372q0 51 24 78t69 27q56 0 99 -38q3 32 36 32h88q36 0 36 -36v-498q0 -36 -36 -36h-90q-32 0 -32 32z" />
    <glyph glyph-name="acircumflex.alt" 
d="M165 738h60q36 0 55 -34l36 -64q10 -20 2.5 -32.5t-25.5 -12.5h-26q-34 0 -51 25l-21 31l-21 -31q-17 -25 -51 -25h-26q-19 0 -26 12.5t3 32.5l36 64q19 34 55 34zM187 132q8 0 17 3v300q-9 3 -17 3q-15 0 -15 -15v-276q0 -15 15 -15zM206 32v3q-45 -41 -101 -41
q-45 0 -69 27t-24 78v372q0 51 24 78t69 27q56 0 99 -38q3 32 36 32h88q36 0 36 -36v-498q0 -36 -36 -36h-90q-32 0 -32 32z" />
    <glyph glyph-name="adieresis.alt" 
d="M101 733h48q36 0 36 -36v-71q0 -36 -36 -36h-48q-36 0 -36 36v71q0 36 36 36zM289 590h-48q-36 0 -36 36v71q0 36 36 36h48q36 0 36 -36v-71q0 -36 -36 -36zM187 132q8 0 17 3v300q-9 3 -17 3q-15 0 -15 -15v-276q0 -15 15 -15zM206 32v3q-45 -41 -101 -41q-45 0 -69 27
t-24 78v372q0 51 24 78t69 27q56 0 99 -38q3 32 36 32h88q36 0 36 -36v-498q0 -36 -36 -36h-90q-32 0 -32 32z" />
    <glyph glyph-name="agrave.alt" 
d="M103 733h72q22 0 32.5 -8.5t16.5 -28.5l22 -66q5 -16 -4 -28t-27 -12h-43q-35 0 -50 23l-45 70q-13 19 -5 34.5t31 15.5zM187 132q8 0 17 3v300q-9 3 -17 3q-15 0 -15 -15v-276q0 -15 15 -15zM206 32v3q-45 -41 -101 -41q-45 0 -69 27t-24 78v372q0 51 24 78t69 27
q56 0 99 -38q3 32 36 32h88q36 0 36 -36v-498q0 -36 -36 -36h-90q-32 0 -32 32z" />
    <glyph glyph-name="amacron.alt" 
d="M63 638v34q0 36 36 36h192q36 0 36 -36v-34q0 -36 -36 -36h-192q-36 0 -36 36zM187 132q8 0 17 3v300q-9 3 -17 3q-15 0 -15 -15v-276q0 -15 15 -15zM206 32v3q-45 -41 -101 -41q-45 0 -69 27t-24 78v372q0 51 24 78t69 27q56 0 99 -38q3 32 36 32h88q36 0 36 -36v-498
q0 -36 -36 -36h-90q-32 0 -32 32z" />
    <glyph glyph-name="aogonek.alt" 
d="M332 -129h-44q-30 0 -47 15t-17 41v10q0 28 21 63h-7q-32 0 -32 32v3q-45 -41 -101 -41q-45 0 -69 27t-24 78v372q0 51 24 78t69 27q54 0 99 -38q3 32 36 32h88q36 0 36 -36v-498q0 -16 -7 -27l-11 -18q-12 -21 -12 -26q0 -10 12 -10h1q29 0 29 -28v-20q0 -36 -44 -36z
M187 132q8 0 17 3v300q-9 3 -17 3q-15 0 -15 -15v-276q0 -15 15 -15z" />
    <glyph glyph-name="aring.alt" 
d="M221 731q77 0 77 -65v-9q0 -65 -77 -65h-52q-77 0 -77 70q0 69 77 69h52zM221 614q52 0 52 43v9q0 43 -52 43h-52q-52 0 -52 -47q0 -48 52 -48h52zM187 132q8 0 17 3v300q-9 3 -17 3q-15 0 -15 -15v-276q0 -15 15 -15zM206 32v3q-45 -41 -101 -41q-45 0 -69 27t-24 78
v372q0 51 24 78t69 27q56 0 99 -38q3 32 36 32h88q36 0 36 -36v-498q0 -36 -36 -36h-90q-32 0 -32 32z" />
    <glyph glyph-name="aringacute.alt" 
d="M290 885q23 0 31 -15.5t-5 -34.5l-45 -70q-15 -23 -50 -23h-43q-18 0 -27 12t-4 28l22 66q6 20 16.5 28.5t32.5 8.5h72zM221 731q77 0 77 -65v-9q0 -65 -77 -65h-52q-77 0 -77 70q0 69 77 69h52zM221 614q52 0 52 43v9q0 43 -52 43h-52q-52 0 -52 -47q0 -48 52 -48h52z
M187 132q8 0 17 3v300q-9 3 -17 3q-15 0 -15 -15v-276q0 -15 15 -15zM206 32v3q-45 -41 -101 -41q-45 0 -69 27t-24 78v372q0 51 24 78t69 27q56 0 99 -38q3 32 36 32h88q36 0 36 -36v-498q0 -36 -36 -36h-90q-32 0 -32 32z" />
    <glyph glyph-name="atilde.alt" 
d="M55 666q0 62 62 62h11q38 0 66 -20l20 -14q14 -9 17 -9q9 0 9 12q0 31 34 31h27q34 0 34 -31v-40q0 -62 -62 -62h-11q-38 0 -66 20l-20 14q-14 9 -17 9q-9 0 -9 -12q0 -31 -34 -31h-27q-34 0 -34 31v40zM187 132q8 0 17 3v300q-9 3 -17 3q-15 0 -15 -15v-276
q0 -15 15 -15zM206 32v3q-45 -41 -101 -41q-45 0 -69 27t-24 78v372q0 51 24 78t69 27q56 0 99 -38q3 32 36 32h88q36 0 36 -36v-498q0 -36 -36 -36h-90q-32 0 -32 32z" />
    <glyph glyph-name="Gcommaaccent.alt" horiz-adv-x="406" 
d="M225 147v111h-5q-21 0 -21 21v80q0 19 7.5 27.5t25.5 8.5h125q36 0 36 -36v-215q0 -150 -150 -150h-80q-150 0 -150 150v412q0 150 150 150h78q150 0 150 -150v-93q0 -36 -36 -36h-96q-36 0 -36 36v90q0 13 -14 13h-13q-13 0 -13 -13v-405q0 -14 13 -14h16q13 0 13 13z
M134 -141q14 48 14 86v1q0 31 29 31h59q30 0 30 -28v-2q0 -58 -31 -101q-16 -22 -41 -22h-34q-15 0 -23 9t-3 26z" />
    <glyph glyph-name="gcommaaccent.alt" 
d="M257 711q-14 -48 -14 -86v-1q0 -31 -29 -31h-59q-30 0 -30 28v2q0 58 31 101q16 22 41 22h34q15 0 23 -9t3 -26zM187 187q8 0 17 3v245q-9 3 -17 3q-15 0 -15 -15v-221q0 -15 15 -15zM242 -114h-109q-118 0 -118 111v2q0 36 36 36h79q32 0 32 -28q0 -14 15 -14h14
q15 0 15 15v82q-47 -38 -101 -38q-45 0 -69 27t-24 78v314q0 51 24 78t69 27q54 0 101 -39q1 33 36 33h86q36 0 36 -36v-526q0 -122 -122 -122z" />
    <glyph glyph-name="Kcommaaccent.alt" horiz-adv-x="396" 
d="M359 0h-102q-31 0 -35 31l-37 258v-253q0 -36 -36 -36h-98q-36 0 -36 36v628q0 36 36 36h98q36 0 36 -36v-261l43 267q6 30 36 30h96q43 0 36 -43l-57 -295l56 -320q7 -42 -36 -42zM136 -141q14 48 14 86v1q0 31 29 31h59q30 0 30 -28v-2q0 -58 -31 -101q-16 -22 -41 -22
h-34q-15 0 -23 9t-3 26z" />
    <glyph glyph-name="kcommaaccent.alt" horiz-adv-x="381" 
d="M344 0h-93q-31 0 -35 30l-44 237v-231q0 -36 -36 -36h-88q-36 0 -36 36v638q0 36 36 36h88q36 0 36 -36v-371l52 239q6 28 35 28h87q46 0 35 -45l-60 -233l58 -248q11 -44 -35 -44zM126 -141q14 48 14 86v1q0 31 29 31h59q30 0 30 -28v-2q0 -58 -31 -101q-16 -22 -41 -22
h-34q-15 0 -23 9t-3 26z" />
    <glyph glyph-name="Lcommaaccent.alt" horiz-adv-x="304" 
d="M15 36v628q0 36 36 36h98q36 0 36 -36v-519h81q36 0 36 -36v-73q0 -36 -36 -36h-215q-36 0 -36 36zM89 -141q14 48 14 86v1q0 31 29 31h59q30 0 30 -28v-2q0 -58 -31 -101q-16 -22 -41 -22h-34q-15 0 -23 9t-3 26z" />
    <glyph glyph-name="lcommaaccent.alt" horiz-adv-x="186" 
d="M137 0h-88q-36 0 -36 36v638q0 36 36 36h88q36 0 36 -36v-638q0 -36 -36 -36zM24 -141q14 48 14 86v1q0 31 29 31h59q30 0 30 -28v-2q0 -58 -31 -101q-16 -22 -41 -22h-34q-15 0 -23 9t-3 26z" />
    <glyph glyph-name="Ncommaaccent.alt" horiz-adv-x="392" 
d="M341 0h-92q-28 0 -35 28l-61 255l2 -247q0 -36 -36 -36h-68q-36 0 -36 36v628q0 36 36 36h98q29 0 36 -28l52 -224v216q0 36 36 36h68q36 0 36 -36v-628q0 -36 -36 -36zM127 -141q14 48 14 86v1q0 31 29 31h59q30 0 30 -28v-2q0 -58 -31 -101q-16 -22 -41 -22h-34
q-15 0 -23 9t-3 26z" />
    <glyph glyph-name="ncommaaccent.alt" 
d="M172 36q0 -36 -36 -36h-88q-36 0 -36 36v498q0 36 36 36h86q36 0 36 -33q55 39 101 39q45 0 69 -27t24 -78v-435q0 -36 -36 -36h-88q-36 0 -36 36v387q0 15 -15 15q-8 0 -17 -3v-399zM119 -141q14 48 14 86v1q0 31 29 31h59q30 0 30 -28v-2q0 -58 -31 -101
q-16 -22 -41 -22h-34q-15 0 -23 9t-3 26z" />
    <glyph glyph-name="Oslash.alt" horiz-adv-x="406" 
d="M195 567q-13 0 -13 -13l-3 -221l45 191v30q0 13 -13 13h-16zM182 146q0 -13 13 -13h16q13 0 13 13l3 221l-45 -191v-30zM131 -3l-3 -8q-7 -25 -34 -24h-47q-15 -1 -21.5 9.5t-0.5 26.5l17 45q-29 36 -29 106v404q0 150 150 150h72q21 0 40 -3l3 9q7 23 34 23h47
q15 0 21.5 -10.5t0.5 -25.5l-17 -44q29 -40 29 -107v-404q0 -150 -150 -150h-72q-22 0 -40 3z" />
    <glyph glyph-name="oslash.alt" 
d="M182 443q-11 0 -11 -11l-3 -154l37 135v19q0 11 -11 11h-12zM171 138q0 -11 11 -11h12q11 0 11 11l3 154l-37 -134v-20zM42 37q-30 36 -30 101v300q0 138 138 138h70q24 0 47 -5l7 17q8 17 26 17h36q11 0 16 -8t1 -19l-19 -45q30 -34 30 -101v-300q0 -138 -138 -138h-70
q-24 0 -47 5l-7 -17q-8 -17 -26 -17h-36q-11 0 -16 8t-1 19z" />
    <glyph glyph-name="Oslashacute.alt" horiz-adv-x="406" 
d="M292 843q25 0 33 -15.5t-6 -33.5l-45 -56q-15 -18 -45 -18h-47q-19 0 -26.5 12.5t-1.5 26.5l25 53q14 31 50 31h63zM195 567q-13 0 -13 -13l-3 -221l45 191v30q0 13 -13 13h-16zM182 146q0 -13 13 -13h16q13 0 13 13l3 221l-45 -191v-30zM131 -3l-3 -8q-7 -25 -34 -24
h-47q-15 -1 -21.5 9.5t-0.5 26.5l17 45q-29 36 -29 106v404q0 150 150 150h72q21 0 40 -3l3 9q7 23 34 23h47q15 0 21.5 -10.5t0.5 -25.5l-17 -44q29 -40 29 -107v-404q0 -150 -150 -150h-72q-22 0 -40 3z" />
    <glyph glyph-name="oslashacute.alt" 
d="M280 733q23 0 31 -15.5t-5 -34.5l-45 -70q-15 -23 -50 -23h-43q-18 0 -27 12t-4 28l22 66q6 20 16.5 28.5t32.5 8.5h72zM182 443q-11 0 -11 -11l-3 -154l37 135v19q0 11 -11 11h-12zM171 138q0 -11 11 -11h12q11 0 11 11l3 154l-37 -134v-20zM42 37q-30 36 -30 101v300
q0 138 138 138h70q24 0 47 -5l7 17q8 17 26 17h36q11 0 16 -8t1 -19l-19 -45q30 -34 30 -101v-300q0 -138 -138 -138h-70q-24 0 -47 5l-7 -17q-8 -17 -26 -17h-36q-11 0 -16 8t-1 19z" />
    <glyph glyph-name="Rcommaaccent.alt" horiz-adv-x="403" 
d="M220 402v143q0 13 -13 13h-22v-169h22q13 0 13 13zM390 436q0 -90 -76 -115q40 -10 58.5 -33.5t18.5 -65.5v-186q0 -36 -36 -36h-98q-36 0 -36 36v201q0 13 -13 13h-23v-214q0 -36 -36 -36h-98q-36 0 -36 36v628q0 36 36 36h189q150 0 150 -150v-114zM134 -141
q14 48 14 86v1q0 31 29 31h59q30 0 30 -28v-2q0 -58 -31 -101q-16 -22 -41 -22h-34q-15 0 -23 9t-3 26z" />
    <glyph glyph-name="rcommaaccent.alt" horiz-adv-x="266" 
d="M136 0h-88q-36 0 -36 36v498q0 36 36 36h81q36 0 36 -36v-39q19 43 32.5 61.5t31.5 18.5h1q31 0 31 -40v-93q0 -35 -43 -50q-33 -13 -46 -21v-335q0 -36 -36 -36zM23 -141q14 48 14 86v1q0 31 29 31h59q30 0 30 -28v-2q0 -58 -31 -101q-16 -22 -41 -22h-34q-15 0 -23 9
t-3 26z" />
    <glyph glyph-name="Scommaaccent.alt" horiz-adv-x="394" 
d="M195 452l127 -76q62 -38 62 -125v-107q0 -150 -150 -150h-70q-150 0 -150 150v87q0 36 36 36h93q36 0 36 -36v-87q0 -13 13 -13h11q13 0 13 13v90q0 16 -14 24l-126 75q-35 21 -48.5 50.5t-13.5 74.5v98q0 150 150 150h68q150 0 150 -150v-77q0 -36 -36 -36h-93
q-36 0 -36 36v77q0 13 -18 13t-18 -13v-80q0 -16 14 -24zM130 -141q14 48 14 86v1q0 31 29 31h59q30 0 30 -28v-2q0 -58 -31 -101q-16 -22 -41 -22h-34q-15 0 -23 9t-3 26z" />
    <glyph glyph-name="scommaaccent.alt" horiz-adv-x="361" 
d="M315 359h-86q-17 0 -24.5 7.5t-7.5 24.5v43q0 11 -15 11q-16 0 -16 -11v-44q0 -17 17 -25l76 -37q52 -25 71 -53.5t19 -80.5v-62q0 -138 -138 -138h-61q-138 0 -138 138v47q0 34 35 34h84q32 0 32 -32v-45q0 -11 11 -11h11q11 0 11 11v44q0 17 -17 25l-76 38
q-52 25 -71 53.5t-19 80.5v61q0 138 138 138h59q138 0 138 -138v-45q0 -34 -33 -34zM111 -141q14 48 14 86v1q0 31 29 31h59q30 0 30 -28v-2q0 -58 -31 -101q-16 -22 -41 -22h-34q-15 0 -23 9t-3 26z" />
    <glyph glyph-name="Tcommaaccent.alt" horiz-adv-x="360" 
d="M265 555v-519q0 -36 -36 -36h-98q-36 0 -36 36v519h-53q-36 0 -36 36v73q0 36 36 36h276q36 0 36 -36v-73q0 -36 -36 -36h-53zM111 -141q14 48 14 86v1q0 31 29 31h59q30 0 30 -28v-2q0 -58 -31 -101q-16 -22 -41 -22h-34q-15 0 -23 9t-3 26z" />
    <glyph glyph-name="tcommaaccent.alt" horiz-adv-x="252" 
d="M196 36q0 -36 -36 -36h-88q-36 0 -36 36v401q-36 0 -36 36v61q0 36 36 36v54q0 36 36 36h88q36 0 36 -36v-54h16q36 0 36 -36v-61q0 -36 -36 -36h-16v-401zM46 -141q14 48 14 86v1q0 31 29 31h59q30 0 30 -28v-2q0 -58 -31 -101q-16 -22 -41 -22h-34q-15 0 -23 9t-3 26z
" />
    <glyph glyph-name="yacute.alt" horiz-adv-x="363" 
d="M277 733q23 0 31 -15.5t-5 -34.5l-45 -70q-15 -23 -50 -23h-43q-18 0 -27 12t-4 28l22 66q6 20 16.5 28.5t32.5 8.5h72zM269 -28q-8 -48 -26.5 -65t-59.5 -17h-106q-40 0 -40 36v73q0 32 30 32h1q14 0 11 14l-80 483q-7 42 36 42h84q32 0 35 -32l27 -267l33 267
q4 32 36 32h78q44 0 36 -42z" />
    <glyph glyph-name="ycircumflex.alt" horiz-adv-x="363" 
d="M155 738h60q36 0 55 -34l36 -64q10 -20 2.5 -32.5t-25.5 -12.5h-26q-34 0 -51 25l-21 31l-21 -31q-17 -25 -51 -25h-26q-19 0 -26 12.5t3 32.5l36 64q19 34 55 34zM269 -28q-8 -48 -26.5 -65t-59.5 -17h-106q-40 0 -40 36v73q0 32 30 32h1q14 0 11 14l-80 483
q-7 42 36 42h84q32 0 35 -32l27 -267l33 267q4 32 36 32h78q44 0 36 -42z" />
    <glyph glyph-name="ydieresis.alt" horiz-adv-x="363" 
d="M91 733h48q36 0 36 -36v-71q0 -36 -36 -36h-48q-36 0 -36 36v71q0 36 36 36zM279 590h-48q-36 0 -36 36v71q0 36 36 36h48q36 0 36 -36v-71q0 -36 -36 -36zM269 -28q-8 -48 -26.5 -65t-59.5 -17h-106q-40 0 -40 36v73q0 32 30 32h1q14 0 11 14l-80 483q-7 42 36 42h84
q32 0 35 -32l27 -267l33 267q4 32 36 32h78q44 0 36 -42z" />
    <glyph glyph-name="ygrave.alt" horiz-adv-x="363" 
d="M93 733h72q22 0 32.5 -8.5t16.5 -28.5l22 -66q5 -16 -4 -28t-27 -12h-43q-35 0 -50 23l-45 70q-13 19 -5 34.5t31 15.5zM269 -28q-8 -48 -26.5 -65t-59.5 -17h-106q-40 0 -40 36v73q0 32 30 32h1q14 0 11 14l-80 483q-7 42 36 42h84q32 0 35 -32l27 -267l33 267
q4 32 36 32h78q44 0 36 -42z" />
    <glyph glyph-name="comma.alt" horiz-adv-x="184" 
d="M134 197q38 0 38 -36v-17q0 -113 -34 -228q-10 -35 -48 -35h-40q-49 0 -40 44q16 99 16 228v10q0 34 36 34h72z" />
    <glyph glyph-name="semicolon.alt" horiz-adv-x="184" 
d="M48 570h88q36 0 36 -36v-125q0 -36 -36 -36h-88q-36 0 -36 36v125q0 36 36 36zM134 197q38 0 38 -36v-17q0 -113 -34 -228q-10 -35 -48 -35h-40q-49 0 -40 44q16 99 16 228v10q0 34 36 34h72z" />
    <glyph glyph-name="colon.fig" horiz-adv-x="184" 
d="M48 570h88q36 0 36 -36v-125q0 -36 -36 -36h-88q-36 0 -36 36v125q0 36 36 36zM48 327h88q36 0 36 -36v-125q0 -36 -36 -36h-88q-36 0 -36 36v125q0 36 36 36z" />
    <glyph glyph-name="ampersand.alt" horiz-adv-x="418" 
d="M377 144q0 -150 -150 -150h-64q-150 0 -150 150v108q0 48 12.5 70.5t47.5 39.5q-32 19 -45 44.5t-13 79.5v70q0 150 150 150h60q150 0 150 -150v-50q0 -36 -36 -36h-91q-36 0 -36 36v49q0 13 -15 13t-15 -13v-115q0 -13 13 -13h182q36 0 36 -36v-66q0 -36 -36 -36v-145z
M197 132q17 0 17 13v144h-21q-13 0 -13 -13v-131q0 -13 17 -13z" />
    <glyph glyph-name="quotedblleft.alt" horiz-adv-x="340" 
d="M280 384h-63q-38 0 -38 36v17q0 113 34 228q10 35 48 35h31q49 0 40 -44q-16 -99 -16 -228v-10q0 -34 -36 -34zM148 418q0 -34 -36 -34h-63q-38 0 -38 36v17q0 113 34 228q10 35 48 35h31q49 0 40 -44q-16 -99 -16 -228v-10z" />
    <glyph glyph-name="quotedblright.alt" horiz-adv-x="340" 
d="M60 700h63q38 0 38 -36v-17q0 -113 -34 -228q-10 -35 -48 -35h-31q-49 0 -40 44q16 99 16 228v10q0 34 36 34zM192 666q0 34 36 34h63q38 0 38 -36v-17q0 -113 -34 -228q-10 -35 -48 -35h-31q-49 0 -40 44q16 99 16 228v10z" />
    <glyph glyph-name="quoteleft.alt" horiz-adv-x="184" 
d="M122 384h-72q-38 0 -38 36v17q0 113 34 228q10 35 48 35h40q49 0 40 -44q-16 -99 -16 -228v-10q0 -34 -36 -34z" />
    <glyph glyph-name="quoteright.alt" horiz-adv-x="184" 
d="M62 700h72q38 0 38 -36v-17q0 -113 -34 -228q-10 -35 -48 -35h-40q-49 0 -40 44q16 99 16 228v10q0 34 36 34z" />
    <glyph glyph-name="quotedblbase.alt" horiz-adv-x="340" 
d="M60 197h63q38 0 38 -36v-17q0 -113 -34 -228q-10 -35 -48 -35h-31q-49 0 -40 44q16 99 16 228v10q0 34 36 34zM192 153v10q0 34 36 34h63q38 0 38 -36v-17q0 -113 -34 -228q-10 -35 -48 -35h-31q-49 0 -40 44q16 99 16 228z" />
    <glyph glyph-name="quotesinglbase.alt" horiz-adv-x="184" 
d="M62 197h72q38 0 38 -36v-17q0 -113 -34 -228q-10 -35 -48 -35h-40q-49 0 -40 44q16 99 16 228v10q0 34 36 34z" />
    <glyph glyph-name="guillemotleft.cap" horiz-adv-x="305" 
d="M163 503l-39 -147l39 -147q5 -20 -3.5 -31t-27.5 -11h-26q-34 0 -45 30l-51 138q-8 22 0 44l51 136q11 30 45 30h26q19 0 27.5 -11t3.5 -31zM296 505l-33 -149l33 -149q4 -18 -5 -29t-26 -11h-28q-35 0 -45 32l-44 137q-7 21 0 41l44 136q10 32 45 32h28q17 0 26 -11
t5 -29z" />
    <glyph glyph-name="guillemotright.cap" horiz-adv-x="305" 
d="M181 356l-39 147q-5 20 3.5 31t27.5 11h26q34 0 45 -30l51 -136q8 -22 0 -44l-51 -138q-11 -30 -45 -30h-26q-19 0 -27.5 11t-3.5 31zM42 356l-33 149q-4 18 5 29t26 11h28q35 0 45 -32l44 -136q7 -20 0 -41l-44 -137q-10 -32 -45 -32h-28q-17 0 -26 11t-5 29z" />
    <glyph glyph-name="guilsinglleft.cap" horiz-adv-x="216" 
d="M13 331q-11 24 0 50l59 132q14 32 48 32h47q22 0 31 -13t1 -35l-48 -141l48 -141q8 -22 -1 -35t-31 -13h-47q-34 0 -48 32z" />
    <glyph glyph-name="guilsinglright.cap" horiz-adv-x="216" 
d="M203 381q11 -26 0 -50l-59 -132q-14 -32 -48 -32h-47q-22 0 -31 13t-1 35l48 141l-48 141q-8 22 1 35t31 13h47q34 0 48 -32z" />
    <glyph glyph-name="hyphen.cap" horiz-adv-x="246" 
d="M6 318v76q0 36 36 36h162q36 0 36 -36v-76q0 -36 -36 -36h-162q-36 0 -36 36z" />
    <glyph glyph-name="endash.cap" 
d="M6 333v46q0 36 36 36h292q36 0 36 -36v-46q0 -36 -36 -36h-292q-36 0 -36 36z" />
    <glyph glyph-name="emdash.cap" horiz-adv-x="566" 
d="M6 333v46q0 36 36 36h482q36 0 36 -36v-46q0 -36 -36 -36h-482q-36 0 -36 36z" />
    <glyph glyph-name="at.alt" horiz-adv-x="533" 
d="M249 464q0 -34 -34 -34h-62q-34 0 -34 34v38q0 117 117 117h63q117 0 117 -117v-355q0 -19 19 -19h17q19 0 19 19v379q0 79 -30 112t-107 33h-134q-77 0 -107 -33t-30 -112v-352q0 -79 30 -112t107 -33h243q19 0 19 -19v-2q0 -19 -19 -19h-243q-97 0 -138 43.5t-41 141.5
v352q0 98 41 141.5t138 43.5h134q97 0 138 -42.5t41 -142.5v-379q0 -61 -62 -61h-83q-30 0 -46.5 11t-31.5 36q-36 -48 -93 -48q-83 0 -83 90v117q0 42 15.5 63t58.5 36l89 31v74q0 9 -13 9q-15 0 -15 -9v-32zM245 213q0 -13 16 -13q8 0 16 2v110l-14 -6q-18 -7 -18 -30v-63
z" />
    <glyph glyph-name="registered.alt" horiz-adv-x="500" 
d="M329 -6h-158q-79 0 -114.5 37t-35.5 123v392q0 86 35.5 123t114.5 37h158q79 0 114.5 -37t35.5 -123v-392q0 -86 -35.5 -123t-114.5 -37zM329 18q68 0 96 30t28 106v392q0 76 -28 106t-96 30h-158q-68 0 -96 -30t-28 -106v-392q0 -76 28 -106t96 -30h158zM262 389v114
q0 9 -9 9h-12v-134h12q9 0 9 11zM109 580q0 19 11.5 30t30.5 11h128q115 0 115 -115v-90q0 -71 -57 -90q58 -14 58 -75v-135q0 -36 -36 -36h-60q-36 0 -36 36v145q0 10 -9 10h-13v-155q0 -36 -36 -36h-60q-36 0 -36 36v464z" />
    <glyph glyph-name="percent.alt" horiz-adv-x="478" 
d="M468 85q0 -91 -93 -91h-48q-93 0 -93 91v135l-57 -196q-8 -26 -35 -26h-17q-51 0 -34 47l72 217q-12 -3 -24 -3h-36q-93 0 -93 91v265q0 91 93 91h48q93 0 93 -91v-135l57 196q8 26 35 26h17q51 0 34 -47l-72 -217q12 3 24 3h36q93 0 93 -91v-265zM145 602q0 8 -8 8h-12
q-8 0 -8 -8v-241q0 -8 8 -8h12q8 0 8 8v241zM361 339q0 8 -8 8h-12q-8 0 -8 -8v-241q0 -8 8 -8h12q8 0 8 8v241z" />
    <glyph glyph-name="NUL" horiz-adv-x="0" 
 />
    <glyph glyph-name="hcoslug" horiz-adv-x="694" 
d="M644 -100h-594v800h594v-800zM247 428q0 13 7.5 21t19.5 8q13 0 21 -10.5t8 -27.5q0 -22 -18 -50q-15 14 -21 20.5t-11.5 17t-5.5 21.5zM312 342q30 20 42 34q29 -29 -1 -80q-33 38 -41 46zM261 219q-22 0 -37 15.5t-15 38.5q0 24 16 40q34 -32 74 -82q-15 -12 -38 -12z
M428 306q15 -25 43 -25q21 0 35.5 15.5t14.5 38.5t-14.5 37.5t-35.5 14.5q-35 0 -60 -38q-3 39 -49 37q9 15 9 34q0 29 -25.5 51.5t-69.5 22.5q-48 0 -78.5 -25.5t-30.5 -59.5q0 -37 31 -69q-82 -28 -82 -91q0 -39 32 -66t77 -27q63 0 104 45q44 -45 85 -45q33 0 56 25.5
t24 68.5l-7 2q-17 -29 -43 -29q-27 0 -62 41q20 26 46 42zM274 122v-9h-7v-7h7v-20q0 -13 12 -13q11 0 14 13l-5 2q-1 -7 -5 -7t-4 5v20h13v7h-13v11zM195 73q9 0 15 6t6 15q0 20 -21 20t-21 -20q0 -21 21 -21zM195 78q-8 0 -8 16q0 15 8 15t8 -15q0 -16 -8 -16zM219 74h22
v7h-4v15q0 10 7 10q6 0 6 -7v-18h-4v-7h22v7h-6v19q0 14 -12 14q-9 0 -14 -11v10h-17v-7h6v-25h-6v-7zM372 80q-8 0 -8 13t8 13q7 0 7 -13t-7 -13zM125 74h30v7h-10v16h4q5 0 6 -8h7v23h-7q-1 -8 -6 -8h-4v18h12q9 0 11 -13h8v20h-51v-7h7v-41h-7v-7zM302 74h7l1 4
q8 -5 13 -5q14 0 14 13q0 9 -12 12t-12 6q0 4 5 4t10 -7h7v13h-6l-2 -5q-3 5 -11 5q-14 0 -14 -12q0 -9 12 -12.5t12 -6.5q0 -4 -5 -4q-6 0 -12 9h-7v-14zM352 73h6l4 8q5 -8 14 -8q16 0 16 21q0 20 -15 20q-10 0 -13 -9v27h-18v-7h6v-52zM400 75q-7 0 -7 -7q0 -9 11 -9
q12 0 18 16l13 31h5v7h-17v-7h5l-8 -20l-9 20h6v7h-25v-7h5q12 -23 16 -33q-2 -8 -8 -8q3 2 1.5 6t-6.5 4zM294 42q0 12 6 12l3 -1q-1 -1 -1 -3q0 -6 6 -6v-5h-14v3zM446 33v-7h6q-2 -4 -6 -9q-2 2 -5.5 6t-6.5 7q11 5 11 12q0 12 -14 12q-17 0 -17 -14q0 -6 6 -12
q-13 -4 -13 -15q0 -14 18 -14q9 0 15 6q5 -6 12 -6q10 0 13 12l-5 1q-1 -5 -4 -5t-6 5q6 8 9 14h5v7h-18zM498 -1q22 0 24 23h-8q-2 -16 -14 -16q-16 0 -16 22t14 22q10 0 15 -16h8v22h-8l-1 -6q-7 7 -16 7q-11 0 -19 -8.5t-8 -21.5q0 -28 29 -28zM425 43q0 5 5 5q6 0 6 -6
t-5 -9q-6 6 -6 10zM366 18q2 22 -19 22q-8 0 -14 -6t-6 -15q0 -20 21 -20q14 0 18 14h-7q-1 -7 -9 -7q-10 0 -10 12h26zM546 -1q9 0 15 6t6 15q0 20 -21 20t-21 -20q0 -21 21 -21zM210 -1q9 0 15 6t6 15q0 20 -21 20t-21 -20q0 -21 21 -21zM273 18q2 22 -19 22q-8 0 -14 -6
t-6 -15q0 -20 21 -20q15 0 18 14h-7q-1 -7 -9 -7q-10 0 -10 12h26zM347 35q7 0 7 -12h-14q0 12 7 12zM546 4q-8 0 -8 16q0 15 8 15t8 -15q0 -16 -8 -16zM210 4q-8 0 -8 16q0 15 8 15t8 -15q0 -16 -8 -16zM254 35q7 0 7 -12h-14q0 12 7 12zM368 0h26v7h-8v16q4 9 7 9v-1
q0 -6 6 -6q7 0 7 7q0 8 -8 8t-12 -11v10h-18v-7h6v-25h-6v-7zM276 0h23v7h-5v25h14v-25h-5v-7h23v7h-6v52l-10 -2q-4 2 -9 2q-19 0 -19 -19v-1h-7v-7h7v-25h-6v-7zM124 0h29v7h-8v18h22v-18h-8v-7h29v7h-8v41h8v7h-29v-7h8v-16h-22v16h8v7h-29v-7h8v-41h-8v-7zM429 6
q-10 0 -10 10q0 5 4 9q4 -4 14 -16q-5 -3 -8 -3zM576 13q-7 0 -7 -7t7 -7t7 7t-7 7z" />
    <glyph glyph-name="i.dot" horiz-adv-x="186" 
d="M139 588h-92q-36 0 -36 36v53q0 36 36 36h92q36 0 36 -36v-53q0 -36 -36 -36zM137 0h-88q-36 0 -36 36v498q0 36 36 36h88q36 0 36 -36v-498q0 -36 -36 -36z" />
    <glyph glyph-name="caron.alt" horiz-adv-x="500" 
d="M244 583h-13q-35 0 -35 36v56q0 40 38 40h29q46 0 35 -44l-16 -60q-7 -28 -38 -28z" />
    <glyph glyph-name="acute.cap" horiz-adv-x="500" 
d="M314 843q25 0 33 -15.5t-6 -33.5l-45 -56q-15 -18 -45 -18h-47q-19 0 -26.5 12.5t-1.5 26.5l25 53q14 31 50 31h63z" />
    <glyph glyph-name="hungarumlaut.cap" horiz-adv-x="500" 
d="M303 720h-16q-16 0 -24 10t-2 28l15 56q11 29 45 29h33q26 0 33 -15.5t-5 -32.5l-33 -52q-14 -23 -46 -23zM179 720h-16q-16 0 -24 10t-2 28l15 56q11 29 45 29h33q26 0 33 -15.5t-5 -32.5l-33 -52q-14 -23 -46 -23z" />
    <glyph glyph-name="grave.cap" horiz-adv-x="500" 
d="M206 843h63q36 0 50 -31l25 -53q6 -14 -1.5 -26.5t-26.5 -12.5h-47q-30 0 -45 18l-45 56q-14 18 -6 33.5t33 15.5z" />
    <glyph glyph-name="circumflex.cap" horiz-adv-x="500" 
d="M213 851h74q32 0 48 -27l41 -67q6 -11 0 -21.5t-21 -10.5h-45q-22 0 -35 14l-25 31l-25 -31q-13 -14 -35 -14h-45q-15 0 -21 10.5t0 21.5l41 67q16 27 48 27z" />
    <glyph glyph-name="caron.cap" horiz-adv-x="500" 
d="M287 725h-74q-32 0 -48 27l-41 67q-6 11 0 21.5t21 10.5h45q22 0 35 -14l25 -31l25 31q13 14 35 14h45q15 0 21 -10.5t0 -21.5l-41 -67q-16 -27 -48 -27z" />
    <glyph glyph-name="breve.cap" horiz-adv-x="500" 
d="M220 722q-45 0 -72 26t-27 71v5q0 30 27 30h58q22 0 22 -24v-4q0 -19 19 -19h6q19 0 19 19v4q0 24 23 24h57q27 0 27 -30v-5q0 -45 -27 -71t-72 -26h-60z" />
    <glyph glyph-name="tilde.cap" horiz-adv-x="500" 
d="M108 786q0 62 60 62h15q33 0 62 -17l24 -14q18 -10 21 -10q7 0 7 7v4q0 30 31 30h33q31 0 31 -31v-30q0 -62 -60 -62h-15q-33 0 -62 17l-24 14q-18 10 -21 10q-7 0 -7 -7v-4q0 -30 -31 -30h-33q-31 0 -31 31v30z" />
    <glyph glyph-name="macron.cap" horiz-adv-x="500" 
d="M118 768v24q0 36 36 36h192q36 0 36 -36v-24q0 -36 -36 -36h-192q-36 0 -36 36z" />
    <glyph glyph-name="dieresis.cap" horiz-adv-x="500" 
d="M154 843h50q36 0 36 -36v-51q0 -36 -36 -36h-50q-36 0 -36 36v51q0 36 36 36zM346 720h-50q-36 0 -36 36v51q0 36 36 36h50q36 0 36 -36v-51q0 -36 -36 -36z" />
    <glyph glyph-name="dotaccent.cap" horiz-adv-x="500" 
d="M217 829h66q36 0 36 -36v-37q0 -36 -36 -36h-66q-36 0 -36 36v37q0 36 36 36z" />
    <glyph glyph-name="ring.cap" horiz-adv-x="500" 
d="M298 722h-96q-77 0 -77 68q0 67 77 67h96q77 0 77 -65v-5q0 -65 -77 -65zM298 833h-96q-50 0 -50 -43q0 -44 50 -44h96q50 0 50 42v3q0 42 -50 42z" />
    <glyph glyph-name="commaaccent.alt" horiz-adv-x="500" 
d="M182 -141q14 48 14 86v1q0 31 29 31h59q30 0 30 -28v-2q0 -58 -31 -101q-16 -22 -41 -22h-34q-15 0 -23 9t-3 26z" />
    <glyph glyph-name="A.xx0o" horiz-adv-x="386" 
d="M158 229h49l-24 273zM384 0h-124q-33 0 -36 33l-5 54h-73l-5 -54q-3 -33 -36 -33h-73q-41 0 -35 41l82 628q4 31 36 31h156q32 0 35 -31l87 -659q1 -10 -9 -10z" />
    <glyph glyph-name="A.xxo0" horiz-adv-x="386" 
d="M158 229h49l-24 273zM353 0h-93q-33 0 -36 33l-5 54h-73l-5 -54q-3 -33 -36 -33h-103q-10 0 -9 10l86 659q4 31 36 31h156q32 0 35 -31l83 -628q6 -41 -36 -41z" />
    <glyph glyph-name="A.xxoo" horiz-adv-x="386" 
d="M158 229h49l-24 273zM384 0h-124q-33 0 -36 33l-5 54h-73l-5 -54q-3 -33 -36 -33h-103q-10 0 -9 10l86 659q4 31 36 31h156q32 0 35 -31l87 -659q1 -10 -9 -10z" />
    <glyph glyph-name="Aacute.xx0o" horiz-adv-x="386" 
d="M283 843q25 0 33 -15.5t-6 -33.5l-45 -56q-15 -18 -45 -18h-47q-19 0 -26.5 12.5t-1.5 26.5l25 53q14 31 50 31h63zM158 229h49l-24 273zM384 0h-124q-33 0 -36 33l-5 54h-73l-5 -54q-3 -33 -36 -33h-73q-41 0 -35 41l82 628q4 31 36 31h156q32 0 35 -31l87 -659
q1 -10 -9 -10z" />
    <glyph glyph-name="Aacute.xxo0" horiz-adv-x="386" 
d="M283 843q25 0 33 -15.5t-6 -33.5l-45 -56q-15 -18 -45 -18h-47q-19 0 -26.5 12.5t-1.5 26.5l25 53q14 31 50 31h63zM158 229h49l-24 273zM353 0h-93q-33 0 -36 33l-5 54h-73l-5 -54q-3 -33 -36 -33h-103q-10 0 -9 10l86 659q4 31 36 31h156q32 0 35 -31l83 -628
q6 -41 -36 -41z" />
    <glyph glyph-name="Aacute.xxoo" horiz-adv-x="386" 
d="M283 843q25 0 33 -15.5t-6 -33.5l-45 -56q-15 -18 -45 -18h-47q-19 0 -26.5 12.5t-1.5 26.5l25 53q14 31 50 31h63zM158 229h49l-24 273zM384 0h-124q-33 0 -36 33l-5 54h-73l-5 -54q-3 -33 -36 -33h-103q-10 0 -9 10l86 659q4 31 36 31h156q32 0 35 -31l87 -659
q1 -10 -9 -10z" />
    <glyph glyph-name="Abreve.xx0o" horiz-adv-x="386" 
d="M164 722q-45 0 -72 26t-27 71v5q0 30 27 30h58q22 0 22 -24v-4q0 -19 19 -19h6q19 0 19 19v4q0 24 23 24h57q27 0 27 -30v-5q0 -45 -27 -71t-72 -26h-60zM158 229h49l-24 273zM384 0h-124q-33 0 -36 33l-5 54h-73l-5 -54q-3 -33 -36 -33h-73q-41 0 -35 41l82 628
q4 31 36 31h156q32 0 35 -31l87 -659q1 -10 -9 -10z" />
    <glyph glyph-name="Abreve.xxo0" horiz-adv-x="386" 
d="M164 722q-45 0 -72 26t-27 71v5q0 30 27 30h58q22 0 22 -24v-4q0 -19 19 -19h6q19 0 19 19v4q0 24 23 24h57q27 0 27 -30v-5q0 -45 -27 -71t-72 -26h-60zM158 229h49l-24 273zM353 0h-93q-33 0 -36 33l-5 54h-73l-5 -54q-3 -33 -36 -33h-103q-10 0 -9 10l86 659
q4 31 36 31h156q32 0 35 -31l83 -628q6 -41 -36 -41z" />
    <glyph glyph-name="Abreve.xxoo" horiz-adv-x="386" 
d="M164 722q-45 0 -72 26t-27 71v5q0 30 27 30h58q22 0 22 -24v-4q0 -19 19 -19h6q19 0 19 19v4q0 24 23 24h57q27 0 27 -30v-5q0 -45 -27 -71t-72 -26h-60zM158 229h49l-24 273zM384 0h-124q-33 0 -36 33l-5 54h-73l-5 -54q-3 -33 -36 -33h-103q-10 0 -9 10l86 659
q4 31 36 31h156q32 0 35 -31l87 -659q1 -10 -9 -10z" />
    <glyph glyph-name="Acircumflex.xx0o" horiz-adv-x="386" 
d="M157 851h74q32 0 48 -27l41 -67q6 -11 0 -21.5t-21 -10.5h-45q-22 0 -35 14l-25 31l-25 -31q-13 -14 -35 -14h-45q-15 0 -21 10.5t0 21.5l41 67q16 27 48 27zM158 229h49l-24 273zM384 0h-124q-33 0 -36 33l-5 54h-73l-5 -54q-3 -33 -36 -33h-73q-41 0 -35 41l82 628
q4 31 36 31h156q32 0 35 -31l87 -659q1 -10 -9 -10z" />
    <glyph glyph-name="Acircumflex.xxo0" horiz-adv-x="386" 
d="M157 851h74q32 0 48 -27l41 -67q6 -11 0 -21.5t-21 -10.5h-45q-22 0 -35 14l-25 31l-25 -31q-13 -14 -35 -14h-45q-15 0 -21 10.5t0 21.5l41 67q16 27 48 27zM158 229h49l-24 273zM353 0h-93q-33 0 -36 33l-5 54h-73l-5 -54q-3 -33 -36 -33h-103q-10 0 -9 10l86 659
q4 31 36 31h156q32 0 35 -31l83 -628q6 -41 -36 -41z" />
    <glyph glyph-name="Acircumflex.xxoo" horiz-adv-x="386" 
d="M157 851h74q32 0 48 -27l41 -67q6 -11 0 -21.5t-21 -10.5h-45q-22 0 -35 14l-25 31l-25 -31q-13 -14 -35 -14h-45q-15 0 -21 10.5t0 21.5l41 67q16 27 48 27zM158 229h49l-24 273zM384 0h-124q-33 0 -36 33l-5 54h-73l-5 -54q-3 -33 -36 -33h-103q-10 0 -9 10l86 659
q4 31 36 31h156q32 0 35 -31l87 -659q1 -10 -9 -10z" />
    <glyph glyph-name="Adieresis.xx0o" horiz-adv-x="386" 
d="M98 843h50q36 0 36 -36v-51q0 -36 -36 -36h-50q-36 0 -36 36v51q0 36 36 36zM290 720h-50q-36 0 -36 36v51q0 36 36 36h50q36 0 36 -36v-51q0 -36 -36 -36zM158 229h49l-24 273zM384 0h-124q-33 0 -36 33l-5 54h-73l-5 -54q-3 -33 -36 -33h-73q-41 0 -35 41l82 628
q4 31 36 31h156q32 0 35 -31l87 -659q1 -10 -9 -10z" />
    <glyph glyph-name="Adieresis.xxo0" horiz-adv-x="386" 
d="M98 843h50q36 0 36 -36v-51q0 -36 -36 -36h-50q-36 0 -36 36v51q0 36 36 36zM290 720h-50q-36 0 -36 36v51q0 36 36 36h50q36 0 36 -36v-51q0 -36 -36 -36zM158 229h49l-24 273zM353 0h-93q-33 0 -36 33l-5 54h-73l-5 -54q-3 -33 -36 -33h-103q-10 0 -9 10l86 659
q4 31 36 31h156q32 0 35 -31l83 -628q6 -41 -36 -41z" />
    <glyph glyph-name="Adieresis.xxoo" horiz-adv-x="386" 
d="M98 843h50q36 0 36 -36v-51q0 -36 -36 -36h-50q-36 0 -36 36v51q0 36 36 36zM290 720h-50q-36 0 -36 36v51q0 36 36 36h50q36 0 36 -36v-51q0 -36 -36 -36zM158 229h49l-24 273zM384 0h-124q-33 0 -36 33l-5 54h-73l-5 -54q-3 -33 -36 -33h-103q-10 0 -9 10l86 659
q4 31 36 31h156q32 0 35 -31l87 -659q1 -10 -9 -10z" />
    <glyph glyph-name="Agrave.xx0o" horiz-adv-x="386" 
d="M105 843h63q36 0 50 -31l25 -53q6 -14 -1.5 -26.5t-26.5 -12.5h-47q-30 0 -45 18l-45 56q-14 18 -6 33.5t33 15.5zM158 229h49l-24 273zM384 0h-124q-33 0 -36 33l-5 54h-73l-5 -54q-3 -33 -36 -33h-73q-41 0 -35 41l82 628q4 31 36 31h156q32 0 35 -31l87 -659
q1 -10 -9 -10z" />
    <glyph glyph-name="Agrave.xxo0" horiz-adv-x="386" 
d="M105 843h63q36 0 50 -31l25 -53q6 -14 -1.5 -26.5t-26.5 -12.5h-47q-30 0 -45 18l-45 56q-14 18 -6 33.5t33 15.5zM158 229h49l-24 273zM353 0h-93q-33 0 -36 33l-5 54h-73l-5 -54q-3 -33 -36 -33h-103q-10 0 -9 10l86 659q4 31 36 31h156q32 0 35 -31l83 -628
q6 -41 -36 -41z" />
    <glyph glyph-name="Agrave.xxoo" horiz-adv-x="386" 
d="M105 843h63q36 0 50 -31l25 -53q6 -14 -1.5 -26.5t-26.5 -12.5h-47q-30 0 -45 18l-45 56q-14 18 -6 33.5t33 15.5zM158 229h49l-24 273zM384 0h-124q-33 0 -36 33l-5 54h-73l-5 -54q-3 -33 -36 -33h-103q-10 0 -9 10l86 659q4 31 36 31h156q32 0 35 -31l87 -659
q1 -10 -9 -10z" />
    <glyph glyph-name="Amacron.xx0o" horiz-adv-x="386" 
d="M62 768v24q0 36 36 36h192q36 0 36 -36v-24q0 -36 -36 -36h-192q-36 0 -36 36zM158 229h49l-24 273zM384 0h-124q-33 0 -36 33l-5 54h-73l-5 -54q-3 -33 -36 -33h-73q-41 0 -35 41l82 628q4 31 36 31h156q32 0 35 -31l87 -659q1 -10 -9 -10z" />
    <glyph glyph-name="Amacron.xxo0" horiz-adv-x="386" 
d="M62 768v24q0 36 36 36h192q36 0 36 -36v-24q0 -36 -36 -36h-192q-36 0 -36 36zM158 229h49l-24 273zM353 0h-93q-33 0 -36 33l-5 54h-73l-5 -54q-3 -33 -36 -33h-103q-10 0 -9 10l86 659q4 31 36 31h156q32 0 35 -31l83 -628q6 -41 -36 -41z" />
    <glyph glyph-name="Amacron.xxoo" horiz-adv-x="386" 
d="M62 768v24q0 36 36 36h192q36 0 36 -36v-24q0 -36 -36 -36h-192q-36 0 -36 36zM158 229h49l-24 273zM384 0h-124q-33 0 -36 33l-5 54h-73l-5 -54q-3 -33 -36 -33h-103q-10 0 -9 10l86 659q4 31 36 31h156q32 0 35 -31l87 -659q1 -10 -9 -10z" />
    <glyph glyph-name="Aogonek.xx0o" horiz-adv-x="386" 
d="M260 0q-33 0 -36 33l-5 54h-73l-5 -54q-3 -33 -36 -33h-73q-41 0 -35 41l82 628q4 31 36 31h156q32 0 35 -31l87 -659q1 -5 -2 -8l-15 -13q-18 -16 -18 -25q0 -10 12 -10h1q29 0 29 -28v-20q0 -36 -44 -36h-44q-30 0 -47 15t-17 41v10q0 30 34 64h-22zM158 229h49
l-24 273z" />
    <glyph glyph-name="Aogonek.xxo0" horiz-adv-x="386" 
d="M389 41q3 -21 -7 -34l-10 -13q-18 -22 -18 -30q0 -10 12 -10h1q29 0 29 -28v-20q0 -36 -44 -36h-44q-30 0 -47 15t-17 41v10q0 29 28 64h-12q-33 0 -36 33l-5 54h-73l-5 -54q-3 -33 -36 -33h-94q-20 0 -17 19l85 650q4 31 36 31h156q32 0 35 -31zM158 229h49l-24 273z
" />
    <glyph glyph-name="Aogonek.xxoo" horiz-adv-x="386" 
d="M356 -130h-44q-30 0 -47 15t-17 41v10q0 30 34 64h-22q-33 0 -36 33l-5 54h-73l-5 -54q-3 -33 -36 -33h-103q-10 0 -9 10l86 659q4 31 36 31h156q32 0 35 -31l87 -659q1 -5 -2 -8l-15 -13q-18 -16 -18 -25q0 -10 12 -10h1q29 0 29 -28v-20q0 -36 -44 -36zM158 229h49
l-24 273z" />
    <glyph glyph-name="Aring.xx0o" horiz-adv-x="386" 
d="M241 761h-96q-50 0 -50 -43q0 -44 50 -44h96q50 0 50 42v3q0 42 -50 42zM158 229h49l-24 273zM141 33q-3 -33 -36 -33h-73q-41 0 -35 41l83 634q-12 17 -12 43q0 67 77 67h96q77 0 77 -65v-5q0 -25 -13 -41l88 -664q1 -10 -9 -10h-124q-33 0 -36 33l-5 54h-73z" />
    <glyph glyph-name="Aring.xxo0" horiz-adv-x="386" 
d="M241 761h-96q-50 0 -50 -43q0 -44 50 -44h96q50 0 50 42v3q0 42 -50 42zM158 229h49l-24 273zM141 33q-3 -33 -36 -33h-103q-10 0 -9 10l87 665q-12 17 -12 43q0 67 77 67h96q77 0 77 -65v-5q0 -25 -13 -41l84 -633q6 -41 -36 -41h-93q-33 0 -36 33l-5 54h-73z" />
    <glyph glyph-name="Aring.xxoo" horiz-adv-x="386" 
d="M241 761h-96q-50 0 -50 -43q0 -44 50 -44h96q50 0 50 42v3q0 42 -50 42zM158 229h49l-24 273zM141 33q-3 -33 -36 -33h-103q-10 0 -9 10l87 665q-12 17 -12 43q0 67 77 67h96q77 0 77 -65v-5q0 -25 -13 -41l88 -664q1 -10 -9 -10h-124q-33 0 -36 33l-5 54h-73z" />
    <glyph glyph-name="Aringacute.xx0o" horiz-adv-x="386" 
d="M284 923q25 0 33 -15.5t-6 -33.5l-45 -56q-15 -18 -45 -18h-47q-19 0 -26.5 12.5t-1.5 26.5l25 53q14 31 50 31h63zM241 761h-96q-50 0 -50 -43q0 -44 50 -44h96q50 0 50 42v3q0 42 -50 42zM158 229h49l-24 273zM141 33q-3 -33 -36 -33h-73q-41 0 -35 41l83 634
q-12 17 -12 43q0 67 77 67h96q77 0 77 -65v-5q0 -25 -13 -41l88 -664q1 -10 -9 -10h-124q-33 0 -36 33l-5 54h-73z" />
    <glyph glyph-name="Aringacute.xxo0" horiz-adv-x="386" 
d="M284 923q25 0 33 -15.5t-6 -33.5l-45 -56q-15 -18 -45 -18h-47q-19 0 -26.5 12.5t-1.5 26.5l25 53q14 31 50 31h63zM241 761h-96q-50 0 -50 -43q0 -44 50 -44h96q50 0 50 42v3q0 42 -50 42zM158 229h49l-24 273zM141 33q-3 -33 -36 -33h-103q-10 0 -9 10l87 665
q-12 17 -12 43q0 67 77 67h96q77 0 77 -65v-5q0 -25 -13 -41l84 -633q6 -41 -36 -41h-93q-33 0 -36 33l-5 54h-73z" />
    <glyph glyph-name="Aringacute.xxoo" horiz-adv-x="386" 
d="M284 923q25 0 33 -15.5t-6 -33.5l-45 -56q-15 -18 -45 -18h-47q-19 0 -26.5 12.5t-1.5 26.5l25 53q14 31 50 31h63zM241 761h-96q-50 0 -50 -43q0 -44 50 -44h96q50 0 50 42v3q0 42 -50 42zM158 229h49l-24 273zM141 33q-3 -33 -36 -33h-103q-10 0 -9 10l87 665
q-12 17 -12 43q0 67 77 67h96q77 0 77 -65v-5q0 -25 -13 -41l88 -664q1 -10 -9 -10h-124q-33 0 -36 33l-5 54h-73z" />
    <glyph glyph-name="Atilde.xx0o" horiz-adv-x="386" 
d="M52 786q0 62 60 62h15q33 0 62 -17l24 -14q18 -10 21 -10q7 0 7 7v4q0 30 31 30h33q31 0 31 -31v-30q0 -62 -60 -62h-15q-33 0 -62 17l-24 14q-18 10 -21 10q-7 0 -7 -7v-4q0 -30 -31 -30h-33q-31 0 -31 31v30zM158 229h49l-24 273zM384 0h-124q-33 0 -36 33l-5 54h-73
l-5 -54q-3 -33 -36 -33h-73q-41 0 -35 41l82 628q4 31 36 31h156q32 0 35 -31l87 -659q1 -10 -9 -10z" />
    <glyph glyph-name="Atilde.xxo0" horiz-adv-x="386" 
d="M52 786q0 62 60 62h15q33 0 62 -17l24 -14q18 -10 21 -10q7 0 7 7v4q0 30 31 30h33q31 0 31 -31v-30q0 -62 -60 -62h-15q-33 0 -62 17l-24 14q-18 10 -21 10q-7 0 -7 -7v-4q0 -30 -31 -30h-33q-31 0 -31 31v30zM158 229h49l-24 273zM353 0h-93q-33 0 -36 33l-5 54h-73
l-5 -54q-3 -33 -36 -33h-103q-10 0 -9 10l86 659q4 31 36 31h156q32 0 35 -31l83 -628q6 -41 -36 -41z" />
    <glyph glyph-name="Atilde.xxoo" horiz-adv-x="386" 
d="M52 786q0 62 60 62h15q33 0 62 -17l24 -14q18 -10 21 -10q7 0 7 7v4q0 30 31 30h33q31 0 31 -31v-30q0 -62 -60 -62h-15q-33 0 -62 17l-24 14q-18 10 -21 10q-7 0 -7 -7v-4q0 -30 -31 -30h-33q-31 0 -31 31v30zM158 229h49l-24 273zM384 0h-124q-33 0 -36 33l-5 54h-73
l-5 -54q-3 -33 -36 -33h-103q-10 0 -9 10l86 659q4 31 36 31h156q32 0 35 -31l87 -659q1 -10 -9 -10z" />
    <glyph glyph-name="AE.xxox" horiz-adv-x="518" 
d="M168 229h43v320zM477 0h-230q-36 0 -36 36v51h-58l-8 -56q-4 -31 -35 -31h-106q-10 0 -8 8l110 662q6 30 35 30h334q36 0 36 -36v-73q0 -36 -36 -36h-94v-128h89q36 0 36 -36v-73q0 -36 -36 -36h-89v-137h96q36 0 36 -36v-73q0 -36 -36 -36z" />
    <glyph glyph-name="AEacute.xxox" horiz-adv-x="518" 
d="M386 843q25 0 33 -15.5t-6 -33.5l-45 -56q-15 -18 -45 -18h-47q-19 0 -26.5 12.5t-1.5 26.5l25 53q14 31 50 31h63zM168 229h43v320zM477 0h-230q-36 0 -36 36v51h-58l-8 -56q-4 -31 -35 -31h-106q-10 0 -8 8l110 662q6 30 35 30h334q36 0 36 -36v-73q0 -36 -36 -36h-94
v-128h89q36 0 36 -36v-73q0 -36 -36 -36h-89v-137h96q36 0 36 -36v-73q0 -36 -36 -36z" />
    <glyph glyph-name="K.x0xo" horiz-adv-x="396" 
d="M395 0h-138q-31 0 -35 31l-37 258v-253q0 -36 -36 -36h-98q-36 0 -36 36v628q0 36 36 36h98q36 0 36 -36v-261l43 267q6 30 36 30h96q43 0 36 -43l-57 -295l62 -355q2 -7 -6 -7z" />
    <glyph glyph-name="k.x0xo" horiz-adv-x="381" 
d="M381 0h-130q-31 0 -35 30l-44 237v-231q0 -36 -36 -36h-88q-36 0 -36 36v638q0 36 36 36h88q36 0 36 -36v-371l52 239q6 28 35 28h87q46 0 35 -45l-60 -233l66 -284q2 -8 -6 -8z" />
    <glyph glyph-name="K.xox0" horiz-adv-x="396" 
d="M359 0h-102q-31 0 -35 31l-37 258v-253q0 -36 -36 -36h-98q-36 0 -36 36v628q0 36 36 36h98q36 0 36 -36v-261l43 267q6 30 36 30h133q7 0 6 -7l-64 -331l56 -320q7 -42 -36 -42z" />
    <glyph glyph-name="k.xox0" horiz-adv-x="381" 
d="M344 0h-93q-31 0 -35 30l-44 237v-231q0 -36 -36 -36h-88q-36 0 -36 36v638q0 36 36 36h88q36 0 36 -36v-371l52 239q6 28 35 28h127q6 0 5 -6l-70 -272l58 -248q11 -44 -35 -44z" />
    <glyph glyph-name="K.xoxo" horiz-adv-x="396" 
d="M395 0h-138q-31 0 -35 31l-37 258v-253q0 -36 -36 -36h-98q-36 0 -36 36v628q0 36 36 36h98q36 0 36 -36v-261l43 267q6 30 36 30h133q7 0 6 -7l-64 -331l62 -355q2 -7 -6 -7z" />
    <glyph glyph-name="k.xoxo" horiz-adv-x="381" 
d="M381 0h-130q-31 0 -35 30l-44 237v-231q0 -36 -36 -36h-88q-36 0 -36 36v638q0 36 36 36h88q36 0 36 -36v-371l52 239q6 28 35 28h126q7 0 6 -7l-70 -271l66 -284q2 -8 -6 -8z" />
    <glyph glyph-name="Kcommaaccent.x0xo" horiz-adv-x="396" 
d="M395 0h-138q-31 0 -35 31l-37 258v-253q0 -36 -36 -36h-98q-36 0 -36 36v628q0 36 36 36h98q36 0 36 -36v-261l43 267q6 30 36 30h96q43 0 36 -43l-57 -295l62 -355q2 -7 -6 -7zM192 -275q-15 -14 -31 0l-5 4q-14 11 -2 27l6 9q27 40 27 67h-9q-36 0 -36 36v71
q0 36 36 36h54q36 0 36 -36v-84q0 -36 -12 -60t-46 -54z" />
    <glyph glyph-name="kcommaaccent.x0xo" horiz-adv-x="381" 
d="M381 0h-130q-31 0 -35 30l-44 237v-231q0 -36 -36 -36h-88q-36 0 -36 36v638q0 36 36 36h88q36 0 36 -36v-371l52 239q6 28 35 28h87q46 0 35 -45l-60 -233l66 -284q2 -8 -6 -8zM182 -275q-15 -14 -31 0l-5 4q-14 11 -2 27l6 9q27 40 27 67h-9q-36 0 -36 36v71
q0 36 36 36h54q36 0 36 -36v-84q0 -36 -12 -60t-46 -54z" />
    <glyph glyph-name="Kcommaaccent.x0xo_alt" horiz-adv-x="396" 
d="M395 0h-138q-31 0 -35 31l-37 258v-253q0 -36 -36 -36h-98q-36 0 -36 36v628q0 36 36 36h98q36 0 36 -36v-261l43 267q6 30 36 30h96q43 0 36 -43l-57 -295l62 -355q2 -7 -6 -7zM136 -141q14 48 14 86v1q0 31 29 31h59q30 0 30 -28v-2q0 -58 -31 -101q-16 -22 -41 -22
h-34q-15 0 -23 9t-3 26z" />
    <glyph glyph-name="kcommaaccent.x0xo_alt" horiz-adv-x="381" 
d="M381 0h-130q-31 0 -35 30l-44 237v-231q0 -36 -36 -36h-88q-36 0 -36 36v638q0 36 36 36h88q36 0 36 -36v-371l52 239q6 28 35 28h87q46 0 35 -45l-60 -233l66 -284q2 -8 -6 -8zM126 -141q14 48 14 86v1q0 31 29 31h59q30 0 30 -28v-2q0 -58 -31 -101q-16 -22 -41 -22
h-34q-15 0 -23 9t-3 26z" />
    <glyph glyph-name="Kcommaaccent.xox0" horiz-adv-x="396" 
d="M359 0h-102q-31 0 -35 31l-37 258v-253q0 -36 -36 -36h-98q-36 0 -36 36v628q0 36 36 36h98q36 0 36 -36v-261l43 267q6 30 36 30h133q7 0 6 -7l-64 -331l56 -320q7 -42 -36 -42zM192 -275q-15 -14 -31 0l-5 4q-14 11 -2 27l6 9q27 40 27 67h-9q-36 0 -36 36v71
q0 36 36 36h54q36 0 36 -36v-84q0 -36 -12 -60t-46 -54z" />
    <glyph glyph-name="kcommaaccent.xox0" horiz-adv-x="381" 
d="M344 0h-93q-31 0 -35 30l-44 237v-231q0 -36 -36 -36h-88q-36 0 -36 36v638q0 36 36 36h88q36 0 36 -36v-371l52 239q6 28 35 28h127q6 0 5 -6l-70 -272l58 -248q11 -44 -35 -44zM182 -275q-15 -14 -31 0l-5 4q-14 11 -2 27l6 9q27 40 27 67h-9q-36 0 -36 36v71
q0 36 36 36h54q36 0 36 -36v-84q0 -36 -12 -60t-46 -54z" />
    <glyph glyph-name="Kcommaaccent.xox0_alt" horiz-adv-x="396" 
d="M359 0h-102q-31 0 -35 31l-37 258v-253q0 -36 -36 -36h-98q-36 0 -36 36v628q0 36 36 36h98q36 0 36 -36v-261l43 267q6 30 36 30h133q7 0 6 -7l-64 -331l56 -320q7 -42 -36 -42zM136 -141q14 48 14 86v1q0 31 29 31h59q30 0 30 -28v-2q0 -58 -31 -101q-16 -22 -41 -22
h-34q-15 0 -23 9t-3 26z" />
    <glyph glyph-name="kcommaaccent.xox0_alt" horiz-adv-x="381" 
d="M344 0h-93q-31 0 -35 30l-44 237v-231q0 -36 -36 -36h-88q-36 0 -36 36v638q0 36 36 36h88q36 0 36 -36v-371l52 239q6 28 35 28h127q6 0 5 -6l-70 -272l58 -248q11 -44 -35 -44zM126 -141q14 48 14 86v1q0 31 29 31h59q30 0 30 -28v-2q0 -58 -31 -101q-16 -22 -41 -22
h-34q-15 0 -23 9t-3 26z" />
    <glyph glyph-name="Kcommaaccent.xoxo" horiz-adv-x="396" 
d="M395 0h-138q-31 0 -35 31l-37 258v-253q0 -36 -36 -36h-98q-36 0 -36 36v628q0 36 36 36h98q36 0 36 -36v-261l43 267q6 30 36 30h133q7 0 6 -7l-64 -331l62 -355q2 -7 -6 -7zM192 -275q-15 -14 -31 0l-5 4q-14 11 -2 27l6 9q27 40 27 67h-9q-36 0 -36 36v71q0 36 36 36
h54q36 0 36 -36v-84q0 -36 -12 -60t-46 -54z" />
    <glyph glyph-name="kcommaaccent.xoxo" horiz-adv-x="381" 
d="M381 0h-130q-31 0 -35 30l-44 237v-231q0 -36 -36 -36h-88q-36 0 -36 36v638q0 36 36 36h88q36 0 36 -36v-371l52 239q6 28 35 28h126q7 0 6 -7l-70 -271l66 -284q2 -8 -6 -8zM182 -275q-15 -14 -31 0l-5 4q-14 11 -2 27l6 9q27 40 27 67h-9q-36 0 -36 36v71q0 36 36 36
h54q36 0 36 -36v-84q0 -36 -12 -60t-46 -54z" />
    <glyph glyph-name="Kcommaaccent.xoxo_alt" horiz-adv-x="396" 
d="M395 0h-138q-31 0 -35 31l-37 258v-253q0 -36 -36 -36h-98q-36 0 -36 36v628q0 36 36 36h98q36 0 36 -36v-261l43 267q6 30 36 30h133q7 0 6 -7l-64 -331l62 -355q2 -7 -6 -7zM136 -141q14 48 14 86v1q0 31 29 31h59q30 0 30 -28v-2q0 -58 -31 -101q-16 -22 -41 -22h-34
q-15 0 -23 9t-3 26z" />
    <glyph glyph-name="kcommaaccent.xoxo_alt" horiz-adv-x="381" 
d="M381 0h-130q-31 0 -35 30l-44 237v-231q0 -36 -36 -36h-88q-36 0 -36 36v638q0 36 36 36h88q36 0 36 -36v-371l52 239q6 28 35 28h126q7 0 6 -7l-70 -271l66 -284q2 -8 -6 -8zM126 -141q14 48 14 86v1q0 31 29 31h59q30 0 30 -28v-2q0 -58 -31 -101q-16 -22 -41 -22h-34
q-15 0 -23 9t-3 26z" />
    <glyph glyph-name="V.0oxx" horiz-adv-x="382" 
d="M266 0h-149q-32 0 -36 31l-84 628q-6 41 35 41h96q33 0 36 -33l36 -434l38 434q3 33 36 33h110q8 0 7 -8l-90 -661q-4 -31 -35 -31z" />
    <glyph glyph-name="v.0oxx" horiz-adv-x="369" 
d="M257 0h-144q-32 0 -36 31l-75 498q-6 41 35 41h85q33 0 36 -32l31 -308l30 308q4 32 36 32h111q7 0 6 -6l-80 -533q-4 -31 -35 -31z" />
    <glyph glyph-name="V.o0xx" horiz-adv-x="382" 
d="M266 0h-149q-32 0 -36 31l-88 661q-1 8 8 8h127q33 0 36 -33l36 -434l38 434q3 33 36 33h76q40 0 36 -41l-85 -628q-4 -31 -35 -31z" />
    <glyph glyph-name="v.o0xx" horiz-adv-x="369" 
d="M257 0h-144q-32 0 -36 31l-80 533q-1 6 6 6h119q33 0 36 -32l31 -308l30 308q4 32 36 32h77q42 0 35 -41l-75 -498q-4 -31 -35 -31z" />
    <glyph glyph-name="V.ooxx" horiz-adv-x="382" 
d="M266 0h-149q-32 0 -36 31l-89 661q-1 8 7 8h129q33 0 36 -33l36 -434l38 434q3 33 36 33h109q8 0 7 -8l-89 -661q-4 -31 -35 -31z" />
    <glyph glyph-name="v.ooxx" horiz-adv-x="369" 
d="M257 0h-144q-32 0 -36 31l-80 532q-1 7 7 7h118q33 0 36 -32l31 -308l30 308q4 32 36 32h111q7 0 6 -7l-80 -532q-4 -31 -35 -31z" />
    <glyph glyph-name="W.0oxx" horiz-adv-x="565" 
d="M219 0h-109q-32 0 -36 32l-76 628q-6 40 35 40h104q33 0 36 -33l22 -253l23 253q3 33 35 33h89q33 0 36 -33l22 -253l23 253q3 33 36 33h106q8 0 7 -8l-80 -660q-4 -32 -36 -32h-110q-32 0 -36 32l-28 259l-27 -259q-3 -32 -36 -32z" />
    <glyph glyph-name="w.0oxx" horiz-adv-x="561" 
d="M219 0h-114q-32 0 -36 31l-66 498q-6 41 35 41h79q33 0 36 -33l20 -284l28 285q3 32 36 32h97q32 0 35 -33l27 -281l22 281q3 33 36 33h103q6 0 6 -6l-72 -533q-4 -31 -35 -31h-115q-32 0 -35 32l-26 228l-25 -228q-4 -32 -36 -32z" />
    <glyph glyph-name="W.o0xx" horiz-adv-x="565" 
d="M219 0h-109q-32 0 -36 32l-80 660q-1 8 8 8h135q33 0 36 -33l22 -253l23 253q3 33 35 33h89q33 0 36 -33l22 -253l23 253q3 33 36 33h73q40 0 36 -40l-76 -628q-4 -32 -36 -32h-110q-32 0 -36 32l-28 259l-27 -259q-3 -32 -36 -32z" />
    <glyph glyph-name="w.o0xx" horiz-adv-x="561" 
d="M219 0h-114q-32 0 -36 31l-71 533q0 6 6 6h113q33 0 36 -33l20 -284l28 285q3 32 36 32h97q32 0 35 -33l27 -281l22 281q3 33 36 33h68q42 0 36 -41l-67 -498q-4 -31 -35 -31h-115q-32 0 -35 32l-26 228l-25 -228q-4 -32 -36 -32z" />
    <glyph glyph-name="W.ooxx" horiz-adv-x="565" 
d="M219 0h-109q-32 0 -36 32l-80 660q-1 8 8 8h135q33 0 36 -33l22 -253l23 253q3 33 35 33h89q33 0 36 -33l22 -253l23 253q3 33 36 33h106q8 0 7 -8l-80 -660q-4 -32 -36 -32h-110q-32 0 -36 32l-28 259l-27 -259q-3 -32 -36 -32z" />
    <glyph glyph-name="w.ooxx" horiz-adv-x="561" 
d="M219 0h-114q-32 0 -36 31l-71 533q0 6 6 6h113q33 0 36 -33l20 -284l28 285q3 32 36 32h97q32 0 35 -33l27 -281l22 281q3 33 36 33h103q6 0 6 -6l-72 -533q-4 -31 -35 -31h-115q-32 0 -35 32l-26 228l-25 -228q-4 -32 -36 -32z" />
    <glyph glyph-name="Wacute.0oxx" horiz-adv-x="564" 
d="M389 843q25 0 33 -15.5t-6 -33.5l-45 -56q-15 -18 -45 -18h-47q-19 0 -26.5 12.5t-1.5 26.5l25 53q14 31 50 31h63zM219 0h-109q-32 0 -36 32l-76 628q-6 40 35 40h104q33 0 36 -33l22 -253l23 253q3 33 35 33h89q33 0 36 -33l22 -253l23 253q3 33 36 33h106q8 0 7 -8
l-80 -660q-4 -32 -36 -32h-110q-32 0 -36 32l-28 259l-27 -259q-3 -32 -36 -32z" />
    <glyph glyph-name="wacute.0oxx" horiz-adv-x="561" 
d="M376 733q23 0 31 -15.5t-5 -34.5l-45 -70q-15 -23 -50 -23h-43q-18 0 -27 12t-4 28l22 66q6 20 16.5 28.5t32.5 8.5h72zM219 0h-114q-32 0 -36 31l-66 498q-6 41 35 41h79q33 0 36 -33l20 -284l28 285q3 32 36 32h97q32 0 35 -33l27 -281l22 281q3 33 36 33h103q6 0 6 -6
l-72 -533q-4 -31 -35 -31h-115q-32 0 -35 32l-26 228l-25 -228q-4 -32 -36 -32z" />
    <glyph glyph-name="Wacute.o0xx" horiz-adv-x="564" 
d="M389 843q25 0 33 -15.5t-6 -33.5l-45 -56q-15 -18 -45 -18h-47q-19 0 -26.5 12.5t-1.5 26.5l25 53q14 31 50 31h63zM219 0h-109q-32 0 -36 32l-80 660q-1 8 8 8h135q33 0 36 -33l22 -253l23 253q3 33 35 33h89q33 0 36 -33l22 -253l23 253q3 33 36 33h73q40 0 36 -40
l-76 -628q-4 -32 -36 -32h-110q-32 0 -36 32l-28 259l-27 -259q-3 -32 -36 -32z" />
    <glyph glyph-name="wacute.o0xx" horiz-adv-x="561" 
d="M376 733q23 0 31 -15.5t-5 -34.5l-45 -70q-15 -23 -50 -23h-43q-18 0 -27 12t-4 28l22 66q6 20 16.5 28.5t32.5 8.5h72zM219 0h-114q-32 0 -36 31l-71 533q0 6 6 6h113q33 0 36 -33l20 -284l28 285q3 32 36 32h97q32 0 35 -33l27 -281l22 281q3 33 36 33h68q42 0 36 -41
l-67 -498q-4 -31 -35 -31h-115q-32 0 -35 32l-26 228l-25 -228q-4 -32 -36 -32z" />
    <glyph glyph-name="Wacute.ooxx" horiz-adv-x="564" 
d="M389 843q25 0 33 -15.5t-6 -33.5l-45 -56q-15 -18 -45 -18h-47q-19 0 -26.5 12.5t-1.5 26.5l25 53q14 31 50 31h63zM219 0h-109q-32 0 -36 32l-80 660q-1 8 8 8h135q33 0 36 -33l22 -253l23 253q3 33 35 33h89q33 0 36 -33l22 -253l23 253q3 33 36 33h106q8 0 7 -8
l-80 -660q-4 -32 -36 -32h-110q-32 0 -36 32l-28 259l-27 -259q-3 -32 -36 -32z" />
    <glyph glyph-name="wacute.ooxx" horiz-adv-x="561" 
d="M376 733q23 0 31 -15.5t-5 -34.5l-45 -70q-15 -23 -50 -23h-43q-18 0 -27 12t-4 28l22 66q6 20 16.5 28.5t32.5 8.5h72zM219 0h-114q-32 0 -36 31l-71 533q0 6 6 6h113q33 0 36 -33l20 -284l28 285q3 32 36 32h97q32 0 35 -33l27 -281l22 281q3 33 36 33h103q6 0 6 -6
l-72 -533q-4 -31 -35 -31h-115q-32 0 -35 32l-26 228l-25 -228q-4 -32 -36 -32z" />
    <glyph glyph-name="Wcircumflex.0oxx" horiz-adv-x="564" 
d="M263 851h74q32 0 48 -27l41 -67q6 -11 0 -21.5t-21 -10.5h-45q-22 0 -35 14l-25 31l-25 -31q-13 -14 -35 -14h-45q-15 0 -21 10.5t0 21.5l41 67q16 27 48 27zM219 0h-109q-32 0 -36 32l-76 628q-6 40 35 40h104q33 0 36 -33l22 -253l23 253q3 33 35 33h89q33 0 36 -33
l22 -253l23 253q3 33 36 33h106q8 0 7 -8l-80 -660q-4 -32 -36 -32h-110q-32 0 -36 32l-28 259l-27 -259q-3 -32 -36 -32z" />
    <glyph glyph-name="wcircumflex.0oxx" horiz-adv-x="561" 
d="M254 738h60q36 0 55 -34l36 -64q10 -20 2.5 -32.5t-25.5 -12.5h-26q-34 0 -51 25l-21 31l-21 -31q-17 -25 -51 -25h-26q-19 0 -26 12.5t3 32.5l36 64q19 34 55 34zM219 0h-114q-32 0 -36 31l-66 498q-6 41 35 41h79q33 0 36 -33l20 -284l28 285q3 32 36 32h97
q32 0 35 -33l27 -281l22 281q3 33 36 33h103q6 0 6 -6l-72 -533q-4 -31 -35 -31h-115q-32 0 -35 32l-26 228l-25 -228q-4 -32 -36 -32z" />
    <glyph glyph-name="Wcircumflex.o0xx" horiz-adv-x="564" 
d="M263 851h74q32 0 48 -27l41 -67q6 -11 0 -21.5t-21 -10.5h-45q-22 0 -35 14l-25 31l-25 -31q-13 -14 -35 -14h-45q-15 0 -21 10.5t0 21.5l41 67q16 27 48 27zM219 0h-109q-32 0 -36 32l-80 660q-1 8 8 8h135q33 0 36 -33l22 -253l23 253q3 33 35 33h89q33 0 36 -33
l22 -253l23 253q3 33 36 33h73q40 0 36 -40l-76 -628q-4 -32 -36 -32h-110q-32 0 -36 32l-28 259l-27 -259q-3 -32 -36 -32z" />
    <glyph glyph-name="wcircumflex.o0xx" horiz-adv-x="561" 
d="M254 738h60q36 0 55 -34l36 -64q10 -20 2.5 -32.5t-25.5 -12.5h-26q-34 0 -51 25l-21 31l-21 -31q-17 -25 -51 -25h-26q-19 0 -26 12.5t3 32.5l36 64q19 34 55 34zM219 0h-114q-32 0 -36 31l-71 533q0 6 6 6h113q33 0 36 -33l20 -284l28 285q3 32 36 32h97q32 0 35 -33
l27 -281l22 281q3 33 36 33h68q42 0 36 -41l-67 -498q-4 -31 -35 -31h-115q-32 0 -35 32l-26 228l-25 -228q-4 -32 -36 -32z" />
    <glyph glyph-name="Wcircumflex.ooxx" horiz-adv-x="564" 
d="M263 851h74q32 0 48 -27l41 -67q6 -11 0 -21.5t-21 -10.5h-45q-22 0 -35 14l-25 31l-25 -31q-13 -14 -35 -14h-45q-15 0 -21 10.5t0 21.5l41 67q16 27 48 27zM219 0h-109q-32 0 -36 32l-80 660q-1 8 8 8h135q33 0 36 -33l22 -253l23 253q3 33 35 33h89q33 0 36 -33
l22 -253l23 253q3 33 36 33h106q8 0 7 -8l-80 -660q-4 -32 -36 -32h-110q-32 0 -36 32l-28 259l-27 -259q-3 -32 -36 -32z" />
    <glyph glyph-name="wcircumflex.ooxx" horiz-adv-x="561" 
d="M254 738h60q36 0 55 -34l36 -64q10 -20 2.5 -32.5t-25.5 -12.5h-26q-34 0 -51 25l-21 31l-21 -31q-17 -25 -51 -25h-26q-19 0 -26 12.5t3 32.5l36 64q19 34 55 34zM219 0h-114q-32 0 -36 31l-71 533q0 6 6 6h113q33 0 36 -33l20 -284l28 285q3 32 36 32h97q32 0 35 -33
l27 -281l22 281q3 33 36 33h103q6 0 6 -6l-72 -533q-4 -31 -35 -31h-115q-32 0 -35 32l-26 228l-25 -228q-4 -32 -36 -32z" />
    <glyph glyph-name="Wdieresis.0oxx" horiz-adv-x="564" 
d="M204 843h50q36 0 36 -36v-51q0 -36 -36 -36h-50q-36 0 -36 36v51q0 36 36 36zM396 720h-50q-36 0 -36 36v51q0 36 36 36h50q36 0 36 -36v-51q0 -36 -36 -36zM219 0h-109q-32 0 -36 32l-76 628q-6 40 35 40h104q33 0 36 -33l22 -253l23 253q3 33 35 33h89q33 0 36 -33
l22 -253l23 253q3 33 36 33h106q8 0 7 -8l-80 -660q-4 -32 -36 -32h-110q-32 0 -36 32l-28 259l-27 -259q-3 -32 -36 -32z" />
    <glyph glyph-name="wdieresis.0oxx" horiz-adv-x="561" 
d="M190 733h48q36 0 36 -36v-71q0 -36 -36 -36h-48q-36 0 -36 36v71q0 36 36 36zM378 590h-48q-36 0 -36 36v71q0 36 36 36h48q36 0 36 -36v-71q0 -36 -36 -36zM219 0h-114q-32 0 -36 31l-66 498q-6 41 35 41h79q33 0 36 -33l20 -284l28 285q3 32 36 32h97q32 0 35 -33
l27 -281l22 281q3 33 36 33h103q6 0 6 -6l-72 -533q-4 -31 -35 -31h-115q-32 0 -35 32l-26 228l-25 -228q-4 -32 -36 -32z" />
    <glyph glyph-name="Wdieresis.o0xx" horiz-adv-x="564" 
d="M204 843h50q36 0 36 -36v-51q0 -36 -36 -36h-50q-36 0 -36 36v51q0 36 36 36zM396 720h-50q-36 0 -36 36v51q0 36 36 36h50q36 0 36 -36v-51q0 -36 -36 -36zM219 0h-109q-32 0 -36 32l-80 660q-1 8 8 8h135q33 0 36 -33l22 -253l23 253q3 33 35 33h89q33 0 36 -33
l22 -253l23 253q3 33 36 33h73q40 0 36 -40l-76 -628q-4 -32 -36 -32h-110q-32 0 -36 32l-28 259l-27 -259q-3 -32 -36 -32z" />
    <glyph glyph-name="wdieresis.o0xx" horiz-adv-x="561" 
d="M190 733h48q36 0 36 -36v-71q0 -36 -36 -36h-48q-36 0 -36 36v71q0 36 36 36zM378 590h-48q-36 0 -36 36v71q0 36 36 36h48q36 0 36 -36v-71q0 -36 -36 -36zM219 0h-114q-32 0 -36 31l-71 533q0 6 6 6h113q33 0 36 -33l20 -284l28 285q3 32 36 32h97q32 0 35 -33l27 -281
l22 281q3 33 36 33h68q42 0 36 -41l-67 -498q-4 -31 -35 -31h-115q-32 0 -35 32l-26 228l-25 -228q-4 -32 -36 -32z" />
    <glyph glyph-name="Wdieresis.ooxx" horiz-adv-x="564" 
d="M204 843h50q36 0 36 -36v-51q0 -36 -36 -36h-50q-36 0 -36 36v51q0 36 36 36zM396 720h-50q-36 0 -36 36v51q0 36 36 36h50q36 0 36 -36v-51q0 -36 -36 -36zM219 0h-109q-32 0 -36 32l-80 660q-1 8 8 8h135q33 0 36 -33l22 -253l23 253q3 33 35 33h89q33 0 36 -33
l22 -253l23 253q3 33 36 33h106q8 0 7 -8l-80 -660q-4 -32 -36 -32h-110q-32 0 -36 32l-28 259l-27 -259q-3 -32 -36 -32z" />
    <glyph glyph-name="wdieresis.ooxx" horiz-adv-x="561" 
d="M190 733h48q36 0 36 -36v-71q0 -36 -36 -36h-48q-36 0 -36 36v71q0 36 36 36zM378 590h-48q-36 0 -36 36v71q0 36 36 36h48q36 0 36 -36v-71q0 -36 -36 -36zM219 0h-114q-32 0 -36 31l-71 533q0 6 6 6h113q33 0 36 -33l20 -284l28 285q3 32 36 32h97q32 0 35 -33l27 -281
l22 281q3 33 36 33h103q6 0 6 -6l-72 -533q-4 -31 -35 -31h-115q-32 0 -35 32l-26 228l-25 -228q-4 -32 -36 -32z" />
    <glyph glyph-name="Wgrave.0oxx" horiz-adv-x="564" 
d="M211 843h63q36 0 50 -31l25 -53q6 -14 -1.5 -26.5t-26.5 -12.5h-47q-30 0 -45 18l-45 56q-14 18 -6 33.5t33 15.5zM219 0h-109q-32 0 -36 32l-76 628q-6 40 35 40h104q33 0 36 -33l22 -253l23 253q3 33 35 33h89q33 0 36 -33l22 -253l23 253q3 33 36 33h106q8 0 7 -8
l-80 -660q-4 -32 -36 -32h-110q-32 0 -36 32l-28 259l-27 -259q-3 -32 -36 -32z" />
    <glyph glyph-name="wgrave.0oxx" horiz-adv-x="561" 
d="M192 733h72q22 0 32.5 -8.5t16.5 -28.5l22 -66q5 -16 -4 -28t-27 -12h-43q-35 0 -50 23l-45 70q-13 19 -5 34.5t31 15.5zM219 0h-114q-32 0 -36 31l-66 498q-6 41 35 41h79q33 0 36 -33l20 -284l28 285q3 32 36 32h97q32 0 35 -33l27 -281l22 281q3 33 36 33h103
q6 0 6 -6l-72 -533q-4 -31 -35 -31h-115q-32 0 -35 32l-26 228l-25 -228q-4 -32 -36 -32z" />
    <glyph glyph-name="Wgrave.o0xx" horiz-adv-x="564" 
d="M211 843h63q36 0 50 -31l25 -53q6 -14 -1.5 -26.5t-26.5 -12.5h-47q-30 0 -45 18l-45 56q-14 18 -6 33.5t33 15.5zM219 0h-109q-32 0 -36 32l-80 660q-1 8 8 8h135q33 0 36 -33l22 -253l23 253q3 33 35 33h89q33 0 36 -33l22 -253l23 253q3 33 36 33h73q40 0 36 -40
l-76 -628q-4 -32 -36 -32h-110q-32 0 -36 32l-28 259l-27 -259q-3 -32 -36 -32z" />
    <glyph glyph-name="wgrave.o0xx" horiz-adv-x="561" 
d="M192 733h72q22 0 32.5 -8.5t16.5 -28.5l22 -66q5 -16 -4 -28t-27 -12h-43q-35 0 -50 23l-45 70q-13 19 -5 34.5t31 15.5zM219 0h-114q-32 0 -36 31l-71 533q0 6 6 6h113q33 0 36 -33l20 -284l28 285q3 32 36 32h97q32 0 35 -33l27 -281l22 281q3 33 36 33h68q42 0 36 -41
l-67 -498q-4 -31 -35 -31h-115q-32 0 -35 32l-26 228l-25 -228q-4 -32 -36 -32z" />
    <glyph glyph-name="Wgrave.ooxx" horiz-adv-x="564" 
d="M211 843h63q36 0 50 -31l25 -53q6 -14 -1.5 -26.5t-26.5 -12.5h-47q-30 0 -45 18l-45 56q-14 18 -6 33.5t33 15.5zM219 0h-109q-32 0 -36 32l-80 660q-1 8 8 8h135q33 0 36 -33l22 -253l23 253q3 33 35 33h89q33 0 36 -33l22 -253l23 253q3 33 36 33h106q8 0 7 -8
l-80 -660q-4 -32 -36 -32h-110q-32 0 -36 32l-28 259l-27 -259q-3 -32 -36 -32z" />
    <glyph glyph-name="wgrave.ooxx" horiz-adv-x="561" 
d="M192 733h72q22 0 32.5 -8.5t16.5 -28.5l22 -66q5 -16 -4 -28t-27 -12h-43q-35 0 -50 23l-45 70q-13 19 -5 34.5t31 15.5zM219 0h-114q-32 0 -36 31l-71 533q0 6 6 6h113q33 0 36 -33l20 -284l28 285q3 32 36 32h97q32 0 35 -33l27 -281l22 281q3 33 36 33h103q6 0 6 -6
l-72 -533q-4 -31 -35 -31h-115q-32 0 -35 32l-26 228l-25 -228q-4 -32 -36 -32z" />
    <glyph glyph-name="X.000o" horiz-adv-x="379" 
d="M381 0h-139q-31 0 -35 30l-27 151l-31 -152q-6 -29 -35 -29h-77q-47 0 -35 45l80 293l-79 317q-11 45 35 45h100q29 0 35 -30l25 -146l29 147q6 29 36 29h76q47 0 35 -45l-78 -293l91 -354q2 -8 -6 -8z" />
    <glyph glyph-name="x.000o" horiz-adv-x="352" 
d="M351 0h-122q-31 0 -36 30l-20 126l-29 -128q-7 -28 -35 -28h-72q-47 0 -34 46l65 228l-63 251q-10 45 35 45h84q30 0 36 -30l19 -122l27 124q6 28 35 28h71q47 0 35 -46l-63 -227l73 -289q2 -8 -6 -8z" />
    <glyph glyph-name="X.00o0" horiz-adv-x="379" 
d="M342 0h-100q-31 0 -35 30l-27 151l-31 -152q-6 -29 -35 -29h-110q-9 0 -7 8l85 330l-79 317q-11 45 35 45h100q29 0 35 -30l25 -146l29 147q6 29 36 29h76q47 0 35 -45l-78 -293l81 -317q11 -45 -35 -45z" />
    <glyph glyph-name="x.00o0" horiz-adv-x="352" 
d="M313 0h-84q-31 0 -36 30l-20 126l-29 -128q-7 -28 -35 -28h-110q-8 0 -6 8l75 266l-63 251q-10 45 35 45h84q30 0 36 -30l19 -122l27 124q6 28 35 28h71q47 0 35 -46l-63 -227l64 -252q12 -45 -35 -45z" />
    <glyph glyph-name="X.00oo" horiz-adv-x="379" 
d="M381 0h-139q-31 0 -35 30l-27 151l-31 -152q-6 -29 -35 -29h-116q-8 0 -6 8l90 330l-79 317q-11 45 35 45h100q29 0 35 -30l25 -146l29 147q6 29 36 29h76q47 0 35 -45l-78 -293l91 -354q2 -8 -6 -8z" />
    <glyph glyph-name="x.00oo" horiz-adv-x="352" 
d="M352 0h-123q-31 0 -36 30l-20 126l-29 -128q-7 -28 -35 -28h-111q-8 0 -6 8l76 266l-63 251q-10 45 35 45h84q30 0 36 -30l19 -122l27 124q6 28 35 28h71q47 0 35 -46l-63 -227l74 -289q2 -8 -6 -8z" />
    <glyph glyph-name="X.0o00" horiz-adv-x="379" 
d="M342 0h-100q-31 0 -35 30l-27 151l-31 -152q-6 -29 -35 -29h-77q-47 0 -35 45l80 293l-79 317q-11 45 35 45h100q29 0 35 -30l25 -146l29 147q6 29 36 29h115q7 0 6 -7l-88 -331l81 -317q11 -45 -35 -45z" />
    <glyph glyph-name="x.0o00" horiz-adv-x="352" 
d="M313 0h-84q-31 0 -36 30l-20 126l-29 -128q-7 -28 -35 -28h-72q-47 0 -34 46l65 228l-63 251q-10 45 35 45h84q30 0 36 -30l19 -122l27 124q6 28 35 28h110q7 0 6 -8l-73 -265l64 -252q12 -45 -35 -45z" />
    <glyph glyph-name="X.0o0o" horiz-adv-x="379" 
d="M381 0h-139q-31 0 -35 30l-27 151l-31 -152q-6 -29 -35 -29h-77q-47 0 -35 45l80 293l-79 317q-11 45 35 45h100q29 0 35 -30l25 -146l29 147q6 29 36 29h115q7 0 6 -7l-88 -331l91 -354q2 -8 -6 -8z" />
    <glyph glyph-name="x.0o0o" horiz-adv-x="352" 
d="M352 0h-123q-31 0 -36 30l-20 126l-29 -128q-7 -28 -35 -28h-72q-47 0 -34 46l65 228l-63 251q-10 45 35 45h84q30 0 36 -30l19 -122l27 124q6 28 35 28h110q7 0 6 -8l-73 -265l74 -289q2 -8 -6 -8z" />
    <glyph glyph-name="X.0oo0" horiz-adv-x="379" 
d="M342 0h-100q-31 0 -35 30l-27 151l-31 -152q-6 -29 -35 -29h-116q-8 0 -6 8l90 330l-79 317q-11 45 35 45h100q29 0 35 -30l25 -146l29 147q6 29 36 29h115q7 0 6 -7l-88 -331l81 -317q11 -45 -35 -45z" />
    <glyph glyph-name="x.0oo0" horiz-adv-x="352" 
d="M313 0h-84q-31 0 -36 30l-20 126l-29 -128q-7 -28 -35 -28h-110q-8 0 -6 8l75 266l-63 251q-10 45 35 45h84q30 0 36 -30l19 -122l27 124q6 28 35 28h110q7 0 6 -8l-73 -265l64 -252q12 -45 -35 -45z" />
    <glyph glyph-name="X.0ooo" horiz-adv-x="379" 
d="M380 0h-138q-31 0 -35 30l-27 151l-31 -152q-6 -29 -35 -29h-116q-8 0 -6 8l90 330l-79 317q-11 45 35 45h100q29 0 35 -30l25 -146l29 147q6 29 36 29h115q7 0 6 -7l-88 -331l90 -354q2 -8 -6 -8z" />
    <glyph glyph-name="x.0ooo" horiz-adv-x="352" 
d="M352 0h-123q-31 0 -36 30l-20 126l-29 -128q-7 -28 -35 -28h-110q-8 0 -6 8l75 266l-63 251q-10 45 35 45h84q30 0 36 -30l19 -122l27 124q6 28 35 28h110q7 0 6 -8l-73 -265l74 -289q2 -8 -6 -8z" />
    <glyph glyph-name="X.o000" horiz-adv-x="379" 
d="M342 0h-100q-31 0 -35 30l-27 151l-31 -152q-6 -29 -35 -29h-77q-47 0 -35 45l80 293l-88 355q-1 7 6 7h138q29 0 35 -30l25 -146l29 147q6 29 36 29h76q47 0 35 -45l-78 -293l81 -317q11 -45 -35 -45z" />
    <glyph glyph-name="x.o000" horiz-adv-x="352" 
d="M313 0h-84q-31 0 -36 30l-20 126l-29 -128q-7 -28 -35 -28h-72q-47 0 -34 46l65 228l-73 289q-1 7 6 7h123q30 0 36 -30l19 -122l27 124q6 28 35 28h71q47 0 35 -46l-63 -227l64 -252q12 -45 -35 -45z" />
    <glyph glyph-name="X.o00o" horiz-adv-x="379" 
d="M380 0h-138q-31 0 -35 30l-27 151l-31 -152q-6 -29 -35 -29h-77q-47 0 -35 45l80 293l-88 355q-1 7 6 7h138q29 0 35 -30l25 -146l29 147q6 29 36 29h76q47 0 35 -45l-78 -293l90 -354q2 -8 -6 -8z" />
    <glyph glyph-name="x.o00o" horiz-adv-x="352" 
d="M351 0h-122q-31 0 -36 30l-20 126l-29 -128q-7 -28 -35 -28h-72q-47 0 -34 46l65 228l-73 289q-1 7 6 7h123q30 0 36 -30l19 -122l27 124q6 28 35 28h71q47 0 35 -46l-63 -227l73 -289q2 -8 -6 -8z" />
    <glyph glyph-name="X.o0o0" horiz-adv-x="379" 
d="M342 0h-100q-31 0 -35 30l-27 151l-31 -152q-6 -29 -35 -29h-110q-9 0 -7 8l85 330l-89 358q0 4 3 4h142q29 0 35 -30l25 -146l29 147q6 29 36 29h76q47 0 35 -45l-78 -293l81 -317q11 -45 -35 -45z" />
    <glyph glyph-name="x.o0o0" horiz-adv-x="352" 
d="M313 0h-84q-31 0 -36 30l-20 126l-29 -128q-7 -28 -35 -28h-110q-8 0 -6 8l75 266l-73 289q-1 7 6 7h123q30 0 36 -30l19 -122l27 124q6 28 35 28h71q47 0 35 -46l-63 -227l64 -252q12 -45 -35 -45z" />
    <glyph glyph-name="X.o0oo" horiz-adv-x="379" 
d="M380 0h-138q-31 0 -35 30l-27 151l-31 -152q-6 -29 -35 -29h-116q-8 0 -6 8l90 330l-88 355q-1 7 6 7h138q29 0 35 -30l25 -146l29 147q6 29 36 29h76q47 0 35 -45l-78 -293l90 -354q2 -8 -6 -8z" />
    <glyph glyph-name="x.o0oo" horiz-adv-x="352" 
d="M351 0h-122q-31 0 -36 30l-20 126l-29 -128q-7 -28 -35 -28h-110q-8 0 -6 8l75 266l-73 289q-1 7 6 7h123q30 0 36 -30l19 -122l27 124q6 28 35 28h71q47 0 35 -46l-63 -227l73 -289q2 -8 -6 -8z" />
    <glyph glyph-name="X.oo00" horiz-adv-x="379" 
d="M342 0h-100q-31 0 -35 30l-27 151l-31 -152q-6 -29 -35 -29h-77q-47 0 -35 45l80 293l-89 355q-1 7 6 7h139q29 0 35 -30l25 -146l29 147q6 29 36 29h115q7 0 6 -7l-88 -331l81 -317q11 -45 -35 -45z" />
    <glyph glyph-name="x.oo00" horiz-adv-x="352" 
d="M313 0h-84q-31 0 -36 30l-20 126l-29 -128q-7 -28 -35 -28h-72q-47 0 -34 46l65 228l-73 289q-1 7 6 7h123q30 0 36 -30l19 -122l27 124q6 28 35 28h110q7 0 6 -8l-73 -265l64 -252q12 -45 -35 -45z" />
    <glyph glyph-name="X.oo0o" horiz-adv-x="379" 
d="M380 0h-138q-31 0 -35 30l-27 151l-31 -152q-6 -29 -35 -29h-77q-47 0 -35 45l80 293l-88 355q-1 7 6 7h138q29 0 35 -30l25 -146l29 147q6 29 36 29h115q7 0 6 -7l-88 -331l90 -354q2 -8 -6 -8z" />
    <glyph glyph-name="x.oo0o" horiz-adv-x="352" 
d="M352 0h-123q-31 0 -36 30l-20 126l-29 -128q-7 -28 -35 -28h-72q-47 0 -34 46l65 228l-73 289q-1 7 6 7h123q30 0 36 -30l19 -122l27 124q6 28 35 28h110q7 0 6 -8l-73 -265l74 -289q2 -8 -6 -8z" />
    <glyph glyph-name="X.ooo0" horiz-adv-x="379" 
d="M342 0h-100q-31 0 -35 30l-27 151l-31 -152q-6 -29 -35 -29h-116q-8 0 -6 8l90 330l-88 355q-1 7 6 7h138q29 0 35 -30l25 -146l29 147q6 29 36 29h115q7 0 6 -7l-88 -331l81 -317q11 -45 -35 -45z" />
    <glyph glyph-name="x.ooo0" horiz-adv-x="352" 
d="M313 0h-84q-31 0 -36 30l-20 126l-29 -128q-7 -28 -35 -28h-110q-8 0 -6 8l75 266l-73 289q-1 7 6 7h123q30 0 36 -30l19 -122l27 124q6 28 35 28h110q7 0 6 -8l-73 -265l64 -252q12 -45 -35 -45z" />
    <glyph glyph-name="X.oooo" horiz-adv-x="379" 
d="M381 0h-139q-31 0 -35 30l-27 151l-31 -152q-6 -29 -35 -29h-116q-8 0 -6 8l90 330l-88 355q-1 7 6 7h138q29 0 35 -30l25 -146l29 147q6 29 36 29h115q7 0 6 -7l-88 -331l91 -354q2 -8 -6 -8z" />
    <glyph glyph-name="x.oooo" horiz-adv-x="352" 
d="M352 0h-123q-31 0 -36 30l-20 126l-29 -128q-7 -28 -35 -28h-110q-8 0 -6 8l75 266l-72 289q-1 7 6 7h122q30 0 36 -30l19 -122l27 124q6 28 35 28h110q7 0 6 -8l-73 -265l74 -289q2 -8 -6 -8z" />
    <glyph glyph-name="Y.0oxx" horiz-adv-x="370" 
d="M270 253v-217q0 -36 -36 -36h-98q-36 0 -36 36v206l-102 413q-10 45 35 45h99q32 0 36 -31l27 -179l30 180q6 30 36 30h113q9 0 7 -8z" />
    <glyph glyph-name="y.0oxx" horiz-adv-x="363" 
d="M372 564l-135 -645q-7 -29 -35 -29h-82q-45 0 -36 44l18 78l-105 515q-7 43 36 43h88q32 0 36 -32l11 -88q7 -59 16 -194q11 139 17 194l11 88q4 32 36 32h118q6 0 6 -6z" />
    <glyph glyph-name="y.0oxx_alt" horiz-adv-x="363" 
d="M269 -28q-8 -48 -26.5 -65t-59.5 -17h-106q-40 0 -40 36v73q0 32 30 32h1q14 0 11 14l-80 483q-7 42 36 42h84q32 0 35 -32l27 -267l33 267q4 32 36 32h115q6 0 5 -6z" />
    <glyph glyph-name="Y.o0xx" horiz-adv-x="370" 
d="M270 253v-217q0 -36 -36 -36h-98q-36 0 -36 36v206l-111 450q-2 8 7 8h136q32 0 36 -31l27 -179l30 180q6 30 36 30h76q47 0 35 -45z" />
    <glyph glyph-name="y.o0xx" horiz-adv-x="363" 
d="M365 527l-128 -608q-7 -29 -35 -29h-82q-45 0 -36 44l18 78l-112 552q-2 6 5 6h126q32 0 36 -32l11 -88q7 -59 16 -194q11 139 17 194l11 88q4 32 36 32h81q45 0 36 -43z" />
    <glyph glyph-name="y.o0xx_alt" horiz-adv-x="363" 
d="M269 -28q-8 -48 -26.5 -65t-59.5 -17h-106q-40 0 -40 36v73q0 32 30 32h1q14 0 11 14l-86 519q-1 6 5 6h121q32 0 35 -32l27 -267l33 267q4 32 36 32h78q44 0 36 -42z" />
    <glyph glyph-name="Y.ooxx" horiz-adv-x="370" 
d="M270 253v-217q0 -36 -36 -36h-98q-36 0 -36 36v206l-111 450q-2 8 7 8h136q32 0 36 -31l27 -179l30 180q6 30 36 30h113q9 0 7 -8z" />
    <glyph glyph-name="y.ooxx" horiz-adv-x="363" 
d="M372 564l-135 -645q-6 -29 -35 -29h-82q-45 0 -36 44l18 78l-112 552q-2 6 5 6h126q32 0 36 -32l11 -88q7 -59 16 -194q11 139 17 194l11 88q4 32 36 32h118q8 0 6 -6z" />
    <glyph glyph-name="y.ooxx_alt" horiz-adv-x="363" 
d="M269 -28q-8 -48 -26.5 -65t-59.5 -17h-106q-40 0 -40 36v73q0 32 30 32h1q14 0 11 14l-86 519q-1 6 5 6h121q32 0 35 -32l27 -267l33 267q4 32 36 32h115q6 0 5 -6z" />
    <glyph glyph-name="Yacute.0oxx" horiz-adv-x="370" 
d="M285 843q25 0 33 -15.5t-6 -33.5l-45 -56q-15 -18 -45 -18h-47q-19 0 -26.5 12.5t-1.5 26.5l25 53q14 31 50 31h63zM270 253v-217q0 -36 -36 -36h-98q-36 0 -36 36v206l-102 413q-10 45 35 45h99q32 0 36 -31l27 -179l30 180q6 30 36 30h113q9 0 7 -8z" />
    <glyph glyph-name="yacute.0oxx" horiz-adv-x="363" 
d="M277 733q23 0 31 -15.5t-5 -34.5l-45 -70q-15 -23 -50 -23h-43q-18 0 -27 12t-4 28l22 66q6 20 16.5 28.5t32.5 8.5h72zM372 564l-135 -645q-7 -29 -35 -29h-82q-45 0 -36 44l18 78l-105 515q-7 43 36 43h88q32 0 36 -32l11 -88q7 -59 16 -194q11 139 17 194l11 88
q4 32 36 32h118q6 0 6 -6z" />
    <glyph glyph-name="yacute.0oxx_alt" horiz-adv-x="363" 
d="M277 733q23 0 31 -15.5t-5 -34.5l-45 -70q-15 -23 -50 -23h-43q-18 0 -27 12t-4 28l22 66q6 20 16.5 28.5t32.5 8.5h72zM269 -28q-8 -48 -26.5 -65t-59.5 -17h-106q-40 0 -40 36v73q0 32 30 32h1q14 0 11 14l-80 483q-7 42 36 42h84q32 0 35 -32l27 -267l33 267
q4 32 36 32h78q44 0 36 -42z" />
    <glyph glyph-name="Yacute.o0xx" horiz-adv-x="370" 
d="M285 843q25 0 33 -15.5t-6 -33.5l-45 -56q-15 -18 -45 -18h-47q-19 0 -26.5 12.5t-1.5 26.5l25 53q14 31 50 31h63zM270 253v-217q0 -36 -36 -36h-98q-36 0 -36 36v206l-111 450q-2 8 7 8h136q32 0 36 -31l27 -179l30 180q6 30 36 30h76q47 0 35 -45z" />
    <glyph glyph-name="yacute.o0xx" horiz-adv-x="363" 
d="M277 733q23 0 31 -15.5t-5 -34.5l-45 -70q-15 -23 -50 -23h-43q-18 0 -27 12t-4 28l22 66q6 20 16.5 28.5t32.5 8.5h72zM365 527l-128 -608q-7 -29 -35 -29h-82q-45 0 -36 44l18 78l-112 552q-2 6 5 6h126q32 0 36 -32l11 -88q7 -59 16 -194q11 139 17 194l11 88
q4 32 36 32h81q45 0 36 -43z" />
    <glyph glyph-name="yacute.o0xx_alt" horiz-adv-x="363" 
d="M277 733q23 0 31 -15.5t-5 -34.5l-45 -70q-15 -23 -50 -23h-43q-18 0 -27 12t-4 28l22 66q6 20 16.5 28.5t32.5 8.5h72zM269 -28q-8 -48 -26.5 -65t-59.5 -17h-106q-40 0 -40 36v73q0 32 30 32h1q14 0 11 14l-80 483q-7 42 36 42h84q32 0 35 -32l27 -267l33 267
q4 32 36 32h78q44 0 36 -42z" />
    <glyph glyph-name="Yacute.ooxx" horiz-adv-x="370" 
d="M285 843q25 0 33 -15.5t-6 -33.5l-45 -56q-15 -18 -45 -18h-47q-19 0 -26.5 12.5t-1.5 26.5l25 53q14 31 50 31h63zM270 253v-217q0 -36 -36 -36h-98q-36 0 -36 36v206l-111 450q-2 8 7 8h136q32 0 36 -31l27 -179l30 180q6 30 36 30h113q9 0 7 -8z" />
    <glyph glyph-name="yacute.ooxx" horiz-adv-x="363" 
d="M277 733q23 0 31 -15.5t-5 -34.5l-45 -70q-15 -23 -50 -23h-43q-18 0 -27 12t-4 28l22 66q6 20 16.5 28.5t32.5 8.5h72zM372 564l-135 -645q-6 -29 -35 -29h-82q-45 0 -36 44l18 78l-112 552q-2 6 5 6h126q32 0 36 -32l11 -88q7 -59 16 -194q11 139 17 194l11 88
q4 32 36 32h118q8 0 6 -6z" />
    <glyph glyph-name="yacute.ooxx_alt" horiz-adv-x="363" 
d="M277 733q23 0 31 -15.5t-5 -34.5l-45 -70q-15 -23 -50 -23h-43q-18 0 -27 12t-4 28l22 66q6 20 16.5 28.5t32.5 8.5h72zM269 -28q-8 -48 -26.5 -65t-59.5 -17h-106q-40 0 -40 36v73q0 32 30 32h1q14 0 11 14l-80 483q-7 42 36 42h84q32 0 35 -32l27 -267l33 267
q4 32 36 32h78q44 0 36 -42z" />
    <glyph glyph-name="Ycircumflex.0oxx" horiz-adv-x="370" 
d="M159 851h74q32 0 48 -27l41 -67q6 -11 0 -21.5t-21 -10.5h-45q-22 0 -35 14l-25 31l-25 -31q-13 -14 -35 -14h-45q-15 0 -21 10.5t0 21.5l41 67q16 27 48 27zM270 253v-217q0 -36 -36 -36h-98q-36 0 -36 36v206l-102 413q-10 45 35 45h99q32 0 36 -31l27 -179l30 180
q6 30 36 30h113q9 0 7 -8z" />
    <glyph glyph-name="ycircumflex.0oxx" horiz-adv-x="363" 
d="M155 738h60q36 0 55 -34l36 -64q10 -20 2.5 -32.5t-25.5 -12.5h-26q-34 0 -51 25l-21 31l-21 -31q-17 -25 -51 -25h-26q-19 0 -26 12.5t3 32.5l36 64q19 34 55 34zM372 564l-135 -645q-7 -29 -35 -29h-82q-45 0 -36 44l18 78l-105 515q-7 43 36 43h88q32 0 36 -32l11 -88
q7 -59 16 -194q11 139 17 194l11 88q4 32 36 32h118q6 0 6 -6z" />
    <glyph glyph-name="ycircumflex.0oxx_alt" horiz-adv-x="363" 
d="M155 738h60q36 0 55 -34l36 -64q10 -20 2.5 -32.5t-25.5 -12.5h-26q-34 0 -51 25l-21 31l-21 -31q-17 -25 -51 -25h-26q-19 0 -26 12.5t3 32.5l36 64q19 34 55 34zM269 -28q-8 -48 -26.5 -65t-59.5 -17h-106q-40 0 -40 36v73q0 32 30 32h1q14 0 11 14l-80 483
q-7 42 36 42h84q32 0 35 -32l27 -267l33 267q4 32 36 32h78q44 0 36 -42z" />
    <glyph glyph-name="Ycircumflex.o0xx" horiz-adv-x="370" 
d="M159 851h74q32 0 48 -27l41 -67q6 -11 0 -21.5t-21 -10.5h-45q-22 0 -35 14l-25 31l-25 -31q-13 -14 -35 -14h-45q-15 0 -21 10.5t0 21.5l41 67q16 27 48 27zM270 253v-217q0 -36 -36 -36h-98q-36 0 -36 36v206l-111 450q-2 8 7 8h136q32 0 36 -31l27 -179l30 180
q6 30 36 30h76q47 0 35 -45z" />
    <glyph glyph-name="ycircumflex.o0xx" horiz-adv-x="363" 
d="M155 738h60q36 0 55 -34l36 -64q10 -20 2.5 -32.5t-25.5 -12.5h-26q-34 0 -51 25l-21 31l-21 -31q-17 -25 -51 -25h-26q-19 0 -26 12.5t3 32.5l36 64q19 34 55 34zM365 527l-128 -608q-7 -29 -35 -29h-82q-45 0 -36 44l18 78l-112 552q-2 6 5 6h126q32 0 36 -32l11 -88
q7 -59 16 -194q11 139 17 194l11 88q4 32 36 32h81q45 0 36 -43z" />
    <glyph glyph-name="ycircumflex.o0xx_alt" horiz-adv-x="363" 
d="M155 738h60q36 0 55 -34l36 -64q10 -20 2.5 -32.5t-25.5 -12.5h-26q-34 0 -51 25l-21 31l-21 -31q-17 -25 -51 -25h-26q-19 0 -26 12.5t3 32.5l36 64q19 34 55 34zM269 -28q-8 -48 -26.5 -65t-59.5 -17h-106q-40 0 -40 36v73q0 32 30 32h1q14 0 11 14l-80 483
q-7 42 36 42h84q32 0 35 -32l27 -267l33 267q4 32 36 32h78q44 0 36 -42z" />
    <glyph glyph-name="Ycircumflex.ooxx" horiz-adv-x="370" 
d="M159 851h74q32 0 48 -27l41 -67q6 -11 0 -21.5t-21 -10.5h-45q-22 0 -35 14l-25 31l-25 -31q-13 -14 -35 -14h-45q-15 0 -21 10.5t0 21.5l41 67q16 27 48 27zM270 253v-217q0 -36 -36 -36h-98q-36 0 -36 36v206l-111 450q-2 8 7 8h136q32 0 36 -31l27 -179l30 180
q6 30 36 30h113q9 0 7 -8z" />
    <glyph glyph-name="ycircumflex.ooxx" horiz-adv-x="363" 
d="M155 738h60q36 0 55 -34l36 -64q10 -20 2.5 -32.5t-25.5 -12.5h-26q-34 0 -51 25l-21 31l-21 -31q-17 -25 -51 -25h-26q-19 0 -26 12.5t3 32.5l36 64q19 34 55 34zM372 564l-135 -645q-6 -29 -35 -29h-82q-45 0 -36 44l18 78l-112 552q-2 6 5 6h126q32 0 36 -32l11 -88
q7 -59 16 -194q11 139 17 194l11 88q4 32 36 32h118q8 0 6 -6z" />
    <glyph glyph-name="ycircumflex.ooxx_alt" horiz-adv-x="363" 
d="M155 738h60q36 0 55 -34l36 -64q10 -20 2.5 -32.5t-25.5 -12.5h-26q-34 0 -51 25l-21 31l-21 -31q-17 -25 -51 -25h-26q-19 0 -26 12.5t3 32.5l36 64q19 34 55 34zM269 -28q-8 -48 -26.5 -65t-59.5 -17h-106q-40 0 -40 36v73q0 32 30 32h1q14 0 11 14l-80 483
q-7 42 36 42h84q32 0 35 -32l27 -267l33 267q4 32 36 32h78q44 0 36 -42z" />
    <glyph glyph-name="Ydieresis.0oxx" horiz-adv-x="370" 
d="M100 843h50q36 0 36 -36v-51q0 -36 -36 -36h-50q-36 0 -36 36v51q0 36 36 36zM292 720h-50q-36 0 -36 36v51q0 36 36 36h50q36 0 36 -36v-51q0 -36 -36 -36zM270 253v-217q0 -36 -36 -36h-98q-36 0 -36 36v206l-102 413q-10 45 35 45h99q32 0 36 -31l27 -179l30 180
q6 30 36 30h113q9 0 7 -8z" />
    <glyph glyph-name="ydieresis.0oxx" horiz-adv-x="363" 
d="M91 733h48q36 0 36 -36v-71q0 -36 -36 -36h-48q-36 0 -36 36v71q0 36 36 36zM279 590h-48q-36 0 -36 36v71q0 36 36 36h48q36 0 36 -36v-71q0 -36 -36 -36zM372 564l-135 -645q-7 -29 -35 -29h-82q-45 0 -36 44l18 78l-105 515q-7 43 36 43h88q32 0 36 -32l11 -88
q7 -59 16 -194q11 139 17 194l11 88q4 32 36 32h118q6 0 6 -6z" />
    <glyph glyph-name="ydieresis.0oxx_alt" horiz-adv-x="363" 
d="M91 733h48q36 0 36 -36v-71q0 -36 -36 -36h-48q-36 0 -36 36v71q0 36 36 36zM279 590h-48q-36 0 -36 36v71q0 36 36 36h48q36 0 36 -36v-71q0 -36 -36 -36zM269 -28q-8 -48 -26.5 -65t-59.5 -17h-106q-40 0 -40 36v73q0 32 30 32h1q14 0 11 14l-80 483q-7 42 36 42h84
q32 0 35 -32l27 -267l33 267q4 32 36 32h78q44 0 36 -42z" />
    <glyph glyph-name="Ydieresis.o0xx" horiz-adv-x="370" 
d="M100 843h50q36 0 36 -36v-51q0 -36 -36 -36h-50q-36 0 -36 36v51q0 36 36 36zM292 720h-50q-36 0 -36 36v51q0 36 36 36h50q36 0 36 -36v-51q0 -36 -36 -36zM270 253v-217q0 -36 -36 -36h-98q-36 0 -36 36v206l-111 450q-2 8 7 8h136q32 0 36 -31l27 -179l30 180
q6 30 36 30h76q47 0 35 -45z" />
    <glyph glyph-name="ydieresis.o0xx" horiz-adv-x="363" 
d="M91 733h48q36 0 36 -36v-71q0 -36 -36 -36h-48q-36 0 -36 36v71q0 36 36 36zM279 590h-48q-36 0 -36 36v71q0 36 36 36h48q36 0 36 -36v-71q0 -36 -36 -36zM365 527l-128 -608q-7 -29 -35 -29h-82q-45 0 -36 44l18 78l-112 552q-2 6 5 6h126q32 0 36 -32l11 -88
q7 -59 16 -194q11 139 17 194l11 88q4 32 36 32h81q45 0 36 -43z" />
    <glyph glyph-name="ydieresis.o0xx_alt" horiz-adv-x="363" 
d="M91 733h48q36 0 36 -36v-71q0 -36 -36 -36h-48q-36 0 -36 36v71q0 36 36 36zM279 590h-48q-36 0 -36 36v71q0 36 36 36h48q36 0 36 -36v-71q0 -36 -36 -36zM269 -28q-8 -48 -26.5 -65t-59.5 -17h-106q-40 0 -40 36v73q0 32 30 32h1q14 0 11 14l-80 483q-7 42 36 42h84
q32 0 35 -32l27 -267l33 267q4 32 36 32h78q44 0 36 -42z" />
    <glyph glyph-name="Ydieresis.ooxx" horiz-adv-x="370" 
d="M100 843h50q36 0 36 -36v-51q0 -36 -36 -36h-50q-36 0 -36 36v51q0 36 36 36zM292 720h-50q-36 0 -36 36v51q0 36 36 36h50q36 0 36 -36v-51q0 -36 -36 -36zM270 253v-217q0 -36 -36 -36h-98q-36 0 -36 36v206l-111 450q-2 8 7 8h136q32 0 36 -31l27 -179l30 180
q6 30 36 30h113q9 0 7 -8z" />
    <glyph glyph-name="ydieresis.ooxx" horiz-adv-x="363" 
d="M91 733h48q36 0 36 -36v-71q0 -36 -36 -36h-48q-36 0 -36 36v71q0 36 36 36zM279 590h-48q-36 0 -36 36v71q0 36 36 36h48q36 0 36 -36v-71q0 -36 -36 -36zM372 564l-135 -645q-6 -29 -35 -29h-82q-45 0 -36 44l18 78l-112 552q-2 6 5 6h126q32 0 36 -32l11 -88
q7 -59 16 -194q11 139 17 194l11 88q4 32 36 32h118q8 0 6 -6z" />
    <glyph glyph-name="ydieresis.ooxx_alt" horiz-adv-x="363" 
d="M91 733h48q36 0 36 -36v-71q0 -36 -36 -36h-48q-36 0 -36 36v71q0 36 36 36zM279 590h-48q-36 0 -36 36v71q0 36 36 36h48q36 0 36 -36v-71q0 -36 -36 -36zM269 -28q-8 -48 -26.5 -65t-59.5 -17h-106q-40 0 -40 36v73q0 32 30 32h1q14 0 11 14l-80 483q-7 42 36 42h84
q32 0 35 -32l27 -267l33 267q4 32 36 32h78q44 0 36 -42z" />
    <glyph glyph-name="Ygrave.0oxx" horiz-adv-x="370" 
d="M107 843h63q36 0 50 -31l25 -53q6 -14 -1.5 -26.5t-26.5 -12.5h-47q-30 0 -45 18l-45 56q-14 18 -6 33.5t33 15.5zM270 253v-217q0 -36 -36 -36h-98q-36 0 -36 36v206l-102 413q-10 45 35 45h99q32 0 36 -31l27 -179l30 180q6 30 36 30h113q9 0 7 -8z" />
    <glyph glyph-name="ygrave.0oxx" horiz-adv-x="363" 
d="M93 733h72q22 0 32.5 -8.5t16.5 -28.5l22 -66q5 -16 -4 -28t-27 -12h-43q-35 0 -50 23l-45 70q-13 19 -5 34.5t31 15.5zM372 564l-135 -645q-7 -29 -35 -29h-82q-45 0 -36 44l18 78l-105 515q-7 43 36 43h88q32 0 36 -32l11 -88q7 -59 16 -194q11 139 17 194l11 88
q4 32 36 32h118q6 0 6 -6z" />
    <glyph glyph-name="ygrave.0oxx_alt" horiz-adv-x="363" 
d="M93 733h72q22 0 32.5 -8.5t16.5 -28.5l22 -66q5 -16 -4 -28t-27 -12h-43q-35 0 -50 23l-45 70q-13 19 -5 34.5t31 15.5zM269 -28q-8 -48 -26.5 -65t-59.5 -17h-106q-40 0 -40 36v73q0 32 30 32h1q14 0 11 14l-80 483q-7 42 36 42h84q32 0 35 -32l27 -267l33 267
q4 32 36 32h115q6 0 5 -6z" />
    <glyph glyph-name="Ygrave.o0xx" horiz-adv-x="370" 
d="M107 843h63q36 0 50 -31l25 -53q6 -14 -1.5 -26.5t-26.5 -12.5h-47q-30 0 -45 18l-45 56q-14 18 -6 33.5t33 15.5zM270 253v-217q0 -36 -36 -36h-98q-36 0 -36 36v206l-111 450q-2 8 7 8h136q32 0 36 -31l27 -179l30 180q6 30 36 30h76q47 0 35 -45z" />
    <glyph glyph-name="ygrave.o0xx" horiz-adv-x="363" 
d="M93 733h72q22 0 32.5 -8.5t16.5 -28.5l22 -66q5 -16 -4 -28t-27 -12h-43q-35 0 -50 23l-45 70q-13 19 -5 34.5t31 15.5zM365 527l-128 -608q-7 -29 -35 -29h-82q-45 0 -36 44l18 78l-112 552q-2 6 5 6h126q32 0 36 -32l11 -88q7 -59 16 -194q11 139 17 194l11 88
q4 32 36 32h81q45 0 36 -43z" />
    <glyph glyph-name="ygrave.o0xx_alt" horiz-adv-x="363" 
d="M93 733h72q22 0 32.5 -8.5t16.5 -28.5l22 -66q5 -16 -4 -28t-27 -12h-43q-35 0 -50 23l-45 70q-13 19 -5 34.5t31 15.5zM269 -28q-8 -48 -26.5 -65t-59.5 -17h-106q-40 0 -40 36v73q0 32 30 32h1q14 0 11 14l-86 519q-1 6 5 6h121q32 0 35 -32l27 -267l33 267q4 32 36 32
h78q44 0 36 -42z" />
    <glyph glyph-name="Ygrave.ooxx" horiz-adv-x="370" 
d="M107 843h63q36 0 50 -31l25 -53q6 -14 -1.5 -26.5t-26.5 -12.5h-47q-30 0 -45 18l-45 56q-14 18 -6 33.5t33 15.5zM270 253v-217q0 -36 -36 -36h-98q-36 0 -36 36v206l-111 450q-2 8 7 8h136q32 0 36 -31l27 -179l30 180q6 30 36 30h113q9 0 7 -8z" />
    <glyph glyph-name="ygrave.ooxx" horiz-adv-x="363" 
d="M93 733h72q22 0 32.5 -8.5t16.5 -28.5l22 -66q5 -16 -4 -28t-27 -12h-43q-35 0 -50 23l-45 70q-13 19 -5 34.5t31 15.5zM372 564l-135 -645q-6 -29 -35 -29h-82q-45 0 -36 44l18 78l-112 552q-2 6 5 6h126q32 0 36 -32l11 -88q7 -59 16 -194q11 139 17 194l11 88
q4 32 36 32h118q8 0 6 -6z" />
    <glyph glyph-name="ygrave.ooxx_alt" horiz-adv-x="363" 
d="M93 733h72q22 0 32.5 -8.5t16.5 -28.5l22 -66q5 -16 -4 -28t-27 -12h-43q-35 0 -50 23l-45 70q-13 19 -5 34.5t31 15.5zM269 -28q-8 -48 -26.5 -65t-59.5 -17h-106q-40 0 -40 36v73q0 32 30 32h1q14 0 11 14l-86 519q-1 6 5 6h121q32 0 35 -32l27 -267l33 267q4 32 36 32
h115q6 0 5 -6z" />
    </font>
</defs>
</svg>
