<?xml version="1.0" standalone="no"?>
<!DOCTYPE svg PUBLIC "-//W3C//DTD SVG 1.1//EN" "http://www.w3.org/Graphics/SVG/1.1/DTD/svg11.dtd" >
<svg>
<metadata>
Created by FontForge 20120731 at Tue Oct  4 17:52:37 2016
 By ,,,
Copyright (C) 2013, 2014 Hoefler &#38; Co. http://www.typography.com
</metadata>
<defs>
<font id="Fatman-Semibold" horiz-adv-x="500" >
  <font-face 
    font-family="Tungsten Rounded Semibold"
    font-weight="375"
    font-stretch="normal"
    units-per-em="1000"
    panose-1="0 0 0 0 0 0 0 0 0 0"
    ascent="800"
    descent="-200"
    x-height="549"
    cap-height="700"
    bbox="-29 -216.2 644 884"
    underline-thickness="50"
    underline-position="-50"
    unicode-range="U+0020-FB04"
  />
<missing-glyph 
d="M0 -200v1000h500v-1000h-500zM71 750l179 -390l179 390h-358zM450 676l-172 -376l172 -376v752zM50 -76l172 376l-172 376v-752zM250 240l-179 -390h358z" />
    <glyph glyph-name=".notdef" 
d="M0 -200v1000h500v-1000h-500zM71 750l179 -390l179 390h-358zM450 676l-172 -376l172 -376v752zM50 -76l172 376l-172 376v-752zM250 240l-179 -390h358z" />
    <glyph glyph-name=".null" horiz-adv-x="0" 
 />
    <glyph glyph-name="nonmarkingreturn" horiz-adv-x="333" 
 />
    <glyph glyph-name="space" unicode=" " horiz-adv-x="127" 
 />
    <glyph glyph-name="exclam" unicode="!" horiz-adv-x="170" 
d="M136 660v-119l-25 -328q-1 -23 -25 -23h-2q-24 0 -25 23l-26 326v121q0 40 40 40h23q40 0 40 -40zM75 133h20q40 0 40 -40v-53q0 -40 -40 -40h-20q-40 0 -40 40v53q0 40 40 40z" />
    <glyph glyph-name="quotedbl" unicode="&#x22;" horiz-adv-x="261" 
d="M195 700h8q46 0 40 -46l-30 -195q-4 -27 -32 -27h-5q-33 0 -32 34l11 196q3 38 40 38zM71 700h8q46 0 39 -46l-29 -195q-4 -27 -32 -27h-5q-35 0 -32 34l11 196q2 20 11 29t29 9z" />
    <glyph glyph-name="numbersign" unicode="#" horiz-adv-x="356" 
d="M210 272v182l-65 -18v-182zM65 34v88l-20 -5q-32 -8 -32 24v58q0 20 21 26l31 8v182l-20 -5q-32 -8 -32 24v58q0 20 21 26l31 8v142q0 34 34 34h13q33 0 33 -34v-121l65 18v103q0 34 34 34h13q34 0 34 -34v-82l20 5q14 4 23 -2.5t9 -21.5v-58q0 -20 -21 -26l-31 -8v-182
l20 5q14 4 23 -2.5t9 -21.5v-58q0 -20 -21 -26l-31 -8v-148q0 -34 -34 -34h-13q-34 0 -34 34v127l-65 -18v-109q0 -34 -33 -34h-13q-34 0 -34 34z" />
    <glyph glyph-name="dollar" unicode="$" horiz-adv-x="358" 
d="M215 -3v-40q0 -34 -34 -34h-2q-35 0 -35 34v40q-115 7 -115 129v105q0 40 40 40h23q40 0 40 -40v-101q0 -40 40 -40h14q40 0 40 40v94q0 37 -30 58l-105 77q-35 25 -48.5 52t-13.5 69v93q0 123 114 130v36q0 34 34 34h4q34 0 34 -34v-36q114 -7 114 -129v-84
q0 -40 -40 -40h-23q-40 0 -40 40v80q0 40 -40 40h-12q-41 0 -41 -40v-76q0 -34 31 -57l105 -77q35 -25 48.5 -51.5t13.5 -69.5v-112q0 -123 -116 -130z" />
    <glyph glyph-name="percent" unicode="%" horiz-adv-x="453" 
d="M430 82q0 -88 -86 -88h-43q-86 0 -86 88v151l-63 -212q-7 -23 -31 -23h-2q-44 0 -30 42l79 241q-6 -1 -19 -1h-40q-85 0 -85 87v251q0 88 85 88h44q85 0 85 -88v-151l63 212q7 23 31 23h2q45 0 31 -43l-79 -240q6 1 18 1h40q86 0 86 -87v-251zM165 603q0 29 -25 29h-16
q-25 0 -25 -29v-223q0 -29 25 -29h16q25 0 25 29v223zM355 320q0 29 -26 29h-16q-25 0 -25 -29v-223q0 -29 26 -29h15q26 0 26 29v223z" />
    <glyph glyph-name="ampersand" unicode="&#x26;" horiz-adv-x="423" 
d="M121 123q0 -37 36 -37h21q17 0 25.5 9t16.5 32l15 42l-82 151q-19 -15 -25.5 -29t-6.5 -37v-131zM387 0h-24q-28 0 -43 26l-26 47q-18 -43 -44.5 -61t-78.5 -18h-30q-122 0 -122 122v141q0 78 47 118l39 34l-23 42q-24 45 -24 103v26q0 126 125 126h37q125 0 125 -124
v-59q0 -40 -40 -40h-21q-40 0 -40 40v52q0 37 -41 37q-43 0 -43 -37v-24q0 -36 17 -68l108 -201l34 105q9 28 39 28h17q23 0 30.5 -13t0.5 -34l-61 -182l72 -133q12 -22 3.5 -37.5t-33.5 -15.5z" />
    <glyph glyph-name="quotesingle" unicode="'" horiz-adv-x="140" 
d="M71 700h11q46 0 39 -46l-29 -194q-4 -28 -33 -28h-5q-37 0 -34 36l11 194q2 20 11 29t29 9z" />
    <glyph glyph-name="parenleft" unicode="(" horiz-adv-x="206" 
d="M113 274q0 -102 12.5 -153t51.5 -109q21 -31 -14 -46h-1q-19 -9 -32 6q-60 63 -79.5 122.5t-19.5 180.5v150q0 121 19.5 180.5t79.5 122.5q13 15 32 6h1q35 -15 14 -46q-39 -58 -51.5 -109t-12.5 -153v-152z" />
    <glyph glyph-name="parenright" unicode=")" horiz-adv-x="206" 
d="M29 12q39 58 51.5 109t12.5 153v152q0 102 -12.5 153t-51.5 109q-21 31 14 46h1q19 9 32 -6q60 -63 79.5 -122.5t19.5 -180.5v-150q0 -121 -19.5 -180.5t-79.5 -122.5q-13 -15 -32 -6h-1q-35 15 -14 46z" />
    <glyph glyph-name="asterisk" unicode="*" horiz-adv-x="267" 
d="M253 506v-2q0 -21 -12 -27t-30 4l-51 30l1 -68q1 -27 -26 -27h-2q-28 0 -27 27l1 68l-52 -30q-19 -10 -30 -4t-11 27v2q0 16 14 23l59 30l-58 30q-15 7 -15 23v2q0 21 11 27.5t29 -4.5l53 -30l-1 68q-1 27 27 27h2q27 0 26 -27l-1 -68l52 30q19 10 30 4t11 -27v-2
q0 -16 -14 -23l-59 -30l59 -30q14 -7 14 -23z" />
    <glyph glyph-name="plus" unicode="+" horiz-adv-x="313" 
d="M304 357v-2q0 -20 -9 -29t-29 -9h-68v-69q0 -40 -40 -40h-2q-40 0 -40 40v69h-68q-20 0 -29 9t-9 29v2q0 20 9 29t29 9h68v68q0 40 40 40h2q40 0 40 -40v-68h68q20 0 29 -9t9 -29z" />
    <glyph glyph-name="comma" unicode="," horiz-adv-x="151" 
d="M77 -84q-12 -18 -29 -12l-6 2q-18 5 -8 26l6 13q18 40 20 55h-3q-32 0 -32 31v62q0 40 40 40h21q22 0 31 -9.5t9 -30.5v-42q0 -39 -6.5 -60.5t-31.5 -57.5z" />
    <glyph glyph-name="hyphen" unicode="-" horiz-adv-x="213" 
d="M13 278v13q0 40 40 40h107q40 0 40 -40v-13q0 -40 -40 -40h-107q-40 0 -40 40z" />
    <glyph glyph-name="period" unicode="." horiz-adv-x="151" 
d="M65 133h21q40 0 40 -40v-53q0 -40 -40 -40h-21q-40 0 -40 40v53q0 40 40 40z" />
    <glyph glyph-name="slash" unicode="/" horiz-adv-x="213" 
d="M164 732h2q44 0 37 -44l-117 -689q-6 -31 -37 -31h-2q-44 0 -37 44l117 689q6 31 37 31z" />
    <glyph glyph-name="zero" unicode="0" horiz-adv-x="373" 
d="M343 576v-452q0 -130 -130 -130h-53q-130 0 -130 130v452q0 130 130 130h53q130 0 130 -130zM237 129v442q0 41 -40 41h-20q-41 0 -41 -41v-442q0 -41 41 -41h20q40 0 40 41z" />
    <glyph glyph-name="one" unicode="1" horiz-adv-x="215" 
d="M134 704h17q11 0 18 -7.5t7 -18.5v-643q0 -35 -35 -35h-34q-34 0 -34 35v524h-37q-34 0 -34 32v14q0 27 32 36q39 11 57 38q17 25 43 25z" />
    <glyph glyph-name="two" unicode="2" horiz-adv-x="350" 
d="M24 126q0 39 12 69.5t43 69.5l113 142q28 35 28 67v97q0 41 -39 41h-13q-40 0 -40 -41v-84q0 -40 -40 -40h-22q-40 0 -40 40v89q0 130 129 130h42q129 0 129 -130v-97q0 -38 -11.5 -69t-42.5 -69l-113 -142q-29 -37 -29 -77v-25h156q40 0 40 -40v-17q0 -40 -40 -40h-222
q-40 0 -40 40v86z" />
    <glyph glyph-name="three" unicode="3" horiz-adv-x="359" 
d="M184 88q40 0 40 41v138q0 41 -39 41h-53q-40 0 -40 40v16q0 40 40 40h51q39 0 39 40v127q0 41 -39 41h-16q-40 0 -40 -41v-52q0 -40 -40 -40h-22q-40 0 -40 40v57q0 130 130 130h43q130 0 130 -130v-110q0 -82 -58 -104q60 -17 60 -90v-148q0 -130 -130 -130h-48
q-129 0 -129 129v71q0 40 40 40h22q40 0 40 -40v-65q0 -41 41 -41h18z" />
    <glyph glyph-name="four" unicode="4" horiz-adv-x="350" 
d="M347 188v-42q0 -26 -25 -26h-28v-86q0 -34 -33 -34h-29q-34 0 -34 34v86h-144q-40 0 -40 37v44q0 23 5 39l126 430q9 33 41 33h67q41 0 41 -42v-448h28q25 0 25 -25zM198 555l-97 -342h97v342z" />
    <glyph glyph-name="five" unicode="5" horiz-adv-x="358" 
d="M224 451q49 0 78.5 -30.5t29.5 -83.5v-213q0 -130 -129 -130h-45q-128 0 -128 129v84q0 40 40 40h23q40 0 40 -40v-78q0 -41 40 -41h13q40 0 40 41v180q0 44 -37 44q-24 0 -49 -22q-13 -13 -32 -13h-34q-40 0 -40 40v302q0 40 40 40h208q40 0 40 -40v-17q0 -40 -40 -40
h-149l-2 -188q43 36 93 36z" />
    <glyph glyph-name="six" unicode="6" horiz-adv-x="365" 
d="M337 307v-183q0 -130 -130 -130h-47q-130 0 -130 130v452q0 130 130 130h46q128 0 128 -128v-56q0 -40 -40 -40h-23q-40 0 -40 40v49q0 41 -39 41h-17q-39 0 -39 -41v-168q42 20 86 20q54 0 84.5 -31.5t30.5 -84.5zM136 129q0 -41 39 -41h18q39 0 39 41v157q0 42 -41 42
q-31 0 -55 -11v-188z" />
    <glyph glyph-name="seven" unicode="7" horiz-adv-x="295" 
d="M246 700q34 0 34 -36v-46q0 -15 -6 -45l-120 -541q-7 -32 -40 -32h-28q-44 0 -34 43l124 560h-132q-34 0 -34 34v29q0 34 34 34h202z" />
    <glyph glyph-name="eight" unicode="8" horiz-adv-x="364" 
d="M30 576q0 130 130 130h43q130 0 130 -130v-108q0 -82 -58 -104q60 -17 60 -90v-150q0 -130 -130 -130h-47q-130 0 -130 130v150q0 73 60 90q-58 22 -58 104v108zM133 444q0 -41 41 -41h16q40 0 40 41v129q0 40 -40 40h-16q-41 0 -41 -40v-129zM173 312q-41 0 -41 -40
v-145q0 -40 41 -40h18q40 0 40 40v145q0 40 -40 40h-18z" />
    <glyph glyph-name="nine" unicode="9" horiz-adv-x="364" 
d="M134 406q0 -42 40 -42q32 0 54 11v196q0 41 -39 41h-16q-39 0 -39 -41v-165zM334 124q0 -130 -130 -130h-45q-66 0 -97.5 31t-31.5 97v48q0 40 40 40h24q39 0 39 -39v-42q0 -41 39 -41h17q39 0 39 41v160q-40 -20 -84 -20q-54 0 -84.5 31.5t-30.5 84.5v191q0 130 130 130
h45q130 0 130 -130v-452z" />
    <glyph glyph-name="colon" unicode=":" horiz-adv-x="151" 
d="M65 549h21q40 0 40 -40v-53q0 -40 -40 -40h-21q-40 0 -40 40v53q0 40 40 40zM65 133h21q40 0 40 -40v-53q0 -40 -40 -40h-21q-40 0 -40 40v53q0 40 40 40z" />
    <glyph glyph-name="semicolon" unicode=";" horiz-adv-x="151" 
d="M65 549h21q40 0 40 -40v-53q0 -40 -40 -40h-21q-40 0 -40 40v53q0 40 40 40zM77 -84q-12 -18 -29 -12l-6 2q-18 5 -8 26l6 13q18 40 20 55h-3q-32 0 -32 31v62q0 40 40 40h21q22 0 31 -9.5t9 -30.5v-42q0 -39 -6.5 -60.5t-31.5 -57.5z" />
    <glyph glyph-name="less" unicode="&#x3c;" horiz-adv-x="314" 
d="M15 344v24q0 41 40 55l184 64q53 17 53 -38v-2q0 -29 -28 -37l-179 -53l178 -52q29 -8 29 -38v-2q0 -57 -53 -38l-184 62q-40 13 -40 55z" />
    <glyph glyph-name="equal" unicode="=" horiz-adv-x="314" 
d="M15 427v2q0 38 38 38h208q38 0 38 -38v-2q0 -20 -9 -29t-29 -9h-208q-20 0 -29 9t-9 29zM15 282v2q0 20 9 29t29 9h208q20 0 29 -9t9 -29v-2q0 -38 -38 -38h-208q-38 0 -38 38z" />
    <glyph glyph-name="greater" unicode="&#x3e;" horiz-adv-x="314" 
d="M299 368v-24q0 -42 -40 -55l-184 -62q-53 -19 -53 38v2q0 30 29 38l178 52l-179 53q-28 8 -28 37v2q0 55 53 38l184 -64q40 -14 40 -55z" />
    <glyph glyph-name="question" unicode="?" horiz-adv-x="329" 
d="M157 190h-2q-40 0 -40 40v61q0 38 8.5 57.5t37.5 50.5l21 24q24 27 24 55v93q0 41 -39 41h-13q-40 0 -40 -41v-80q0 -40 -40 -40h-17q-40 0 -40 40v85q0 130 130 130h35q130 0 130 -130v-95q0 -36 -11.5 -60t-44.5 -61l-41 -47q-18 -21 -18 -60v-23q0 -40 -40 -40z
M146 133h20q40 0 40 -40v-53q0 -40 -40 -40h-20q-40 0 -40 40v53q0 40 40 40z" />
    <glyph glyph-name="at" unicode="@" horiz-adv-x="498" 
d="M431 -57v-2q0 -16 -16 -16h-225q-84 0 -120 37t-36 127v373q0 89 36.5 126.5t119.5 37.5h118q83 0 119.5 -37.5t36.5 -126.5v-349q0 -83 -74 -83h-34q-52 0 -68 40q-37 -41 -82 -41q-35 0 -54 21t-19 58v109q0 40 14 60.5t49 32.5l84 29v80q0 29 -30 29q-32 0 -32 -29
v-31q0 -29 -29 -29h-17q-34 0 -34 34v36q0 94 97 94h30q96 0 96 -94v-340q0 -25 27 -25q40 0 40 50v348q0 72 -27.5 101t-92.5 29h-118q-65 0 -92.5 -29t-27.5 -101v-373q0 -72 27.5 -101t92.5 -29h225q16 0 16 -16zM214 133q0 -27 26 -27q17 0 40 14v144l-43 -16
q-23 -9 -23 -37v-78z" />
    <glyph glyph-name="A" unicode="A" horiz-adv-x="367" 
d="M137 205h88l-44 354zM310 0h-24q-36 0 -40 35l-9 75h-111l-10 -75q-4 -35 -39 -35h-18q-46 0 -39 46l88 620q6 34 40 34h72q34 0 40 -34l89 -620q7 -46 -39 -46z" />
    <glyph glyph-name="B" unicode="B" horiz-adv-x="365" 
d="M335 467q0 -85 -59 -107q61 -21 61 -101v-129q0 -130 -130 -130h-135q-40 0 -40 40v620q0 40 40 40h133q130 0 130 -130v-103zM229 446v120q0 40 -40 40h-51v-204h47q44 0 44 44zM187 311h-49v-217h53q40 0 40 40v133q0 44 -44 44z" />
    <glyph glyph-name="C" unicode="C" horiz-adv-x="371" 
d="M238 129v118q0 40 40 40h25q40 0 40 -40v-123q0 -130 -130 -130h-53q-130 0 -130 130v452q0 130 130 130h52q129 0 129 -129v-103q0 -40 -40 -40h-25q-40 0 -40 40v97q0 41 -40 41h-18q-41 0 -41 -41v-442q0 -41 41 -41h20q40 0 40 41z" />
    <glyph glyph-name="D" unicode="D" horiz-adv-x="376" 
d="M193 0h-121q-40 0 -40 40v620q0 40 40 40h121q153 0 153 -153v-394q0 -153 -153 -153zM178 606h-39v-512h39q61 0 61 62v388q0 62 -61 62z" />
    <glyph glyph-name="E" unicode="E" horiz-adv-x="297" 
d="M32 40v620q0 40 40 40h158q40 0 40 -40v-17q0 -40 -40 -40h-91v-198h86q40 0 40 -40v-17q0 -40 -40 -40h-86v-211h93q40 0 40 -40v-17q0 -40 -40 -40h-160q-40 0 -40 40z" />
    <glyph glyph-name="F" unicode="F" horiz-adv-x="276" 
d="M32 40v620q0 40 40 40h153q40 0 40 -40v-17q0 -40 -40 -40h-86v-202h81q40 0 40 -40v-17q0 -40 -40 -40h-81v-264q0 -40 -40 -40h-27q-40 0 -40 40z" />
    <glyph glyph-name="G" unicode="G" horiz-adv-x="376" 
d="M243 129v161h-26q-31 0 -31 30v29q0 33 34 33h87q40 0 40 -39v-219q0 -130 -130 -130h-57q-130 0 -130 130v452q0 130 130 130h56q129 0 129 -129v-79q0 -35 -35 -35h-35q-35 0 -35 35v73q0 41 -40 41h-22q-41 0 -41 -41v-442q0 -41 41 -41h24q41 0 41 41z" />
    <glyph glyph-name="H" unicode="H" horiz-adv-x="381" 
d="M139 660v-255h103v255q0 40 40 40h27q40 0 40 -40v-620q0 -40 -40 -40h-27q-40 0 -40 40v268h-103v-268q0 -40 -40 -40h-27q-40 0 -40 40v620q0 40 40 40h27q40 0 40 -40z" />
    <glyph glyph-name="I" unicode="I" horiz-adv-x="173" 
d="M73 700h27q40 0 40 -40v-620q0 -40 -40 -40h-27q-40 0 -40 40v620q0 40 40 40z" />
    <glyph glyph-name="J" unicode="J" horiz-adv-x="243" 
d="M46 0q-33 0 -33 34v29q0 34 33 34h17q41 0 41 41v526q0 36 36 36h36q35 0 35 -36v-534q0 -130 -130 -130h-35z" />
    <glyph glyph-name="K" unicode="K" horiz-adv-x="352" 
d="M303 0h-30q-29 0 -39 28l-95 313v-301q0 -40 -40 -40h-27q-40 0 -40 40v620q0 40 40 40h27q40 0 40 -40v-297l102 310q9 27 38 27h27q57 0 37 -53l-101 -290l99 -305q17 -52 -38 -52z" />
    <glyph glyph-name="L" unicode="L" horiz-adv-x="266" 
d="M32 40v620q0 40 40 40h27q40 0 40 -40v-563h78q40 0 40 -40v-17q0 -40 -40 -40h-145q-40 0 -40 40z" />
    <glyph glyph-name="M" unicode="M" horiz-adv-x="519" 
d="M271 0h-35q-34 0 -40 34l-72 504v-498q0 -40 -40 -40h-12q-40 0 -40 40v620q0 40 40 40h85q19 0 28 -8t12 -27l62 -474l64 474q3 19 12 27t28 8h84q40 0 40 -40v-620q0 -40 -40 -40h-25q-40 0 -40 40v495l-71 -501q-6 -34 -40 -34z" />
    <glyph glyph-name="N" unicode="N" horiz-adv-x="384" 
d="M127 472l1 -124v-308q0 -40 -40 -40h-16q-40 0 -40 40v620q0 40 40 40h53q32 0 39 -31l93 -401l-1 117v275q0 40 40 40h16q40 0 40 -40v-620q0 -40 -40 -40h-44q-32 0 -39 31z" />
    <glyph glyph-name="O" unicode="O" horiz-adv-x="377" 
d="M347 576v-452q0 -130 -130 -130h-57q-130 0 -130 130v452q0 130 130 130h57q130 0 130 -130zM240 129v442q0 41 -40 41h-22q-41 0 -41 -41v-442q0 -41 41 -41h22q40 0 40 41z" />
    <glyph glyph-name="P" unicode="P" horiz-adv-x="351" 
d="M200 254h-61v-214q0 -40 -40 -40h-27q-40 0 -40 40v620q0 40 40 40h128q130 0 130 -130v-186q0 -130 -130 -130zM223 389v176q0 41 -40 41h-44v-258h44q40 0 40 41z" />
    <glyph glyph-name="Q" unicode="Q" horiz-adv-x="377" 
d="M348 -43l-7 -13q-18 -32 -54 -11l-103 61h-24q-130 0 -130 130v452q0 130 130 130h57q130 0 130 -130v-441q0 -82 -53 -110l40 -15q35 -15 14 -53zM200 88q40 0 40 41v442q0 41 -40 41h-22q-41 0 -41 -41v-442q0 -41 41 -41h22z" />
    <glyph glyph-name="R" unicode="R" horiz-adv-x="369" 
d="M231 417v148q0 40 -40 40h-52v-231h48q44 0 44 43zM338 438q0 -83 -61 -108q33 -9 47.5 -30.5t14.5 -61.5v-198q0 -40 -40 -40h-27q-40 0 -40 40v196q0 45 -45 45h-48v-241q0 -40 -40 -40h-27q-40 0 -40 40v620q0 40 40 40h136q130 0 130 -130v-132z" />
    <glyph glyph-name="S" unicode="S" horiz-adv-x="361" 
d="M165 438l108 -79q35 -25 48.5 -51.5t13.5 -69.5v-114q0 -130 -130 -130h-47q-129 0 -129 129v108q0 40 40 40h24q40 0 40 -40v-104q0 -40 41 -40h14q41 0 41 40v96q0 35 -30 57l-108 79q-35 25 -48.5 52t-13.5 69v96q0 130 130 130h45q129 0 129 -129v-87q0 -40 -40 -40
h-25q-40 0 -40 40v83q0 40 -40 40h-13q-40 0 -40 -40v-78q0 -36 30 -57z" />
    <glyph glyph-name="T" unicode="T" horiz-adv-x="319" 
d="M213 603v-563q0 -40 -40 -40h-27q-40 0 -40 40v563h-56q-40 0 -40 40v17q0 40 40 40h219q40 0 40 -40v-17q0 -40 -40 -40h-56z" />
    <glyph glyph-name="U" unicode="U" horiz-adv-x="374" 
d="M276 700h27q40 0 40 -40v-536q0 -130 -130 -130h-52q-130 0 -130 130v536q0 40 40 40h27q40 0 40 -40v-531q0 -41 41 -41h17q40 0 40 41v531q0 40 40 40z" />
    <glyph glyph-name="V" unicode="V" horiz-adv-x="351" 
d="M207 -1h-62q-34 0 -40 34l-91 621q-7 46 39 46h27q35 0 39 -35l59 -485l61 485q4 35 39 35h21q46 0 39 -46l-92 -621q-4 -34 -39 -34z" />
    <glyph glyph-name="W" unicode="W" horiz-adv-x="542" 
d="M188 0h-55q-36 0 -40 35l-75 620q-6 45 39 45h27q36 0 40 -36l46 -463l50 463q4 36 40 36h31q36 0 40 -36l50 -461l47 461q3 36 39 36h17q44 0 40 -45l-76 -620q-4 -35 -39 -35h-55q-36 0 -40 35l-44 384l-42 -383q-4 -36 -40 -36z" />
    <glyph glyph-name="X" unicode="X" horiz-adv-x="332" 
d="M279 0h-26q-31 0 -39 31l-51 220l-56 -221q-7 -30 -39 -30h-18q-54 0 -39 51l84 294l-83 305q-14 50 39 50h26q32 0 39 -31l51 -219l52 219q8 31 39 31h19q53 0 38 -51l-81 -294l84 -304q14 -51 -39 -51z" />
    <glyph glyph-name="Y" unicode="Y" horiz-adv-x="325" 
d="M217 247v-207q0 -40 -40 -40h-27q-40 0 -40 40v199l-103 411q-12 50 39 50h26q33 0 40 -32l54 -265l56 265q7 32 39 32h20q52 0 38 -50z" />
    <glyph glyph-name="Z" unicode="Z" horiz-adv-x="298" 
d="M50 0q-35 0 -35 36v40q0 27 9 54l156 474h-123q-35 0 -35 34v28q0 34 35 34h193q35 0 35 -36v-40q0 -22 -9 -54l-157 -474h129q34 0 34 -33v-29q0 -34 -34 -34h-198z" />
    <glyph glyph-name="bracketleft" unicode="[" horiz-adv-x="205" 
d="M117 31h50q30 0 30 -31v-2q0 -30 -30 -30h-89q-40 0 -40 40v684q0 40 40 40h89q30 0 30 -30v-2q0 -31 -30 -31h-50v-638z" />
    <glyph glyph-name="backslash" unicode="\" horiz-adv-x="213" 
d="M166 -32h-2q-31 0 -37 31l-117 689q-7 44 37 44h2q31 0 37 -31l117 -689q7 -44 -37 -44z" />
    <glyph glyph-name="bracketright" unicode="]" horiz-adv-x="205" 
d="M38 31h50v638h-50q-30 0 -30 31v2q0 30 30 30h89q40 0 40 -40v-684q0 -40 -40 -40h-89q-30 0 -30 30v2q0 31 30 31z" />
    <glyph glyph-name="asciicircum" unicode="^" horiz-adv-x="400" 
d="M191 700h17q27 0 40 -27l64 -130q11 -23 3 -35.5t-33 -12.5h-2q-20 0 -30 19l-50 104l-50 -104q-10 -19 -30 -19h-2q-25 0 -33 12.5t3 35.5l64 130q13 27 39 27z" />
    <glyph glyph-name="underscore" unicode="_" horiz-adv-x="459" 
d="M-2 -62v2q0 20 9 29t29 9h387q38 0 38 -38v-2q0 -38 -38 -38h-387q-38 0 -38 38z" />
    <glyph glyph-name="grave" unicode="`" 
d="M286 585q-22 0 -37 24l-31 51q-11 18 -4 31t28 13h21q30 0 39 -27l20 -60q4 -14 -3 -23t-21 -9h-12z" />
    <glyph glyph-name="a" unicode="a" horiz-adv-x="333" 
d="M206 106v153l-55 -20q-17 -8 -23 -17t-6 -28v-78q0 -31 32 -31q23 0 52 21zM24 87v111q0 48 17 72.5t60 38.5l105 36v85q0 37 -40 37q-41 0 -41 -37v-36q0 -33 -32 -33h-32q-31 0 -31 32v40q0 122 123 122h29q124 0 124 -122v-398q0 -35 -35 -35h-30q-35 0 -35 35v4
q-45 -45 -95 -45q-87 0 -87 93z" />
    <glyph glyph-name="b" unicode="b" horiz-adv-x="348" 
d="M129 37v-2q0 -35 -34 -35h-31q-35 0 -35 35v640q0 35 35 35h32q34 0 34 -35v-168q44 48 95 48q46 0 70.5 -27t24.5 -75v-356q0 -49 -24.5 -76t-70.5 -27q-51 0 -96 43zM219 120v309q0 34 -36 34q-27 0 -53 -23v-331q26 -23 53 -23q36 0 36 34z" />
    <glyph glyph-name="c" unicode="c" horiz-adv-x="338" 
d="M272 334h-19q-40 0 -40 40v53q0 37 -37 37h-12q-36 0 -36 -37v-305q0 -37 36 -37h13q37 0 37 37v72q0 40 40 40h19q40 0 40 -40v-78q0 -122 -122 -122h-42q-122 0 -122 122v317q0 122 122 122h42q121 0 121 -121v-60q0 -40 -40 -40z" />
    <glyph glyph-name="d" unicode="d" horiz-adv-x="348" 
d="M164 86q28 0 53 23v331q-25 23 -53 23q-36 0 -36 -34v-309q0 -34 36 -34zM218 35v6q-45 -47 -96 -47q-46 0 -70.5 27t-24.5 76v356q0 48 24.5 75t70.5 27q51 0 95 -44v164q0 35 35 35h32q34 0 34 -35v-640q0 -35 -34 -35h-31q-35 0 -35 35z" />
    <glyph glyph-name="e" unicode="e" horiz-adv-x="336" 
d="M310 149v-33q0 -122 -122 -122h-39q-122 0 -122 122v317q0 122 122 122h39q122 0 122 -122v-158q0 -40 -40 -40h-143v-114q0 -37 36 -37h13q37 0 37 37v30q0 28 28 28h39q30 0 30 -30zM163 466q-36 0 -36 -37v-108h84v108q0 37 -37 37h-11z" />
    <glyph glyph-name="f" unicode="f" horiz-adv-x="217" 
d="M150 35q0 -35 -35 -35h-31q-35 0 -35 35v426h-4q-33 0 -33 33v22q0 33 33 33h4v52q0 109 105 109h27q36 0 36 -33v-21q0 -33 -33 -33h-8q-26 0 -26 -28v-46h30q34 0 34 -33v-22q0 -33 -34 -33h-30v-426z" />
    <glyph glyph-name="g" unicode="g" horiz-adv-x="348" 
d="M217 169v271q-25 23 -53 23q-36 0 -36 -34v-249q0 -34 36 -34q26 0 53 23zM29 -11v7q0 31 34 31h23q35 0 35 -29v-2q0 -30 31 -30h35q31 0 31 33v101q-45 -43 -96 -43q-46 0 -70.5 27t-24.5 75v294q0 48 24.5 75t70.5 27q53 0 96 -43v2q0 35 35 35h31q34 0 34 -35v-511
q0 -117 -118 -117h-65q-106 0 -106 103z" />
    <glyph glyph-name="h" unicode="h" horiz-adv-x="347" 
d="M130 440v-400q0 -40 -40 -40h-21q-40 0 -40 40v630q0 40 40 40h21q40 0 40 -40v-160q47 45 98 45q90 0 90 -94v-426q0 -35 -34 -35h-32q-35 0 -35 35v396q0 32 -33 32q-25 0 -54 -23z" />
    <glyph glyph-name="i" unicode="i" horiz-adv-x="164" 
d="M94 595h-25q-40 0 -40 40v19q0 40 40 40h25q40 0 40 -40v-19q0 -40 -40 -40zM92 0h-21q-40 0 -40 40v469q0 40 40 40h21q40 0 40 -40v-469q0 -40 -40 -40z" />
    <glyph glyph-name="j" unicode="j" horiz-adv-x="165" 
d="M95 595h-25q-40 0 -40 40v19q0 40 40 40h25q40 0 40 -40v-19q0 -40 -40 -40zM22 -111q-36 0 -36 30v24q0 20 14 26q4 2 13.5 3.5t13.5 5.5q5 5 5 25v511q0 35 35 35h32q34 0 34 -35v-519q0 -53 -28.5 -79.5t-74.5 -26.5h-8z" />
    <glyph glyph-name="k" unicode="k" horiz-adv-x="331" 
d="M269 0h-23q-28 0 -38 28l-78 243v-231q0 -40 -40 -40h-21q-40 0 -40 40v630q0 40 40 40h21q40 0 40 -40v-386l84 238q8 27 37 27h20q58 0 38 -54l-81 -214l79 -228q18 -53 -38 -53z" />
    <glyph glyph-name="l" unicode="l" horiz-adv-x="164" 
d="M92 0h-21q-40 0 -40 40v630q0 40 40 40h21q40 0 40 -40v-630q0 -40 -40 -40z" />
    <glyph glyph-name="m" unicode="m" horiz-adv-x="527" 
d="M130 35q0 -35 -34 -35h-32q-35 0 -35 35v479q0 35 35 35h31q34 0 34 -35v-5q48 46 97 46q64 0 82 -50q48 50 102 50q89 0 89 -93v-427q0 -35 -35 -35h-32q-34 0 -34 35v397q0 31 -31 31q-24 0 -52 -23v-405q0 -35 -35 -35h-32q-35 0 -35 35v397q0 31 -30 31
q-24 0 -53 -23v-405z" />
    <glyph glyph-name="n" unicode="n" horiz-adv-x="347" 
d="M129 514v-5q46 46 99 46q90 0 90 -94v-426q0 -35 -34 -35h-32q-35 0 -35 35v396q0 32 -33 32q-25 0 -54 -23v-405q0 -35 -34 -35h-32q-35 0 -35 35v479q0 35 35 35h31q34 0 34 -35z" />
    <glyph glyph-name="o" unicode="o" horiz-adv-x="343" 
d="M317 116q0 -122 -122 -122h-47q-122 0 -122 122v317q0 122 122 122h47q122 0 122 -122v-317zM216 427q0 37 -37 37h-16q-36 0 -36 -37v-305q0 -37 36 -37h16q37 0 37 37v305z" />
    <glyph glyph-name="p" unicode="p" horiz-adv-x="348" 
d="M219 120v309q0 34 -36 34q-27 0 -53 -23v-331q26 -23 53 -23q36 0 36 34zM130 36v-106q0 -40 -40 -40h-21q-40 0 -40 40v584q0 35 35 35h31q34 0 34 -35v-7q44 48 96 48q46 0 70.5 -27t24.5 -75v-356q0 -49 -24.5 -76t-70.5 -27q-51 0 -95 42z" />
    <glyph glyph-name="q" unicode="q" horiz-adv-x="348" 
d="M217 41q-45 -47 -95 -47q-46 0 -70.5 27t-24.5 76v356q0 48 24.5 75t70.5 27q53 0 96 -43v2q0 35 35 35h31q34 0 34 -35v-584q0 -40 -40 -40h-21q-40 0 -40 40v111zM164 86q28 0 53 23v331q-25 23 -53 23q-36 0 -36 -34v-309q0 -34 36 -34z" />
    <glyph glyph-name="r" unicode="r" horiz-adv-x="225" 
d="M129 514v-33q35 71 67 71q29 0 29 -36v-26q0 -36 -43 -53q-30 -13 -52 -30v-372q0 -35 -34 -35h-32q-35 0 -35 35v479q0 35 35 35h31q34 0 34 -35z" />
    <glyph glyph-name="s" unicode="s" horiz-adv-x="330" 
d="M265 355h-22q-37 0 -37 37v39q0 36 -35 36h-12q-35 0 -35 -36v-43q0 -27 24 -42l95 -60q34 -21 48 -43.5t14 -60.5v-66q0 -122 -122 -122h-36q-121 0 -121 121v44q0 40 40 40h19q39 0 39 -40v-41q0 -36 35 -36h13q36 0 36 36v47q0 26 -24 42l-96 59q-33 21 -47 43.5
t-14 60.5v63q0 122 122 122h34q121 0 121 -121v-41q0 -38 -39 -38z" />
    <glyph glyph-name="t" unicode="t" horiz-adv-x="217" 
d="M153 35q0 -35 -35 -35h-31q-35 0 -35 35v426h-9q-33 0 -33 33v22q0 33 33 33h9v56q0 35 35 35h31q35 0 35 -35v-56h24q33 0 33 -33v-22q0 -33 -33 -33h-24v-426z" />
    <glyph glyph-name="u" unicode="u" horiz-adv-x="347" 
d="M218 33v3q-44 -42 -98 -42q-91 0 -91 94v421q0 40 40 40h21q40 0 40 -40v-391q0 -32 34 -32q25 0 53 17v406q0 40 40 40h21q40 0 40 -40v-469q0 -40 -40 -40h-26q-34 0 -34 33z" />
    <glyph glyph-name="v" unicode="v" horiz-adv-x="315" 
d="M185 0h-55q-33 0 -39 33l-79 469q-7 47 40 47h20q35 0 39 -35l49 -355l50 355q4 35 39 35h14q47 0 40 -47l-78 -469q-6 -33 -40 -33z" />
    <glyph glyph-name="w" unicode="w" horiz-adv-x="473" 
d="M157 0h-33q-34 0 -40 34l-70 469q-7 46 40 46h17q36 0 40 -36l35 -322l43 323q3 19 12 27t28 8h21q19 0 28 -8t12 -27l43 -322l36 321q4 36 40 36h11q46 0 39 -46l-70 -469q-4 -34 -39 -34h-34q-19 0 -28 8t-12 27l-39 288l-40 -289q-6 -34 -40 -34z" />
    <glyph glyph-name="x" unicode="x" horiz-adv-x="296" 
d="M248 0h-21q-31 0 -39 29l-42 154l-45 -154q-8 -29 -39 -29h-13q-56 0 -38 53l72 214l-71 230q-17 52 38 52h21q31 0 38 -30l40 -151l44 152q8 29 38 29h14q55 0 38 -53l-71 -213l74 -231q17 -52 -38 -52z" />
    <glyph glyph-name="y" unicode="y" horiz-adv-x="314" 
d="M302 501l-121 -579q-7 -32 -39 -32h-15q-49 0 -39 49l19 82l-95 480q-10 48 39 48h18q35 0 39 -34l48 -298l53 299q5 33 40 33h14q49 0 39 -48z" />
    <glyph glyph-name="z" unicode="z" horiz-adv-x="277" 
d="M22 114l139 347h-110q-33 0 -33 33v22q0 33 33 33h180q34 0 34 -36v-26q0 -26 -10 -52l-140 -347h116q33 0 33 -33v-22q0 -33 -33 -33h-185q-34 0 -34 36v26q0 26 10 52z" />
    <glyph glyph-name="braceleft" unicode="{" horiz-adv-x="257" 
d="M81 278q0 18 -8.5 25.5t-27.5 10.5l-13 3q-21 4 -21 26v16q0 21 22 25l12 3q20 4 28 11.5t8 24.5v72q0 93 18 135t82 100q13 12 30 5l1 -1q37 -15 12 -46q-40 -50 -50 -83.5t-10 -108.5v-41q0 -81 -60 -104q60 -17 60 -90v-57q0 -75 10 -108.5t50 -83.5q25 -31 -12 -46
l-1 -1q-17 -7 -30 5q-64 58 -82 100t-18 135v73z" />
    <glyph glyph-name="bar" unicode="|" horiz-adv-x="248" 
d="M123 763h2q36 0 36 -36v-758q0 -36 -36 -36h-2q-36 0 -36 36v758q0 36 36 36z" />
    <glyph glyph-name="braceright" unicode="}" horiz-adv-x="257" 
d="M212 314q-19 -3 -27.5 -10.5t-8.5 -25.5v-73q0 -93 -18 -135t-82 -100q-13 -12 -30 -5l-1 1q-37 15 -12 46q40 50 50 83.5t10 108.5v57q0 73 60 90q-60 23 -60 104v41q0 75 -10 108.5t-50 83.5q-25 31 12 46l1 1q17 7 30 -5q64 -58 82 -100t18 -135v-72q0 -17 8 -24.5
t28 -11.5l12 -3q22 -4 22 -25v-16q0 -22 -21 -26z" />
    <glyph glyph-name="asciitilde" unicode="~" horiz-adv-x="399" 
d="M204 395q41 -12 58 -12t52 20q12 7 21.5 2.5t9.5 -17.5v-31q0 -19 -12 -31q-27 -27 -71 -27q-20 0 -61 12t-58 12q-19 0 -52 -19q-12 -8 -21.5 -3.5t-9.5 17.5v31q0 19 12 31q27 27 71 27q21 0 61 -12z" />
    <glyph glyph-name="uni00A0" unicode="&#xa0;" horiz-adv-x="127" 
 />
    <glyph glyph-name="exclamdown" unicode="&#xa1;" horiz-adv-x="170" 
d="M95 567h-20q-40 0 -40 40v53q0 40 40 40h20q40 0 40 -40v-53q0 -40 -40 -40zM136 159v-119q0 -40 -40 -40h-23q-40 0 -40 40v121l26 326q1 23 25 23h2q24 0 25 -23z" />
    <glyph glyph-name="cent" unicode="&#xa2;" horiz-adv-x="335" 
d="M307 267v-79q0 -110 -102 -121v-36q0 -34 -34 -34h-4q-34 0 -34 34v36q-104 8 -104 121v326q0 113 104 122v35q0 32 33 32h6q33 0 33 -33v-35q101 -9 101 -120v-60q0 -40 -40 -40h-17q-40 0 -40 40v55q0 37 -40 37q-42 0 -42 -37v-318q0 -36 42 -36q41 0 41 36v75
q0 40 40 40h17q40 0 40 -40z" />
    <glyph glyph-name="sterling" unicode="&#xa3;" horiz-adv-x="383" 
d="M16 34v29q0 34 34 34h11v176h-11q-34 0 -34 34v27q0 34 34 34h11v208q0 130 130 130h39q129 0 129 -129v-79q0 -36 -35 -36h-32q-35 0 -35 36v73q0 41 -41 41h-9q-40 0 -40 -41v-203h95q33 0 33 -34v-27q0 -34 -33 -34h-95v-176h162q34 0 34 -34v-29q0 -34 -34 -34h-279
q-34 0 -34 34z" />
    <glyph glyph-name="yen" unicode="&#xa5;" horiz-adv-x="342" 
d="M316 161v-2q0 -30 -30 -30h-63v-89q0 -40 -40 -40h-24q-40 0 -40 40v89h-63q-30 0 -30 30v2q0 30 30 30h63v41h-63q-30 0 -30 30v2q0 29 30 29h53l-90 357q-14 50 38 50h24q33 0 40 -32l52 -257l55 257q7 32 39 32h17q53 0 39 -50l-91 -357h55q29 0 29 -29v-2
q0 -30 -29 -30h-64v-41h63q30 0 30 -30z" />
    <glyph glyph-name="section" unicode="&#xa7;" horiz-adv-x="359" 
d="M105 406q-41 16 -57 38.5t-16 68.5v63q0 130 130 130h37q129 0 129 -129v-51q0 -34 -35 -34h-31q-34 0 -34 34v48q0 40 -41 40h-12q-41 0 -41 -40v-68q0 -28 31 -40l124 -52q24 -10 31.5 -20.5t7.5 -31.5v-15q0 -13 -8.5 -19.5t-22.5 -0.5zM31 123v51q0 35 34 35h32
q34 0 34 -35v-48q0 -40 41 -40h12q41 0 41 40v68q0 28 -31 40l-124 53q-24 9 -31.5 19.5t-7.5 32.5v14q0 14 8.5 20t22.5 0l192 -78q41 -17 57 -39t16 -68v-64q0 -130 -130 -130h-37q-129 0 -129 129z" />
    <glyph glyph-name="dieresis" unicode="&#xa8;" 
d="M187 697h3q40 0 40 -40v-32q0 -40 -40 -40h-3q-40 0 -40 40v32q0 40 40 40zM313 585h-3q-40 0 -40 40v32q0 40 40 40h3q40 0 40 -40v-32q0 -40 -40 -40z" />
    <glyph glyph-name="copyright" unicode="&#xa9;" horiz-adv-x="493" 
d="M303 706q81 0 118.5 -38.5t37.5 -125.5v-384q0 -87 -37.5 -125.5t-118.5 -38.5h-113q-81 0 -118.5 38.5t-37.5 125.5v384q0 87 37.5 125.5t118.5 38.5h113zM303 18q67 0 98.5 33t31.5 107v384q0 74 -31.5 107t-98.5 33h-113q-67 0 -98.5 -33t-31.5 -107v-384
q0 -74 31.5 -107t98.5 -33h113zM281 192v71q0 39 39 39h2q39 0 39 -39v-82q0 -91 -96 -91h-34q-95 0 -95 91v339q0 91 95 91h32q96 0 96 -91v-68q0 -39 -39 -39h-2q-39 0 -39 39v58q0 26 -31 26t-31 -26v-318q0 -26 27 -26h10q27 0 27 26z" />
    <glyph glyph-name="ordfeminine" unicode="&#xaa;" horiz-adv-x="227" 
d="M86 485q0 -19 19 -19t34 12v69l-38 -12q-15 -5 -15 -25v-25zM198 437q0 -22 -23 -22h-12q-23 0 -23 22v1q-31 -26 -60 -26q-52 0 -52 55v47q0 26 9.5 40.5t32.5 21.5l69 21v36q0 22 -25 22q-27 0 -27 -22v-7q0 -20 -21 -20h-15q-20 0 -20 20v13q0 67 70 67h26
q71 0 71 -67v-202z" />
    <glyph glyph-name="guillemotleft" unicode="&#xab;" horiz-adv-x="261" 
d="M169 148l-44 123q-4 13 0 27l42 122q8 24 34 24h2q47 0 35 -46l-31 -113l31 -115q12 -45 -34 -45h-2q-25 0 -33 23zM59 147l-49 123q-6 14 0 29l47 122q8 23 33 23h2q49 0 34 -47l-35 -112l35 -114q15 -46 -33 -46h-2q-24 0 -32 22z" />
    <glyph glyph-name="registered" unicode="&#xae;" horiz-adv-x="296" 
d="M178 706q51 0 74 -22.5t23 -73.5v-178q0 -52 -23 -74.5t-74 -22.5h-60q-51 0 -74 22.5t-23 74.5v178q0 51 23 73.5t74 22.5h60zM178 354q41 0 59 18t18 60v178q0 41 -18 59t-59 18h-60q-41 0 -59 -18t-18 -59v-178q0 -42 18 -60t59 -18h60zM152 530q19 0 19 14v46
q0 13 -17 13h-23v-73h21zM163 644q55 0 55 -45v-51q0 -29 -26 -37q26 -7 26 -32v-58q0 -23 -23 -23h-2q-22 0 -22 23v53q0 16 -19 16h-21v-69q0 -23 -23 -23h-2q-23 0 -23 23v189q0 19 7.5 26.5t26.5 7.5h46z" />
    <glyph glyph-name="macron" unicode="&#xaf;" 
d="M139 633v2q0 37 37 37h148q37 0 37 -37v-2q0 -36 -37 -36h-148q-37 0 -37 36z" />
    <glyph glyph-name="degree" unicode="&#xb0;" horiz-adv-x="257" 
d="M156 706q38 0 59.5 -22t21.5 -62v-196q0 -40 -21.5 -62.5t-59.5 -22.5h-54q-38 0 -60 22.5t-22 62.5v196q0 40 21.5 62t60.5 22h54zM139 411q26 0 26 28v168q0 29 -26 29h-20q-26 0 -26 -29v-168q0 -28 26 -28h20z" />
    <glyph glyph-name="plusminus" unicode="&#xb1;" horiz-adv-x="314" 
d="M305 420v-2q0 -20 -9 -29t-29 -9h-68v-69q0 -40 -40 -40h-2q-40 0 -40 40v69h-68q-20 0 -29 9t-9 29v2q0 20 9 29t29 9h68v68q0 40 40 40h2q40 0 40 -40v-68h68q20 0 29 -9t9 -29zM10 187v2q0 20 9 29t29 9h218q20 0 29 -9t9 -29v-2q0 -20 -9 -29t-29 -9h-218
q-20 0 -29 9t-9 29z" />
    <glyph glyph-name="acute" unicode="&#xb4;" 
d="M234 585h-12q-14 0 -21 9t-3 23l20 60q9 27 39 27h21q21 0 28 -13t-4 -31l-31 -51q-15 -24 -37 -24z" />
    <glyph glyph-name="paragraph" unicode="&#xb6;" horiz-adv-x="346" 
d="M189 30q0 -13 -9 -21.5t-22 -8.5q-47 0 -87.5 44t-40.5 118v366q0 172 172 172h74q38 0 38 -38v-632q0 -30 -30 -30h-9q-30 0 -30 30v600h-56v-600z" />
    <glyph glyph-name="periodcentered" unicode="&#xb7;" horiz-adv-x="151" 
d="M65 366h21q40 0 40 -40v-53q0 -40 -40 -40h-21q-40 0 -40 40v53q0 40 40 40z" />
    <glyph glyph-name="cedilla" unicode="&#xb8;" 
d="M273 33h10q25 0 20 -25l-17 -84q-6 -28 -34 -28h-19q-17 0 -23 11t2 27l36 79q9 20 25 20z" />
    <glyph glyph-name="ordmasculine" unicode="&#xba;" horiz-adv-x="234" 
d="M206 483q0 -71 -71 -71h-36q-70 0 -70 71v152q0 71 70 71h36q71 0 71 -71v-152zM147 629q0 23 -22 23h-15q-22 0 -22 -23v-140q0 -23 22 -23h15q22 0 22 23v140z" />
    <glyph glyph-name="guillemotright" unicode="&#xbb;" horiz-adv-x="261" 
d="M136 271l-44 -123q-8 -23 -33 -23h-2q-46 0 -34 45l31 115l-31 113q-12 46 35 46h2q26 0 34 -24l42 -122q4 -14 0 -27zM251 270l-49 -123q-8 -22 -32 -22h-2q-48 0 -33 46l35 114l-35 112q-15 47 34 47h2q25 0 33 -23l47 -122q6 -15 0 -29z" />
    <glyph glyph-name="questiondown" unicode="&#xbf;" horiz-adv-x="329" 
d="M183 573h-20q-40 0 -40 40v53q0 40 40 40h20q40 0 40 -40v-53q0 -40 -40 -40zM172 516h2q40 0 40 -40v-61q0 -38 -8.5 -57.5t-37.5 -50.5l-21 -24q-24 -27 -24 -55v-93q0 -41 39 -41h13q40 0 40 41v80q0 40 40 40h17q40 0 40 -40v-85q0 -130 -130 -130h-35
q-130 0 -130 130v95q0 36 11.5 60t44.5 61l41 47q18 21 18 60v23q0 40 40 40z" />
    <glyph glyph-name="Agrave" unicode="&#xc0;" horiz-adv-x="367" 
d="M173 736q-20 0 -36 19l-30 37q-13 16 -7.5 29.5t24.5 13.5h25q26 0 38 -27l19 -40q6 -14 0.5 -23t-19.5 -9h-14zM137 205h88l-44 354zM310 0h-24q-36 0 -40 35l-9 75h-111l-10 -75q-4 -35 -39 -35h-18q-46 0 -39 46l88 620q6 34 40 34h72q34 0 40 -34l89 -620
q7 -46 -39 -46z" />
    <glyph glyph-name="Aacute" unicode="&#xc1;" horiz-adv-x="367" 
d="M193 736h-14q-14 0 -19.5 9t0.5 23l19 40q12 27 38 27h25q19 0 24.5 -13.5t-7.5 -29.5l-30 -37q-16 -19 -36 -19zM137 205h88l-44 354zM310 0h-24q-36 0 -40 35l-9 75h-111l-10 -75q-4 -35 -39 -35h-18q-46 0 -39 46l88 620q6 34 40 34h72q34 0 40 -34l89 -620
q7 -46 -39 -46z" />
    <glyph glyph-name="Acircumflex" unicode="&#xc2;" horiz-adv-x="367" 
d="M168 843h30q23 0 36 -18l39 -56q9 -14 4 -23.5t-21 -9.5h-10q-14 0 -26 12l-37 39l-37 -39q-12 -12 -26 -12h-10q-16 0 -21 9.5t4 23.5l39 56q13 18 36 18zM137 205h88l-44 354zM310 0h-24q-36 0 -40 35l-9 75h-111l-10 -75q-4 -35 -39 -35h-18q-46 0 -39 46l88 620
q6 34 40 34h72q34 0 40 -34l89 -620q7 -46 -39 -46z" />
    <glyph glyph-name="Atilde" unicode="&#xc3;" horiz-adv-x="367" 
d="M70 761v29q0 25 12.5 38.5t34.5 13.5h11q18 0 48 -18l28 -15q14 -9 23 -9q11 0 11 12v7q0 23 24 23h12q23 0 23 -23v-30q0 -24 -12.5 -38t-34.5 -14h-11q-16 0 -46 17l-30 17q-18 9 -22 9q-12 0 -12 -13v-6q0 -23 -24 -23h-12q-23 0 -23 23zM137 205h88l-44 354zM310 0
h-24q-36 0 -40 35l-9 75h-111l-10 -75q-4 -35 -39 -35h-18q-46 0 -39 46l88 620q6 34 40 34h72q34 0 40 -34l89 -620q7 -46 -39 -46z" />
    <glyph glyph-name="Adieresis" unicode="&#xc4;" horiz-adv-x="367" 
d="M118 828h5q40 0 40 -40v-12q0 -40 -40 -40h-5q-40 0 -40 40v12q0 40 40 40zM248 736h-5q-40 0 -40 40v12q0 40 40 40h5q40 0 40 -40v-12q0 -40 -40 -40zM137 205h88l-44 354zM310 0h-24q-36 0 -40 35l-9 75h-111l-10 -75q-4 -35 -39 -35h-18q-46 0 -39 46l88 620
q6 34 40 34h72q34 0 40 -34l89 -620q7 -46 -39 -46z" />
    <glyph glyph-name="Aring" unicode="&#xc5;" horiz-adv-x="365" 
d="M215 742h-68q-41 0 -41 -33t41 -33h68q41 0 41 31v4q0 31 -41 31zM136 205h88l-44 354zM115 35q-4 -35 -39 -35h-18q-46 0 -39 46l87 616q-26 12 -26 47q0 56 65 56h72q65 0 65 -53v-5q0 -31 -23 -43l89 -618q7 -46 -39 -46h-24q-36 0 -40 35l-9 75h-111z" />
    <glyph glyph-name="AE" unicode="&#xc6;" horiz-adv-x="478" 
d="M145 205h68v404zM413 0h-160q-40 0 -40 40v70h-83l-13 -77q-5 -33 -40 -33h-17q-48 0 -39 47l116 620q5 33 39 33h235q40 0 40 -40v-17q0 -40 -40 -40h-91v-198h86q40 0 40 -40v-17q0 -40 -40 -40h-86v-211h93q40 0 40 -40v-17q0 -40 -40 -40z" />
    <glyph glyph-name="Ccedilla" unicode="&#xc7;" horiz-adv-x="371" 
d="M207 -76q-6 -28 -34 -28h-19q-17 0 -23 11t2 27l27 60q-130 0 -130 130v452q0 130 130 130h52q129 0 129 -129v-103q0 -40 -40 -40h-25q-40 0 -40 40v97q0 41 -40 41h-18q-41 0 -41 -41v-442q0 -41 41 -41h20q40 0 40 41v118q0 40 40 40h25q40 0 40 -40v-123
q0 -126 -122 -130z" />
    <glyph glyph-name="Egrave" unicode="&#xc8;" horiz-adv-x="297" 
d="M142 736q-20 0 -36 19l-30 37q-13 16 -7.5 29.5t24.5 13.5h25q26 0 38 -27l19 -40q6 -14 0.5 -23t-19.5 -9h-14zM32 40v620q0 40 40 40h158q40 0 40 -40v-17q0 -40 -40 -40h-91v-198h86q40 0 40 -40v-17q0 -40 -40 -40h-86v-211h93q40 0 40 -40v-17q0 -40 -40 -40h-160
q-40 0 -40 40z" />
    <glyph glyph-name="Eacute" unicode="&#xc9;" horiz-adv-x="297" 
d="M162 736h-14q-14 0 -19.5 9t0.5 23l19 40q12 27 38 27h25q19 0 24.5 -13.5t-7.5 -29.5l-30 -37q-16 -19 -36 -19zM32 40v620q0 40 40 40h158q40 0 40 -40v-17q0 -40 -40 -40h-91v-198h86q40 0 40 -40v-17q0 -40 -40 -40h-86v-211h93q40 0 40 -40v-17q0 -40 -40 -40h-160
q-40 0 -40 40z" />
    <glyph glyph-name="Ecircumflex" unicode="&#xca;" horiz-adv-x="297" 
d="M137 843h30q23 0 36 -18l39 -56q9 -14 4 -23.5t-21 -9.5h-10q-14 0 -26 12l-37 39l-37 -39q-12 -12 -26 -12h-10q-16 0 -21 9.5t4 23.5l39 56q13 18 36 18zM32 40v620q0 40 40 40h158q40 0 40 -40v-17q0 -40 -40 -40h-91v-198h86q40 0 40 -40v-17q0 -40 -40 -40h-86v-211
h93q40 0 40 -40v-17q0 -40 -40 -40h-160q-40 0 -40 40z" />
    <glyph glyph-name="Edieresis" unicode="&#xcb;" horiz-adv-x="297" 
d="M87 828h5q40 0 40 -40v-12q0 -40 -40 -40h-5q-40 0 -40 40v12q0 40 40 40zM217 736h-5q-40 0 -40 40v12q0 40 40 40h5q40 0 40 -40v-12q0 -40 -40 -40zM32 40v620q0 40 40 40h158q40 0 40 -40v-17q0 -40 -40 -40h-91v-198h86q40 0 40 -40v-17q0 -40 -40 -40h-86v-211h93
q40 0 40 -40v-17q0 -40 -40 -40h-160q-40 0 -40 40z" />
    <glyph glyph-name="Igrave" unicode="&#xcc;" horiz-adv-x="173" 
d="M77 736q-20 0 -36 19l-30 37q-13 16 -7.5 29.5t24.5 13.5h25q26 0 38 -27l19 -40q6 -14 0.5 -23t-19.5 -9h-14zM73 700h27q40 0 40 -40v-620q0 -40 -40 -40h-27q-40 0 -40 40v620q0 40 40 40z" />
    <glyph glyph-name="Iacute" unicode="&#xcd;" horiz-adv-x="173" 
d="M97 736h-14q-14 0 -19.5 9t0.5 23l19 40q12 27 38 27h25q19 0 24.5 -13.5t-7.5 -29.5l-30 -37q-16 -19 -36 -19zM73 700h27q40 0 40 -40v-620q0 -40 -40 -40h-27q-40 0 -40 40v620q0 40 40 40z" />
    <glyph glyph-name="Icircumflex" unicode="&#xce;" horiz-adv-x="173" 
d="M72 843h30q23 0 36 -18l39 -56q9 -14 4 -23.5t-21 -9.5h-10q-14 0 -26 12l-37 39l-37 -39q-12 -12 -26 -12h-10q-16 0 -21 9.5t4 23.5l39 56q13 18 36 18zM73 700h27q40 0 40 -40v-620q0 -40 -40 -40h-27q-40 0 -40 40v620q0 40 40 40z" />
    <glyph glyph-name="Idieresis" unicode="&#xcf;" horiz-adv-x="173" 
d="M22 828h5q40 0 40 -40v-12q0 -40 -40 -40h-5q-40 0 -40 40v12q0 40 40 40zM152 736h-5q-40 0 -40 40v12q0 40 40 40h5q40 0 40 -40v-12q0 -40 -40 -40zM73 700h27q40 0 40 -40v-620q0 -40 -40 -40h-27q-40 0 -40 40v620q0 40 40 40z" />
    <glyph glyph-name="Eth" unicode="&#xd0;" horiz-adv-x="389" 
d="M205 0h-121q-40 0 -40 40v272h-2q-40 0 -40 40v6q0 40 40 40h2v262q0 40 40 40h121q153 0 153 -153v-394q0 -153 -153 -153zM151 94h39q61 0 61 62v388q0 62 -61 62h-39v-208h20q40 0 40 -40v-6q0 -40 -40 -40h-20v-218z" />
    <glyph glyph-name="Ntilde" unicode="&#xd1;" horiz-adv-x="384" 
d="M81 761v29q0 25 12.5 38.5t34.5 13.5h11q18 0 48 -18l28 -15q14 -9 23 -9q11 0 11 12v7q0 23 24 23h12q23 0 23 -23v-30q0 -24 -12.5 -38t-34.5 -14h-11q-16 0 -46 17l-30 17q-18 9 -22 9q-12 0 -12 -13v-6q0 -23 -24 -23h-12q-23 0 -23 23zM127 472l1 -124v-308
q0 -40 -40 -40h-16q-40 0 -40 40v620q0 40 40 40h53q32 0 39 -31l93 -401l-1 117v275q0 40 40 40h16q40 0 40 -40v-620q0 -40 -40 -40h-44q-32 0 -39 31z" />
    <glyph glyph-name="Ograve" unicode="&#xd2;" horiz-adv-x="377" 
d="M179 736q-20 0 -36 19l-30 37q-13 16 -7.5 29.5t24.5 13.5h25q26 0 38 -27l19 -40q6 -14 0.5 -23t-19.5 -9h-14zM347 576v-452q0 -130 -130 -130h-57q-130 0 -130 130v452q0 130 130 130h57q130 0 130 -130zM240 129v442q0 41 -40 41h-22q-41 0 -41 -41v-442
q0 -41 41 -41h22q40 0 40 41z" />
    <glyph glyph-name="Oacute" unicode="&#xd3;" horiz-adv-x="377" 
d="M199 736h-14q-14 0 -19.5 9t0.5 23l19 40q12 27 38 27h25q19 0 24.5 -13.5t-7.5 -29.5l-30 -37q-16 -19 -36 -19zM347 576v-452q0 -130 -130 -130h-57q-130 0 -130 130v452q0 130 130 130h57q130 0 130 -130zM240 129v442q0 41 -40 41h-22q-41 0 -41 -41v-442
q0 -41 41 -41h22q40 0 40 41z" />
    <glyph glyph-name="Ocircumflex" unicode="&#xd4;" horiz-adv-x="377" 
d="M174 843h30q23 0 36 -18l39 -56q9 -14 4 -23.5t-21 -9.5h-10q-14 0 -26 12l-37 39l-37 -39q-12 -12 -26 -12h-10q-16 0 -21 9.5t4 23.5l39 56q13 18 36 18zM347 576v-452q0 -130 -130 -130h-57q-130 0 -130 130v452q0 130 130 130h57q130 0 130 -130zM240 129v442
q0 41 -40 41h-22q-41 0 -41 -41v-442q0 -41 41 -41h22q40 0 40 41z" />
    <glyph glyph-name="Otilde" unicode="&#xd5;" horiz-adv-x="377" 
d="M76 761v29q0 25 12.5 38.5t34.5 13.5h11q18 0 48 -18l28 -15q14 -9 23 -9q11 0 11 12v7q0 23 24 23h12q23 0 23 -23v-30q0 -24 -12.5 -38t-34.5 -14h-11q-16 0 -46 17l-30 17q-18 9 -22 9q-12 0 -12 -13v-6q0 -23 -24 -23h-12q-23 0 -23 23zM347 576v-452
q0 -130 -130 -130h-57q-130 0 -130 130v452q0 130 130 130h57q130 0 130 -130zM240 129v442q0 41 -40 41h-22q-41 0 -41 -41v-442q0 -41 41 -41h22q40 0 40 41z" />
    <glyph glyph-name="Odieresis" unicode="&#xd6;" horiz-adv-x="377" 
d="M124 828h5q40 0 40 -40v-12q0 -40 -40 -40h-5q-40 0 -40 40v12q0 40 40 40zM254 736h-5q-40 0 -40 40v12q0 40 40 40h5q40 0 40 -40v-12q0 -40 -40 -40zM347 576v-452q0 -130 -130 -130h-57q-130 0 -130 130v452q0 130 130 130h57q130 0 130 -130zM240 129v442
q0 41 -40 41h-22q-41 0 -41 -41v-442q0 -41 41 -41h22q40 0 40 41z" />
    <glyph glyph-name="multiply" unicode="&#xd7;" horiz-adv-x="314" 
d="M268 246l-1 -2q-29 -27 -56 0l-55 55l-56 -56q-27 -27 -54 1l-1 1q-27 27 0 54l56 56l-55 54q-28 28 0 56l1 2q29 27 56 0l55 -55l56 56q27 27 54 -1l1 -1q27 -27 0 -54l-56 -56l55 -54q28 -28 0 -56z" />
    <glyph glyph-name="Oslash" unicode="&#xd8;" horiz-adv-x="377" 
d="M347 576v-452q0 -130 -130 -130h-57q-130 0 -130 130v452q0 130 130 130h57q130 0 130 -130zM137 571l-1 -122l-1 -211l100 359q-11 15 -35 15h-22q-41 0 -41 -41zM143 103q9 -15 35 -15h21q42 0 42 41l1 115l1 218z" />
    <glyph glyph-name="Ugrave" unicode="&#xd9;" horiz-adv-x="374" 
d="M177 736q-20 0 -36 19l-30 37q-13 16 -7.5 29.5t24.5 13.5h25q26 0 38 -27l19 -40q6 -14 0.5 -23t-19.5 -9h-14zM276 700h27q40 0 40 -40v-536q0 -130 -130 -130h-52q-130 0 -130 130v536q0 40 40 40h27q40 0 40 -40v-531q0 -41 41 -41h17q40 0 40 41v531q0 40 40 40z
" />
    <glyph glyph-name="Uacute" unicode="&#xda;" horiz-adv-x="374" 
d="M197 736h-14q-14 0 -19.5 9t0.5 23l19 40q12 27 38 27h25q19 0 24.5 -13.5t-7.5 -29.5l-30 -37q-16 -19 -36 -19zM276 700h27q40 0 40 -40v-536q0 -130 -130 -130h-52q-130 0 -130 130v536q0 40 40 40h27q40 0 40 -40v-531q0 -41 41 -41h17q40 0 40 41v531q0 40 40 40z
" />
    <glyph glyph-name="Ucircumflex" unicode="&#xdb;" horiz-adv-x="374" 
d="M172 843h30q23 0 36 -18l39 -56q9 -14 4 -23.5t-21 -9.5h-10q-14 0 -26 12l-37 39l-37 -39q-12 -12 -26 -12h-10q-16 0 -21 9.5t4 23.5l39 56q13 18 36 18zM276 700h27q40 0 40 -40v-536q0 -130 -130 -130h-52q-130 0 -130 130v536q0 40 40 40h27q40 0 40 -40v-531
q0 -41 41 -41h17q40 0 40 41v531q0 40 40 40z" />
    <glyph glyph-name="Udieresis" unicode="&#xdc;" horiz-adv-x="374" 
d="M122 828h5q40 0 40 -40v-12q0 -40 -40 -40h-5q-40 0 -40 40v12q0 40 40 40zM252 736h-5q-40 0 -40 40v12q0 40 40 40h5q40 0 40 -40v-12q0 -40 -40 -40zM276 700h27q40 0 40 -40v-536q0 -130 -130 -130h-52q-130 0 -130 130v536q0 40 40 40h27q40 0 40 -40v-531
q0 -41 41 -41h17q40 0 40 41v531q0 40 40 40z" />
    <glyph glyph-name="Yacute" unicode="&#xdd;" horiz-adv-x="325" 
d="M175 736h-14q-14 0 -19.5 9t0.5 23l19 40q12 27 38 27h25q19 0 24.5 -13.5t-7.5 -29.5l-30 -37q-16 -19 -36 -19zM217 247v-207q0 -40 -40 -40h-27q-40 0 -40 40v199l-103 411q-12 50 39 50h26q33 0 40 -32l54 -265l56 265q7 32 39 32h20q52 0 38 -50z" />
    <glyph glyph-name="Thorn" unicode="&#xde;" horiz-adv-x="351" 
d="M200 130h-61v-90q0 -40 -40 -40h-27q-40 0 -40 40v620q0 40 40 40h27q40 0 40 -40v-84h61q130 0 130 -130v-186q0 -130 -130 -130zM223 264v177q0 40 -40 40h-44v-257h44q40 0 40 40z" />
    <glyph glyph-name="germandbls" unicode="&#xdf;" horiz-adv-x="352" 
d="M266 368q60 -17 60 -90v-156q0 -122 -122 -122h-16q-30 0 -30 30v33q0 28 27 28h7q33 0 33 36v151q0 37 -35 37h-6q-27 0 -27 28v38q0 27 26 27h5q35 0 35 37v134q0 39 -38 39h-16q-39 0 -39 -39v-544q0 -35 -34 -35h-32q-35 0 -35 35v548q0 127 127 127h40
q128 0 128 -127v-111q0 -82 -58 -104z" />
    <glyph glyph-name="agrave" unicode="&#xe0;" horiz-adv-x="333" 
d="M163 585q-22 0 -37 24l-31 51q-11 18 -4 31t28 13h21q30 0 39 -27l20 -60q4 -14 -3 -23t-21 -9h-12zM206 106v153l-55 -20q-17 -8 -23 -17t-6 -28v-78q0 -31 32 -31q23 0 52 21zM24 87v111q0 48 17 72.5t60 38.5l105 36v85q0 37 -40 37q-41 0 -41 -37v-36q0 -33 -32 -33
h-32q-31 0 -31 32v40q0 122 123 122h29q124 0 124 -122v-398q0 -35 -35 -35h-30q-35 0 -35 35v4q-45 -45 -95 -45q-87 0 -87 93z" />
    <glyph glyph-name="aacute" unicode="&#xe1;" horiz-adv-x="333" 
d="M181 585h-12q-14 0 -21 9t-3 23l20 60q9 27 39 27h21q21 0 28 -13t-4 -31l-31 -51q-15 -24 -37 -24zM206 106v153l-55 -20q-17 -8 -23 -17t-6 -28v-78q0 -31 32 -31q23 0 52 21zM24 87v111q0 48 17 72.5t60 38.5l105 36v85q0 37 -40 37q-41 0 -41 -37v-36q0 -33 -32 -33
h-32q-31 0 -31 32v40q0 122 123 122h29q124 0 124 -122v-398q0 -35 -35 -35h-30q-35 0 -35 35v4q-45 -45 -95 -45q-87 0 -87 93z" />
    <glyph glyph-name="acircumflex" unicode="&#xe2;" horiz-adv-x="333" 
d="M160 706h24q27 0 39 -21l38 -64q8 -13 2.5 -23.5t-20.5 -10.5h-14q-13 0 -24 14l-33 47l-33 -47q-11 -14 -24 -14h-14q-15 0 -20.5 10.5t2.5 23.5l38 64q12 21 39 21zM206 106v153l-55 -20q-17 -8 -23 -17t-6 -28v-78q0 -31 32 -31q23 0 52 21zM24 87v111q0 48 17 72.5
t60 38.5l105 36v85q0 37 -40 37q-41 0 -41 -37v-36q0 -33 -32 -33h-32q-31 0 -31 32v40q0 122 123 122h29q124 0 124 -122v-398q0 -35 -35 -35h-30q-35 0 -35 35v4q-45 -45 -95 -45q-87 0 -87 93z" />
    <glyph glyph-name="atilde" unicode="&#xe3;" horiz-adv-x="333" 
d="M60 610v38q0 24 12.5 38t34.5 14h10q23 0 48 -17l31 -22q15 -10 21 -10q10 0 10 13v13q0 23 24 23h12q23 0 23 -23v-37q0 -25 -12.5 -38.5t-34.5 -13.5h-10q-25 0 -46 16l-34 24q-12 9 -19 9q-11 0 -11 -13v-14q0 -22 -24 -22h-12q-23 0 -23 22zM206 106v153l-55 -20
q-17 -8 -23 -17t-6 -28v-78q0 -31 32 -31q23 0 52 21zM24 87v111q0 48 17 72.5t60 38.5l105 36v85q0 37 -40 37q-41 0 -41 -37v-36q0 -33 -32 -33h-32q-31 0 -31 32v40q0 122 123 122h29q124 0 124 -122v-398q0 -35 -35 -35h-30q-35 0 -35 35v4q-45 -45 -95 -45
q-87 0 -87 93z" />
    <glyph glyph-name="adieresis" unicode="&#xe4;" horiz-adv-x="333" 
d="M109 697h3q40 0 40 -40v-32q0 -40 -40 -40h-3q-40 0 -40 40v32q0 40 40 40zM235 585h-3q-40 0 -40 40v32q0 40 40 40h3q40 0 40 -40v-32q0 -40 -40 -40zM206 106v153l-55 -20q-17 -8 -23 -17t-6 -28v-78q0 -31 32 -31q23 0 52 21zM24 87v111q0 48 17 72.5t60 38.5l105 36
v85q0 37 -40 37q-41 0 -41 -37v-36q0 -33 -32 -33h-32q-31 0 -31 32v40q0 122 123 122h29q124 0 124 -122v-398q0 -35 -35 -35h-30q-35 0 -35 35v4q-45 -45 -95 -45q-87 0 -87 93z" />
    <glyph glyph-name="aring" unicode="&#xe5;" horiz-adv-x="333" 
d="M193 702q65 0 65 -55v-6q0 -54 -65 -54h-42q-65 0 -65 57q0 58 65 58h42zM191 609q42 0 42 32v6q0 33 -42 33h-38q-42 0 -42 -36q0 -35 43 -35h37zM206 106v153l-55 -20q-17 -8 -23 -17t-6 -28v-78q0 -31 32 -31q23 0 52 21zM24 87v111q0 48 17 72.5t60 38.5l105 36v85
q0 37 -40 37q-41 0 -41 -37v-36q0 -33 -32 -33h-32q-31 0 -31 32v40q0 122 123 122h29q124 0 124 -122v-398q0 -35 -35 -35h-30q-35 0 -35 35v4q-45 -45 -95 -45q-87 0 -87 93z" />
    <glyph glyph-name="ae" unicode="&#xe6;" horiz-adv-x="523" 
d="M336 -6q-76 0 -105 47q-38 -26 -60.5 -36.5t-50.5 -10.5q-88 0 -88 93v115q0 48 17 72t60 39l105 36v81q0 37 -40 37q-41 0 -41 -37v-35q0 -33 -33 -33h-27q-19 0 -27 8t-8 27v36q0 122 122 122h23q53 0 81 -33q26 33 81 33h30q122 0 122 -122v-158q0 -40 -40 -40h-143
v-114q0 -37 36 -37h13q37 0 37 37v32q0 30 30 30h35q32 0 32 -32v-35q0 -122 -122 -122h-39zM350 466q-36 0 -36 -37v-108h84v108q0 37 -37 37h-11zM130 116q0 -31 32 -31q26 0 52 16v162l-55 -21q-16 -7 -22.5 -16.5t-6.5 -28.5v-81z" />
    <glyph glyph-name="ccedilla" unicode="&#xe7;" horiz-adv-x="338" 
d="M187 -76q-6 -28 -34 -28h-19q-17 0 -23 11t2 27l27 60q-113 5 -113 122v317q0 122 122 122h42q121 0 121 -121v-60q0 -40 -40 -40h-19q-40 0 -40 40v53q0 37 -37 37h-12q-36 0 -36 -37v-305q0 -37 36 -37h13q37 0 37 37v72q0 40 40 40h19q40 0 40 -40v-78
q0 -116 -112 -122z" />
    <glyph glyph-name="egrave" unicode="&#xe8;" horiz-adv-x="336" 
d="M159 585q-22 0 -37 24l-31 51q-11 18 -4 31t28 13h21q30 0 39 -27l20 -60q4 -14 -3 -23t-21 -9h-12zM310 149v-33q0 -122 -122 -122h-39q-122 0 -122 122v317q0 122 122 122h39q122 0 122 -122v-158q0 -40 -40 -40h-143v-114q0 -37 36 -37h13q37 0 37 37v30q0 28 28 28
h39q30 0 30 -30zM163 466q-36 0 -36 -37v-108h84v108q0 37 -37 37h-11z" />
    <glyph glyph-name="eacute" unicode="&#xe9;" horiz-adv-x="336" 
d="M177 585h-12q-14 0 -21 9t-3 23l20 60q9 27 39 27h21q21 0 28 -13t-4 -31l-31 -51q-15 -24 -37 -24zM310 149v-33q0 -122 -122 -122h-39q-122 0 -122 122v317q0 122 122 122h39q122 0 122 -122v-158q0 -40 -40 -40h-143v-114q0 -37 36 -37h13q37 0 37 37v30q0 28 28 28
h39q30 0 30 -30zM163 466q-36 0 -36 -37v-108h84v108q0 37 -37 37h-11z" />
    <glyph glyph-name="ecircumflex" unicode="&#xea;" horiz-adv-x="336" 
d="M156 706h24q27 0 39 -21l38 -64q8 -13 2.5 -23.5t-20.5 -10.5h-14q-13 0 -24 14l-33 47l-33 -47q-11 -14 -24 -14h-14q-15 0 -20.5 10.5t2.5 23.5l38 64q12 21 39 21zM310 149v-33q0 -122 -122 -122h-39q-122 0 -122 122v317q0 122 122 122h39q122 0 122 -122v-158
q0 -40 -40 -40h-143v-114q0 -37 36 -37h13q37 0 37 37v30q0 28 28 28h39q30 0 30 -30zM163 466q-36 0 -36 -37v-108h84v108q0 37 -37 37h-11z" />
    <glyph glyph-name="edieresis" unicode="&#xeb;" horiz-adv-x="336" 
d="M105 697h3q40 0 40 -40v-32q0 -40 -40 -40h-3q-40 0 -40 40v32q0 40 40 40zM231 585h-3q-40 0 -40 40v32q0 40 40 40h3q40 0 40 -40v-32q0 -40 -40 -40zM310 149v-33q0 -122 -122 -122h-39q-122 0 -122 122v317q0 122 122 122h39q122 0 122 -122v-158q0 -40 -40 -40h-143
v-114q0 -37 36 -37h13q37 0 37 37v30q0 28 28 28h39q30 0 30 -30zM163 466q-36 0 -36 -37v-108h84v108q0 37 -37 37h-11z" />
    <glyph glyph-name="igrave" unicode="&#xec;" horiz-adv-x="164" 
d="M73 585q-22 0 -37 24l-31 51q-11 18 -4 31t28 13h21q30 0 39 -27l20 -60q4 -14 -3 -23t-21 -9h-12zM92 0h-21q-40 0 -40 40v469q0 40 40 40h21q40 0 40 -40v-469q0 -40 -40 -40z" />
    <glyph glyph-name="iacute" unicode="&#xed;" horiz-adv-x="164" 
d="M91 585h-12q-14 0 -21 9t-3 23l20 60q9 27 39 27h21q21 0 28 -13t-4 -31l-31 -51q-15 -24 -37 -24zM92 0h-21q-40 0 -40 40v469q0 40 40 40h21q40 0 40 -40v-469q0 -40 -40 -40z" />
    <glyph glyph-name="icircumflex" unicode="&#xee;" horiz-adv-x="164" 
d="M70 706h24q27 0 39 -21l38 -64q8 -13 2.5 -23.5t-20.5 -10.5h-14q-13 0 -24 14l-33 47l-33 -47q-11 -14 -24 -14h-14q-15 0 -20.5 10.5t2.5 23.5l38 64q12 21 39 21zM92 0h-21q-40 0 -40 40v469q0 40 40 40h21q40 0 40 -40v-469q0 -40 -40 -40z" />
    <glyph glyph-name="idieresis" unicode="&#xef;" horiz-adv-x="164" 
d="M19 697h3q40 0 40 -40v-32q0 -40 -40 -40h-3q-40 0 -40 40v32q0 40 40 40zM145 585h-3q-40 0 -40 40v32q0 40 40 40h3q40 0 40 -40v-32q0 -40 -40 -40zM92 0h-21q-40 0 -40 40v469q0 40 40 40h21q40 0 40 -40v-469q0 -40 -40 -40z" />
    <glyph glyph-name="eth" unicode="&#xf0;" horiz-adv-x="346" 
d="M212 671l17 32q12 23 37 12l13 -7q23 -11 11 -34l-18 -31q46 -29 46 -93v-434q0 -122 -122 -122h-47q-122 0 -122 122v334q0 48 24.5 75t70.5 27q69 0 100 -30v15q0 21 -8 31t-31 19l-63 28q-33 14 -16 47l10 19q14 29 43 16zM217 427q0 37 -37 37h-16q-36 0 -36 -37
v-305q0 -37 36 -37h16q37 0 37 37v305z" />
    <glyph glyph-name="ntilde" unicode="&#xf1;" horiz-adv-x="347" 
d="M62 610v38q0 24 12.5 38t34.5 14h10q23 0 48 -17l31 -22q15 -10 21 -10q10 0 10 13v13q0 23 24 23h12q23 0 23 -23v-37q0 -25 -12.5 -38.5t-34.5 -13.5h-10q-25 0 -46 16l-34 24q-12 9 -19 9q-11 0 -11 -13v-14q0 -22 -24 -22h-12q-23 0 -23 22zM129 514v-5q46 46 99 46
q90 0 90 -94v-426q0 -35 -34 -35h-32q-35 0 -35 35v396q0 32 -33 32q-25 0 -54 -23v-405q0 -35 -34 -35h-32q-35 0 -35 35v479q0 35 35 35h31q34 0 34 -35z" />
    <glyph glyph-name="ograve" unicode="&#xf2;" horiz-adv-x="344" 
d="M163 585q-22 0 -37 24l-31 51q-11 18 -4 31t28 13h21q30 0 39 -27l20 -60q4 -14 -3 -23t-21 -9h-12zM317 116q0 -122 -122 -122h-47q-122 0 -122 122v317q0 122 122 122h47q122 0 122 -122v-317zM216 427q0 37 -37 37h-16q-36 0 -36 -37v-305q0 -37 36 -37h16q37 0 37 37
v305z" />
    <glyph glyph-name="oacute" unicode="&#xf3;" horiz-adv-x="344" 
d="M181 585h-12q-14 0 -21 9t-3 23l20 60q9 27 39 27h21q21 0 28 -13t-4 -31l-31 -51q-15 -24 -37 -24zM317 116q0 -122 -122 -122h-47q-122 0 -122 122v317q0 122 122 122h47q122 0 122 -122v-317zM216 427q0 37 -37 37h-16q-36 0 -36 -37v-305q0 -37 36 -37h16q37 0 37 37
v305z" />
    <glyph glyph-name="ocircumflex" unicode="&#xf4;" horiz-adv-x="344" 
d="M160 706h24q27 0 39 -21l38 -64q8 -13 2.5 -23.5t-20.5 -10.5h-14q-13 0 -24 14l-33 47l-33 -47q-11 -14 -24 -14h-14q-15 0 -20.5 10.5t2.5 23.5l38 64q12 21 39 21zM317 116q0 -122 -122 -122h-47q-122 0 -122 122v317q0 122 122 122h47q122 0 122 -122v-317zM216 427
q0 37 -37 37h-16q-36 0 -36 -37v-305q0 -37 36 -37h16q37 0 37 37v305z" />
    <glyph glyph-name="otilde" unicode="&#xf5;" horiz-adv-x="344" 
d="M60 610v38q0 24 12.5 38t34.5 14h10q23 0 48 -17l31 -22q15 -10 21 -10q10 0 10 13v13q0 23 24 23h12q23 0 23 -23v-37q0 -25 -12.5 -38.5t-34.5 -13.5h-10q-25 0 -46 16l-34 24q-12 9 -19 9q-11 0 -11 -13v-14q0 -22 -24 -22h-12q-23 0 -23 22zM317 116
q0 -122 -122 -122h-47q-122 0 -122 122v317q0 122 122 122h47q122 0 122 -122v-317zM216 427q0 37 -37 37h-16q-36 0 -36 -37v-305q0 -37 36 -37h16q37 0 37 37v305z" />
    <glyph glyph-name="odieresis" unicode="&#xf6;" horiz-adv-x="344" 
d="M109 697h3q40 0 40 -40v-32q0 -40 -40 -40h-3q-40 0 -40 40v32q0 40 40 40zM235 585h-3q-40 0 -40 40v32q0 40 40 40h3q40 0 40 -40v-32q0 -40 -40 -40zM317 116q0 -122 -122 -122h-47q-122 0 -122 122v317q0 122 122 122h47q122 0 122 -122v-317zM216 427q0 37 -37 37
h-16q-36 0 -36 -37v-305q0 -37 36 -37h16q37 0 37 37v305z" />
    <glyph glyph-name="divide" unicode="&#xf7;" horiz-adv-x="314" 
d="M159 434h-4q-40 0 -40 40v5q0 40 40 40h4q40 0 40 -40v-5q0 -40 -40 -40zM10 355v2q0 38 38 38h218q38 0 38 -38v-2q0 -20 -9 -29t-29 -9h-218q-20 0 -29 9t-9 29zM159 192h-4q-40 0 -40 40v5q0 40 40 40h4q40 0 40 -40v-5q0 -40 -40 -40z" />
    <glyph glyph-name="oslash" unicode="&#xf8;" horiz-adv-x="344" 
d="M318 116q0 -122 -122 -122h-47q-122 0 -122 122v317q0 122 122 122h47q122 0 122 -122v-317zM127 427v-33l-1 -208l83 268q-9 10 -29 10h-16q-37 0 -37 -37zM136 95q10 -10 28 -10h16q37 0 37 37v42l1 199z" />
    <glyph glyph-name="ugrave" unicode="&#xf9;" horiz-adv-x="347" 
d="M164 585q-22 0 -37 24l-31 51q-11 18 -4 31t28 13h21q30 0 39 -27l20 -60q4 -14 -3 -23t-21 -9h-12zM218 33v3q-44 -42 -98 -42q-91 0 -91 94v421q0 40 40 40h21q40 0 40 -40v-391q0 -32 34 -32q25 0 53 17v406q0 40 40 40h21q40 0 40 -40v-469q0 -40 -40 -40h-26
q-34 0 -34 33z" />
    <glyph glyph-name="uacute" unicode="&#xfa;" horiz-adv-x="347" 
d="M182 585h-12q-14 0 -21 9t-3 23l20 60q9 27 39 27h21q21 0 28 -13t-4 -31l-31 -51q-15 -24 -37 -24zM218 33v3q-44 -42 -98 -42q-91 0 -91 94v421q0 40 40 40h21q40 0 40 -40v-391q0 -32 34 -32q25 0 53 17v406q0 40 40 40h21q40 0 40 -40v-469q0 -40 -40 -40h-26
q-34 0 -34 33z" />
    <glyph glyph-name="ucircumflex" unicode="&#xfb;" horiz-adv-x="347" 
d="M161 706h24q27 0 39 -21l38 -64q8 -13 2.5 -23.5t-20.5 -10.5h-14q-13 0 -24 14l-33 47l-33 -47q-11 -14 -24 -14h-14q-15 0 -20.5 10.5t2.5 23.5l38 64q12 21 39 21zM218 33v3q-44 -42 -98 -42q-91 0 -91 94v421q0 40 40 40h21q40 0 40 -40v-391q0 -32 34 -32
q25 0 53 17v406q0 40 40 40h21q40 0 40 -40v-469q0 -40 -40 -40h-26q-34 0 -34 33z" />
    <glyph glyph-name="udieresis" unicode="&#xfc;" horiz-adv-x="347" 
d="M110 697h3q40 0 40 -40v-32q0 -40 -40 -40h-3q-40 0 -40 40v32q0 40 40 40zM236 585h-3q-40 0 -40 40v32q0 40 40 40h3q40 0 40 -40v-32q0 -40 -40 -40zM218 33v3q-44 -42 -98 -42q-91 0 -91 94v421q0 40 40 40h21q40 0 40 -40v-391q0 -32 34 -32q25 0 53 17v406
q0 40 40 40h21q40 0 40 -40v-469q0 -40 -40 -40h-26q-34 0 -34 33z" />
    <glyph glyph-name="yacute" unicode="&#xfd;" horiz-adv-x="314" 
d="M167 585h-12q-14 0 -21 9t-3 23l20 60q9 27 39 27h21q21 0 28 -13t-4 -31l-31 -51q-15 -24 -37 -24zM302 501l-121 -579q-7 -32 -39 -32h-15q-49 0 -39 49l19 82l-95 480q-10 48 39 48h18q35 0 39 -34l48 -298l53 299q5 33 40 33h14q49 0 39 -48z" />
    <glyph glyph-name="thorn" unicode="&#xfe;" horiz-adv-x="348" 
d="M219 120v309q0 34 -35 34q-28 0 -54 -23v-331q26 -23 54 -23q35 0 35 34zM130 507h1q44 48 95 48q46 0 70.5 -27t24.5 -75v-356q0 -49 -24.5 -76t-70.5 -27q-51 0 -96 43v-107q0 -40 -40 -40h-21q-40 0 -40 40v740q0 40 40 40h21q40 0 40 -40v-163z" />
    <glyph glyph-name="ydieresis" unicode="&#xff;" horiz-adv-x="314" 
d="M95 697h3q40 0 40 -40v-32q0 -40 -40 -40h-3q-40 0 -40 40v32q0 40 40 40zM221 585h-3q-40 0 -40 40v32q0 40 40 40h3q40 0 40 -40v-32q0 -40 -40 -40zM302 501l-121 -579q-7 -32 -39 -32h-15q-49 0 -39 49l19 82l-95 480q-10 48 39 48h18q35 0 39 -34l48 -298l53 299
q5 33 40 33h14q49 0 39 -48z" />
    <glyph glyph-name="Amacron" unicode="&#x100;" horiz-adv-x="367" 
d="M72 779v2q0 32 32 32h158q32 0 32 -32v-2q0 -31 -32 -31h-158q-32 0 -32 31zM137 205h88l-44 354zM310 0h-24q-36 0 -40 35l-9 75h-111l-10 -75q-4 -35 -39 -35h-18q-46 0 -39 46l88 620q6 34 40 34h72q34 0 40 -34l89 -620q7 -46 -39 -46z" />
    <glyph glyph-name="amacron" unicode="&#x101;" horiz-adv-x="333" 
d="M61 633v2q0 37 37 37h148q37 0 37 -37v-2q0 -36 -37 -36h-148q-37 0 -37 36zM206 106v153l-55 -20q-17 -8 -23 -17t-6 -28v-78q0 -31 32 -31q23 0 52 21zM24 87v111q0 48 17 72.5t60 38.5l105 36v85q0 37 -40 37q-41 0 -41 -37v-36q0 -33 -32 -33h-32q-31 0 -31 32v40
q0 122 123 122h29q124 0 124 -122v-398q0 -35 -35 -35h-30q-35 0 -35 35v4q-45 -45 -95 -45q-87 0 -87 93z" />
    <glyph glyph-name="Abreve" unicode="&#x102;" horiz-adv-x="367" 
d="M195 738h-24q-42 0 -65 21t-23 57v2q0 16 16 16h34q7 0 12 -5q4 -4 4.5 -12t4.5 -12q7 -7 23 -7h12q16 0 23 7q4 4 5 12.5t4 11.5q5 5 12 5h34q16 0 16 -16v-2q0 -36 -23 -57t-65 -21zM137 205h88l-44 354zM310 0h-24q-36 0 -40 35l-9 75h-111l-10 -75q-4 -35 -39 -35
h-18q-46 0 -39 46l88 620q6 34 40 34h72q34 0 40 -34l89 -620q7 -46 -39 -46z" />
    <glyph glyph-name="abreve" unicode="&#x103;" horiz-adv-x="333" 
d="M74 672v6q0 10 6.5 16.5t16.5 6.5h22q9 0 15 -6.5t6 -15.5v-6q0 -30 29 -30h6q29 0 29 30v6q0 9 6 15.5t15 6.5h22q10 0 16.5 -6.5t6.5 -16.5v-6q0 -85 -83 -85h-30q-83 0 -83 85zM206 106v153l-55 -20q-17 -8 -23 -17t-6 -28v-78q0 -31 32 -31q23 0 52 21zM24 87v111
q0 48 17 72.5t60 38.5l105 36v85q0 37 -40 37q-41 0 -41 -37v-36q0 -33 -32 -33h-32q-31 0 -31 32v40q0 122 123 122h29q124 0 124 -122v-398q0 -35 -35 -35h-30q-35 0 -35 35v4q-45 -45 -95 -45q-87 0 -87 93z" />
    <glyph glyph-name="Aogonek" unicode="&#x104;" horiz-adv-x="367" 
d="M333 -107h-25q-26 0 -40.5 13.5t-14.5 36.5q0 18 19 50l5 7q-27 4 -31 35l-9 75h-111l-10 -75q-4 -35 -39 -35h-18q-46 0 -39 46l88 621q6 34 40 34h72q36 0 40 -34l89 -620q2 -21 -5 -36l-15 -28q-7 -13 -7 -22q0 -11 14 -11h5q24 0 24 -22v-9q0 -12 -9 -19t-23 -7z
M137 205h88l-44 354z" />
    <glyph glyph-name="aogonek" unicode="&#x105;" horiz-adv-x="333" 
d="M290 -107h-25q-26 0 -40.5 13.5t-14.5 36.5q0 21 20 51l4 6q-28 5 -28 35v4q-45 -45 -95 -45q-87 0 -87 93v111q0 48 17 72.5t60 38.5l105 36v85q0 37 -40 37q-41 0 -41 -37v-36q0 -33 -32 -33h-32q-31 0 -31 32v40q0 122 123 122h29q124 0 124 -122v-398q0 -12 -7 -26
l-13 -26q-7 -13 -7 -22q0 -11 14 -11h5q24 0 24 -22v-9q0 -12 -9 -19t-23 -7zM206 106v153l-55 -20q-17 -8 -23 -17t-6 -28v-78q0 -31 32 -31q23 0 52 21z" />
    <glyph glyph-name="Cacute" unicode="&#x106;" horiz-adv-x="371" 
d="M197 736h-14q-14 0 -19.5 9t0.5 23l19 40q12 27 38 27h25q19 0 24.5 -13.5t-7.5 -29.5l-30 -37q-16 -19 -36 -19zM238 129v118q0 40 40 40h25q40 0 40 -40v-123q0 -130 -130 -130h-53q-130 0 -130 130v452q0 130 130 130h52q129 0 129 -129v-103q0 -40 -40 -40h-25
q-40 0 -40 40v97q0 41 -40 41h-18q-41 0 -41 -41v-442q0 -41 41 -41h20q40 0 40 41z" />
    <glyph glyph-name="cacute" unicode="&#x107;" horiz-adv-x="338" 
d="M179 585h-12q-14 0 -21 9t-3 23l20 60q9 27 39 27h21q21 0 28 -13t-4 -31l-31 -51q-15 -24 -37 -24zM272 334h-19q-40 0 -40 40v53q0 37 -37 37h-12q-36 0 -36 -37v-305q0 -37 36 -37h13q37 0 37 37v72q0 40 40 40h19q40 0 40 -40v-78q0 -122 -122 -122h-42
q-122 0 -122 122v317q0 122 122 122h42q121 0 121 -121v-60q0 -40 -40 -40z" />
    <glyph glyph-name="Cdotaccent" unicode="&#x10a;" horiz-adv-x="371" 
d="M180 824h14q38 0 38 -38v-12q0 -38 -38 -38h-14q-38 0 -38 38v12q0 38 38 38zM238 129v118q0 40 40 40h25q40 0 40 -40v-123q0 -130 -130 -130h-53q-130 0 -130 130v452q0 130 130 130h52q129 0 129 -129v-103q0 -40 -40 -40h-25q-40 0 -40 40v97q0 41 -40 41h-18
q-41 0 -41 -41v-442q0 -41 41 -41h20q40 0 40 41z" />
    <glyph glyph-name="cdotaccent" unicode="&#x10b;" horiz-adv-x="338" 
d="M166 693h8q40 0 40 -40v-28q0 -40 -40 -40h-8q-40 0 -40 40v28q0 40 40 40zM272 334h-19q-40 0 -40 40v53q0 37 -37 37h-12q-36 0 -36 -37v-305q0 -37 36 -37h13q37 0 37 37v72q0 40 40 40h19q40 0 40 -40v-78q0 -122 -122 -122h-42q-122 0 -122 122v317q0 122 122 122
h42q121 0 121 -121v-60q0 -40 -40 -40z" />
    <glyph glyph-name="Ccaron" unicode="&#x10c;" horiz-adv-x="371" 
d="M202 736h-30q-23 0 -36 18l-39 56q-9 14 -4 23.5t21 9.5h10q14 0 26 -12l37 -39l37 39q12 12 26 12h10q16 0 21 -9.5t-4 -23.5l-39 -56q-13 -18 -36 -18zM238 129v118q0 40 40 40h25q40 0 40 -40v-123q0 -130 -130 -130h-53q-130 0 -130 130v452q0 130 130 130h52
q129 0 129 -129v-103q0 -40 -40 -40h-25q-40 0 -40 40v97q0 41 -40 41h-18q-41 0 -41 -41v-442q0 -41 41 -41h20q40 0 40 41z" />
    <glyph glyph-name="ccaron" unicode="&#x10d;" horiz-adv-x="338" 
d="M182 587h-24q-27 0 -39 21l-38 64q-8 14 -2.5 24t20.5 10h14q13 0 24 -14l33 -47l33 47q11 14 24 14h14q15 0 20.5 -10t-2.5 -24l-38 -64q-12 -21 -39 -21zM272 334h-19q-40 0 -40 40v53q0 37 -37 37h-12q-36 0 -36 -37v-305q0 -37 36 -37h13q37 0 37 37v72q0 40 40 40
h19q40 0 40 -40v-78q0 -122 -122 -122h-42q-122 0 -122 122v317q0 122 122 122h42q121 0 121 -121v-60q0 -40 -40 -40z" />
    <glyph glyph-name="Dcaron" unicode="&#x10e;" horiz-adv-x="376" 
d="M197 736h-30q-23 0 -36 18l-39 56q-9 14 -4 23.5t21 9.5h10q14 0 26 -12l37 -39l37 39q12 12 26 12h10q16 0 21 -9.5t-4 -23.5l-39 -56q-13 -18 -36 -18zM193 0h-121q-40 0 -40 40v620q0 40 40 40h121q153 0 153 -153v-394q0 -153 -153 -153zM178 606h-39v-512h39
q61 0 61 62v388q0 62 -61 62z" />
    <glyph glyph-name="dcaron" unicode="&#x10f;" horiz-adv-x="348" 
d="M372 578h-7q-20 0 -20 20v81q0 31 31 31h2q39 0 30 -38l-17 -80q-4 -14 -19 -14zM164 86q28 0 53 23v331q-25 23 -53 23q-36 0 -36 -34v-309q0 -34 36 -34zM218 35v6q-45 -47 -96 -47q-46 0 -70.5 27t-24.5 76v356q0 48 24.5 75t70.5 27q51 0 95 -44v164q0 35 35 35h32
q34 0 34 -35v-640q0 -35 -34 -35h-31q-35 0 -35 35z" />
    <glyph glyph-name="Dcroat" unicode="&#x110;" horiz-adv-x="389" 
d="M205 0h-121q-40 0 -40 40v272h-2q-40 0 -40 40v6q0 40 40 40h2v262q0 40 40 40h121q153 0 153 -153v-394q0 -153 -153 -153zM151 94h39q61 0 61 62v388q0 62 -61 62h-39v-208h20q40 0 40 -40v-6q0 -40 -40 -40h-20v-218z" />
    <glyph glyph-name="dcroat" unicode="&#x111;" horiz-adv-x="360" 
d="M164 86q28 0 53 23v331q-25 23 -53 23q-36 0 -36 -34v-309q0 -34 36 -34zM218 41q-45 -47 -96 -47q-46 0 -70.5 27t-24.5 76v356q0 48 24.5 75t70.5 27q51 0 95 -44v74h-54q-17 0 -24.5 7.5t-7.5 24.5v2q0 17 7.5 24.5t24.5 7.5h54v24q0 35 35 35h32q34 0 34 -35v-24h6
q17 0 24.5 -7.5t7.5 -24.5v-2q0 -17 -7.5 -24.5t-24.5 -7.5h-6v-550q0 -35 -34 -35h-31q-35 0 -35 35v6z" />
    <glyph glyph-name="Emacron" unicode="&#x112;" horiz-adv-x="297" 
d="M41 779v2q0 32 32 32h158q32 0 32 -32v-2q0 -31 -32 -31h-158q-32 0 -32 31zM32 40v620q0 40 40 40h158q40 0 40 -40v-17q0 -40 -40 -40h-91v-198h86q40 0 40 -40v-17q0 -40 -40 -40h-86v-211h93q40 0 40 -40v-17q0 -40 -40 -40h-160q-40 0 -40 40z" />
    <glyph glyph-name="emacron" unicode="&#x113;" horiz-adv-x="336" 
d="M57 633v2q0 37 37 37h148q37 0 37 -37v-2q0 -36 -37 -36h-148q-37 0 -37 36zM310 149v-33q0 -122 -122 -122h-39q-122 0 -122 122v317q0 122 122 122h39q122 0 122 -122v-158q0 -40 -40 -40h-143v-114q0 -37 36 -37h13q37 0 37 37v30q0 28 28 28h39q30 0 30 -30zM163 466
q-36 0 -36 -37v-108h84v108q0 37 -37 37h-11z" />
    <glyph glyph-name="Ebreve" unicode="&#x114;" horiz-adv-x="297" 
d="M164 738h-24q-42 0 -65 21t-23 57v2q0 16 16 16h34q7 0 12 -5q3 -3 4 -11.5t5 -12.5q7 -7 23 -7h12q16 0 23 7q4 4 5 12.5t4 11.5q5 5 12 5h34q16 0 16 -16v-2q0 -36 -23 -57t-65 -21zM32 40v620q0 40 40 40h158q40 0 40 -40v-17q0 -40 -40 -40h-91v-198h86q40 0 40 -40
v-17q0 -40 -40 -40h-86v-211h93q40 0 40 -40v-17q0 -40 -40 -40h-160q-40 0 -40 40z" />
    <glyph glyph-name="ebreve" unicode="&#x115;" horiz-adv-x="336" 
d="M70 672v6q0 10 6.5 16.5t16.5 6.5h22q9 0 15 -6.5t6 -15.5v-6q0 -30 29 -30h6q29 0 29 30v6q0 9 6 15.5t15 6.5h22q10 0 16.5 -6.5t6.5 -16.5v-6q0 -85 -83 -85h-30q-83 0 -83 85zM310 149v-33q0 -122 -122 -122h-39q-122 0 -122 122v317q0 122 122 122h39
q122 0 122 -122v-158q0 -40 -40 -40h-143v-114q0 -37 36 -37h13q37 0 37 37v30q0 28 28 28h39q30 0 30 -30zM163 466q-36 0 -36 -37v-108h84v108q0 37 -37 37h-11z" />
    <glyph glyph-name="Edotaccent" unicode="&#x116;" horiz-adv-x="297" 
d="M145 824h14q38 0 38 -38v-12q0 -38 -38 -38h-14q-38 0 -38 38v12q0 38 38 38zM32 40v620q0 40 40 40h158q40 0 40 -40v-17q0 -40 -40 -40h-91v-198h86q40 0 40 -40v-17q0 -40 -40 -40h-86v-211h93q40 0 40 -40v-17q0 -40 -40 -40h-160q-40 0 -40 40z" />
    <glyph glyph-name="edotaccent" unicode="&#x117;" horiz-adv-x="336" 
d="M164 693h8q40 0 40 -40v-28q0 -40 -40 -40h-8q-40 0 -40 40v28q0 40 40 40zM310 149v-33q0 -122 -122 -122h-39q-122 0 -122 122v317q0 122 122 122h39q122 0 122 -122v-158q0 -40 -40 -40h-143v-114q0 -37 36 -37h13q37 0 37 37v30q0 28 28 28h39q30 0 30 -30zM163 466
q-36 0 -36 -37v-108h84v108q0 37 -37 37h-11z" />
    <glyph glyph-name="Eogonek" unicode="&#x118;" horiz-adv-x="297" 
d="M255 -107h-25q-26 0 -40.5 13.5t-14.5 36.5q0 22 20 51l4 6h-127q-40 0 -40 40v620q0 40 40 40h158q40 0 40 -40v-17q0 -40 -40 -40h-91v-198h86q40 0 40 -40v-17q0 -40 -40 -40h-86v-211h93q40 0 40 -40v-17q0 -16 -9 -33l-11 -22q-8 -15 -8 -24q0 -11 14 -11h5
q24 0 24 -22v-9q0 -12 -9 -19t-23 -7z" />
    <glyph glyph-name="eogonek" unicode="&#x119;" horiz-adv-x="336" 
d="M267 -107h-25q-26 0 -40.5 13.5t-14.5 36.5q0 19 20 52q-6 -1 -19 -1h-39q-122 0 -122 122v317q0 122 122 122h39q122 0 122 -122v-158q0 -40 -40 -40h-143v-114q0 -37 36 -37h13q37 0 37 37v30q0 28 28 28h39q30 0 30 -30v-33q0 -41 -16 -72l-31 -61q-7 -13 -7 -22
q0 -11 14 -11h5q24 0 24 -22v-9q0 -12 -9 -19t-23 -7zM163 466q-36 0 -36 -37v-108h84v108q0 37 -37 37h-11z" />
    <glyph glyph-name="Ecaron" unicode="&#x11a;" horiz-adv-x="297" 
d="M167 736h-30q-23 0 -36 18l-39 56q-9 14 -4 23.5t21 9.5h10q14 0 26 -12l37 -39l37 39q12 12 26 12h10q16 0 21 -9.5t-4 -23.5l-39 -56q-13 -18 -36 -18zM32 40v620q0 40 40 40h158q40 0 40 -40v-17q0 -40 -40 -40h-91v-198h86q40 0 40 -40v-17q0 -40 -40 -40h-86v-211
h93q40 0 40 -40v-17q0 -40 -40 -40h-160q-40 0 -40 40z" />
    <glyph glyph-name="ecaron" unicode="&#x11b;" horiz-adv-x="336" 
d="M180 587h-24q-27 0 -39 21l-38 64q-8 14 -2.5 24t20.5 10h14q13 0 24 -14l33 -47l33 47q11 14 24 14h14q15 0 20.5 -10t-2.5 -24l-38 -64q-12 -21 -39 -21zM310 149v-33q0 -122 -122 -122h-39q-122 0 -122 122v317q0 122 122 122h39q122 0 122 -122v-158q0 -40 -40 -40
h-143v-114q0 -37 36 -37h13q37 0 37 37v30q0 28 28 28h39q30 0 30 -30zM163 466q-36 0 -36 -37v-108h84v108q0 37 -37 37h-11z" />
    <glyph glyph-name="Gbreve" unicode="&#x11e;" horiz-adv-x="376" 
d="M201 738h-24q-42 0 -65 21t-23 57v2q0 16 16 16h34q7 0 12 -5q3 -3 4 -11.5t5 -12.5q7 -7 23 -7h12q16 0 23 7q4 4 5 12.5t4 11.5q5 5 12 5h34q16 0 16 -16v-2q0 -36 -23 -57t-65 -21zM243 129v161h-26q-31 0 -31 30v29q0 33 34 33h87q40 0 40 -39v-219q0 -130 -130 -130
h-57q-130 0 -130 130v452q0 130 130 130h56q129 0 129 -129v-79q0 -35 -35 -35h-35q-35 0 -35 35v73q0 41 -40 41h-22q-41 0 -41 -41v-442q0 -41 41 -41h24q41 0 41 41z" />
    <glyph glyph-name="gbreve" unicode="&#x11f;" horiz-adv-x="348" 
d="M82 672v6q0 10 6.5 16.5t16.5 6.5h22q9 0 15 -6.5t6 -15.5v-6q0 -30 29 -30h6q29 0 29 30v6q0 9 6 15.5t15 6.5h22q10 0 16.5 -6.5t6.5 -16.5v-6q0 -85 -83 -85h-30q-83 0 -83 85zM217 169v271q-25 23 -53 23q-36 0 -36 -34v-249q0 -34 36 -34q26 0 53 23zM29 -11v7
q0 31 34 31h23q35 0 35 -29v-2q0 -30 31 -30h35q31 0 31 33v101q-45 -43 -96 -43q-46 0 -70.5 27t-24.5 75v294q0 48 24.5 75t70.5 27q53 0 96 -43v2q0 35 35 35h31q34 0 34 -35v-511q0 -117 -118 -117h-65q-106 0 -106 103z" />
    <glyph glyph-name="Gdotaccent" unicode="&#x120;" horiz-adv-x="376" 
d="M182 824h14q38 0 38 -38v-12q0 -38 -38 -38h-14q-38 0 -38 38v12q0 38 38 38zM243 129v161h-26q-31 0 -31 30v29q0 33 34 33h87q40 0 40 -39v-219q0 -130 -130 -130h-57q-130 0 -130 130v452q0 130 130 130h56q129 0 129 -129v-79q0 -35 -35 -35h-35q-35 0 -35 35v73
q0 41 -40 41h-22q-41 0 -41 -41v-442q0 -41 41 -41h24q41 0 41 41z" />
    <glyph glyph-name="gdotaccent" unicode="&#x121;" horiz-adv-x="348" 
d="M176 693h8q40 0 40 -40v-28q0 -40 -40 -40h-8q-40 0 -40 40v28q0 40 40 40zM217 169v271q-25 23 -53 23q-36 0 -36 -34v-249q0 -34 36 -34q26 0 53 23zM29 -11v7q0 31 34 31h23q35 0 35 -29v-2q0 -30 31 -30h35q31 0 31 33v101q-45 -43 -96 -43q-46 0 -70.5 27t-24.5 75
v294q0 48 24.5 75t70.5 27q53 0 96 -43v2q0 35 35 35h31q34 0 34 -35v-511q0 -117 -118 -117h-65q-106 0 -106 103z" />
    <glyph glyph-name="Gcommaaccent" unicode="&#x122;" horiz-adv-x="376" 
d="M243 129v161h-26q-31 0 -31 30v29q0 33 34 33h87q40 0 40 -39v-219q0 -130 -130 -130h-57q-130 0 -130 130v452q0 130 130 130h56q129 0 129 -129v-79q0 -35 -35 -35h-35q-35 0 -35 35v73q0 41 -40 41h-22q-41 0 -41 -41v-442q0 -41 41 -41h24q41 0 41 41zM186 -209
q-10 -12 -22 -4l-5 3q-10 7 -2 20l5 9q15 28 17 43h-5q-25 0 -25 25v40q0 32 31 32h19q31 0 31 -32v-28q0 -33 -6.5 -51t-27.5 -45z" />
    <glyph glyph-name="gcommaaccent" unicode="&#x123;" horiz-adv-x="348" 
d="M189 590h-19q-31 0 -31 32v28q0 33 6.5 51t27.5 45l10 12q10 12 22 4l5 -3q10 -7 2 -20l-5 -9q-14 -23 -18 -43h6q25 0 25 -25v-40q0 -32 -31 -32zM217 169v271q-25 23 -53 23q-36 0 -36 -34v-249q0 -34 36 -34q26 0 53 23zM29 -11v7q0 31 34 31h23q35 0 35 -29v-2
q0 -30 31 -30h35q31 0 31 33v101q-45 -43 -96 -43q-46 0 -70.5 27t-24.5 75v294q0 48 24.5 75t70.5 27q53 0 96 -43v2q0 35 35 35h31q34 0 34 -35v-511q0 -117 -118 -117h-65q-106 0 -106 103z" />
    <glyph glyph-name="Hbar" unicode="&#x126;" horiz-adv-x="406" 
d="M151 405h103v115h-103v-115zM151 40q0 -40 -40 -40h-27q-40 0 -40 40v478h-1q-41 -1 -41 39v3q0 41 42 40v60q0 40 40 40h27q40 0 40 -40v-64l103 1v63q0 40 40 40h27q40 0 40 -40v-60h5q40 1 40 -38v-4q0 -41 -42 -40h-3v-478q0 -40 -40 -40h-27q-40 0 -40 40v268h-103
v-268z" />
    <glyph glyph-name="hbar" unicode="&#x127;" horiz-adv-x="359" 
d="M142 40q0 -40 -40 -40h-21q-40 0 -40 40v545h-5q-33 0 -33 32v2q0 32 33 32h5v19q0 40 40 40h21q40 0 40 -40v-19h55q32 0 32 -32v-2q0 -32 -32 -32h-55v-75q47 45 98 45q90 0 90 -94v-426q0 -35 -34 -35h-32q-35 0 -35 35v396q0 32 -33 32q-25 0 -54 -23v-400z" />
    <glyph glyph-name="Imacron" unicode="&#x12a;" horiz-adv-x="173" 
d="M-24 779v2q0 32 32 32h158q32 0 32 -32v-2q0 -31 -32 -31h-158q-32 0 -32 31zM73 700h27q40 0 40 -40v-620q0 -40 -40 -40h-27q-40 0 -40 40v620q0 40 40 40z" />
    <glyph glyph-name="imacron" unicode="&#x12b;" horiz-adv-x="164" 
d="M-29 633v2q0 37 37 37h148q37 0 37 -37v-2q0 -36 -37 -36h-148q-37 0 -37 36zM92 0h-21q-40 0 -40 40v469q0 40 40 40h21q40 0 40 -40v-469q0 -40 -40 -40z" />
    <glyph glyph-name="Ibreve" unicode="&#x12c;" horiz-adv-x="173" 
d="M99 738h-24q-42 0 -65 21t-23 57v2q0 16 16 16h34q7 0 12 -5q3 -3 4 -11.5t5 -12.5q7 -7 23 -7h12q16 0 23 7q4 4 5 12.5t4 11.5q5 5 12 5h34q16 0 16 -16v-2q0 -36 -23 -57t-65 -21zM73 700h27q40 0 40 -40v-620q0 -40 -40 -40h-27q-40 0 -40 40v620q0 40 40 40z" />
    <glyph glyph-name="ibreve" unicode="&#x12d;" horiz-adv-x="164" 
d="M-16 672v6q0 10 6.5 16.5t16.5 6.5h22q9 0 15 -6.5t6 -15.5v-6q0 -30 29 -30h6q29 0 29 30v6q0 9 6 15.5t15 6.5h22q10 0 16.5 -6.5t6.5 -16.5v-6q0 -85 -83 -85h-30q-83 0 -83 85zM92 0h-21q-40 0 -40 40v469q0 40 40 40h21q40 0 40 -40v-469q0 -40 -40 -40z" />
    <glyph glyph-name="Iogonek" unicode="&#x12e;" horiz-adv-x="173" 
d="M116 -107h-25q-26 0 -40.5 13.5t-14.5 36.5q0 20 23 56l1 2q-27 4 -27 39v620q0 40 40 40h27q40 0 40 -40v-620q0 -28 -17 -36l-11 -21q-7 -13 -7 -22q0 -11 14 -11h5q24 0 24 -22v-9q0 -12 -9 -19t-23 -7z" />
    <glyph glyph-name="iogonek" unicode="&#x12f;" horiz-adv-x="164" 
d="M94 595h-25q-40 0 -40 40v19q0 40 40 40h25q40 0 40 -40v-19q0 -40 -40 -40zM110 -107h-25q-26 0 -40.5 13.5t-14.5 36.5t23 56l2 3q-24 6 -24 38v469q0 40 40 40h21q40 0 40 -40v-469q0 -17 -6 -26l-13 -20q-14 -21 -14 -33q0 -11 14 -11h5q24 0 24 -22v-9q0 -12 -9 -19
t-23 -7z" />
    <glyph glyph-name="Idotaccent" unicode="&#x130;" horiz-adv-x="173" 
d="M80 824h14q38 0 38 -38v-12q0 -38 -38 -38h-14q-38 0 -38 38v12q0 38 38 38zM73 700h27q40 0 40 -40v-620q0 -40 -40 -40h-27q-40 0 -40 40v620q0 40 40 40z" />
    <glyph glyph-name="dotlessi" unicode="&#x131;" horiz-adv-x="164" 
d="M92 0h-21q-40 0 -40 40v469q0 40 40 40h21q40 0 40 -40v-469q0 -40 -40 -40z" />
    <glyph glyph-name="Kcommaaccent" unicode="&#x136;" horiz-adv-x="357" 
d="M303 0h-30q-29 0 -39 28l-95 313v-301q0 -40 -40 -40h-27q-40 0 -40 40v620q0 40 40 40h27q40 0 40 -40v-297l102 310q9 27 38 27h27q57 0 37 -53l-101 -290l99 -305q17 -52 -38 -52zM176 -209q-10 -12 -22 -4l-5 3q-10 7 -2 20l5 9q14 23 18 43h-6q-25 0 -25 25v40
q0 32 31 32h19q31 0 31 -32v-28q0 -33 -6.5 -51t-27.5 -45z" />
    <glyph glyph-name="kcommaaccent" unicode="&#x137;" horiz-adv-x="331" 
d="M269 0h-23q-28 0 -38 28l-78 243v-231q0 -40 -40 -40h-21q-40 0 -40 40v630q0 40 40 40h21q40 0 40 -40v-386l84 238q8 27 37 27h20q58 0 38 -54l-81 -214l79 -228q18 -53 -38 -53zM164 -209q-10 -12 -22 -4l-5 3q-10 7 -2 20l5 9q15 25 17 43h-5q-25 0 -25 25v40
q0 32 31 32h19q31 0 31 -32v-28q0 -33 -6.5 -51t-27.5 -45z" />
    <glyph glyph-name="Lacute" unicode="&#x139;" horiz-adv-x="266" 
d="M86 736h-14q-14 0 -19.5 9t0.5 23l19 40q12 27 38 27h25q19 0 24.5 -13.5t-7.5 -29.5l-30 -37q-16 -19 -36 -19zM32 40v620q0 40 40 40h27q40 0 40 -40v-563h78q40 0 40 -40v-17q0 -40 -40 -40h-145q-40 0 -40 40z" />
    <glyph glyph-name="lacute" unicode="&#x13a;" horiz-adv-x="164" 
d="M91 735h-12q-14 0 -21 9t-3 23l20 60q9 27 39 27h21q21 0 28 -13t-4 -31l-31 -51q-15 -24 -37 -24zM92 0h-21q-40 0 -40 40v630q0 40 40 40h21q40 0 40 -40v-630q0 -40 -40 -40z" />
    <glyph glyph-name="Lcommaaccent" unicode="&#x13b;" horiz-adv-x="266" 
d="M32 40v620q0 40 40 40h27q40 0 40 -40v-563h78q40 0 40 -40v-17q0 -40 -40 -40h-145q-40 0 -40 40zM131 -209q-10 -12 -22 -4l-5 3q-10 7 -2 20l5 9q14 23 18 43h-6q-25 0 -25 25v40q0 32 31 32h19q31 0 31 -32v-28q0 -33 -6.5 -51t-27.5 -45z" />
    <glyph glyph-name="lcommaaccent" unicode="&#x13c;" horiz-adv-x="164" 
d="M92 0h-21q-40 0 -40 40v630q0 40 40 40h21q40 0 40 -40v-630q0 -40 -40 -40zM79 -209q-10 -12 -22 -4l-5 3q-10 7 -2 20l5 9q15 25 17 43h-5q-25 0 -25 25v40q0 32 31 32h19q31 0 31 -32v-28q0 -33 -6.5 -51t-27.5 -45z" />
    <glyph glyph-name="Lcaron" unicode="&#x13d;" horiz-adv-x="266" 
d="M32 40v620q0 40 40 40h27q40 0 40 -40v-563h78q40 0 40 -40v-17q0 -40 -40 -40h-145q-40 0 -40 40zM194 568h-7q-20 0 -20 20v81q0 31 31 31h2q39 0 30 -38l-17 -80q-4 -14 -19 -14z" />
    <glyph glyph-name="lcaron" unicode="&#x13e;" horiz-adv-x="164" 
d="M92 0h-21q-40 0 -40 40v630q0 40 40 40h21q40 0 40 -40v-630q0 -40 -40 -40zM186 578h-7q-20 0 -20 20v81q0 31 31 31h2q39 0 30 -38l-17 -80q-4 -14 -19 -14z" />
    <glyph glyph-name="Ldot" unicode="&#x13f;" horiz-adv-x="266" 
d="M32 40v620q0 40 40 40h27q40 0 40 -40v-563h78q40 0 40 -40v-17q0 -40 -40 -40h-145q-40 0 -40 40zM207 406h2q35 0 35 -35v-39q0 -35 -35 -35h-2q-35 0 -35 35v39q0 35 35 35z" />
    <glyph glyph-name="ldot" unicode="&#x140;" horiz-adv-x="218" 
d="M92 0h-21q-40 0 -40 40v630q0 40 40 40h21q40 0 40 -40v-630q0 -40 -40 -40zM190 410h2q32 0 32 -32v-45q0 -32 -32 -32h-2q-32 0 -32 32v45q0 32 32 32z" />
    <glyph glyph-name="Lslash" unicode="&#x141;" horiz-adv-x="276" 
d="M227 0h-145q-40 0 -40 40v249l-12 -6q-14 -7 -24 -1.5t-10 19.5v28q0 20 18 30l28 15v286q0 40 40 40h27q40 0 40 -40v-230l33 17q14 7 24 1.5t10 -19.5v-28q0 -20 -18 -30l-49 -26v-248h78q40 0 40 -40v-17q0 -40 -40 -40z" />
    <glyph glyph-name="lslash" unicode="&#x142;" horiz-adv-x="180" 
d="M100 0h-21q-40 0 -40 40v244l-2 -2q-13 -9 -23.5 -4t-10.5 19v25q0 18 18 30l18 12v306q0 40 40 40h21q40 0 40 -40v-239l4 2q14 9 24 4t10 -19v-25q0 -18 -18 -30l-20 -13v-310q0 -40 -40 -40z" />
    <glyph glyph-name="Nacute" unicode="&#x143;" horiz-adv-x="384" 
d="M204 736h-14q-14 0 -19.5 9t0.5 23l19 40q12 27 38 27h25q19 0 24.5 -13.5t-7.5 -29.5l-30 -37q-16 -19 -36 -19zM127 472l1 -124v-308q0 -40 -40 -40h-16q-40 0 -40 40v620q0 40 40 40h53q32 0 39 -31l93 -401l-1 117v275q0 40 40 40h16q40 0 40 -40v-620q0 -40 -40 -40
h-44q-32 0 -39 31z" />
    <glyph glyph-name="nacute" unicode="&#x144;" horiz-adv-x="347" 
d="M183 585h-12q-14 0 -21 9t-3 23l20 60q9 27 39 27h21q21 0 28 -13t-4 -31l-31 -51q-15 -24 -37 -24zM129 514v-5q46 46 99 46q90 0 90 -94v-426q0 -35 -34 -35h-32q-35 0 -35 35v396q0 32 -33 32q-25 0 -54 -23v-405q0 -35 -34 -35h-32q-35 0 -35 35v479q0 35 35 35h31
q34 0 34 -35z" />
    <glyph glyph-name="Ncommaaccent" unicode="&#x145;" horiz-adv-x="384" 
d="M127 472l1 -124v-308q0 -40 -40 -40h-16q-40 0 -40 40v620q0 40 40 40h53q32 0 39 -31l93 -401l-1 117v275q0 40 40 40h16q40 0 40 -40v-620q0 -40 -40 -40h-44q-32 0 -39 31zM186 -209q-10 -12 -22 -4l-5 3q-10 7 -2 20l5 9q16 28 18 43h-6q-25 0 -25 25v40q0 32 31 32
h19q31 0 31 -32v-28q0 -33 -6.5 -51t-27.5 -45z" />
    <glyph glyph-name="ncommaaccent" unicode="&#x146;" horiz-adv-x="347" 
d="M129 514v-5q46 46 99 46q90 0 90 -94v-426q0 -35 -34 -35h-32q-35 0 -35 35v396q0 32 -33 32q-25 0 -54 -23v-405q0 -35 -34 -35h-32q-35 0 -35 35v479q0 35 35 35h31q34 0 34 -35zM171 -209q-10 -12 -22 -4l-5 3q-10 7 -2 20l5 9q15 25 17 43h-5q-25 0 -25 25v40
q0 32 31 32h19q31 0 31 -32v-28q0 -33 -6.5 -51t-27.5 -45z" />
    <glyph glyph-name="Ncaron" unicode="&#x147;" horiz-adv-x="384" 
d="M209 736h-30q-23 0 -36 18l-39 56q-9 14 -4 23.5t21 9.5h10q14 0 26 -12l37 -39l37 39q12 12 26 12h10q16 0 21 -9.5t-4 -23.5l-39 -56q-13 -18 -36 -18zM127 472l1 -124v-308q0 -40 -40 -40h-16q-40 0 -40 40v620q0 40 40 40h53q32 0 39 -31l93 -401l-1 117v275
q0 40 40 40h16q40 0 40 -40v-620q0 -40 -40 -40h-44q-32 0 -39 31z" />
    <glyph glyph-name="ncaron" unicode="&#x148;" horiz-adv-x="347" 
d="M186 587h-24q-27 0 -39 21l-38 64q-8 14 -2.5 24t20.5 10h14q13 0 24 -14l33 -47l33 47q11 14 24 14h14q15 0 20.5 -10t-2.5 -24l-38 -64q-12 -21 -39 -21zM129 514v-5q46 46 99 46q90 0 90 -94v-426q0 -35 -34 -35h-32q-35 0 -35 35v396q0 32 -33 32q-25 0 -54 -23v-405
q0 -35 -34 -35h-32q-35 0 -35 35v479q0 35 35 35h31q34 0 34 -35z" />
    <glyph glyph-name="Omacron" unicode="&#x14c;" horiz-adv-x="377" 
d="M78 779v2q0 32 32 32h158q32 0 32 -32v-2q0 -31 -32 -31h-158q-32 0 -32 31zM347 576v-452q0 -130 -130 -130h-57q-130 0 -130 130v452q0 130 130 130h57q130 0 130 -130zM240 129v442q0 41 -40 41h-22q-41 0 -41 -41v-442q0 -41 41 -41h22q40 0 40 41z" />
    <glyph glyph-name="omacron" unicode="&#x14d;" horiz-adv-x="344" 
d="M61 633v2q0 37 37 37h148q37 0 37 -37v-2q0 -36 -37 -36h-148q-37 0 -37 36zM317 116q0 -122 -122 -122h-47q-122 0 -122 122v317q0 122 122 122h47q122 0 122 -122v-317zM216 427q0 37 -37 37h-16q-36 0 -36 -37v-305q0 -37 36 -37h16q37 0 37 37v305z" />
    <glyph glyph-name="Obreve" unicode="&#x14e;" horiz-adv-x="377" 
d="M201 738h-24q-42 0 -65 21t-23 57v2q0 16 16 16h34q7 0 12 -5q3 -3 4 -11.5t5 -12.5q7 -7 23 -7h12q16 0 23 7q4 4 5 12.5t4 11.5q5 5 12 5h34q16 0 16 -16v-2q0 -36 -23 -57t-65 -21zM347 576v-452q0 -130 -130 -130h-57q-130 0 -130 130v452q0 130 130 130h57
q130 0 130 -130zM240 129v442q0 41 -40 41h-22q-41 0 -41 -41v-442q0 -41 41 -41h22q40 0 40 41z" />
    <glyph glyph-name="obreve" unicode="&#x14f;" horiz-adv-x="344" 
d="M74 672v6q0 10 6.5 16.5t16.5 6.5h22q9 0 15 -6.5t6 -15.5v-6q0 -30 29 -30h6q29 0 29 30v6q0 9 6 15.5t15 6.5h22q10 0 16.5 -6.5t6.5 -16.5v-6q0 -85 -83 -85h-30q-83 0 -83 85zM317 116q0 -122 -122 -122h-47q-122 0 -122 122v317q0 122 122 122h47q122 0 122 -122
v-317zM216 427q0 37 -37 37h-16q-36 0 -36 -37v-305q0 -37 36 -37h16q37 0 37 37v305z" />
    <glyph glyph-name="Ohungarumlaut" unicode="&#x150;" horiz-adv-x="377" 
d="M244 736h-8q-11 0 -16 8t-1 19l20 48q10 24 34 24h15q18 0 23.5 -12.5t-4.5 -25.5l-30 -40q-16 -21 -33 -21zM152 736h-8q-11 0 -16 8t-1 19l20 48q10 24 34 24h15q18 0 23.5 -12.5t-4.5 -25.5l-30 -40q-16 -21 -33 -21zM347 576v-452q0 -130 -130 -130h-57
q-130 0 -130 130v452q0 130 130 130h57q130 0 130 -130zM240 129v442q0 41 -40 41h-22q-41 0 -41 -41v-442q0 -41 41 -41h22q40 0 40 41z" />
    <glyph glyph-name="ohungarumlaut" unicode="&#x151;" horiz-adv-x="344" 
d="M137 585h-5q-32 0 -23 30l20 65q7 24 33 24h13q22 0 27.5 -13t-5.5 -30l-35 -60q-10 -16 -25 -16zM227 585h-5q-32 0 -23 30l20 65q7 24 33 24h13q22 0 27.5 -13t-5.5 -30l-35 -60q-10 -16 -25 -16zM317 116q0 -122 -122 -122h-47q-122 0 -122 122v317q0 122 122 122h47
q122 0 122 -122v-317zM216 427q0 37 -37 37h-16q-36 0 -36 -37v-305q0 -37 36 -37h16q37 0 37 37v305z" />
    <glyph glyph-name="OE" unicode="&#x152;" horiz-adv-x="502" 
d="M30 547q0 153 153 153h252q40 0 40 -40v-17q0 -40 -40 -40h-91v-198h86q40 0 40 -40v-17q0 -40 -40 -40h-86v-211h93q40 0 40 -40v-17q0 -40 -40 -40h-254q-153 0 -153 153v394zM198 94h39v512h-39q-61 0 -61 -62v-388q0 -62 61 -62z" />
    <glyph glyph-name="oe" unicode="&#x153;" horiz-adv-x="526" 
d="M353 466q-36 0 -36 -37v-108h84v108q0 37 -37 37h-11zM217 428q0 35 -36 35h-18q-35 0 -35 -35v-307q0 -35 35 -35h18q35 0 36 33v309zM348 -6q-54 0 -81 32q-25 -32 -80 -32h-38q-122 0 -122 122v317q0 122 122 122h38q55 0 80 -33q26 33 81 33h30q122 0 122 -122v-158
q0 -40 -40 -40h-143v-114q0 -37 36 -37h13q37 0 37 37v30q0 28 28 28h39q30 0 30 -30v-33q0 -122 -122 -122h-30z" />
    <glyph glyph-name="Racute" unicode="&#x154;" horiz-adv-x="369" 
d="M191 736h-14q-14 0 -19.5 9t0.5 23l19 40q12 27 38 27h25q19 0 24.5 -13.5t-7.5 -29.5l-30 -37q-16 -19 -36 -19zM231 417v148q0 40 -40 40h-52v-231h48q44 0 44 43zM338 438q0 -83 -61 -108q33 -9 47.5 -30.5t14.5 -61.5v-198q0 -40 -40 -40h-27q-40 0 -40 40v196
q0 45 -45 45h-48v-241q0 -40 -40 -40h-27q-40 0 -40 40v620q0 40 40 40h136q130 0 130 -130v-132z" />
    <glyph glyph-name="racute" unicode="&#x155;" horiz-adv-x="225" 
d="M127 585h-12q-14 0 -21 9t-3 23l20 60q9 27 39 27h21q21 0 28 -13t-4 -31l-31 -51q-15 -24 -37 -24zM129 514v-33q35 71 67 71q29 0 29 -36v-26q0 -36 -43 -53q-30 -13 -52 -30v-372q0 -35 -34 -35h-32q-35 0 -35 35v479q0 35 35 35h31q34 0 34 -35z" />
    <glyph glyph-name="Rcommaaccent" unicode="&#x156;" horiz-adv-x="369" 
d="M231 417v148q0 40 -40 40h-52v-231h48q44 0 44 43zM338 438q0 -83 -61 -108q33 -9 47.5 -30.5t14.5 -61.5v-198q0 -40 -40 -40h-27q-40 0 -40 40v196q0 45 -45 45h-48v-241q0 -40 -40 -40h-27q-40 0 -40 40v620q0 40 40 40h136q130 0 130 -130v-132zM178 -209
q-10 -12 -22 -4l-5 3q-10 7 -2 20l5 9q16 28 18 43h-6q-25 0 -25 25v40q0 32 31 32h19q31 0 31 -32v-28q0 -33 -6.5 -51t-27.5 -45z" />
    <glyph glyph-name="rcommaaccent" unicode="&#x157;" horiz-adv-x="225" 
d="M129 514v-33q35 71 67 71q29 0 29 -36v-26q0 -36 -43 -53q-30 -13 -52 -30v-372q0 -35 -34 -35h-32q-35 0 -35 35v479q0 35 35 35h31q34 0 34 -35zM76 -209q-10 -12 -22 -4l-5 3q-10 7 -2 20l5 9q16 28 18 43h-6q-25 0 -25 25v40q0 32 31 32h19q31 0 31 -32v-28
q0 -33 -6.5 -51t-27.5 -45z" />
    <glyph glyph-name="Rcaron" unicode="&#x158;" horiz-adv-x="369" 
d="M196 736h-30q-23 0 -36 18l-39 56q-9 14 -4 23.5t21 9.5h10q14 0 26 -12l37 -39l37 39q12 12 26 12h10q16 0 21 -9.5t-4 -23.5l-39 -56q-13 -18 -36 -18zM231 417v148q0 40 -40 40h-52v-231h48q44 0 44 43zM338 438q0 -83 -61 -108q33 -9 47.5 -30.5t14.5 -61.5v-198
q0 -40 -40 -40h-27q-40 0 -40 40v196q0 45 -45 45h-48v-241q0 -40 -40 -40h-27q-40 0 -40 40v620q0 40 40 40h136q130 0 130 -130v-132z" />
    <glyph glyph-name="rcaron" unicode="&#x159;" horiz-adv-x="225" 
d="M130 587h-24q-27 0 -39 21l-38 64q-8 14 -2.5 24t20.5 10h14q13 0 24 -14l33 -47l33 47q11 14 24 14h14q15 0 20.5 -10t-2.5 -24l-38 -64q-12 -21 -39 -21zM129 514v-33q35 71 67 71q29 0 29 -36v-26q0 -36 -43 -53q-30 -13 -52 -30v-372q0 -35 -34 -35h-32q-35 0 -35 35
v479q0 35 35 35h31q34 0 34 -35z" />
    <glyph glyph-name="Sacute" unicode="&#x15a;" horiz-adv-x="361" 
d="M192 736h-14q-14 0 -19.5 9t0.5 23l19 40q12 27 38 27h25q19 0 24.5 -13.5t-7.5 -29.5l-30 -37q-16 -19 -36 -19zM165 438l108 -79q35 -25 48.5 -51.5t13.5 -69.5v-114q0 -130 -130 -130h-47q-129 0 -129 129v108q0 40 40 40h24q40 0 40 -40v-104q0 -40 41 -40h14
q41 0 41 40v96q0 35 -30 57l-108 79q-35 25 -48.5 52t-13.5 69v96q0 130 130 130h45q129 0 129 -129v-87q0 -40 -40 -40h-25q-40 0 -40 40v83q0 40 -40 40h-13q-40 0 -40 -40v-78q0 -36 30 -57z" />
    <glyph glyph-name="sacute" unicode="&#x15b;" horiz-adv-x="330" 
d="M174 585h-12q-14 0 -21 9t-3 23l20 60q9 27 39 27h21q21 0 28 -13t-4 -31l-31 -51q-15 -24 -37 -24zM265 355h-22q-37 0 -37 37v39q0 36 -35 36h-12q-35 0 -35 -36v-43q0 -27 24 -42l95 -60q34 -21 48 -43.5t14 -60.5v-66q0 -122 -122 -122h-36q-121 0 -121 121v44
q0 40 40 40h19q39 0 39 -40v-41q0 -36 35 -36h13q36 0 36 36v47q0 26 -24 42l-96 59q-33 21 -47 43.5t-14 60.5v63q0 122 122 122h34q121 0 121 -121v-41q0 -38 -39 -38z" />
    <glyph glyph-name="Scedilla" unicode="&#x15e;" horiz-adv-x="361" 
d="M167 -104h-19q-17 0 -23 11t2 27l27 60q-125 1 -125 129v108q0 40 40 40h24q40 0 40 -40v-104q0 -40 41 -40h14q41 0 41 40v96q0 35 -30 57l-108 79q-35 25 -48.5 52t-13.5 69v96q0 130 130 130h45q129 0 129 -129v-87q0 -40 -40 -40h-25q-40 0 -40 40v83q0 40 -40 40
h-13q-40 0 -40 -40v-78q0 -36 30 -57l108 -79q35 -25 48.5 -51.5t13.5 -69.5v-114q0 -124 -120 -130l-14 -70q-6 -28 -34 -28z" />
    <glyph glyph-name="scedilla" unicode="&#x15f;" horiz-adv-x="330" 
d="M148 -104h-19q-17 0 -23 11t2 27l27 60q-109 6 -109 121v44q0 40 40 40h19q39 0 39 -40v-41q0 -36 35 -36h13q36 0 36 36v47q0 26 -24 42l-96 59q-33 21 -47 43.5t-14 60.5v63q0 122 122 122h34q121 0 121 -121v-41q0 -38 -39 -38h-22q-37 0 -37 37v39q0 36 -35 36h-12
q-35 0 -35 -36v-43q0 -27 24 -42l95 -60q34 -21 48 -43.5t14 -60.5v-66q0 -114 -109 -122l-14 -70q-6 -28 -34 -28z" />
    <glyph glyph-name="Scaron" unicode="&#x160;" horiz-adv-x="361" 
d="M197 736h-30q-23 0 -36 18l-39 56q-9 14 -4 23.5t21 9.5h10q14 0 26 -12l37 -39l37 39q12 12 26 12h10q16 0 21 -9.5t-4 -23.5l-39 -56q-13 -18 -36 -18zM165 438l108 -79q35 -25 48.5 -51.5t13.5 -69.5v-114q0 -130 -130 -130h-47q-129 0 -129 129v108q0 40 40 40h24
q40 0 40 -40v-104q0 -40 41 -40h14q41 0 41 40v96q0 35 -30 57l-108 79q-35 25 -48.5 52t-13.5 69v96q0 130 130 130h45q129 0 129 -129v-87q0 -40 -40 -40h-25q-40 0 -40 40v83q0 40 -40 40h-13q-40 0 -40 -40v-78q0 -36 30 -57z" />
    <glyph glyph-name="scaron" unicode="&#x161;" horiz-adv-x="330" 
d="M177 587h-24q-27 0 -39 21l-38 64q-8 14 -2.5 24t20.5 10h14q13 0 24 -14l33 -47l33 47q11 14 24 14h14q15 0 20.5 -10t-2.5 -24l-38 -64q-12 -21 -39 -21zM265 355h-22q-37 0 -37 37v39q0 36 -35 36h-12q-35 0 -35 -36v-43q0 -27 24 -42l95 -60q34 -21 48 -43.5
t14 -60.5v-66q0 -122 -122 -122h-36q-121 0 -121 121v44q0 40 40 40h19q39 0 39 -40v-41q0 -36 35 -36h13q36 0 36 36v47q0 26 -24 42l-96 59q-33 21 -47 43.5t-14 60.5v63q0 122 122 122h34q121 0 121 -121v-41q0 -38 -39 -38z" />
    <glyph glyph-name="Tcommaaccent" unicode="&#x162;" horiz-adv-x="319" 
d="M213 603v-563q0 -40 -40 -40h-27q-40 0 -40 40v563h-56q-40 0 -40 40v17q0 40 40 40h219q40 0 40 -40v-17q0 -40 -40 -40h-56zM157 -209q-10 -12 -22 -4l-5 3q-10 7 -2 20l5 9q15 28 17 43h-5q-25 0 -25 25v40q0 32 31 32h19q31 0 31 -32v-28q0 -33 -6.5 -51t-27.5 -45z
" />
    <glyph glyph-name="tcommaaccent" unicode="&#x163;" horiz-adv-x="213" 
d="M153 35q0 -35 -35 -35h-31q-35 0 -35 35v426h-9q-33 0 -33 33v22q0 33 33 33h9v56q0 35 35 35h31q35 0 35 -35v-56h24q33 0 33 -33v-22q0 -33 -33 -33h-24v-426zM102 -209q-10 -12 -22 -4l-5 3q-10 7 -2 20l5 9q15 25 17 43h-5q-25 0 -25 25v40q0 32 31 32h19
q31 0 31 -32v-28q0 -33 -6.5 -51t-27.5 -45z" />
    <glyph glyph-name="Tcaron" unicode="&#x164;" horiz-adv-x="319" 
d="M175 736h-30q-23 0 -36 18l-39 56q-9 14 -4 23.5t21 9.5h10q14 0 26 -12l37 -39l37 39q12 12 26 12h10q16 0 21 -9.5t-4 -23.5l-39 -56q-13 -18 -36 -18zM213 603v-563q0 -40 -40 -40h-27q-40 0 -40 40v563h-56q-40 0 -40 40v17q0 40 40 40h219q40 0 40 -40v-17
q0 -40 -40 -40h-56z" />
    <glyph glyph-name="tcaron" unicode="&#x165;" horiz-adv-x="213" 
d="M204 578h-7q-20 0 -20 20v81q0 31 31 31h2q39 0 30 -38l-17 -80q-4 -14 -19 -14zM153 35q0 -35 -35 -35h-31q-35 0 -35 35v426h-9q-33 0 -33 33v22q0 33 33 33h9v56q0 35 35 35h31q35 0 35 -35v-56h24q33 0 33 -33v-22q0 -33 -33 -33h-24v-426z" />
    <glyph glyph-name="Umacron" unicode="&#x16a;" horiz-adv-x="374" 
d="M76 779v2q0 32 32 32h158q32 0 32 -32v-2q0 -31 -32 -31h-158q-32 0 -32 31zM276 700h27q40 0 40 -40v-536q0 -130 -130 -130h-52q-130 0 -130 130v536q0 40 40 40h27q40 0 40 -40v-531q0 -41 41 -41h17q40 0 40 41v531q0 40 40 40z" />
    <glyph glyph-name="umacron" unicode="&#x16b;" horiz-adv-x="347" 
d="M62 633v2q0 37 37 37h148q37 0 37 -37v-2q0 -36 -37 -36h-148q-37 0 -37 36zM218 33v3q-44 -42 -98 -42q-91 0 -91 94v421q0 40 40 40h21q40 0 40 -40v-391q0 -32 34 -32q25 0 53 17v406q0 40 40 40h21q40 0 40 -40v-469q0 -40 -40 -40h-26q-34 0 -34 33z" />
    <glyph glyph-name="Ubreve" unicode="&#x16c;" horiz-adv-x="374" 
d="M199 735h-24q-42 0 -65 21t-23 57v2q0 16 16 16h34q7 0 12 -5q3 -3 4 -11.5t5 -12.5q7 -7 23 -7h12q16 0 23 7q4 4 5 12.5t4 11.5q5 5 12 5h34q16 0 16 -16v-2q0 -36 -23 -57t-65 -21zM276 700h27q40 0 40 -40v-536q0 -130 -130 -130h-52q-130 0 -130 130v536q0 40 40 40
h27q40 0 40 -40v-531q0 -41 41 -41h17q40 0 40 41v531q0 40 40 40z" />
    <glyph glyph-name="ubreve" unicode="&#x16d;" horiz-adv-x="347" 
d="M75 672v6q0 10 6.5 16.5t16.5 6.5h22q9 0 15 -6.5t6 -15.5v-6q0 -30 29 -30h6q29 0 29 30v6q0 9 6 15.5t15 6.5h22q10 0 16.5 -6.5t6.5 -16.5v-6q0 -85 -83 -85h-30q-83 0 -83 85zM218 33v3q-44 -42 -98 -42q-91 0 -91 94v421q0 40 40 40h21q40 0 40 -40v-391
q0 -32 34 -32q25 0 53 17v406q0 40 40 40h21q40 0 40 -40v-469q0 -40 -40 -40h-26q-34 0 -34 33z" />
    <glyph glyph-name="Uring" unicode="&#x16e;" horiz-adv-x="374" 
d="M223 738h-72q-65 0 -65 55q0 56 65 56h72q65 0 65 -53v-5q0 -53 -65 -53zM221 826h-68q-41 0 -41 -33t41 -33h68q41 0 41 31v4q0 31 -41 31zM276 700h27q40 0 40 -40v-536q0 -130 -130 -130h-52q-130 0 -130 130v536q0 40 40 40h27q40 0 40 -40v-531q0 -41 41 -41h17
q40 0 40 41v531q0 40 40 40z" />
    <glyph glyph-name="uring" unicode="&#x16f;" horiz-adv-x="347" 
d="M194 702q65 0 65 -55v-6q0 -54 -65 -54h-42q-65 0 -65 57q0 58 65 58h42zM192 609q42 0 42 32v6q0 33 -42 33h-38q-42 0 -42 -36q0 -35 43 -35h37zM218 33v3q-44 -42 -98 -42q-91 0 -91 94v421q0 40 40 40h21q40 0 40 -40v-391q0 -32 34 -32q25 0 53 17v406q0 40 40 40
h21q40 0 40 -40v-469q0 -40 -40 -40h-26q-34 0 -34 33z" />
    <glyph glyph-name="Uhungarumlaut" unicode="&#x170;" horiz-adv-x="374" 
d="M242 736h-8q-11 0 -16 8t-1 19l20 48q10 24 34 24h15q18 0 23.5 -12.5t-4.5 -25.5l-30 -40q-16 -21 -33 -21zM150 736h-8q-11 0 -16 8t-1 19l20 48q10 24 34 24h15q18 0 23.5 -12.5t-4.5 -25.5l-30 -40q-16 -21 -33 -21zM276 700h27q40 0 40 -40v-536q0 -130 -130 -130
h-52q-130 0 -130 130v536q0 40 40 40h27q40 0 40 -40v-531q0 -41 41 -41h17q40 0 40 41v531q0 40 40 40z" />
    <glyph glyph-name="uhungarumlaut" unicode="&#x171;" horiz-adv-x="347" 
d="M138 585h-5q-32 0 -23 30l20 65q7 24 33 24h13q22 0 27.5 -13t-5.5 -30l-35 -60q-10 -16 -25 -16zM228 585h-5q-32 0 -23 30l20 65q7 24 33 24h13q22 0 27.5 -13t-5.5 -30l-35 -60q-10 -16 -25 -16zM218 33v3q-44 -42 -98 -42q-91 0 -91 94v421q0 40 40 40h21
q40 0 40 -40v-391q0 -32 34 -32q25 0 53 17v406q0 40 40 40h21q40 0 40 -40v-469q0 -40 -40 -40h-26q-34 0 -34 33z" />
    <glyph glyph-name="Uogonek" unicode="&#x172;" horiz-adv-x="374" 
d="M214 -107h-25q-26 0 -40.5 13.5t-14.5 36.5q0 20 20 51q-123 3 -123 130v536q0 40 40 40h27q40 0 40 -40v-531q0 -41 41 -41h17q40 0 40 41v531q0 40 40 40h27q40 0 40 -40v-536q0 -130 -127 -130l-6 -11q-7 -13 -7 -22q0 -11 14 -11h5q24 0 24 -22v-9q0 -12 -9 -19
t-23 -7z" />
    <glyph glyph-name="uogonek" unicode="&#x173;" horiz-adv-x="347" 
d="M300 -107h-25q-26 0 -40.5 13.5t-14.5 36.5q0 20 18 48l6 9q-27 3 -27 33v3q-43 -42 -98 -42q-91 0 -91 94v421q0 40 40 40h21q40 0 40 -40v-391q0 -32 34 -32q25 0 53 17v406q0 40 40 40h21q40 0 40 -40v-469q0 -16 -9 -33l-13 -26q-6 -12 -6 -20q0 -11 14 -11h5
q24 0 24 -22v-9q0 -12 -9 -19t-23 -7z" />
    <glyph glyph-name="Wcircumflex" unicode="&#x174;" horiz-adv-x="542" 
d="M260 843h30q23 0 36 -18l39 -56q9 -14 4 -23.5t-21 -9.5h-10q-14 0 -26 12l-37 39l-37 -39q-12 -12 -26 -12h-10q-16 0 -21 9.5t4 23.5l39 56q13 18 36 18zM188 0h-55q-36 0 -40 35l-75 620q-6 45 39 45h27q36 0 40 -36l46 -463l50 463q4 36 40 36h31q36 0 40 -36
l50 -461l47 461q3 36 39 36h17q44 0 40 -45l-76 -620q-4 -35 -39 -35h-55q-36 0 -40 35l-44 384l-42 -383q-4 -36 -40 -36z" />
    <glyph glyph-name="wcircumflex" unicode="&#x175;" horiz-adv-x="474" 
d="M229 706h24q27 0 39 -21l38 -64q8 -13 2.5 -23.5t-20.5 -10.5h-14q-13 0 -24 14l-33 47l-33 -47q-11 -14 -24 -14h-14q-15 0 -20.5 10.5t2.5 23.5l38 64q12 21 39 21zM157 0h-33q-34 0 -40 34l-70 469q-7 46 40 46h17q36 0 40 -36l35 -322l43 323q3 19 12 27t28 8h21
q19 0 28 -8t12 -27l43 -322l36 321q4 36 40 36h11q46 0 39 -46l-70 -469q-4 -34 -39 -34h-34q-19 0 -28 8t-12 27l-39 288l-40 -289q-6 -34 -40 -34z" />
    <glyph glyph-name="Ycircumflex" unicode="&#x176;" horiz-adv-x="325" 
d="M150 844h30q23 0 36 -18l39 -56q9 -14 4 -23.5t-21 -9.5h-10q-14 0 -26 12l-37 39l-37 -39q-12 -12 -26 -12h-10q-16 0 -21 9.5t4 23.5l39 56q13 18 36 18zM217 247v-207q0 -40 -40 -40h-27q-40 0 -40 40v199l-103 411q-12 50 39 50h26q33 0 40 -32l54 -265l56 265
q7 32 39 32h20q52 0 38 -50z" />
    <glyph glyph-name="ycircumflex" unicode="&#x177;" horiz-adv-x="314" 
d="M146 706h24q27 0 39 -21l38 -64q8 -13 2.5 -23.5t-20.5 -10.5h-14q-13 0 -24 14l-33 47l-33 -47q-11 -14 -24 -14h-14q-15 0 -20.5 10.5t2.5 23.5l38 64q12 21 39 21zM302 501l-121 -579q-7 -32 -39 -32h-15q-49 0 -39 49l19 82l-95 480q-10 48 39 48h18q35 0 39 -34
l48 -298l53 299q5 33 40 33h14q49 0 39 -48z" />
    <glyph glyph-name="Ydieresis" unicode="&#x178;" horiz-adv-x="325" 
d="M100 828h5q40 0 40 -40v-12q0 -40 -40 -40h-5q-40 0 -40 40v12q0 40 40 40zM230 736h-5q-40 0 -40 40v12q0 40 40 40h5q40 0 40 -40v-12q0 -40 -40 -40zM217 247v-207q0 -40 -40 -40h-27q-40 0 -40 40v199l-103 411q-12 50 39 50h26q33 0 40 -32l54 -265l56 265
q7 32 39 32h20q52 0 38 -50z" />
    <glyph glyph-name="Zacute" unicode="&#x179;" horiz-adv-x="298" 
d="M161 736h-14q-14 0 -19.5 9t0.5 23l19 40q12 27 38 27h25q19 0 24.5 -13.5t-7.5 -29.5l-30 -37q-16 -19 -36 -19zM50 0q-35 0 -35 36v40q0 27 9 54l156 474h-123q-35 0 -35 34v28q0 34 35 34h193q35 0 35 -36v-40q0 -22 -9 -54l-157 -474h129q34 0 34 -33v-29
q0 -34 -34 -34h-198z" />
    <glyph glyph-name="zacute" unicode="&#x17a;" horiz-adv-x="277" 
d="M153 585h-12q-14 0 -21 9t-3 23l20 60q9 27 39 27h21q21 0 28 -13t-4 -31l-31 -51q-15 -24 -37 -24zM22 114l139 347h-110q-33 0 -33 33v22q0 33 33 33h180q34 0 34 -36v-26q0 -26 -10 -52l-140 -347h116q33 0 33 -33v-22q0 -33 -33 -33h-185q-34 0 -34 36v26q0 26 10 52
z" />
    <glyph glyph-name="Zdotaccent" unicode="&#x17b;" horiz-adv-x="298" 
d="M144 824h14q38 0 38 -38v-12q0 -38 -38 -38h-14q-38 0 -38 38v12q0 38 38 38zM50 0q-35 0 -35 36v40q0 27 9 54l156 474h-123q-35 0 -35 34v28q0 34 35 34h193q35 0 35 -36v-40q0 -22 -9 -54l-157 -474h129q34 0 34 -33v-29q0 -34 -34 -34h-198z" />
    <glyph glyph-name="zdotaccent" unicode="&#x17c;" horiz-adv-x="277" 
d="M140 693h8q40 0 40 -40v-28q0 -40 -40 -40h-8q-40 0 -40 40v28q0 40 40 40zM22 114l139 347h-110q-33 0 -33 33v22q0 33 33 33h180q34 0 34 -36v-26q0 -26 -10 -52l-140 -347h116q33 0 33 -33v-22q0 -33 -33 -33h-185q-34 0 -34 36v26q0 26 10 52z" />
    <glyph glyph-name="Zcaron" unicode="&#x17d;" horiz-adv-x="298" 
d="M166 736h-30q-23 0 -36 18l-39 56q-9 14 -4 23.5t21 9.5h10q14 0 26 -12l37 -39l37 39q12 12 26 12h10q16 0 21 -9.5t-4 -23.5l-39 -56q-13 -18 -36 -18zM50 0q-35 0 -35 36v40q0 27 9 54l156 474h-123q-35 0 -35 34v28q0 34 35 34h193q35 0 35 -36v-40q0 -22 -9 -54
l-157 -474h129q34 0 34 -33v-29q0 -34 -34 -34h-198z" />
    <glyph glyph-name="zcaron" unicode="&#x17e;" horiz-adv-x="277" 
d="M156 587h-24q-27 0 -39 21l-38 64q-8 14 -2.5 24t20.5 10h14q13 0 24 -14l33 -47l33 47q11 14 24 14h14q15 0 20.5 -10t-2.5 -24l-38 -64q-12 -21 -39 -21zM22 114l139 347h-110q-33 0 -33 33v22q0 33 33 33h180q34 0 34 -36v-26q0 -26 -10 -52l-140 -347h116
q33 0 33 -33v-22q0 -33 -33 -33h-185q-34 0 -34 36v26q0 26 10 52z" />
    <glyph glyph-name="Aringacute" unicode="&#x1fa;" horiz-adv-x="365" 
d="M193 785h-14q-14 0 -19.5 9.5t0.5 22.5l19 40q12 27 38 27h25q19 0 24.5 -13.5t-7.5 -29.5l-30 -37q-16 -19 -36 -19zM215 742h-68q-41 0 -41 -33t41 -33h68q41 0 41 31v4q0 31 -41 31zM136 205h88l-44 354zM115 35q-4 -35 -39 -35h-18q-46 0 -39 46l87 616
q-26 12 -26 47q0 56 65 56h72q65 0 65 -53v-5q0 -31 -23 -43l89 -618q7 -46 -39 -46h-24q-36 0 -40 35l-9 75h-111z" />
    <glyph glyph-name="aringacute" unicode="&#x1fb;" horiz-adv-x="333" 
d="M179 726h-12q-14 0 -21 9t-3 23l20 60q9 27 39 27h21q21 0 28 -13t-4 -31l-31 -51q-15 -24 -37 -24zM188 702q65 0 65 -55v-6q0 -54 -65 -54h-42q-65 0 -65 57q0 58 65 58h42zM186 609q42 0 42 32v6q0 33 -42 33h-38q-42 0 -42 -36q0 -35 43 -35h37zM206 106v153l-55 -20
q-17 -8 -23 -17t-6 -28v-78q0 -31 32 -31q23 0 52 21zM24 87v111q0 48 17 72.5t60 38.5l105 36v85q0 37 -40 37q-41 0 -41 -37v-36q0 -33 -32 -33h-32q-31 0 -31 32v40q0 122 123 122h29q124 0 124 -122v-398q0 -35 -35 -35h-30q-35 0 -35 35v4q-45 -45 -95 -45
q-87 0 -87 93z" />
    <glyph glyph-name="AEacute" unicode="&#x1fc;" horiz-adv-x="470" 
d="M274 736h-14q-14 0 -19.5 9t0.5 23l19 40q12 27 38 27h25q19 0 24.5 -13.5t-7.5 -29.5l-30 -37q-16 -19 -36 -19zM137 205h68v404zM405 0h-160q-40 0 -40 40v70h-83l-13 -77q-5 -33 -40 -33h-17q-48 0 -39 47l116 620q5 33 39 33h235q40 0 40 -40v-17q0 -40 -40 -40h-91
v-198h86q40 0 40 -40v-17q0 -40 -40 -40h-86v-211h93q40 0 40 -40v-17q0 -40 -40 -40z" />
    <glyph glyph-name="aeacute" unicode="&#x1fd;" horiz-adv-x="523" 
d="M276 585h-12q-14 0 -21 9t-3 23l20 60q9 27 39 27h21q21 0 28 -13t-4 -31l-31 -51q-15 -24 -37 -24zM336 -6q-76 0 -105 47q-38 -26 -60.5 -36.5t-50.5 -10.5q-88 0 -88 93v115q0 48 17 72t60 39l105 36v81q0 37 -40 37q-41 0 -41 -37v-35q0 -33 -33 -33h-27q-19 0 -27 8
t-8 27v36q0 122 122 122h23q53 0 81 -33q26 33 81 33h30q122 0 122 -122v-158q0 -40 -40 -40h-143v-114q0 -37 36 -37h13q37 0 37 37v32q0 30 30 30h35q32 0 32 -32v-35q0 -122 -122 -122h-39zM350 466q-36 0 -36 -37v-108h84v108q0 37 -37 37h-11zM130 116q0 -31 32 -31
q26 0 52 16v162l-55 -21q-16 -7 -22.5 -16.5t-6.5 -28.5v-81z" />
    <glyph glyph-name="Oslashacute" unicode="&#x1fe;" horiz-adv-x="377" 
d="M199 736h-14q-14 0 -19.5 9t0.5 23l19 40q12 27 38 27h25q19 0 24.5 -13.5t-7.5 -29.5l-30 -37q-16 -19 -36 -19zM347 576v-452q0 -130 -130 -130h-57q-130 0 -130 130v452q0 130 130 130h57q130 0 130 -130zM137 571l-1 -122l-1 -211l100 359q-11 15 -35 15h-22
q-41 0 -41 -41zM143 103q9 -15 35 -15h21q42 0 42 41l1 115l1 218z" />
    <glyph glyph-name="oslashacute" unicode="&#x1ff;" horiz-adv-x="344" 
d="M181 585h-12q-14 0 -21 9t-3 23l20 60q9 27 39 27h21q21 0 28 -13t-4 -31l-31 -51q-15 -24 -37 -24zM318 116q0 -122 -122 -122h-47q-122 0 -122 122v317q0 122 122 122h47q122 0 122 -122v-317zM127 427v-33l-1 -208l83 268q-9 10 -29 10h-16q-37 0 -37 -37zM136 95
q10 -10 28 -10h16q37 0 37 37v42l1 199z" />
    <glyph glyph-name="Scommaaccent" unicode="&#x218;" horiz-adv-x="361" 
d="M165 438l108 -79q35 -25 48.5 -51.5t13.5 -69.5v-114q0 -130 -130 -130h-47q-129 0 -129 129v108q0 40 40 40h24q40 0 40 -40v-104q0 -40 41 -40h14q41 0 41 40v96q0 35 -30 57l-108 79q-35 25 -48.5 52t-13.5 69v96q0 130 130 130h45q129 0 129 -129v-87q0 -40 -40 -40
h-25q-40 0 -40 40v83q0 40 -40 40h-13q-40 0 -40 -40v-78q0 -36 30 -57zM179 -209q-10 -12 -22 -4l-5 3q-10 7 -2 20l5 9q15 25 17 43h-5q-25 0 -25 25v40q0 32 31 32h19q31 0 31 -32v-28q0 -33 -6.5 -51t-27.5 -45z" />
    <glyph glyph-name="scommaaccent" unicode="&#x219;" horiz-adv-x="330" 
d="M265 355h-22q-37 0 -37 37v39q0 36 -35 36h-12q-35 0 -35 -36v-43q0 -27 24 -42l95 -60q34 -21 48 -43.5t14 -60.5v-66q0 -122 -122 -122h-36q-121 0 -121 121v44q0 40 40 40h19q39 0 39 -40v-41q0 -36 35 -36h13q36 0 36 36v47q0 26 -24 42l-96 59q-33 21 -47 43.5
t-14 60.5v63q0 122 122 122h34q121 0 121 -121v-41q0 -38 -39 -38zM162 -209q-10 -12 -22 -4l-5 3q-10 7 -2 20l5 9q15 25 17 43h-5q-25 0 -25 25v40q0 32 31 32h19q31 0 31 -32v-28q0 -33 -6.5 -51t-27.5 -45z" />
    <glyph glyph-name="schwa" unicode="&#x259;" horiz-adv-x="336" 
d="M26 400v33q0 122 122 122h39q122 0 122 -122v-317q0 -122 -122 -122h-39q-122 0 -122 122v158q0 40 40 40h143v114q0 37 -36 37h-13q-37 0 -37 -37v-30q0 -28 -28 -28h-39q-30 0 -30 30zM173 83q36 0 36 37v108h-84v-108q0 -37 37 -37h11z" />
    <glyph glyph-name="circumflex" unicode="&#x2c6;" 
d="M238 706h24q27 0 39 -21l38 -64q8 -13 2.5 -23.5t-20.5 -10.5h-14q-13 0 -24 14l-33 47l-33 -47q-11 -14 -24 -14h-14q-15 0 -20.5 10.5t2.5 23.5l38 64q12 21 39 21z" />
    <glyph glyph-name="caron" unicode="&#x2c7;" 
d="M262 587h-24q-27 0 -39 21l-38 64q-8 14 -2.5 24t20.5 10h14q13 0 24 -14l33 -47l33 47q11 14 24 14h14q15 0 20.5 -10t-2.5 -24l-38 -64q-12 -21 -39 -21z" />
    <glyph glyph-name="breve" unicode="&#x2d8;" 
d="M152 672v6q0 10 6.5 16.5t16.5 6.5h22q9 0 15 -6.5t6 -15.5v-6q0 -30 29 -30h6q29 0 29 30v6q0 9 6 15.5t15 6.5h22q10 0 16.5 -6.5t6.5 -16.5v-6q0 -85 -83 -85h-30q-83 0 -83 85z" />
    <glyph glyph-name="dotaccent" unicode="&#x2d9;" 
d="M246 693h8q40 0 40 -40v-28q0 -40 -40 -40h-8q-40 0 -40 40v28q0 40 40 40z" />
    <glyph glyph-name="ring" unicode="&#x2da;" 
d="M271 702q65 0 65 -55v-6q0 -54 -65 -54h-42q-65 0 -65 57q0 58 65 58h42zM269 609q42 0 42 32v6q0 33 -42 33h-38q-42 0 -42 -36q0 -35 43 -35h37z" />
    <glyph glyph-name="ogonek" unicode="&#x2db;" 
d="M243 -1l11 17q7 12 20 12h24q9 0 12 -5.5t-2 -15.5l-12 -24q-7 -13 -7 -22q0 -11 14 -11h5q24 0 24 -22v-9q0 -12 -9 -19t-23 -7h-25q-26 0 -40.5 13.5t-14.5 36.5q0 20 23 56z" />
    <glyph glyph-name="tilde" unicode="&#x2dc;" 
d="M138 610v38q0 24 12.5 38t34.5 14h10q23 0 48 -17l31 -22q15 -10 21 -10q10 0 10 13v13q0 23 24 23h12q23 0 23 -23v-37q0 -25 -12.5 -38.5t-34.5 -13.5h-10q-25 0 -46 16l-34 24q-12 9 -19 9q-11 0 -11 -13v-14q0 -22 -24 -22h-12q-23 0 -23 22z" />
    <glyph glyph-name="hungarumlaut" unicode="&#x2dd;" 
d="M190 585h-5q-32 0 -23 30l20 65q7 24 33 24h13q22 0 27.5 -13t-5.5 -30l-35 -60q-10 -16 -25 -16zM280 585h-5q-32 0 -23 30l20 65q7 24 33 24h13q22 0 27.5 -13t-5.5 -30l-35 -60q-10 -16 -25 -16z" />
    <glyph glyph-name="commaaccent" unicode="&#x326;" 
d="M248 -209q-10 -12 -22 -4l-5 3q-10 7 -2 20l5 9q14 23 18 43h-6q-25 0 -25 25v40q0 32 31 32h19q31 0 31 -32v-28q0 -33 -6.5 -51t-27.5 -45z" />
    <glyph glyph-name="Wgrave" unicode="&#x1e80;" horiz-adv-x="542" 
d="M265 736q-20 0 -36 19l-30 37q-13 16 -7.5 29.5t24.5 13.5h25q26 0 38 -27l19 -40q6 -14 0.5 -23t-19.5 -9h-14zM188 0h-55q-36 0 -40 35l-75 620q-6 45 39 45h27q36 0 40 -36l46 -463l50 463q4 36 40 36h31q36 0 40 -36l50 -461l47 461q3 36 39 36h17q44 0 40 -45
l-76 -620q-4 -35 -39 -35h-55q-36 0 -40 35l-44 384l-42 -383q-4 -36 -40 -36z" />
    <glyph glyph-name="wgrave" unicode="&#x1e81;" horiz-adv-x="474" 
d="M232 585q-22 0 -37 24l-31 51q-11 18 -4 31t28 13h21q30 0 39 -27l20 -60q4 -14 -3 -23t-21 -9h-12zM157 0h-33q-34 0 -40 34l-70 469q-7 46 40 46h17q36 0 40 -36l35 -322l43 323q3 19 12 27t28 8h21q19 0 28 -8t12 -27l43 -322l36 321q4 36 40 36h11q46 0 39 -46
l-70 -469q-4 -34 -39 -34h-34q-19 0 -28 8t-12 27l-39 288l-40 -289q-6 -34 -40 -34z" />
    <glyph glyph-name="Wacute" unicode="&#x1e82;" horiz-adv-x="542" 
d="M285 736h-14q-14 0 -19.5 9t0.5 23l19 40q12 27 38 27h25q19 0 24.5 -13.5t-7.5 -29.5l-30 -37q-16 -19 -36 -19zM188 0h-55q-36 0 -40 35l-75 620q-6 45 39 45h27q36 0 40 -36l46 -463l50 463q4 36 40 36h31q36 0 40 -36l50 -461l47 461q3 36 39 36h17q44 0 40 -45
l-76 -620q-4 -35 -39 -35h-55q-36 0 -40 35l-44 384l-42 -383q-4 -36 -40 -36z" />
    <glyph glyph-name="wacute" unicode="&#x1e83;" horiz-adv-x="474" 
d="M250 585h-12q-14 0 -21 9t-3 23l20 60q9 27 39 27h21q21 0 28 -13t-4 -31l-31 -51q-15 -24 -37 -24zM157 0h-33q-34 0 -40 34l-70 469q-7 46 40 46h17q36 0 40 -36l35 -322l43 323q3 19 12 27t28 8h21q19 0 28 -8t12 -27l43 -322l36 321q4 36 40 36h11q46 0 39 -46
l-70 -469q-4 -34 -39 -34h-34q-19 0 -28 8t-12 27l-39 288l-40 -289q-6 -34 -40 -34z" />
    <glyph glyph-name="Wdieresis" unicode="&#x1e84;" horiz-adv-x="542" 
d="M210 828h5q40 0 40 -40v-12q0 -40 -40 -40h-5q-40 0 -40 40v12q0 40 40 40zM340 736h-5q-40 0 -40 40v12q0 40 40 40h5q40 0 40 -40v-12q0 -40 -40 -40zM188 0h-55q-36 0 -40 35l-75 620q-6 45 39 45h27q36 0 40 -36l46 -463l50 463q4 36 40 36h31q36 0 40 -36l50 -461
l47 461q3 36 39 36h17q44 0 40 -45l-76 -620q-4 -35 -39 -35h-55q-36 0 -40 35l-44 384l-42 -383q-4 -36 -40 -36z" />
    <glyph glyph-name="wdieresis" unicode="&#x1e85;" horiz-adv-x="474" 
d="M178 697h3q40 0 40 -40v-32q0 -40 -40 -40h-3q-40 0 -40 40v32q0 40 40 40zM304 585h-3q-40 0 -40 40v32q0 40 40 40h3q40 0 40 -40v-32q0 -40 -40 -40zM157 0h-33q-34 0 -40 34l-70 469q-7 46 40 46h17q36 0 40 -36l35 -322l43 323q3 19 12 27t28 8h21q19 0 28 -8
t12 -27l43 -322l36 321q4 36 40 36h11q46 0 39 -46l-70 -469q-4 -34 -39 -34h-34q-19 0 -28 8t-12 27l-39 288l-40 -289q-6 -34 -40 -34z" />
    <glyph glyph-name="Ygrave" unicode="&#x1ef2;" horiz-adv-x="325" 
d="M155 736q-20 0 -36 19l-30 37q-13 16 -7.5 29.5t24.5 13.5h25q26 0 38 -27l19 -40q6 -14 0.5 -23t-19.5 -9h-14zM217 247v-207q0 -40 -40 -40h-27q-40 0 -40 40v199l-103 411q-12 50 39 50h26q33 0 40 -32l54 -265l56 265q7 32 39 32h20q52 0 38 -50z" />
    <glyph glyph-name="ygrave" unicode="&#x1ef3;" horiz-adv-x="314" 
d="M149 585q-22 0 -37 24l-31 51q-11 18 -4 31t28 13h21q30 0 39 -27l20 -60q4 -14 -3 -23t-21 -9h-12zM302 501l-121 -579q-7 -32 -39 -32h-15q-49 0 -39 49l19 82l-95 480q-10 48 39 48h18q35 0 39 -34l48 -298l53 299q5 33 40 33h14q49 0 39 -48z" />
    <glyph glyph-name="enspace" unicode="&#x2002;" 
 />
    <glyph glyph-name="emspace" unicode="&#x2003;" horiz-adv-x="1000" 
 />
    <glyph glyph-name="threeperemspace" unicode="&#x2004;" horiz-adv-x="333" 
 />
    <glyph glyph-name="fourperemspace" unicode="&#x2005;" horiz-adv-x="250" 
 />
    <glyph glyph-name="thinspace" unicode="&#x2009;" horiz-adv-x="133" 
 />
    <glyph glyph-name="hairspace" unicode="&#x200a;" horiz-adv-x="75" 
 />
    <glyph glyph-name="endash" unicode="&#x2013;" horiz-adv-x="373" 
d="M13 284v2q0 37 38 37h271q38 0 38 -37v-2q0 -20 -9 -29t-29 -9h-271q-20 0 -29 9t-9 29z" />
    <glyph glyph-name="emdash" unicode="&#x2014;" horiz-adv-x="563" 
d="M13 284v2q0 37 38 37h461q38 0 38 -37v-2q0 -20 -9 -29t-29 -9h-461q-20 0 -29 9t-9 29z" />
    <glyph glyph-name="quoteleft" unicode="&#x2018;" horiz-adv-x="150" 
d="M85 456h-19q-42 0 -42 40v51q0 41 8 65.5t29 57.5l12 20q11 19 28 12l8 -3q17 -7 8 -25l-5 -11q-23 -51 -24 -74h8q13 0 21 -8.5t8 -20.5v-64q0 -40 -40 -40z" />
    <glyph glyph-name="quoteright" unicode="&#x2019;" horiz-adv-x="150" 
d="M77 466q-11 -19 -28 -12l-8 3q-17 7 -8 25l5 11q22 48 24 74h-8q-13 0 -21 8.5t-8 20.5v64q0 40 40 40h19q42 0 42 -40v-51q0 -41 -8 -65.5t-29 -57.5z" />
    <glyph glyph-name="quotesinglbase" unicode="&#x201a;" horiz-adv-x="150" 
d="M77 -101q-11 -19 -28 -12l-8 3q-17 7 -8 25l5 11q22 48 24 74h-8q-13 0 -21 8.5t-8 20.5v64q0 40 40 40h19q42 0 42 -40v-51q0 -41 -8 -65.5t-29 -57.5z" />
    <glyph glyph-name="quotedblleft" unicode="&#x201c;" horiz-adv-x="286" 
d="M221 456h-19q-40 0 -40 40v51q0 41 8 65.5t29 57.5l12 20q11 18 26 12l8 -3q17 -7 8 -25l-5 -11q-23 -51 -24 -74h8q13 0 21 -8.5t8 -20.5v-64q0 -40 -40 -40zM83 456h-19q-40 0 -40 40v51q0 41 8 65.5t29 57.5l12 20q11 18 26 12l8 -3q17 -7 8 -25l-5 -11
q-23 -51 -24 -74h8q13 0 21 -8.5t8 -20.5v-64q0 -40 -40 -40z" />
    <glyph glyph-name="quotedblright" unicode="&#x201d;" horiz-adv-x="286" 
d="M75 466q-11 -18 -26 -12l-8 3q-17 7 -8 25l5 11q22 48 24 74h-8q-13 0 -21 8.5t-8 20.5v64q0 40 40 40h19q40 0 40 -40v-51q0 -41 -8 -65.5t-29 -57.5zM213 466q-11 -18 -26 -12l-8 3q-17 7 -8 25l5 11q22 48 24 74h-8q-13 0 -21 8.5t-8 20.5v64q0 40 40 40h19
q40 0 40 -40v-51q0 -41 -8 -65.5t-29 -57.5z" />
    <glyph glyph-name="quotedblbase" unicode="&#x201e;" horiz-adv-x="286" 
d="M75 -101q-11 -18 -26 -12l-8 3q-17 7 -8 25l5 11q22 48 24 74h-8q-13 0 -21 8.5t-8 20.5v64q0 40 40 40h19q40 0 40 -40v-51q0 -41 -8 -65.5t-29 -57.5zM213 -101q-11 -18 -26 -12l-8 3q-17 7 -8 25l5 11q22 48 24 74h-8q-13 0 -21 8.5t-8 20.5v64q0 40 40 40h19
q40 0 40 -40v-51q0 -41 -8 -65.5t-29 -57.5z" />
    <glyph glyph-name="dagger" unicode="&#x2020;" horiz-adv-x="236" 
d="M226 591v-2q0 -30 -30 -29l-49 2l2 -184q0 -30 -30 -30h-2q-30 0 -30 30l2 184l-49 -2q-30 -1 -30 29v2q0 30 30 29l49 -2l-1 54q-1 30 29 30h2q30 0 29 -30l-1 -54l49 2q30 1 30 -29z" />
    <glyph glyph-name="daggerdbl" unicode="&#x2021;" horiz-adv-x="236" 
d="M226 316v-2q0 -30 -30 -29l-49 2l1 -54q1 -30 -29 -30h-2q-30 0 -29 30l1 54l-49 -2q-30 -1 -30 29v2q0 30 30 29l49 -2l-1 109l1 110l-49 -2q-30 -1 -30 29v2q0 30 30 29l49 -2l-1 54q-1 30 29 30h2q30 0 29 -30l-1 -54l49 2q30 1 30 -29v-2q0 -30 -30 -29l-49 2l1 -110
l-1 -109l49 2q30 1 30 -29z" />
    <glyph glyph-name="bullet" unicode="&#x2022;" horiz-adv-x="238" 
d="M134 451q62 0 62 -56v-86q0 -56 -62 -56h-30q-62 0 -62 56v86q0 56 62 56h30z" />
    <glyph glyph-name="ellipsis" unicode="&#x2026;" horiz-adv-x="452" 
d="M366 133h21q40 0 40 -40v-53q0 -40 -40 -40h-21q-40 0 -40 40v53q0 40 40 40zM216 133h21q40 0 40 -40v-53q0 -40 -40 -40h-21q-40 0 -40 40v53q0 40 40 40zM65 133h21q40 0 40 -40v-53q0 -40 -40 -40h-21q-40 0 -40 40v53q0 40 40 40z" />
    <glyph glyph-name="guilsinglleft" unicode="&#x2039;" horiz-adv-x="175" 
d="M71 146l-59 121q-8 17 0 35l57 120q11 22 35 22h2q59 0 37 -54l-42 -105l42 -106q22 -54 -36 -54h-2q-24 0 -34 21z" />
    <glyph glyph-name="guilsinglright" unicode="&#x203a;" horiz-adv-x="175" 
d="M163 267l-59 -121q-10 -21 -34 -21h-2q-58 0 -36 54l42 106l-42 105q-22 54 37 54h2q24 0 35 -22l57 -120q8 -18 0 -35z" />
    <glyph glyph-name="Euro" unicode="&#x20ac;" horiz-adv-x="376" 
d="M46 334h7v41h-7q-30 0 -30 30v2q0 30 30 30h7v139q0 130 130 130h41q129 0 129 -129v-52q0 -40 -40 -40h-23q-40 0 -40 40v46q0 41 -39 41h-13q-39 0 -39 -41v-134h115q30 0 30 -30v-2q0 -30 -30 -30h-115v-41h115q30 0 30 -30v-2q0 -30 -30 -30h-115v-143q0 -41 39 -41
h15q39 0 39 41v53q0 40 40 40h23q40 0 40 -40v-58q0 -130 -130 -130h-42q-130 0 -130 130v148h-7q-30 0 -30 30v2q0 30 30 30z" />
    <glyph glyph-name="published" unicode="&#x2117;" horiz-adv-x="493" 
d="M303 706q81 0 118.5 -38.5t37.5 -125.5v-384q0 -87 -37.5 -125.5t-118.5 -38.5h-113q-81 0 -118.5 38.5t-37.5 125.5v384q0 87 37.5 125.5t118.5 38.5h113zM303 18q67 0 98.5 33t31.5 107v384q0 74 -31.5 107t-98.5 33h-113q-67 0 -98.5 -33t-31.5 -107v-384
q0 -74 31.5 -107t98.5 -33h113zM267 272h-44v-139q0 -39 -39 -39h-2q-39 0 -39 39v434q0 40 40 40h84q95 0 95 -91v-153q0 -91 -95 -91zM282 374v131q0 27 -28 27h-31v-184h31q28 0 28 26z" />
    <glyph glyph-name="servicemark" unicode="&#x2120;" horiz-adv-x="470" 
d="M320 395h-2q-24 0 -28 23l-30 195v-195q0 -23 -22 -23h-2q-23 0 -23 23v245q0 37 38 37h5q33 0 39 -34l28 -187l26 187q6 34 39 34h5q37 0 37 -37v-243q0 -25 -25 -25h-2q-25 0 -25 25v192l-31 -194q-4 -23 -27 -23zM60 509h3q25 0 25 -25v-27q0 -18 22 -18q23 0 23 18
v31q0 15 -14 25l-54 36q-31 22 -31 53v42q0 59 63 59h26q62 0 62 -59v-26q0 -25 -24 -25h-6q-22 0 -22 22v23q0 18 -22 18q-23 0 -23 -18v-23q0 -15 15 -25l54 -36q29 -20 29 -53v-50q0 -59 -62 -59h-27q-63 0 -63 59v32q0 26 26 26z" />
    <glyph glyph-name="trademark" unicode="&#x2122;" horiz-adv-x="452" 
d="M125 650v-228q0 -27 -27 -27h-2q-27 0 -27 27v228h-25q-24 0 -24 24v2q0 24 24 24h106q24 0 24 -24v-2q0 -24 -23 -24h-26zM302 395h-2q-24 0 -28 24l-30 194v-196q0 -22 -22 -22h-2q-22 0 -22 22v246q0 37 37 37h5q33 0 39 -34l28 -187l27 187q6 34 39 34h5q37 0 37 -37
v-242q0 -26 -25 -26h-2q-26 0 -26 26v191l-30 -193q-4 -24 -28 -24z" />
    <glyph glyph-name="minus" unicode="&#x2212;" horiz-adv-x="314" 
d="M10 355v2q0 40 40 40h214q40 0 40 -40v-2q0 -40 -40 -40h-214q-40 0 -40 40z" />
    <glyph glyph-name="f_f" unicode="&#xfb00;" horiz-adv-x="434" 
d="M367 35q0 -35 -35 -35h-31q-35 0 -35 35v426h-4q-33 0 -33 33v22q0 33 33 33h4v52q0 109 105 109h27q36 0 36 -33v-21q0 -33 -33 -33h-8q-26 0 -26 -28v-46h30q34 0 34 -33v-22q0 -33 -34 -33h-30v-426zM150 35q0 -35 -35 -35h-31q-35 0 -35 35v426h-4q-33 0 -33 33v22
q0 33 33 33h4v52q0 109 105 109h27q36 0 36 -33v-21q0 -33 -33 -33h-8q-26 0 -26 -28v-46h30q34 0 34 -33v-22q0 -33 -34 -33h-30v-426z" />
    <glyph glyph-name="fi" unicode="&#xfb01;" horiz-adv-x="381" 
d="M311 595h-25q-40 0 -40 40v19q0 40 40 40h25q40 0 40 -40v-19q0 -40 -40 -40zM309 0h-21q-40 0 -40 40v469q0 40 40 40h21q40 0 40 -40v-469q0 -40 -40 -40zM150 35q0 -35 -35 -35h-31q-35 0 -35 35v426h-4q-33 0 -33 33v22q0 33 33 33h4v52q0 109 105 109h27
q36 0 36 -33v-21q0 -33 -33 -33h-8q-26 0 -26 -28v-46h30q34 0 34 -33v-22q0 -33 -34 -33h-30v-426z" />
    <glyph glyph-name="fl" unicode="&#xfb02;" horiz-adv-x="381" 
d="M309 0h-21q-40 0 -40 40v630q0 40 40 40h21q40 0 40 -40v-630q0 -40 -40 -40zM150 35q0 -35 -35 -35h-31q-35 0 -35 35v426h-4q-33 0 -33 33v22q0 33 33 33h4v52q0 109 105 109h27q36 0 36 -33v-21q0 -33 -33 -33h-8q-26 0 -26 -28v-46h30q34 0 34 -33v-22q0 -33 -34 -33
h-30v-426z" />
    <glyph glyph-name="f_f_i" unicode="&#xfb03;" horiz-adv-x="598" 
d="M528 595h-25q-40 0 -40 40v19q0 40 40 40h25q40 0 40 -40v-19q0 -40 -40 -40zM526 0h-21q-40 0 -40 40v469q0 40 40 40h21q40 0 40 -40v-469q0 -40 -40 -40zM367 35q0 -35 -35 -35h-31q-35 0 -35 35v426h-4q-33 0 -33 33v22q0 33 33 33h4v52q0 109 105 109h27
q36 0 36 -33v-21q0 -33 -33 -33h-8q-26 0 -26 -28v-46h30q34 0 34 -33v-22q0 -33 -34 -33h-30v-426zM150 35q0 -35 -35 -35h-31q-35 0 -35 35v426h-4q-33 0 -33 33v22q0 33 33 33h4v52q0 109 105 109h27q36 0 36 -33v-21q0 -33 -33 -33h-8q-26 0 -26 -28v-46h30q34 0 34 -33
v-22q0 -33 -34 -33h-30v-426z" />
    <glyph glyph-name="f_f_l" unicode="&#xfb04;" horiz-adv-x="598" 
d="M526 0h-21q-40 0 -40 40v630q0 40 40 40h21q40 0 40 -40v-630q0 -40 -40 -40zM367 35q0 -35 -35 -35h-31q-35 0 -35 35v426h-4q-33 0 -33 33v22q0 33 33 33h4v52q0 109 105 109h27q36 0 36 -33v-21q0 -33 -33 -33h-8q-26 0 -26 -28v-46h30q34 0 34 -33v-22q0 -33 -34 -33
h-30v-426zM150 35q0 -35 -35 -35h-31q-35 0 -35 35v426h-4q-33 0 -33 33v22q0 33 33 33h4v52q0 109 105 109h27q36 0 36 -33v-21q0 -33 -33 -33h-8q-26 0 -26 -28v-46h30q34 0 34 -33v-22q0 -33 -34 -33h-30v-426z" />
    <glyph glyph-name="Q.alt" horiz-adv-x="377" 
d="M365 3q-8 -11 -21.5 -11.5t-24.5 9.5l-16 16q-30 -23 -86 -23h-57q-130 0 -130 130v452q0 130 130 130h57q130 0 130 -130v-452q0 -25 -4 -41l27 -20q12 -9 13.5 -22t-6.5 -23zM200 88q15 0 24 6l-33 32q-23 21 -4 40l2 2q17 17 38 2l13 -10v411q0 41 -40 41h-22
q-41 0 -41 -41v-442q0 -41 41 -41h22z" />
    <glyph glyph-name="a.alt" horiz-adv-x="348" 
d="M164 86q28 0 53 23v331q-25 23 -53 23q-36 0 -36 -34v-309q0 -34 36 -34zM252 0q-34 0 -34 33v8q-45 -47 -96 -47q-46 0 -70.5 27t-24.5 76v356q0 48 24.5 75t70.5 27q51 0 95 -44v3q0 35 35 35h26q40 0 40 -40v-469q0 -40 -40 -40h-26z" />
    <glyph glyph-name="y.alt" horiz-adv-x="307" 
d="M43 -51q0 14 9 23q8 8 23 9t19 5q10 10 5 33l-93 489q-4 19 5.5 30t28.5 11h30q29 0 34 -29l49 -312l55 313q4 28 33 28h28q19 0 28 -11t5 -30l-118 -559q-7 -32 -24.5 -45.5t-52.5 -13.5h-26q-15 0 -26.5 8.5t-11.5 23.5v27z" />
    <glyph glyph-name="aacute.alt" horiz-adv-x="348" 
d="M189 585h-12q-14 0 -21 9t-3 23l20 60q9 27 39 27h21q21 0 28 -13t-4 -31l-31 -51q-15 -24 -37 -24zM164 86q28 0 53 23v331q-25 23 -53 23q-36 0 -36 -34v-309q0 -34 36 -34zM252 0q-34 0 -34 33v8q-45 -47 -96 -47q-46 0 -70.5 27t-24.5 76v356q0 48 24.5 75t70.5 27
q51 0 95 -44v3q0 35 35 35h26q40 0 40 -40v-469q0 -40 -40 -40h-26z" />
    <glyph glyph-name="abreve.alt" horiz-adv-x="348" 
d="M82 672v6q0 10 6.5 16.5t16.5 6.5h22q9 0 15 -6.5t6 -15.5v-6q0 -30 29 -30h6q29 0 29 30v6q0 9 6 15.5t15 6.5h22q10 0 16.5 -6.5t6.5 -16.5v-6q0 -85 -83 -85h-30q-83 0 -83 85zM164 86q28 0 53 23v331q-25 23 -53 23q-36 0 -36 -34v-309q0 -34 36 -34zM252 0
q-34 0 -34 33v8q-45 -47 -96 -47q-46 0 -70.5 27t-24.5 76v356q0 48 24.5 75t70.5 27q51 0 95 -44v3q0 35 35 35h26q40 0 40 -40v-469q0 -40 -40 -40h-26z" />
    <glyph glyph-name="acircumflex.alt" horiz-adv-x="348" 
d="M168 706h24q27 0 39 -21l38 -64q8 -13 2.5 -23.5t-20.5 -10.5h-14q-13 0 -24 14l-33 47l-33 -47q-11 -14 -24 -14h-14q-15 0 -20.5 10.5t2.5 23.5l38 64q12 21 39 21zM164 86q28 0 53 23v331q-25 23 -53 23q-36 0 -36 -34v-309q0 -34 36 -34zM252 0q-34 0 -34 33v8
q-45 -47 -96 -47q-46 0 -70.5 27t-24.5 76v356q0 48 24.5 75t70.5 27q51 0 95 -44v3q0 35 35 35h26q40 0 40 -40v-469q0 -40 -40 -40h-26z" />
    <glyph glyph-name="adieresis.alt" horiz-adv-x="348" 
d="M117 697h3q40 0 40 -40v-32q0 -40 -40 -40h-3q-40 0 -40 40v32q0 40 40 40zM243 585h-3q-40 0 -40 40v32q0 40 40 40h3q40 0 40 -40v-32q0 -40 -40 -40zM164 86q28 0 53 23v331q-25 23 -53 23q-36 0 -36 -34v-309q0 -34 36 -34zM252 0q-34 0 -34 33v8q-45 -47 -96 -47
q-46 0 -70.5 27t-24.5 76v356q0 48 24.5 75t70.5 27q51 0 95 -44v3q0 35 35 35h26q40 0 40 -40v-469q0 -40 -40 -40h-26z" />
    <glyph glyph-name="agrave.alt" horiz-adv-x="348" 
d="M171 585q-22 0 -37 24l-31 51q-11 18 -4 31t28 13h21q30 0 39 -27l20 -60q4 -14 -3 -23t-21 -9h-12zM164 86q28 0 53 23v331q-25 23 -53 23q-36 0 -36 -34v-309q0 -34 36 -34zM252 0q-34 0 -34 33v8q-45 -47 -96 -47q-46 0 -70.5 27t-24.5 76v356q0 48 24.5 75t70.5 27
q51 0 95 -44v3q0 35 35 35h26q40 0 40 -40v-469q0 -40 -40 -40h-26z" />
    <glyph glyph-name="amacron.alt" horiz-adv-x="348" 
d="M69 633v2q0 37 37 37h148q37 0 37 -37v-2q0 -36 -37 -36h-148q-37 0 -37 36zM164 86q28 0 53 23v331q-25 23 -53 23q-36 0 -36 -34v-309q0 -34 36 -34zM252 0q-34 0 -34 33v8q-45 -47 -96 -47q-46 0 -70.5 27t-24.5 76v356q0 48 24.5 75t70.5 27q51 0 95 -44v3
q0 35 35 35h26q40 0 40 -40v-469q0 -40 -40 -40h-26z" />
    <glyph glyph-name="aogonek.alt" horiz-adv-x="348" 
d="M301 -107h-25q-26 0 -40.5 13.5t-14.5 36.5q0 20 18 48l6 9q-27 3 -27 31v10q-45 -47 -96 -47q-46 0 -70.5 27t-24.5 76v356q0 48 24.5 75t70.5 27q51 0 95 -44v10q0 28 29 28h32q40 0 40 -40v-469q0 -17 -9 -34l-7 -13q-12 -22 -12 -32q0 -11 14 -11h5q24 0 24 -22v-9
q0 -12 -9 -19t-23 -7zM164 86q28 0 53 23v331q-25 23 -53 23q-36 0 -36 -34v-309q0 -34 36 -34z" />
    <glyph glyph-name="aring.alt" horiz-adv-x="348" 
d="M201 702q65 0 65 -55v-6q0 -54 -65 -54h-42q-65 0 -65 57q0 58 65 58h42zM199 609q42 0 42 32v6q0 33 -42 33h-38q-42 0 -42 -36q0 -35 43 -35h37zM164 86q28 0 53 23v331q-25 23 -53 23q-36 0 -36 -34v-309q0 -34 36 -34zM252 0q-34 0 -34 33v8q-45 -47 -96 -47
q-46 0 -70.5 27t-24.5 76v356q0 48 24.5 75t70.5 27q51 0 95 -44v3q0 35 35 35h26q40 0 40 -40v-469q0 -40 -40 -40h-26z" />
    <glyph glyph-name="aringacute.alt" horiz-adv-x="348" 
d="M189 726h-12q-14 0 -21 9t-3 23l20 60q9 27 39 27h21q21 0 28 -13t-4 -31l-31 -51q-15 -24 -37 -24zM198 702q65 0 65 -55v-6q0 -54 -65 -54h-42q-65 0 -65 57q0 58 65 58h42zM196 609q42 0 42 32v6q0 33 -42 33h-38q-42 0 -42 -36q0 -35 43 -35h37zM164 86q28 0 53 23
v331q-25 23 -53 23q-36 0 -36 -34v-309q0 -34 36 -34zM252 0q-34 0 -34 33v8q-45 -47 -96 -47q-46 0 -70.5 27t-24.5 76v356q0 48 24.5 75t70.5 27q51 0 95 -44v3q0 35 35 35h26q40 0 40 -40v-469q0 -40 -40 -40h-26z" />
    <glyph glyph-name="atilde.alt" horiz-adv-x="348" 
d="M68 610v38q0 24 12.5 38t34.5 14h10q23 0 48 -17l31 -22q15 -10 21 -10q10 0 10 13v13q0 23 24 23h12q23 0 23 -23v-37q0 -25 -12.5 -38.5t-34.5 -13.5h-10q-25 0 -46 16l-34 24q-12 9 -19 9q-11 0 -11 -13v-14q0 -22 -24 -22h-12q-23 0 -23 22zM164 86q28 0 53 23v331
q-25 23 -53 23q-36 0 -36 -34v-309q0 -34 36 -34zM252 0q-34 0 -34 33v8q-45 -47 -96 -47q-46 0 -70.5 27t-24.5 76v356q0 48 24.5 75t70.5 27q51 0 95 -44v3q0 35 35 35h26q40 0 40 -40v-469q0 -40 -40 -40h-26z" />
    <glyph glyph-name="Gcommaaccent.alt" horiz-adv-x="376" 
d="M243 129v161h-26q-31 0 -31 30v29q0 33 34 33h87q40 0 40 -39v-219q0 -130 -130 -130h-57q-130 0 -130 130v452q0 130 130 130h56q129 0 129 -129v-79q0 -35 -35 -35h-35q-35 0 -35 35v73q0 41 -40 41h-22q-41 0 -41 -41v-442q0 -41 41 -41h24q41 0 41 41zM206 -36
q21 0 21 -23v-4q0 -47 -22 -83q-10 -16 -27 -16h-7q-31 0 -24 31q7 28 7 65v7q0 23 21 23h31z" />
    <glyph glyph-name="gcommaaccent.alt" horiz-adv-x="348" 
d="M163 586q-21 0 -21 23v4q0 47 22 83q10 16 27 16h7q31 0 24 -31q-7 -28 -7 -65v-7q0 -23 -21 -23h-31zM217 169v271q-25 23 -53 23q-36 0 -36 -34v-249q0 -34 36 -34q26 0 53 23zM29 -11v7q0 31 34 31h23q35 0 35 -29v-2q0 -30 31 -30h35q31 0 31 33v101q-45 -43 -96 -43
q-46 0 -70.5 27t-24.5 75v294q0 48 24.5 75t70.5 27q53 0 96 -43v2q0 35 35 35h31q34 0 34 -35v-511q0 -117 -118 -117h-65q-106 0 -106 103z" />
    <glyph glyph-name="Kcommaaccent.alt" horiz-adv-x="357" 
d="M303 0h-30q-29 0 -39 28l-95 313v-301q0 -40 -40 -40h-27q-40 0 -40 40v620q0 40 40 40h27q40 0 40 -40v-297l102 310q9 27 38 27h27q57 0 37 -53l-101 -290l99 -305q17 -52 -38 -52zM196 -36q21 0 21 -23v-4q0 -47 -22 -83q-10 -16 -27 -16h-7q-31 0 -24 31q7 28 7 65v7
q0 23 21 23h31z" />
    <glyph glyph-name="kcommaaccent.alt" horiz-adv-x="331" 
d="M269 0h-23q-28 0 -38 28l-78 243v-231q0 -40 -40 -40h-21q-40 0 -40 40v630q0 40 40 40h21q40 0 40 -40v-386l84 238q8 27 37 27h20q58 0 38 -54l-81 -214l79 -228q18 -53 -38 -53zM184 -36q21 0 21 -23v-4q0 -47 -22 -83q-10 -16 -27 -16h-7q-31 0 -24 31q7 28 7 65v7
q0 23 21 23h31z" />
    <glyph glyph-name="Lcommaaccent.alt" horiz-adv-x="266" 
d="M32 40v620q0 40 40 40h27q40 0 40 -40v-563h78q40 0 40 -40v-17q0 -40 -40 -40h-145q-40 0 -40 40zM151 -36q21 0 21 -23v-4q0 -47 -22 -83q-10 -16 -27 -16h-7q-31 0 -24 31q7 28 7 65v7q0 23 21 23h31z" />
    <glyph glyph-name="lcommaaccent.alt" horiz-adv-x="164" 
d="M92 0h-21q-40 0 -40 40v630q0 40 40 40h21q40 0 40 -40v-630q0 -40 -40 -40zM98 -36q21 0 21 -23v-4q0 -47 -22 -83q-10 -16 -27 -16h-7q-31 0 -24 31q7 28 7 65v7q0 23 21 23h31z" />
    <glyph glyph-name="Ncommaaccent.alt" horiz-adv-x="384" 
d="M127 472l1 -124v-308q0 -40 -40 -40h-16q-40 0 -40 40v620q0 40 40 40h53q32 0 39 -31l93 -401l-1 117v275q0 40 40 40h16q40 0 40 -40v-620q0 -40 -40 -40h-44q-32 0 -39 31zM206 -36q21 0 21 -23v-4q0 -47 -22 -83q-10 -16 -27 -16h-7q-31 0 -24 31q7 28 7 65v7
q0 23 21 23h31z" />
    <glyph glyph-name="ncommaaccent.alt" horiz-adv-x="347" 
d="M129 514v-5q46 46 99 46q90 0 90 -94v-426q0 -35 -34 -35h-32q-35 0 -35 35v396q0 32 -33 32q-25 0 -54 -23v-405q0 -35 -34 -35h-32q-35 0 -35 35v479q0 35 35 35h31q34 0 34 -35zM191 -36q21 0 21 -23v-4q0 -47 -22 -83q-10 -16 -27 -16h-7q-31 0 -24 31q7 28 7 65v7
q0 23 21 23h31z" />
    <glyph glyph-name="Oslash.alt" horiz-adv-x="377" 
d="M137 571l-1 -79l-1 -254l99 360q-9 14 -34 14h-22q-41 0 -41 -41zM143 102q11 -14 35 -14h21q42 0 42 41v100l2 233zM268 699l5 15q7 23 32 22h15q14 1 20.5 -8t1.5 -23l-16 -48q21 -30 21 -81v-452q0 -130 -130 -130h-52q-30 0 -56 8l-5 -16q-7 -22 -32 -22h-15
q-14 0 -20.5 8.5t-1.5 22.5l16 48q-21 30 -21 81v452q0 130 130 130h53q33 0 55 -7z" />
    <glyph glyph-name="oslash.alt" horiz-adv-x="344" 
d="M127 427v-29l-1 -211l83 267q-9 10 -29 10h-16q-37 0 -37 -37zM136 95q10 -10 28 -10h16q37 0 37 37v35l1 205zM295 514q23 -31 23 -81v-317q0 -122 -122 -122h-44q-30 0 -50 7l-6 -18q-7 -20 -25 -20h-15q-13 0 -19 8t-2 20l15 44q-23 29 -23 81v317q0 122 122 122h43
q30 0 51 -7l6 19q5 19 25 19h15q13 0 19 -8t2 -20z" />
    <glyph glyph-name="Oslashacute.alt" horiz-adv-x="377" 
d="M199 736h-14q-14 0 -19.5 9t0.5 23l19 40q12 27 38 27h25q19 0 24.5 -13.5t-7.5 -29.5l-30 -37q-16 -19 -36 -19zM137 571l-1 -79l-1 -254l99 360q-9 14 -34 14h-22q-41 0 -41 -41zM143 102q11 -14 35 -14h21q42 0 42 41v100l2 233zM268 699l5 15q7 23 32 22h15
q14 1 20.5 -8t1.5 -23l-16 -48q21 -30 21 -81v-452q0 -130 -130 -130h-52q-30 0 -56 8l-5 -16q-7 -22 -32 -22h-15q-14 0 -20.5 8.5t-1.5 22.5l16 48q-21 30 -21 81v452q0 130 130 130h53q33 0 55 -7z" />
    <glyph glyph-name="oslashacute.alt" horiz-adv-x="344" 
d="M181 585h-12q-14 0 -21 9t-3 23l20 60q9 27 39 27h21q21 0 28 -13t-4 -31l-31 -51q-15 -24 -37 -24zM127 427v-29l-1 -211l83 267q-9 10 -29 10h-16q-37 0 -37 -37zM136 95q10 -10 28 -10h16q37 0 37 37v35l1 205zM295 514q23 -31 23 -81v-317q0 -122 -122 -122h-44
q-30 0 -50 7l-6 -18q-7 -20 -25 -20h-15q-13 0 -19 8t-2 20l15 44q-23 29 -23 81v317q0 122 122 122h43q30 0 51 -7l6 19q5 19 25 19h15q13 0 19 -8t2 -20z" />
    <glyph glyph-name="Rcommaaccent.alt" horiz-adv-x="369" 
d="M231 417v148q0 40 -40 40h-52v-231h48q44 0 44 43zM338 438q0 -83 -61 -108q33 -9 47.5 -30.5t14.5 -61.5v-198q0 -40 -40 -40h-27q-40 0 -40 40v196q0 45 -45 45h-48v-241q0 -40 -40 -40h-27q-40 0 -40 40v620q0 40 40 40h136q130 0 130 -130v-132zM198 -36q21 0 21 -23
v-4q0 -47 -22 -83q-10 -16 -27 -16h-7q-31 0 -24 31q7 28 7 65v7q0 23 21 23h31z" />
    <glyph glyph-name="rcommaaccent.alt" horiz-adv-x="225" 
d="M129 514v-33q35 71 67 71q29 0 29 -36v-26q0 -36 -43 -53q-30 -13 -52 -30v-372q0 -35 -34 -35h-32q-35 0 -35 35v479q0 35 35 35h31q34 0 34 -35zM97 -36q21 0 21 -23v-4q0 -47 -22 -83q-10 -16 -27 -16h-7q-31 0 -24 31q7 28 7 65v7q0 23 21 23h31z" />
    <glyph glyph-name="Scommaaccent.alt" horiz-adv-x="361" 
d="M165 438l108 -79q35 -25 48.5 -51.5t13.5 -69.5v-114q0 -130 -130 -130h-47q-129 0 -129 129v108q0 40 40 40h24q40 0 40 -40v-104q0 -40 41 -40h14q41 0 41 40v96q0 35 -30 57l-108 79q-35 25 -48.5 52t-13.5 69v96q0 130 130 130h45q129 0 129 -129v-87q0 -40 -40 -40
h-25q-40 0 -40 40v83q0 40 -40 40h-13q-40 0 -40 -40v-78q0 -36 30 -57zM199 -36q21 0 21 -23v-4q0 -47 -22 -83q-10 -16 -27 -16h-7q-31 0 -24 31q7 28 7 65v7q0 23 21 23h31z" />
    <glyph glyph-name="scommaaccent.alt" horiz-adv-x="330" 
d="M265 355h-22q-37 0 -37 37v39q0 36 -35 36h-12q-35 0 -35 -36v-43q0 -27 24 -42l95 -60q34 -21 48 -43.5t14 -60.5v-66q0 -122 -122 -122h-36q-121 0 -121 121v44q0 40 40 40h19q39 0 39 -40v-41q0 -36 35 -36h13q36 0 36 36v47q0 26 -24 42l-96 59q-33 21 -47 43.5
t-14 60.5v63q0 122 122 122h34q121 0 121 -121v-41q0 -38 -39 -38zM181 -36q21 0 21 -23v-4q0 -47 -22 -83q-10 -16 -27 -16h-7q-31 0 -24 31q7 28 7 65v7q0 23 21 23h31z" />
    <glyph glyph-name="Tcommaaccent.alt" horiz-adv-x="319" 
d="M213 603v-563q0 -40 -40 -40h-27q-40 0 -40 40v563h-56q-40 0 -40 40v17q0 40 40 40h219q40 0 40 -40v-17q0 -40 -40 -40h-56zM176 -36q21 0 21 -23v-4q0 -47 -22 -83q-10 -16 -27 -16h-7q-31 0 -24 31q7 28 7 65v7q0 23 21 23h31z" />
    <glyph glyph-name="tcommaaccent.alt" horiz-adv-x="215" 
d="M153 35q0 -35 -35 -35h-31q-35 0 -35 35v426h-9q-33 0 -33 33v22q0 33 33 33h9v56q0 35 35 35h31q35 0 35 -35v-56h24q33 0 33 -33v-22q0 -33 -33 -33h-24v-426zM121 -36q21 0 21 -23v-4q0 -47 -22 -83q-10 -16 -27 -16h-7q-31 0 -24 31q7 28 7 65v7q0 23 21 23h31z" />
    <glyph glyph-name="yacute.alt" horiz-adv-x="307" 
d="M164 585h-12q-14 0 -21 9t-3 23l20 60q9 27 39 27h21q21 0 28 -13t-4 -31l-31 -51q-15 -24 -37 -24zM43 -51q0 14 9 23q8 8 23 9t19 5q10 10 5 33l-93 489q-4 19 5.5 30t28.5 11h30q29 0 34 -29l49 -312l55 313q4 28 33 28h28q19 0 28 -11t5 -30l-118 -559
q-7 -32 -24.5 -45.5t-52.5 -13.5h-26q-15 0 -26.5 8.5t-11.5 23.5v27z" />
    <glyph glyph-name="ycircumflex.alt" horiz-adv-x="307" 
d="M143 706h24q27 0 39 -21l38 -64q8 -13 2.5 -23.5t-20.5 -10.5h-14q-13 0 -24 14l-33 47l-33 -47q-11 -14 -24 -14h-14q-15 0 -20.5 10.5t2.5 23.5l38 64q12 21 39 21zM43 -51q0 14 9 23q8 8 23 9t19 5q10 10 5 33l-93 489q-4 19 5.5 30t28.5 11h30q29 0 34 -29l49 -312
l55 313q4 28 33 28h28q19 0 28 -11t5 -30l-118 -559q-7 -32 -24.5 -45.5t-52.5 -13.5h-26q-15 0 -26.5 8.5t-11.5 23.5v27z" />
    <glyph glyph-name="ydieresis.alt" horiz-adv-x="307" 
d="M92 697h3q40 0 40 -40v-32q0 -40 -40 -40h-3q-40 0 -40 40v32q0 40 40 40zM218 585h-3q-40 0 -40 40v32q0 40 40 40h3q40 0 40 -40v-32q0 -40 -40 -40zM43 -51q0 14 9 23q8 8 23 9t19 5q10 10 5 33l-93 489q-4 19 5.5 30t28.5 11h30q29 0 34 -29l49 -312l55 313
q4 28 33 28h28q19 0 28 -11t5 -30l-118 -559q-7 -32 -24.5 -45.5t-52.5 -13.5h-26q-15 0 -26.5 8.5t-11.5 23.5v27z" />
    <glyph glyph-name="ygrave.alt" horiz-adv-x="307" 
d="M146 585q-22 0 -37 24l-31 51q-11 18 -4 31t28 13h21q30 0 39 -27l20 -60q4 -14 -3 -23t-21 -9h-12zM43 -51q0 14 9 23q8 8 23 9t19 5q10 10 5 33l-93 489q-4 19 5.5 30t28.5 11h30q29 0 34 -29l49 -312l55 313q4 28 33 28h28q19 0 28 -11t5 -30l-118 -559
q-7 -32 -24.5 -45.5t-52.5 -13.5h-26q-15 0 -26.5 8.5t-11.5 23.5v27z" />
    <glyph glyph-name="comma.alt" horiz-adv-x="151" 
d="M67 133h28q31 0 31 -33v-12q0 -68 -31 -163q-8 -23 -33 -23h-1q-43 0 -36 42q10 65 10 143v12q0 15 8.5 24.5t23.5 9.5z" />
    <glyph glyph-name="semicolon.alt" horiz-adv-x="151" 
d="M65 549h21q40 0 40 -40v-53q0 -40 -40 -40h-21q-40 0 -40 40v53q0 40 40 40zM67 133h28q31 0 31 -33v-12q0 -68 -31 -163q-8 -23 -33 -23h-1q-43 0 -36 42q10 65 10 143v12q0 15 8.5 24.5t23.5 9.5z" />
    <glyph glyph-name="colon.fig" horiz-adv-x="151" 
d="M65 543h21q40 0 40 -40v-53q0 -40 -40 -40h-21q-40 0 -40 40v53q0 40 40 40zM65 291h21q40 0 40 -40v-53q0 -40 -40 -40h-21q-40 0 -40 40v53q0 40 40 40z" />
    <glyph glyph-name="ampersand.alt" horiz-adv-x="383" 
d="M332 124q0 -130 -130 -130h-43q-130 0 -130 130v148q0 73 60 90q-58 22 -58 104v110q0 130 130 130h40q129 0 129 -129v-72q0 -14 -9 -23.5t-23 -9.5h-38q-14 0 -23 9.5t-9 23.5v66q0 41 -41 41h-9q-41 0 -41 -41v-129q0 -41 39 -41h168q33 0 33 -31v-31q0 -29 -32 -29
h-13v-186zM175 88h14q41 0 41 41v181h-56q-39 0 -39 -40v-141q0 -41 40 -41z" />
    <glyph glyph-name="quotedblleft.alt" horiz-adv-x="286" 
d="M88 459h-39q-25 0 -25 26v27q0 76 31 165q9 23 33 23h1q47 0 38 -45q-12 -64 -12 -140v-29q0 -27 -27 -27zM225 459h-38q-25 0 -25 26v27q0 84 23 162q7 26 34 26h2q45 0 38 -45q-7 -49 -7 -140v-29q0 -27 -27 -27z" />
    <glyph glyph-name="quotedblright.alt" horiz-adv-x="286" 
d="M198 700h39q25 0 25 -26v-27q0 -76 -31 -165q-9 -23 -33 -23h-1q-47 0 -38 45q12 64 12 140v29q0 27 27 27zM61 700h38q25 0 25 -26v-27q0 -84 -23 -162q-7 -26 -34 -26h-2q-45 0 -38 45q7 49 7 140v29q0 27 27 27z" />
    <glyph glyph-name="quoteleft.alt" horiz-adv-x="150" 
d="M88 459h-38q-26 0 -26 26v27q0 76 31 165q8 23 33 23h1q44 0 37 -43q-11 -67 -11 -142v-29q0 -27 -27 -27z" />
    <glyph glyph-name="quoteright.alt" horiz-adv-x="150" 
d="M62 700h38q26 0 26 -26v-27q0 -76 -31 -165q-8 -23 -33 -23h-1q-44 0 -37 43q11 67 11 142v29q0 27 27 27z" />
    <glyph glyph-name="quotedblbase.alt" horiz-adv-x="286" 
d="M210 133h39q25 0 25 -26v-27q0 -76 -31 -165q-9 -23 -33 -23h-1q-47 0 -38 45q12 64 12 140v29q0 27 27 27zM73 133h38q25 0 25 -26v-27q0 -84 -23 -162q-7 -26 -34 -26h-2q-45 0 -38 45q7 49 7 140v29q0 27 27 27z" />
    <glyph glyph-name="quotesinglbase.alt" horiz-adv-x="150" 
d="M62 133h38q26 0 26 -26v-27q0 -76 -31 -165q-8 -23 -33 -23h-1q-44 0 -37 43q11 67 11 142v29q0 27 27 27z" />
    <glyph glyph-name="guillemotleft.cap" horiz-adv-x="262" 
d="M172 210l-47 133q-4 13 0 26l45 132q8 25 34 25h2q47 0 35 -46l-34 -124l34 -124q12 -45 -34 -45h-2q-25 0 -33 23zM62 208l-52 134q-6 14 0 28l50 133q9 23 33 23h2q49 0 34 -47l-38 -123l38 -124q15 -45 -33 -45h-2q-24 0 -32 21z" />
    <glyph glyph-name="guillemotright.cap" horiz-adv-x="262" 
d="M137 343l-47 -133q-8 -23 -33 -23h-2q-46 0 -34 45l34 124l-34 124q-12 46 35 46h2q26 0 34 -25l45 -132q4 -13 0 -26zM252 342l-52 -134q-8 -21 -32 -21h-2q-48 0 -33 45l38 124l-38 123q-15 47 34 47h2q24 0 33 -23l50 -133q6 -14 0 -28z" />
    <glyph glyph-name="guilsinglleft.cap" horiz-adv-x="177" 
d="M75 208l-63 131q-8 17 0 34l61 130q11 23 35 23h2q59 0 37 -55l-46 -115l46 -116q21 -53 -36 -53h-2q-25 0 -34 21z" />
    <glyph glyph-name="guilsinglright.cap" horiz-adv-x="177" 
d="M165 339l-63 -131q-9 -21 -34 -21h-2q-57 0 -36 53l46 116l-46 115q-22 55 37 55h2q23 0 35 -23l61 -130q9 -17 0 -34z" />
    <glyph glyph-name="hyphen.cap" horiz-adv-x="218" 
d="M13 348v16q0 40 40 40h112q40 0 40 -40v-16q0 -40 -40 -40h-112q-40 0 -40 40z" />
    <glyph glyph-name="endash.cap" horiz-adv-x="373" 
d="M13 355v2q0 20 9 29t29 9h271q20 0 29 -9t9 -29v-2q0 -20 -9 -29t-29 -9h-271q-20 0 -29 9t-9 29z" />
    <glyph glyph-name="emdash.cap" horiz-adv-x="563" 
d="M13 355v2q0 20 9 29t29 9h461q20 0 29 -9t9 -29v-2q0 -20 -9 -29t-29 -9h-461q-20 0 -29 9t-9 29z" />
    <glyph glyph-name="at.alt" horiz-adv-x="498" 
d="M431 12v-2q0 -16 -16 -16h-225q-84 0 -120 37t-36 127v385q0 89 36.5 126.5t119.5 37.5h118q83 0 119.5 -37.5t36.5 -126.5v-355q0 -83 -74 -83h-34q-52 0 -68 40q-37 -41 -82 -41q-35 0 -54 21t-19 58v109q0 40 14 61t49 33l84 28v81q0 29 -30 29q-32 0 -32 -29v-31
q0 -30 -29 -30h-17q-34 0 -34 34v36q0 95 97 95h30q96 0 96 -95v-340q0 -25 27 -25q40 0 40 50v354q0 72 -27.5 101t-92.5 29h-118q-65 0 -92.5 -29t-27.5 -101v-385q0 -72 27.5 -101t92.5 -29h225q16 0 16 -16zM214 209q0 -28 26 -28q14 0 40 14v145l-43 -17
q-23 -8 -23 -37v-77z" />
    <glyph glyph-name="registered.alt" horiz-adv-x="493" 
d="M303 706q81 0 118.5 -38.5t37.5 -125.5v-384q0 -87 -37.5 -125.5t-118.5 -38.5h-113q-81 0 -118.5 38.5t-37.5 125.5v384q0 87 37.5 125.5t118.5 38.5h113zM303 18q67 0 98.5 33t31.5 107v384q0 74 -31.5 107t-98.5 33h-113q-67 0 -98.5 -33t-31.5 -107v-384
q0 -74 31.5 -107t98.5 -33h113zM284 394v110q0 27 -28 27h-37v-168h33q32 0 32 31zM364 404q0 -58 -45 -75q25 -7 35.5 -22t10.5 -43v-131q0 -39 -39 -39h-2q-39 0 -39 39v125q0 31 -33 31h-33v-156q0 -39 -39 -39h-2q-39 0 -39 39v434q0 40 40 40h90q95 0 95 -91v-112z" />
    <glyph glyph-name="percent.alt" horiz-adv-x="522" 
d="M138 349h-22q-49 0 -70.5 24t-21.5 76v157q0 52 21.5 76t70.5 24h22q48 0 70.5 -24.5t22.5 -75.5v-157q0 -52 -22 -76t-71 -24zM370 702h2q46 0 31 -44l-114 -323l-106 -315q-7 -22 -30 -22h-2q-46 0 -31 44l115 321l104 317q8 22 31 22zM153 603q0 15 -4.5 21.5
t-17.5 6.5h-7q-23 0 -23 -28v-152q0 -28 27 -28q15 0 20 6.5t5 21.5v152zM407 -6h-23q-48 0 -70 24t-22 76v152q0 52 22 76t70 24h23q48 0 70 -24t22 -76v-152q0 -52 -22 -76t-70 -24zM421 243q0 28 -22 28h-8q-22 0 -22 -28v-146q0 -29 26 -29t26 29v146z" />
    <glyph glyph-name="NUL" horiz-adv-x="0" 
 />
    <glyph glyph-name="hcoslug" horiz-adv-x="694" 
d="M644 -100h-594v800h594v-800zM247 428q0 13 7.5 21t19.5 8q13 0 21 -10.5t8 -27.5q0 -22 -18 -50q-15 14 -21 20.5t-11.5 17t-5.5 21.5zM312 342q30 20 42 34q29 -29 -1 -80q-33 38 -41 46zM261 219q-22 0 -37 15.5t-15 38.5q0 24 16 40q34 -32 74 -82q-15 -12 -38 -12z
M428 306q15 -25 43 -25q21 0 35.5 15.5t14.5 38.5t-14.5 37.5t-35.5 14.5q-35 0 -60 -38q-3 39 -49 37q9 15 9 34q0 29 -25.5 51.5t-69.5 22.5q-48 0 -78.5 -25.5t-30.5 -59.5q0 -37 31 -69q-82 -28 -82 -91q0 -39 32 -66t77 -27q63 0 104 45q44 -45 85 -45q33 0 56 25.5
t24 68.5l-7 2q-17 -29 -43 -29q-27 0 -62 41q20 26 46 42zM274 122v-9h-7v-7h7v-20q0 -13 12 -13q11 0 14 13l-5 2q-1 -7 -5 -7t-4 5v20h13v7h-13v11zM195 73q9 0 15 6t6 15q0 20 -21 20t-21 -20q0 -21 21 -21zM195 78q-8 0 -8 16q0 15 8 15t8 -15q0 -16 -8 -16zM219 74h22
v7h-4v15q0 10 7 10q6 0 6 -7v-18h-4v-7h22v7h-6v19q0 14 -12 14q-9 0 -14 -11v10h-17v-7h6v-25h-6v-7zM372 80q-8 0 -8 13t8 13q7 0 7 -13t-7 -13zM125 74h30v7h-10v16h4q5 0 6 -8h7v23h-7q-1 -8 -6 -8h-4v18h12q9 0 11 -13h8v20h-51v-7h7v-41h-7v-7zM302 74h7l1 4
q8 -5 13 -5q14 0 14 13q0 9 -12 12t-12 6q0 4 5 4t10 -7h7v13h-6l-2 -5q-3 5 -11 5q-14 0 -14 -12q0 -9 12 -12.5t12 -6.5q0 -4 -5 -4q-6 0 -12 9h-7v-14zM352 73h6l4 8q5 -8 14 -8q16 0 16 21q0 20 -15 20q-10 0 -13 -9v27h-18v-7h6v-52zM400 75q-7 0 -7 -7q0 -9 11 -9
q12 0 18 16l13 31h5v7h-17v-7h5l-8 -20l-9 20h6v7h-25v-7h5q12 -23 16 -33q-2 -8 -8 -8q3 2 1.5 6t-6.5 4zM294 42q0 12 6 12l3 -1q-1 -1 -1 -3q0 -6 6 -6v-5h-14v3zM446 33v-7h6q-2 -4 -6 -9q-2 2 -5.5 6t-6.5 7q11 5 11 12q0 12 -14 12q-17 0 -17 -14q0 -6 6 -12
q-13 -4 -13 -15q0 -14 18 -14q9 0 15 6q5 -6 12 -6q10 0 13 12l-5 1q-1 -5 -4 -5t-6 5q6 8 9 14h5v7h-18zM498 -1q22 0 24 23h-8q-2 -16 -14 -16q-16 0 -16 22t14 22q10 0 15 -16h8v22h-8l-1 -6q-7 7 -16 7q-11 0 -19 -8.5t-8 -21.5q0 -28 29 -28zM425 43q0 5 5 5q6 0 6 -6
t-5 -9q-6 6 -6 10zM366 18q2 22 -19 22q-8 0 -14 -6t-6 -15q0 -20 21 -20q14 0 18 14h-7q-1 -7 -9 -7q-10 0 -10 12h26zM546 -1q9 0 15 6t6 15q0 20 -21 20t-21 -20q0 -21 21 -21zM210 -1q9 0 15 6t6 15q0 20 -21 20t-21 -20q0 -21 21 -21zM273 18q2 22 -19 22q-8 0 -14 -6
t-6 -15q0 -20 21 -20q15 0 18 14h-7q-1 -7 -9 -7q-10 0 -10 12h26zM347 35q7 0 7 -12h-14q0 12 7 12zM546 4q-8 0 -8 16q0 15 8 15t8 -15q0 -16 -8 -16zM210 4q-8 0 -8 16q0 15 8 15t8 -15q0 -16 -8 -16zM254 35q7 0 7 -12h-14q0 12 7 12zM368 0h26v7h-8v16q4 9 7 9v-1
q0 -6 6 -6q7 0 7 7q0 8 -8 8t-12 -11v10h-18v-7h6v-25h-6v-7zM276 0h23v7h-5v25h14v-25h-5v-7h23v7h-6v52l-10 -2q-4 2 -9 2q-19 0 -19 -19v-1h-7v-7h7v-25h-6v-7zM124 0h29v7h-8v18h22v-18h-8v-7h29v7h-8v41h8v7h-29v-7h8v-16h-22v16h8v7h-29v-7h8v-41h-8v-7zM429 6
q-10 0 -10 10q0 5 4 9q4 -4 14 -16q-5 -3 -8 -3zM576 13q-7 0 -7 -7t7 -7t7 7t-7 7z" />
    <glyph glyph-name="i.dot" horiz-adv-x="164" 
d="M94 595h-25q-40 0 -40 40v19q0 40 40 40h25q40 0 40 -40v-19q0 -40 -40 -40zM92 0h-21q-40 0 -40 40v469q0 40 40 40h21q40 0 40 -40v-469q0 -40 -40 -40z" />
    <glyph glyph-name="caron.alt" 
d="M223 583h-7q-20 0 -20 20v81q0 31 31 31h2q39 0 30 -38l-17 -80q-4 -14 -19 -14z" />
    <glyph glyph-name="acute.cap" 
d="M235 736h-14q-14 0 -19.5 9t0.5 23l19 40q12 27 38 27h25q19 0 24.5 -13.5t-7.5 -29.5l-30 -37q-16 -19 -36 -19z" />
    <glyph glyph-name="hungarumlaut.cap" 
d="M280 736h-8q-11 0 -16 8t-1 19l20 48q10 24 34 24h15q18 0 23.5 -12.5t-4.5 -25.5l-30 -40q-16 -21 -33 -21zM188 736h-8q-11 0 -16 8t-1 19l20 48q10 24 34 24h15q18 0 23.5 -12.5t-4.5 -25.5l-30 -40q-16 -21 -33 -21z" />
    <glyph glyph-name="grave.cap" 
d="M285 736q-20 0 -36 19l-30 37q-13 16 -7.5 29.5t24.5 13.5h25q26 0 38 -27l19 -40q6 -14 0.5 -23t-19.5 -9h-14z" />
    <glyph glyph-name="circumflex.cap" 
d="M235 843h30q23 0 36 -18l39 -56q9 -14 4 -23.5t-21 -9.5h-10q-14 0 -26 12l-37 39l-37 -39q-12 -12 -26 -12h-10q-16 0 -21 9.5t4 23.5l39 56q13 18 36 18z" />
    <glyph glyph-name="caron.cap" 
d="M265 736h-30q-23 0 -36 18l-39 56q-9 14 -4 23.5t21 9.5h10q14 0 26 -12l37 -39l37 39q12 12 26 12h10q16 0 21 -9.5t-4 -23.5l-39 -56q-13 -18 -36 -18z" />
    <glyph glyph-name="breve.cap" 
d="M262 738h-24q-42 0 -65 21t-23 57v2q0 16 16 16h34q7 0 12 -5q4 -4 4.5 -12t4.5 -12q7 -7 23 -7h12q16 0 23 7q4 4 5 12.5t4 11.5q5 5 12 5h34q16 0 16 -16v-2q0 -36 -23 -57t-65 -21z" />
    <glyph glyph-name="tilde.cap" 
d="M137 761v29q0 25 12.5 38.5t34.5 13.5h11q18 0 48 -18l28 -15q14 -9 23 -9q11 0 11 12v7q0 23 24 23h12q23 0 23 -23v-30q0 -24 -12.5 -38t-34.5 -14h-11q-16 0 -46 17l-30 17q-18 9 -22 9q-12 0 -12 -13v-6q0 -23 -24 -23h-12q-23 0 -23 23z" />
    <glyph glyph-name="macron.cap" 
d="M139 779v2q0 32 32 32h158q32 0 32 -32v-2q0 -31 -32 -31h-158q-32 0 -32 31z" />
    <glyph glyph-name="dieresis.cap" 
d="M185 828h5q40 0 40 -40v-12q0 -40 -40 -40h-5q-40 0 -40 40v12q0 40 40 40zM315 736h-5q-40 0 -40 40v12q0 40 40 40h5q40 0 40 -40v-12q0 -40 -40 -40z" />
    <glyph glyph-name="dotaccent.cap" 
d="M243 824h14q38 0 38 -38v-12q0 -38 -38 -38h-14q-38 0 -38 38v12q0 38 38 38z" />
    <glyph glyph-name="ring.cap" 
d="M286 738h-72q-65 0 -65 55q0 56 65 56h72q65 0 65 -53v-5q0 -53 -65 -53zM284 826h-68q-41 0 -41 -33t41 -33h68q41 0 41 31v4q0 31 -41 31z" />
    <glyph glyph-name="commaaccent.alt" 
d="M268 -36q21 0 21 -23v-4q0 -47 -22 -83q-10 -16 -27 -16h-7q-31 0 -24 31q7 28 7 65v7q0 23 21 23h31z" />
    </font>
</defs>
</svg>
