<?xml version="1.0" standalone="no"?>
<!DOCTYPE svg PUBLIC "-//W3C//DTD SVG 1.1//EN" "http://www.w3.org/Graphics/SVG/1.1/DTD/svg11.dtd" >
<svg>
<metadata>
Created by FontForge 20120731 at Tue Oct  4 17:52:33 2016
 By ,,,
Copyright (C) 2013, 2014 Hoefler &#38; Co. http://www.typography.com
</metadata>
<defs>
<font id="Fatman-Medium" horiz-adv-x="500" >
  <font-face 
    font-family="Tungsten Rounded Medium"
    font-weight="350"
    font-stretch="normal"
    units-per-em="1000"
    panose-1="0 0 0 0 0 0 0 0 0 0"
    ascent="800"
    descent="-200"
    x-height="540"
    cap-height="702"
    bbox="-25 -200 644 874"
    underline-thickness="50"
    underline-position="-50"
    unicode-range="U+0020-FB04"
  />
<missing-glyph 
d="M0 -200v1000h500v-1000h-500zM71 750l179 -390l179 390h-358zM450 676l-172 -376l172 -376v752zM50 -76l172 376l-172 376v-752zM250 240l-179 -390h358z" />
    <glyph glyph-name=".notdef" 
d="M0 -200v1000h500v-1000h-500zM71 750l179 -390l179 390h-358zM450 676l-172 -376l172 -376v752zM50 -76l172 376l-172 376v-752zM250 240l-179 -390h358z" />
    <glyph glyph-name=".null" horiz-adv-x="0" 
 />
    <glyph glyph-name="nonmarkingreturn" horiz-adv-x="333" 
 />
    <glyph glyph-name="space" unicode=" " horiz-adv-x="120" 
 />
    <glyph glyph-name="exclam" unicode="!" horiz-adv-x="158" 
d="M80 185h-2q-13 0 -14 13l-24 341v129q0 20 9 29t29 9h2q20 0 29 -9t9 -29v-131l-24 -339q-1 -13 -14 -13zM78 120h2q20 0 29 -9t9 -29v-46q0 -20 -9 -29t-29 -9h-2q-20 0 -29 9t-9 29v46q0 20 9 29t29 9z" />
    <glyph glyph-name="quotedbl" unicode="&#x22;" horiz-adv-x="238" 
d="M183 702h2q40 0 34 -39l-33 -206q-3 -20 -23 -20h-4q-25 0 -24 25l14 208q1 32 34 32zM69 702h2q40 0 34 -39l-33 -206q-3 -20 -23 -20h-4q-25 0 -24 25l14 208q1 32 34 32z" />
    <glyph glyph-name="numbersign" unicode="#" horiz-adv-x="362" 
d="M143 449v-210l76 20v210zM256 -4h-2q-19 0 -27 8t-8 27v145l-76 -20v-125q0 -19 -8 -27t-27 -8h-2q-19 0 -27 8t-8 27v105l-25 -6q-32 -9 -32 24v31q0 19 19 24l38 10v210l-25 -6q-32 -9 -32 24v31q0 19 19 24l38 10v157q0 19 8 27t27 8h2q19 0 27 -8t8 -27v-137l76 20
v117q0 19 8 27t27 8h2q19 0 27 -8t8 -27v-97l25 6q32 9 32 -24v-31q0 -19 -19 -24l-38 -10v-210l25 6q32 9 32 -24v-31q0 -19 -19 -24l-38 -10v-165q0 -19 -8 -27t-27 -8z" />
    <glyph glyph-name="dollar" unicode="$" horiz-adv-x="348" 
d="M206 -2v-46q0 -31 -31 -31h-2q-31 0 -31 31v46q-107 10 -107 127v108q0 20 9 29t29 9h2q20 0 29 -9t9 -29v-111q0 -53 53 -53h16q53 0 53 53v102q0 25 -8 39t-27 28l-98 71q-38 27 -52.5 56.5t-14.5 73.5v81q0 119 107 129v42q0 31 31 31h2q31 0 31 -31v-42
q107 -10 107 -127v-87q0 -20 -9 -29t-29 -9h-2q-20 0 -29 9t-9 29v90q0 53 -53 53h-14q-53 0 -53 -53v-85q0 -25 8.5 -39t27.5 -28l97 -70q38 -28 52.5 -56.5t14.5 -73.5v-99q0 -119 -109 -129z" />
    <glyph glyph-name="percent" unicode="%" horiz-adv-x="456" 
d="M369 682l-87 -270q14 3 30 3h18q98 0 98 -98v-225q0 -98 -98 -98h-18q-98 0 -98 98v144l-64 -218q-6 -20 -27 -20h-21q-9 0 -13.5 6t-1.5 14l87 270q-14 -3 -30 -3h-18q-98 0 -98 98v225q0 98 98 98h18q98 0 98 -98v-144l64 218q6 20 27 20h21q9 0 13.5 -6t1.5 -14z
M178 602q0 39 -38 39h-8q-38 0 -38 -39v-215q0 -39 43 -39q41 0 41 39v215zM362 313q0 39 -38 39h-9q-37 0 -37 -39v-215q0 -39 42 -39t42 39v215z" />
    <glyph glyph-name="ampersand" unicode="&#x26;" horiz-adv-x="401" 
d="M99 115q0 -48 48 -48h23q22 0 32 11.5t21 43.5l15 46l-94 175l-15 -13q-30 -26 -30 -70v-145zM358 -2h-2q-22 0 -31 19l-37 70q-19 -53 -46 -73t-87 -20h-11q-122 0 -122 122v141q0 76 47 118l39 34l-23 42q-24 45 -24 103v30q0 122 122 122h18q120 0 120 -120v-67
q0 -38 -37 -38h-2q-20 0 -29 9t-9 29v66q0 48 -52 48t-52 -48v-31q0 -42 14 -69l121 -229l42 137q7 24 32 24h2q47 0 33 -45l-61 -194l68 -125q30 -55 -33 -55z" />
    <glyph glyph-name="quotesingle" unicode="'" horiz-adv-x="126" 
d="M71 702h2q40 0 34 -39l-33 -206q-3 -20 -23 -20h-6q-25 0 -24 25l14 208q1 32 36 32z" />
    <glyph glyph-name="parenleft" unicode="(" horiz-adv-x="208" 
d="M108 274q0 -105 15 -157t59 -115q14 -19 -1 -31l-11 -9q-15 -12 -30 4q-62 65 -83 125t-21 184v150q0 124 21 184t83 125q15 16 30 4l11 -9q15 -12 1 -31q-44 -63 -59 -115t-15 -157v-152z" />
    <glyph glyph-name="parenright" unicode=")" horiz-adv-x="208" 
d="M26 2q44 63 59 115t15 157v152q0 105 -15 157t-59 115q-14 19 1 31l11 9q15 12 30 -4q62 -65 83 -125t21 -184v-150q0 -124 -21 -184t-83 -125q-15 -16 -30 -4l-11 9q-15 12 -1 31z" />
    <glyph glyph-name="asterisk" unicode="*" horiz-adv-x="267" 
d="M257 500v-2q-2 -42 -39 -21l-62 39l3 -81q1 -25 -24 -25h-2q-26 0 -25 25l3 81l-63 -39q-36 -22 -38 21v2q0 16 13 22l72 35l-71 35q-14 7 -14 22v2q2 42 38 21l63 -39l-3 81q-1 25 25 25h2q25 0 24 -25l-3 -81l63 39q36 22 38 -21v-2q0 -16 -13 -22l-72 -35l72 -35
q13 -6 13 -22z" />
    <glyph glyph-name="plus" unicode="+" horiz-adv-x="312" 
d="M308 357v-2q0 -34 -33 -34h-82v-83q0 -19 -8 -27t-27 -8h-2q-19 0 -27 8t-8 27v83h-81q-34 0 -34 34v2q0 33 34 33h81v84q0 19 8 27t27 8h2q19 0 27 -8t8 -27v-84h82q33 0 33 -33z" />
    <glyph glyph-name="comma" unicode="," horiz-adv-x="138" 
d="M64 -82q-7 -10 -17 -7l-5 2q-17 5 -9 19l8 16q14 34 16 50h-7q-20 0 -20 20v62q0 20 9 29t29 9h3q37 0 37 -37v-46q0 -31 -4.5 -46t-21.5 -43z" />
    <glyph glyph-name="hyphen" unicode="-" horiz-adv-x="206" 
d="M12 279v2q0 19 8 27t27 8h112q19 0 27 -8t8 -27v-2q0 -19 -8 -27t-27 -8h-112q-19 0 -27 8t-8 27z" />
    <glyph glyph-name="period" unicode="." horiz-adv-x="138" 
d="M68 118h2q20 0 29 -9t9 -29v-44q0 -20 -9 -29t-29 -9h-2q-20 0 -29 9t-9 29v44q0 20 9 29t29 9z" />
    <glyph glyph-name="slash" unicode="/" horiz-adv-x="206" 
d="M161 734h2q39 0 33 -38l-120 -703q-4 -27 -32 -27h-2q-39 0 -33 38l120 702q4 28 32 28z" />
    <glyph glyph-name="zero" unicode="0" horiz-adv-x="358" 
d="M322 576v-452q0 -130 -130 -130h-26q-130 0 -130 130v452q0 130 130 130h26q130 0 130 -130zM243 120v460q0 53 -53 53h-22q-53 0 -53 -53v-460q0 -53 53 -53h22q53 0 53 53z" />
    <glyph glyph-name="one" unicode="1" horiz-adv-x="198" 
d="M126 704h5q19 0 19 -20v-649q0 -37 -37 -37h-2q-37 0 -37 37v540h-38q-32 0 -32 29v6q0 14 7 20.5t23 11.5q39 10 56 36l7 11q10 15 29 15z" />
    <glyph glyph-name="two" unicode="2" horiz-adv-x="338" 
d="M30 120q0 38 11.5 68t42.5 68l113 142q31 39 31 76v106q0 53 -51 53h-16q-51 0 -51 -53v-98q0 -20 -9 -29t-29 -9h-2q-20 0 -29 9t-9 29v94q0 130 128 130h20q128 0 128 -130v-90q0 -72 -52 -136l-113 -142q-20 -25 -26.5 -43t-6.5 -50v-41h166q20 0 28 -8t8 -28v-2
q0 -20 -8 -28t-28 -8h-200q-25 0 -35.5 10.5t-10.5 35.5v74z" />
    <glyph glyph-name="three" unicode="3" horiz-adv-x="347" 
d="M179 67q53 0 53 53v146q0 53 -51 53h-47q-20 0 -28 8.5t-8 27.5v2q0 19 8 27.5t28 8.5h45q51 0 51 53v134q0 53 -51 53h-20q-51 0 -51 -53v-64q0 -20 -9 -29t-29 -9h-2q-20 0 -29 9t-9 29v60q0 130 130 130h20q130 0 130 -130v-110q0 -82 -58 -104q60 -17 60 -90v-148
q0 -130 -130 -130h-26q-128 0 -128 128v75q0 20 9 29t29 9h2q20 0 29 -9t9 -29v-77q0 -53 53 -53h20z" />
    <glyph glyph-name="four" unicode="4" horiz-adv-x="332" 
d="M329 177v-19q0 -26 -25 -26h-28v-99q0 -19 -8 -27t-27 -8h-2q-19 0 -27 8t-8 27v99h-141q-46 0 -46 41v15q0 16 6 34l144 452q9 32 43 32h20q25 0 35.5 -10.5t10.5 -35.5v-458h28q25 0 25 -25zM204 579l-117 -377h117v377z" />
    <glyph glyph-name="five" unicode="5" horiz-adv-x="343" 
d="M202 440q49 0 78.5 -31t29.5 -84v-201q0 -130 -128 -130h-20q-126 0 -126 128v85q0 20 9 29t29 9h2q20 0 29 -9t9 -29v-87q0 -53 51 -53h14q51 0 51 53v190q0 56 -46 56q-32 0 -62 -27q-20 -17 -38 -17h-11q-18 0 -25.5 7.5t-7.5 25.5v299q0 25 10.5 35.5t35.5 10.5h180
q20 0 28 -8t8 -28v-2q0 -20 -8 -28t-28 -8h-152v-219q42 33 88 33z" />
    <glyph glyph-name="six" unicode="6" horiz-adv-x="350" 
d="M316 299v-175q0 -130 -130 -130h-20q-130 0 -130 130v452q0 130 130 130h21q65 0 95.5 -30.5t30.5 -95.5v-61q0 -38 -37 -38h-2q-20 0 -29 9t-9 29v61q0 53 -51 53h-19q-51 0 -51 -53v-187q41 22 86 22q54 0 84.5 -31.5t30.5 -84.5zM115 120q0 -53 51 -53h21q51 0 51 53
v164q0 57 -54 57q-39 0 -69 -15v-206z" />
    <glyph glyph-name="seven" unicode="7" horiz-adv-x="279" 
d="M225 700q37 0 37 -39v-6q0 -17 -8 -49l-129 -580q-6 -28 -35 -28h-2q-45 0 -35 44l129 584h-135q-19 0 -27.5 8t-8.5 28v2q0 20 8.5 28t27.5 8h178z" />
    <glyph glyph-name="eight" unicode="8" horiz-adv-x="350" 
d="M37 576q0 130 130 130h16q130 0 130 -130v-108q0 -82 -58 -104q60 -17 60 -90v-150q0 -130 -130 -130h-20q-130 0 -130 130v150q0 73 60 90q-58 22 -58 104v108zM113 446q0 -53 53 -53h18q53 0 53 53v135q0 53 -53 53h-18q-53 0 -53 -53v-135zM165 322q-53 0 -53 -53
v-150q0 -53 53 -53h20q53 0 53 53v150q0 53 -53 53h-20z" />
    <glyph glyph-name="nine" unicode="9" horiz-adv-x="348" 
d="M112 408q0 -57 53 -57q38 0 68 15v214q0 53 -51 53h-19q-51 0 -51 -53v-172zM312 124q0 -130 -130 -130h-19q-66 0 -97 30t-31 96v54q0 37 38 37h2q37 0 37 -37v-54q0 -53 51 -53h19q51 0 51 53v179q-41 -22 -84 -22q-54 0 -84.5 31.5t-30.5 84.5v183q0 130 130 130h18
q130 0 130 -130v-452z" />
    <glyph glyph-name="colon" unicode=":" horiz-adv-x="138" 
d="M68 542h2q20 0 29 -9t9 -29v-44q0 -20 -9 -29t-29 -9h-2q-20 0 -29 9t-9 29v44q0 20 9 29t29 9zM68 118h2q20 0 29 -9t9 -29v-44q0 -20 -9 -29t-29 -9h-2q-20 0 -29 9t-9 29v44q0 20 9 29t29 9z" />
    <glyph glyph-name="semicolon" unicode=";" horiz-adv-x="138" 
d="M68 542h2q20 0 29 -9t9 -29v-44q0 -20 -9 -29t-29 -9h-2q-20 0 -29 9t-9 29v44q0 20 9 29t29 9zM64 -82q-7 -10 -17 -7l-5 2q-17 5 -9 19l8 16q14 34 16 50h-7q-20 0 -20 20v62q0 20 9 29t29 9h3q37 0 37 -37v-46q0 -31 -4.5 -46t-21.5 -43z" />
    <glyph glyph-name="less" unicode="&#x3c;" horiz-adv-x="314" 
d="M250 228l-202 68q-37 13 -37 48v24q0 35 36 48l204 70q40 14 40 -24v-14q0 -24 -24 -32l-194 -59l194 -58q24 -8 24 -32v-15q0 -38 -41 -24z" />
    <glyph glyph-name="equal" unicode="=" horiz-adv-x="314" 
d="M11 429v2q0 33 34 33h225q33 0 33 -33v-2q0 -34 -33 -34h-225q-34 0 -34 34zM11 281v2q0 33 34 33h225q33 0 33 -33v-2q0 -34 -33 -34h-225q-34 0 -34 34z" />
    <glyph glyph-name="greater" unicode="&#x3e;" horiz-adv-x="314" 
d="M266 296l-202 -68q-41 -14 -41 24v15q0 24 24 32l194 58l-194 59q-24 8 -24 32v14q0 38 40 24l204 -70q36 -13 36 -48v-24q0 -35 -37 -48z" />
    <glyph glyph-name="question" unicode="?" horiz-adv-x="313" 
d="M116 289q0 26 6 43t13 26t30 34l24 26q24 27 24 55v107q0 53 -51 53h-17q-51 0 -51 -53v-98q0 -20 -8 -28t-28 -8h-2q-20 0 -28 8t-8 28v94q0 130 130 130h13q130 0 130 -130v-97q0 -35 -10.5 -53t-46.5 -59l-37 -42q-8 -9 -11 -19t-3.5 -16t-0.5 -25v-45
q0 -18 -7.5 -25.5t-25.5 -7.5h-2q-18 0 -25.5 7.5t-7.5 25.5v69zM149 120h2q20 0 29 -9t9 -29v-46q0 -20 -9 -29t-29 -9h-2q-20 0 -29 9t-9 29v46q0 20 9 29t29 9z" />
    <glyph glyph-name="at" unicode="@" horiz-adv-x="496" 
d="M290 617q85 0 125.5 -40.5t40.5 -128.5v-335q0 -43 -17 -62t-53 -19h-24q-30 0 -44 9.5t-20 32.5q-34 -43 -84 -43q-35 0 -53.5 20.5t-18.5 56.5v107q0 37 13 56t46 30l88 30v80q0 40 -39 40q-41 0 -41 -40v-33q0 -28 -27 -28h-6q-16 0 -22.5 6.5t-6.5 22.5v35
q0 98 97 98h11q97 0 97 -98v-320q0 -28 30 -28q38 0 38 49v333q0 71 -31.5 103t-98.5 32h-84q-67 0 -98.5 -32t-31.5 -103v-359q0 -74 26.5 -102t93.5 -28h220q16 0 16 -16v-2q0 -16 -16 -16h-220q-87 0 -121.5 35.5t-34.5 128.5v359q0 88 40.5 128.5t125.5 40.5h84z
M205 124q0 -33 29 -33q22 0 55 22v157l-57 -20q-27 -9 -27 -40v-86z" />
    <glyph glyph-name="A" unicode="A" horiz-adv-x="352" 
d="M120 189h109l-54 391zM291 -2h-2q-33 0 -37 33l-12 86h-130l-12 -87q-4 -32 -36 -32h-2q-43 0 -36 43l95 624q3 21 13.5 30t31.5 9h24q21 0 31.5 -9t13.5 -30l95 -623q4 -23 -5 -33.5t-32 -10.5z" />
    <glyph glyph-name="B" unicode="B" horiz-adv-x="351" 
d="M314 467q0 -86 -61 -109q63 -25 63 -110v-118q0 -130 -130 -130h-102q-25 0 -35.5 10.5t-10.5 35.5v608q0 25 10.5 35.5t35.5 10.5h100q130 0 130 -130v-103zM235 452v123q0 53 -53 53h-65v-235h59q59 0 59 59zM178 322h-61v-250h67q53 0 53 53v138q0 59 -59 59z" />
    <glyph glyph-name="C" unicode="C" horiz-adv-x="354" 
d="M244 120v113q0 20 9 29t29 9h2q20 0 29 -9t9 -29v-109q0 -130 -130 -130h-26q-130 0 -130 130v452q0 130 130 130h26q128 0 128 -128v-90q0 -20 -9 -29t-29 -9h-2q-20 0 -29 9t-9 29v92q0 53 -53 53h-20q-53 0 -53 -53v-460q0 -53 53 -53h22q53 0 53 53z" />
    <glyph glyph-name="D" unicode="D" horiz-adv-x="361" 
d="M170 0h-86q-25 0 -35.5 10.5t-10.5 35.5v608q0 25 10.5 35.5t35.5 10.5h86q155 0 155 -155v-390q0 -155 -155 -155zM166 627h-48v-554h48q79 0 79 81v392q0 81 -79 81z" />
    <glyph glyph-name="E" unicode="E" horiz-adv-x="288" 
d="M38 46v608q0 25 10.5 35.5t35.5 10.5h140q20 0 28 -8t8 -28v-2q0 -20 -8 -28t-28 -8h-106v-232h102q19 0 27 -8t8 -27v-2q0 -19 -8 -27.5t-27 -8.5h-102v-247h108q20 0 28 -8t8 -28v-2q0 -20 -8 -28t-28 -8h-142q-25 0 -35.5 10.5t-10.5 35.5z" />
    <glyph glyph-name="F" unicode="F" horiz-adv-x="279" 
d="M38 35v619q0 25 10.5 35.5t35.5 10.5h135q19 0 27.5 -8t8.5 -28v-2q0 -20 -8.5 -28t-27.5 -8h-101v-234h97q19 0 27 -8t8 -27v-2q0 -19 -8 -27.5t-27 -8.5h-97v-284q0 -21 -9 -30t-30 -9h-2q-21 0 -30 9t-9 30z" />
    <glyph glyph-name="G" unicode="G" horiz-adv-x="360" 
d="M248 120v179h-35q-17 0 -24.5 7.5t-7.5 24.5v6q0 19 8.5 27t27.5 8h63q25 0 35.5 -10.5t10.5 -35.5v-202q0 -130 -130 -130h-30q-130 0 -130 130v452q0 130 130 130h30q128 0 128 -128v-60q0 -20 -9 -29t-29 -9h-2q-20 0 -29 9t-9 29v62q0 53 -53 53h-24q-53 0 -53 -53
v-460q0 -53 53 -53h26q53 0 53 53z" />
    <glyph glyph-name="H" unicode="H" horiz-adv-x="366" 
d="M118 663v-268h130v268q0 21 9 30t30 9h2q21 0 30 -9t9 -30v-626q0 -21 -9 -30t-30 -9h-2q-21 0 -30 9t-9 30v283h-130v-283q0 -21 -9 -30t-30 -9h-2q-21 0 -30 9t-9 30v626q0 21 9 30t30 9h2q21 0 30 -9t9 -30z" />
    <glyph glyph-name="I" unicode="I" horiz-adv-x="158" 
d="M78 702h2q21 0 30 -9t9 -30v-626q0 -21 -9 -30t-30 -9h-2q-21 0 -30 9t-9 30v626q0 21 9 30t30 9z" />
    <glyph glyph-name="J" unicode="J" horiz-adv-x="224" 
d="M47 0q-22 0 -31.5 8t-9.5 27v2q0 19 9 27t32 8q32 0 46 14t14 43v534q0 21 9 30t30 9h2q21 0 30 -9t9 -30v-533q0 -65 -32 -97q-33 -33 -108 -33z" />
    <glyph glyph-name="K" unicode="K" horiz-adv-x="336" 
d="M278 -2h-2q-27 0 -37 25l-121 321v-307q0 -21 -9 -30t-30 -9h-2q-21 0 -30 9t-9 30v626q0 21 9 30t30 9h2q21 0 30 -9t9 -30v-302l128 318q11 23 35 23h2q57 0 36 -53l-122 -292l119 -304q21 -55 -38 -55z" />
    <glyph glyph-name="L" unicode="L" horiz-adv-x="266" 
d="M38 46v617q0 21 9 30t30 9h2q21 0 30 -9t9 -30v-589h98q20 0 28 -8t8 -28v-2q0 -20 -8 -28t-28 -8h-132q-25 0 -35.5 10.5t-10.5 35.5z" />
    <glyph glyph-name="M" unicode="M" horiz-adv-x="504" 
d="M253 -2h-4q-40 0 -45 38l-90 545v-546q0 -37 -37 -37h-2q-37 0 -37 37v621q0 25 10.5 35.5t35.5 10.5h41q21 0 31.5 -9t13.5 -30l83 -518l83 518q3 21 13.5 30t31.5 9h39q25 0 35.5 -10.5t10.5 -35.5v-620q0 -20 -9 -29t-29 -9h-2q-20 0 -29 9t-9 29v545l-90 -545
q-5 -38 -45 -38z" />
    <glyph glyph-name="N" unicode="N" horiz-adv-x="378" 
d="M294 -2h-17q-37 0 -45 36l-118 516v-515q0 -37 -37 -37h-2q-37 0 -37 37v621q0 25 10.5 35.5t35.5 10.5h27q37 0 45 -36l108 -472v471q0 37 37 37h2q37 0 37 -37v-621q0 -25 -10.5 -35.5t-35.5 -10.5z" />
    <glyph glyph-name="O" unicode="O" horiz-adv-x="362" 
d="M326 576v-452q0 -130 -130 -130h-30q-130 0 -130 130v452q0 130 130 130h30q130 0 130 -130zM246 120v460q0 53 -53 53h-24q-53 0 -53 -53v-460q0 -53 53 -53h24q53 0 53 53z" />
    <glyph glyph-name="P" unicode="P" horiz-adv-x="333" 
d="M176 263h-58v-226q0 -21 -9 -30t-30 -9h-2q-21 0 -30 9t-9 30v617q0 25 10.5 35.5t35.5 10.5h92q130 0 130 -130v-177q0 -130 -130 -130zM226 389v185q0 53 -53 53h-55v-291h55q53 0 53 53z" />
    <glyph glyph-name="Q" unicode="Q" horiz-adv-x="362" 
d="M331 -43l-3 -6q-6 -13 -18.5 -17t-27.5 4l-98 56h-18q-130 0 -130 130v452q0 130 130 130h30q130 0 130 -130v-440q0 -90 -61 -117l49 -20q13 -6 18 -18t-1 -24zM193 67q53 0 53 53v460q0 53 -53 53h-24q-53 0 -53 -53v-460q0 -53 53 -53h24z" />
    <glyph glyph-name="R" unicode="R" horiz-adv-x="354" 
d="M237 424v150q0 53 -53 53h-66v-262h60q59 0 59 59zM317 440q0 -85 -62 -110q63 -17 63 -94v-199q0 -21 -9 -30t-30 -9h-2q-21 0 -30 9t-9 30v196q0 61 -61 61h-59v-257q0 -21 -9 -30t-30 -9h-2q-21 0 -30 9t-9 30v617q0 25 10.5 35.5t35.5 10.5h103q130 0 130 -130v-130z
" />
    <glyph glyph-name="S" unicode="S" horiz-adv-x="348" 
d="M151 426l97 -70q38 -28 52.5 -56.5t14.5 -73.5v-102q0 -130 -130 -130h-22q-128 0 -128 128v111q0 20 9 29t29 9h2q20 0 29 -9t9 -29v-114q0 -53 53 -53h16q53 0 53 53v105q0 25 -8 39t-27 28l-98 71q-38 27 -52.5 56.5t-14.5 73.5v84q0 130 130 130h20q128 0 128 -128
v-90q0 -20 -9 -29t-29 -9h-2q-20 0 -29 9t-9 29v93q0 53 -53 53h-14q-53 0 -53 -53v-88q0 -25 8.5 -39t27.5 -28z" />
    <glyph glyph-name="T" unicode="T" horiz-adv-x="310" 
d="M195 626v-589q0 -21 -9 -30t-30 -9h-2q-21 0 -30 9t-9 30v589h-71q-20 0 -28 8t-8 28v2q0 20 8 28t28 8h222q20 0 28 -8t8 -28v-2q0 -20 -8 -28t-28 -8h-71z" />
    <glyph glyph-name="U" unicode="U" horiz-adv-x="359" 
d="M281 702h2q21 0 30 -9t9 -30v-539q0 -130 -130 -130h-25q-130 0 -130 130v539q0 21 9 30t30 9h2q21 0 30 -9t9 -30v-543q0 -53 53 -53h19q53 0 53 53v543q0 21 9 30t30 9z" />
    <glyph glyph-name="V" unicode="V" horiz-adv-x="340" 
d="M178 -4h-16q-20 0 -29.5 8.5t-12.5 27.5l-99 625q-7 45 38 45h2q35 0 39 -33l71 -526l71 527q4 32 38 32h2q23 0 32 -10.5t5 -33.5l-99 -626q-3 -19 -12.5 -27.5t-29.5 -8.5z" />
    <glyph glyph-name="W" unicode="W" horiz-adv-x="536" 
d="M171 -2h-22q-22 0 -32.5 9t-13.5 31l-75 621q-2 23 7 33t31 10h2q35 0 38 -34l57 -566l62 561q4 39 43 39h2q39 0 43 -39l61 -561l58 567q2 18 10 25.5t27 7.5h2q41 0 37 -42l-75 -622q-3 -22 -13.5 -31t-32.5 -9h-22q-22 0 -32.5 9t-13.5 32l-52 466l-51 -466
q-2 -23 -12.5 -32t-32.5 -9z" />
    <glyph glyph-name="X" unicode="X" horiz-adv-x="326" 
d="M268 -2h-2q-28 0 -35 27l-69 247l-68 -244q-5 -17 -13 -23.5t-25 -6.5h-3q-20 0 -29.5 11t-3.5 30l95 311l-91 304q-13 48 36 48h2q28 0 35 -27l67 -248l66 245q5 17 13 23.5t25 6.5h3q20 0 29.5 -11t3.5 -30l-93 -311l92 -304q15 -48 -35 -48z" />
    <glyph glyph-name="Y" unicode="Y" horiz-adv-x="313" 
d="M197 245v-208q0 -21 -9 -30t-30 -9h-2q-21 0 -30 9t-9 30v202l-103 415q-12 48 37 48h2q32 0 37 -30l67 -315l70 316q6 29 36 29h2q46 0 36 -46z" />
    <glyph glyph-name="Z" unicode="Z" horiz-adv-x="285" 
d="M26 96l164 531h-128q-20 0 -28 8.5t-8 27.5v2q0 19 8.5 27t27.5 8h172q37 0 37 -39v-6q0 -20 -9 -51l-166 -531h135q19 0 27 -8t8 -27v-2q0 -19 -8 -27.5t-27 -8.5h-177q-37 0 -37 39v6q0 20 9 51z" />
    <glyph glyph-name="bracketleft" unicode="[" horiz-adv-x="209" 
d="M116 30h56q30 0 30 -30v-2q0 -30 -30 -30h-82q-25 0 -35.5 10.5t-10.5 35.5v672q0 25 10.5 35.5t35.5 10.5h82q30 0 30 -30v-2q0 -30 -30 -30h-56v-640z" />
    <glyph glyph-name="backslash" unicode="\" horiz-adv-x="206" 
d="M164 -34h-2q-28 0 -32 27l-120 703q-6 38 33 38h2q28 0 32 -27l120 -703q6 -38 -33 -38z" />
    <glyph glyph-name="bracketright" unicode="]" horiz-adv-x="209" 
d="M37 30h56v640h-56q-30 0 -30 30v2q0 30 30 30h82q25 0 35.5 -10.5t10.5 -35.5v-672q0 -25 -10.5 -35.5t-35.5 -10.5h-82q-30 0 -30 30v2q0 30 30 30z" />
    <glyph glyph-name="asciicircum" unicode="^" horiz-adv-x="400" 
d="M190 702h20q24 0 35 -23l65 -146q19 -42 -27 -42h-2q-19 0 -27 17l-54 125l-54 -125q-8 -17 -27 -17h-2q-46 0 -27 42l65 146q11 23 35 23z" />
    <glyph glyph-name="underscore" unicode="_" horiz-adv-x="445" 
d="M-6 -57v2q0 18 7.5 25.5t25.5 7.5h391q18 0 25.5 -7.5t7.5 -25.5v-2q0 -18 -7.5 -25.5t-25.5 -7.5h-391q-18 0 -25.5 7.5t-7.5 25.5z" />
    <glyph glyph-name="grave" unicode="`" 
d="M244 694h17q23 0 30 -20l22 -64q5 -12 0 -19.5t-18 -7.5h-8q-14 0 -24 16l-38 65q-6 10 -0.5 20t19.5 10z" />
    <glyph glyph-name="a" unicode="a" horiz-adv-x="319" 
d="M104 105q0 -39 37 -39q29 0 69 35v166l-69 -24q-21 -8 -29 -20.5t-8 -35.5v-82zM210 35v6q-39 -47 -93 -47q-89 0 -89 95v99q0 49 18 74t62 40l102 35v90q0 49 -51 49t-51 -49v-36q0 -33 -32 -33h-11q-31 0 -31 31v35q0 122 126 122t126 -122v-389q0 -37 -37 -37h-2
q-37 0 -37 37z" />
    <glyph glyph-name="b" unicode="b" horiz-adv-x="334" 
d="M204 -6q-55 0 -93 46v-5q0 -37 -37 -37h-2q-37 0 -37 37v640q0 37 37 37h2q37 0 37 -37v-180q38 51 93 51q48 0 72.5 -29t24.5 -78v-338q0 -49 -24.5 -78t-72.5 -29zM181 474q-35 0 -70 -38v-332q35 -38 70 -38q44 0 44 44v320q0 44 -44 44z" />
    <glyph glyph-name="c" unicode="c" horiz-adv-x="325" 
d="M257 336h-2q-20 0 -28.5 8.5t-8.5 28.5v54q0 48 -48 48h-14q-48 0 -48 -48v-314q0 -48 48 -48h15q48 0 48 48v73q0 20 8.5 28t28.5 8h2q20 0 28 -8t8 -28v-70q0 -122 -122 -122h-18q-122 0 -122 122v308q0 122 122 122h19q120 0 120 -120v-53q0 -20 -8 -28.5t-28 -8.5z
" />
    <glyph glyph-name="d" unicode="d" horiz-adv-x="334" 
d="M153 66q35 0 70 38v332q-35 38 -70 38q-44 0 -44 -44v-320q0 -44 44 -44zM223 35v7q-40 -48 -93 -48q-48 0 -72.5 29t-24.5 78v338q0 49 24.5 78t72.5 29q55 0 93 -49v178q0 37 37 37h2q37 0 37 -37v-640q0 -37 -37 -37h-2q-37 0 -37 37z" />
    <glyph glyph-name="e" unicode="e" horiz-adv-x="323" 
d="M292 147v-31q0 -122 -122 -122h-16q-122 0 -122 122v308q0 122 122 122h16q122 0 122 -122v-136q0 -25 -10.5 -35.5t-35.5 -10.5h-138v-129q0 -48 48 -48h14q48 0 48 48v34q0 30 30 30h14q30 0 30 -30zM156 475q-48 0 -48 -48v-113h108v113q0 48 -48 48h-12z" />
    <glyph glyph-name="f" unicode="f" horiz-adv-x="196" 
d="M128 35q0 -37 -37 -37h-2q-37 0 -37 37v435h-5q-34 0 -34 34v2q0 34 34 34h5v61q0 109 104 109q21 0 29.5 -8t8.5 -26v-2q0 -34 -34 -34q-32 0 -32 -36v-64h29q34 0 34 -34v-2q0 -34 -34 -34h-29v-435z" />
    <glyph glyph-name="g" unicode="g" horiz-adv-x="334" 
d="M153 127q34 0 70 36v273q-35 38 -70 38q-44 0 -44 -44v-259q0 -44 44 -44zM181 -114h-40q-106 0 -106 104q0 32 33 32h4q34 0 34 -28q0 -22 8 -32t31 -10h39q39 0 39 42v108q-42 -47 -93 -47q-48 0 -72.5 29t-24.5 78v277q0 49 24.5 78t72.5 29q55 0 93 -46v5q0 37 37 37
h2q37 0 37 -37v-502q0 -117 -118 -117z" />
    <glyph glyph-name="h" unicode="h" horiz-adv-x="333" 
d="M111 437v-402q0 -37 -37 -37h-2q-37 0 -37 37v640q0 37 37 37h2q37 0 37 -37v-180q43 51 96 51q92 0 92 -97v-414q0 -37 -37 -37h-2q-37 0 -37 37v398q0 41 -39 41q-31 0 -73 -37z" />
    <glyph glyph-name="i" unicode="i" horiz-adv-x="152" 
d="M77 591h-2q-21 0 -30 9t-9 30v15q0 21 9 30t30 9h2q21 0 30 -9t9 -30v-15q0 -21 -9 -30t-30 -9zM77 -2h-2q-37 0 -37 37v470q0 37 37 37h2q37 0 37 -37v-470q0 -37 -37 -37z" />
    <glyph glyph-name="j" unicode="j" horiz-adv-x="152" 
d="M77 591h-2q-21 0 -30 9t-9 30v15q0 21 9 30t30 9h2q21 0 30 -9t9 -30v-15q0 -21 -9 -30t-30 -9zM20 -112q-27 0 -27 25v15q0 18 13 24q3 1 12 3t13 6q7 7 7 30v514q0 37 37 37h2q37 0 37 -37v-518q0 -49 -27 -74t-64 -25h-3z" />
    <glyph glyph-name="k" unicode="k" horiz-adv-x="304" 
d="M287 47q10 -23 -0.5 -36t-33.5 -13h-1q-28 0 -39 26l-102 244v-233q0 -37 -37 -37h-2q-37 0 -37 37v640q0 37 37 37h2q37 0 37 -37v-397l107 237q12 27 39 27h2q23 0 31.5 -10.5t-0.5 -34.5l-106 -220z" />
    <glyph glyph-name="l" unicode="l" horiz-adv-x="152" 
d="M77 -2h-2q-37 0 -37 37v640q0 37 37 37h2q37 0 37 -37v-640q0 -37 -37 -37z" />
    <glyph glyph-name="m" unicode="m" horiz-adv-x="509" 
d="M111 35q0 -37 -37 -37h-2q-37 0 -37 37v470q0 37 37 37h2q37 0 37 -37v-8q43 49 93 49q64 0 82 -51q49 51 100 51q44 0 66.5 -25t22.5 -70v-416q0 -37 -37 -37h-2q-37 0 -37 37v400q0 39 -36 39q-28 0 -70 -37v-402q0 -37 -37 -37h-2q-37 0 -37 37v400q0 39 -36 39
q-28 0 -70 -37v-402z" />
    <glyph glyph-name="n" unicode="n" horiz-adv-x="333" 
d="M111 35q0 -37 -37 -37h-2q-37 0 -37 37v470q0 37 37 37h2q37 0 37 -37v-8q39 49 96 49q92 0 92 -97v-414q0 -37 -37 -37h-2q-37 0 -37 37v398q0 41 -39 41q-31 0 -73 -37v-402z" />
    <glyph glyph-name="o" unicode="o" horiz-adv-x="330" 
d="M298 116q0 -122 -122 -122h-22q-122 0 -122 122v308q0 122 122 122h22q122 0 122 -122v-308zM222 427q0 48 -48 48h-18q-48 0 -48 -48v-314q0 -48 48 -48h18q48 0 48 48v314z" />
    <glyph glyph-name="p" unicode="p" horiz-adv-x="334" 
d="M225 110v320q0 44 -44 44q-35 0 -70 -38v-342q33 -28 70 -28q44 0 44 44zM111 -75q0 -37 -37 -37h-2q-37 0 -37 37v580q0 37 37 37h2q37 0 37 -37v-8q41 49 93 49q48 0 72.5 -29t24.5 -78v-338q0 -49 -24.5 -78t-72.5 -29q-54 0 -93 39v-108z" />
    <glyph glyph-name="q" unicode="q" horiz-adv-x="334" 
d="M262 -112h-2q-37 0 -37 37v120q-38 -51 -93 -51q-48 0 -72.5 29t-24.5 78v338q0 49 24.5 78t72.5 29q55 0 93 -46v5q0 37 37 37h2q37 0 37 -37v-580q0 -37 -37 -37zM153 66q35 0 70 38v332q-35 38 -70 38q-44 0 -44 -44v-320q0 -44 44 -44z" />
    <glyph glyph-name="r" unicode="r" horiz-adv-x="209" 
d="M74 -2h-2q-37 0 -37 37v470q0 37 37 37h2q37 0 37 -37v-22q34 63 69 63q26 0 26 -32v-9q0 -16 -8.5 -26t-33.5 -23q-28 -15 -53 -36v-385q0 -37 -37 -37z" />
    <glyph glyph-name="s" unicode="s" horiz-adv-x="318" 
d="M251 348h-2q-20 0 -28.5 8.5t-8.5 28.5v46q0 46 -46 46h-13q-46 0 -46 -46v-47q0 -34 28 -51l90 -56q34 -22 48.5 -45t14.5 -62v-54q0 -122 -122 -122h-15q-120 0 -120 120v46q0 20 8.5 28t28.5 8h2q20 0 28 -8t8 -28v-51q0 -46 46 -46h15q46 0 46 46v51q0 33 -28 51
l-90 56q-34 22 -48.5 45t-14.5 62v50q0 122 122 122h13q120 0 120 -120v-41q0 -20 -8 -28.5t-28 -8.5z" />
    <glyph glyph-name="t" unicode="t" horiz-adv-x="200" 
d="M131 35q0 -37 -37 -37h-2q-37 0 -37 37v435h-10q-34 0 -34 34v2q0 34 34 34h10v55q0 37 37 37h2q37 0 37 -37v-55h25q34 0 34 -34v-2q0 -34 -34 -34h-25v-435z" />
    <glyph glyph-name="u" unicode="u" horiz-adv-x="333" 
d="M222 35v8q-39 -49 -96 -49q-92 0 -92 97v414q0 37 37 37h2q37 0 37 -37v-398q0 -41 39 -41q31 0 73 37v402q0 37 37 37h2q37 0 37 -37v-470q0 -37 -37 -37h-2q-37 0 -37 37z" />
    <glyph glyph-name="v" unicode="v" horiz-adv-x="308" 
d="M162 -2h-16q-19 0 -28 7.5t-12 25.5l-85 468q-9 43 36 43h2q32 0 36 -31l60 -419l60 420q4 30 35 30h2q44 0 35 -42l-85 -469q-3 -18 -12 -25.5t-28 -7.5z" />
    <glyph glyph-name="w" unicode="w" horiz-adv-x="461" 
d="M139 -2h-8q-17 0 -25.5 7.5t-11.5 24.5l-72 471q-6 41 36 41h2q31 0 35 -31l44 -382l51 378q3 19 12.5 27t28.5 8h2q19 0 28 -8t12 -27l52 -378l43 383q2 17 10 23.5t25 6.5h2q40 0 34 -40l-72 -472q-3 -17 -11.5 -24.5t-25.5 -7.5h-8q-21 0 -30.5 8.5t-12.5 29.5
l-47 351l-50 -351q-3 -21 -12.5 -29.5t-30.5 -8.5z" />
    <glyph glyph-name="x" unicode="x" horiz-adv-x="277" 
d="M232 -2h-2q-26 0 -34 24l-59 169l-59 -170q-8 -23 -33 -23h-2q-51 0 -33 48l85 219l-83 228q-18 49 34 49h2q26 0 34 -25l57 -167l57 168q8 24 33 24h2q51 0 33 -48l-82 -218l84 -229q18 -49 -34 -49z" />
    <glyph glyph-name="y" unicode="y" horiz-adv-x="305" 
d="M287 500l-116 -584q-6 -28 -35 -28h-2q-44 0 -34 43l16 77l-98 490q-9 44 36 44h2q30 0 35 -30l62 -358l62 359q3 16 11 22.5t24 6.5h2q42 0 35 -42z" />
    <glyph glyph-name="z" unicode="z" horiz-adv-x="260" 
d="M24 97l144 373h-113q-34 0 -34 34v2q0 34 34 34h156q35 0 35 -39v-6q0 -24 -10 -52l-146 -373h120q34 0 34 -34v-2q0 -34 -34 -34h-161q-35 0 -35 39v6q0 24 10 52z" />
    <glyph glyph-name="braceleft" unicode="{" horiz-adv-x="256" 
d="M10 344v14q0 19 18 22l20 3q18 3 27 11t9 25v76q0 69 9 107t29 65t68 72q16 15 32 -1l6 -6q15 -15 -2 -34q-46 -54 -57.5 -87t-11.5 -115v-41q0 -81 -60 -104q60 -23 60 -104v-41q0 -82 11.5 -115t57.5 -87q17 -19 2 -34l-6 -6q-16 -16 -32 -1q-48 45 -68 72t-29 65
t-9 107v76q0 17 -9 25t-27 11l-20 3q-18 3 -18 22z" />
    <glyph glyph-name="bar" unicode="|" horiz-adv-x="270" 
d="M134 765h2q31 0 31 -31v-772q0 -31 -31 -31h-2q-31 0 -31 31v772q0 31 31 31z" />
    <glyph glyph-name="braceright" unicode="}" horiz-adv-x="256" 
d="M246 358v-14q0 -19 -18 -22l-20 -3q-18 -3 -27 -11t-9 -25v-76q0 -69 -9 -107t-29 -65t-68 -72q-16 -15 -32 1l-6 6q-15 15 2 34q46 54 57.5 87t11.5 115v41q0 81 60 104q-60 23 -60 104v41q0 82 -11.5 115t-57.5 87q-17 19 -2 34l6 6q16 16 32 1q48 -45 68 -72t29 -65
t9 -107v-76q0 -17 9 -25t27 -11l20 -3q18 -3 18 -22z" />
    <glyph glyph-name="asciitilde" unicode="~" horiz-adv-x="400" 
d="M207 384q42 -14 58 -14q24 0 55 22q12 8 19.5 4.5t7.5 -14.5v-23q0 -18 -12 -30q-29 -27 -69 -27q-20 0 -62 14t-59 14q-24 0 -55 -22q-12 -8 -19.5 -4.5t-7.5 14.5v23q0 18 12 30q29 27 69 27q21 0 63 -14z" />
    <glyph glyph-name="uni00A0" unicode="&#xa0;" horiz-adv-x="120" 
 />
    <glyph glyph-name="exclamdown" unicode="&#xa1;" horiz-adv-x="158" 
d="M80 580h-2q-20 0 -29 9t-9 29v46q0 20 9 29t29 9h2q20 0 29 -9t9 -29v-46q0 -20 -9 -29t-29 -9zM78 -6q-20 0 -29 9t-9 29v129l24 341q1 13 14 13h2q13 0 14 -13l24 -339v-131q0 -20 -9 -29t-29 -9h-2z" />
    <glyph glyph-name="cent" unicode="&#xa2;" horiz-adv-x="323" 
d="M290 263v-69q0 -106 -94 -120v-47q0 -17 -7.5 -24.5t-24.5 -7.5h-2q-17 0 -24.5 7.5t-7.5 24.5v47q-96 12 -96 120v316q0 108 96 120v45q0 17 7.5 24.5t24.5 7.5h2q17 0 24.5 -7.5t7.5 -24.5v-45q93 -14 93 -120v-51q0 -19 -8.5 -27.5t-27.5 -8.5h-2q-19 0 -27.5 8.5
t-8.5 27.5v54q0 48 -53 48t-53 -48v-322q0 -48 48 -48h11q48 0 48 48v72q0 19 8 27.5t28 8.5h2q20 0 28 -8.5t8 -27.5z" />
    <glyph glyph-name="sterling" unicode="&#xa3;" horiz-adv-x="369" 
d="M55 0q-19 0 -27 8t-8 27v4q0 19 8 27t27 8h10v205h-10q-19 0 -27 8t-8 27v2q0 19 8 27t27 8h10v225q0 130 130 130h16q128 0 128 -128v-80q0 -20 -9 -29t-29 -9h-2q-20 0 -29 9t-9 29v82q0 53 -51 53h-14q-51 0 -51 -53v-229h97q19 0 27 -8t8 -27v-2q0 -19 -8 -27t-27 -8
h-97v-205h164q19 0 27.5 -8t8.5 -28v-2q0 -20 -8.5 -28t-27.5 -8h-254z" />
    <glyph glyph-name="yen" unicode="&#xa5;" horiz-adv-x="322" 
d="M296 163v-2q0 -27 -26 -27h-70v-98q0 -20 -9 -29t-29 -9h-2q-20 0 -29 9t-9 29v98h-69q-27 0 -27 27v2q0 26 27 26h69v47h-69q-27 0 -27 27v2q0 26 27 26h62l-93 364q-12 47 36 47h2q30 0 36 -29l65 -302l68 303q6 28 35 28h1q48 0 36 -45l-94 -366h63q26 0 26 -26v-2
q0 -27 -26 -27h-70v-47h70q26 0 26 -26z" />
    <glyph glyph-name="section" unicode="&#xa7;" horiz-adv-x="349" 
d="M291 328l-179 73q-42 17 -57 38.5t-15 68.5v68q0 130 130 130h14q128 0 128 -128v-52q0 -20 -8.5 -28t-28.5 -8h-2q-19 0 -27.5 8t-8.5 28v55q0 53 -53 53h-14q-53 0 -53 -53v-82q0 -18 9 -27t28 -17l115 -48q29 -11 36.5 -22t7.5 -33v-10q0 -9 -6.5 -13.5t-15.5 -0.5z
M58 372l179 -73q42 -17 57 -38.5t15 -68.5v-68q0 -130 -130 -130h-14q-128 0 -128 128v53q0 20 8.5 28t28.5 8h2q20 0 28 -8.5t8 -27.5v-56q0 -53 53 -53h14q53 0 53 53v82q0 18 -9 27t-28 17l-115 48q-29 11 -36.5 22t-7.5 33v10q0 9 6.5 13.5t15.5 0.5z" />
    <glyph glyph-name="dieresis" unicode="&#xa8;" 
d="M189 682h8q17 0 23 -7t6 -25v-37q0 -18 -6 -25t-23 -7h-8q-17 0 -23 7t-6 25v37q0 18 6 25t23 7zM311 581h-8q-17 0 -23 7t-6 25v37q0 18 6 25t23 7h8q17 0 23 -7t6 -25v-37q0 -18 -6 -25t-23 -7z" />
    <glyph glyph-name="copyright" unicode="&#xa9;" horiz-adv-x="496" 
d="M40 140v420q0 74 38.5 110t118.5 36h102q80 0 118.5 -36t38.5 -110v-420q0 -74 -38.5 -110t-118.5 -36h-102q-80 0 -118.5 36t-38.5 110zM430 142v416q0 124 -131 124h-102q-131 0 -131 -124v-416q0 -124 131 -124h102q131 0 131 124zM292 187v75q0 16 7 22.5t23 6.5h2
q16 0 22.5 -6.5t6.5 -22.5v-81q0 -91 -96 -91h-14q-96 0 -96 91v339q0 91 96 91h13q95 0 95 -91v-65q0 -16 -6.5 -23t-22.5 -7h-2q-16 0 -23 6.5t-7 23.5v60q0 34 -34 34h-11q-35 0 -35 -34v-328q0 -19 8 -27t27 -8h12q35 0 35 35z" />
    <glyph glyph-name="ordfeminine" unicode="&#xaa;" horiz-adv-x="229" 
d="M82 481q0 -23 22 -23q19 0 42 23v70l-44 -13q-20 -8 -20 -29v-28zM146 432v7q-29 -27 -58 -27q-54 0 -54 59v41q0 48 44 62l68 21v39q0 28 -31 28t-31 -28v-11q0 -19 -21 -19h-5q-21 0 -21 19v16q0 67 79 67q78 0 78 -67v-207q0 -19 -21 -19h-6q-21 0 -21 19z" />
    <glyph glyph-name="guillemotleft" unicode="&#xab;" horiz-adv-x="241" 
d="M161 140l-43 125q-5 15 0 30l40 124q7 20 28 20h2q40 0 30 -38l-33 -121l33 -122q10 -37 -28 -37h-2q-20 0 -27 19zM60 139l-49 125q-6 16 0 33l46 123q7 19 27 19h2q41 0 29 -39l-38 -120l38 -122q12 -37 -27 -37h-2q-19 0 -26 18z" />
    <glyph glyph-name="registered" unicode="&#xae;" horiz-adv-x="296" 
d="M177 706q53 0 74 -21.5t21 -75.5v-177q0 -54 -21 -75.5t-74 -21.5h-58q-53 0 -74 21.5t-21 75.5v177q0 54 21 75.5t74 21.5h58zM177 354q43 0 59 17t16 61v177q0 45 -16 61.5t-59 16.5h-58q-43 0 -59 -17t-16 -61v-177q0 -44 16 -61t59 -17h58zM148 527q25 0 25 19v47
q0 17 -21 17h-28v-83h24zM153 644q58 0 58 -44v-53q0 -28 -28 -37q28 -7 28 -32v-64q0 -18 -18 -18h-2q-18 0 -18 18v59q0 21 -26 21h-23v-80q0 -18 -18 -18h-2q-18 0 -18 18v201q0 17 6 23t24 6h37z" />
    <glyph glyph-name="macron" unicode="&#xaf;" 
d="M149 624v2q0 17 7.5 24.5t24.5 7.5h138q17 0 24.5 -7.5t7.5 -24.5v-2q0 -17 -7.5 -24.5t-24.5 -7.5h-138q-17 0 -24.5 7.5t-7.5 24.5z" />
    <glyph glyph-name="degree" unicode="&#xb0;" horiz-adv-x="257" 
d="M144 706q89 0 89 -91v-183q0 -91 -89 -91h-30q-90 0 -90 91v183q0 91 90 91h30zM138 404q35 0 35 37v165q0 37 -35 37h-19q-35 0 -35 -37v-165q0 -37 35 -37h19z" />
    <glyph glyph-name="plusminus" unicode="&#xb1;" horiz-adv-x="314" 
d="M310 420v-2q0 -34 -33 -34h-83v-80q0 -19 -8 -27t-27 -8h-2q-19 0 -27 8t-8 27v80h-81q-34 0 -34 34v2q0 33 34 33h81v80q0 19 8 27t27 8h2q19 0 27 -8t8 -27v-80h83q33 0 33 -33zM6 183v2q0 33 34 33h235q33 0 33 -33v-2q0 -34 -33 -34h-235q-34 0 -34 34z" />
    <glyph glyph-name="acute" unicode="&#xb4;" 
d="M230 583h-11q-9 0 -13 7.5t0 17.5l22 63q9 23 29 23h24q12 0 16.5 -8t-1.5 -19l-38 -67q-9 -17 -28 -17z" />
    <glyph glyph-name="paragraph" unicode="&#xb6;" horiz-adv-x="335" 
d="M179 29q0 -31 -30 -31q-38 0 -75.5 46t-37.5 119v365q0 172 172 172h46q23 0 33 -10t10 -33v-629q0 -30 -30 -30h-2q-30 0 -30 30v602h-56v-601z" />
    <glyph glyph-name="periodcentered" unicode="&#xb7;" horiz-adv-x="138" 
d="M68 355h2q20 0 29 -9t9 -29v-44q0 -20 -9 -29t-29 -9h-2q-20 0 -29 9t-9 29v44q0 20 9 29t29 9z" />
    <glyph glyph-name="cedilla" unicode="&#xb8;" 
d="M261 12h26q13 0 10 -12l-15 -70q-5 -28 -31 -28h-17q-11 0 -16.5 8t-0.5 20l30 75q3 7 14 7z" />
    <glyph glyph-name="ordmasculine" unicode="&#xba;" horiz-adv-x="237" 
d="M203 487q0 -75 -73 -75h-22q-74 0 -74 75v144q0 75 74 75h22q73 0 73 -75v-144zM155 630q0 31 -29 31h-14q-29 0 -29 -31v-142q0 -31 29 -31h14q29 0 29 31v142z" />
    <glyph glyph-name="guillemotright" unicode="&#xbb;" horiz-adv-x="241" 
d="M123 265l-43 -125q-7 -19 -27 -19h-2q-38 0 -28 37l33 122l-33 121q-10 38 30 38h2q21 0 28 -20l40 -124q5 -15 0 -30zM230 264l-49 -125q-7 -18 -26 -18h-2q-39 0 -27 37l38 122l-38 120q-12 39 29 39h2q20 0 27 -19l46 -123q6 -17 0 -33z" />
    <glyph glyph-name="questiondown" unicode="&#xbf;" horiz-adv-x="313" 
d="M164 580h-2q-20 0 -29 9t-9 29v46q0 20 9 29t29 9h2q20 0 29 -9t9 -29v-46q0 -20 -9 -29t-29 -9zM197 411q0 -26 -6 -43t-13 -26t-30 -34l-24 -26q-24 -27 -24 -55v-107q0 -53 51 -53h17q51 0 51 53v98q0 20 8.5 28t27.5 8h2q19 0 27.5 -8t8.5 -28v-94q0 -130 -130 -130
h-13q-130 0 -130 130v97q0 35 10.5 53t46.5 59l37 42q8 9 11 19t3.5 16t0.5 25v45q0 18 7.5 25.5t25.5 7.5h2q18 0 25.5 -7.5t7.5 -25.5v-69z" />
    <glyph glyph-name="Agrave" unicode="&#xc0;" horiz-adv-x="352" 
d="M116 834h22q18 0 26 -15l31 -57q4 -7 0 -13t-11 -6h-15q-16 0 -26 14l-41 52q-5 7 -0.5 16t14.5 9zM120 189h109l-54 391zM291 -2h-2q-33 0 -37 33l-12 86h-130l-12 -87q-4 -32 -36 -32h-2q-43 0 -36 43l95 624q3 21 13.5 30t31.5 9h24q21 0 31.5 -9t13.5 -30l95 -623
q4 -23 -5 -33.5t-32 -10.5z" />
    <glyph glyph-name="Aacute" unicode="&#xc1;" horiz-adv-x="352" 
d="M186 743h-14q-10 0 -13.5 6t1.5 15l27 55q7 15 24 15h27q13 0 16 -8t-4 -17l-38 -50q-12 -16 -26 -16zM120 189h109l-54 391zM291 -2h-2q-33 0 -37 33l-12 86h-130l-12 -87q-4 -32 -36 -32h-2q-43 0 -36 43l95 624q3 21 13.5 30t31.5 9h24q21 0 31.5 -9t13.5 -30l95 -623
q4 -23 -5 -33.5t-32 -10.5z" />
    <glyph glyph-name="Acircumflex" unicode="&#xc2;" horiz-adv-x="352" 
d="M130 825q13 17 35 17h22q22 0 35 -17l42 -59q6 -9 4 -16t-11 -7h-15q-14 0 -27 12l-39 38l-39 -38q-13 -12 -27 -12h-15q-9 0 -11 7t4 16zM120 189h109l-54 391zM291 -2h-2q-33 0 -37 33l-12 86h-130l-12 -87q-4 -32 -36 -32h-2q-43 0 -36 43l95 624q3 21 13.5 30t31.5 9
h24q21 0 31.5 -9t13.5 -30l95 -623q4 -23 -5 -33.5t-32 -10.5z" />
    <glyph glyph-name="Atilde" unicode="&#xc3;" horiz-adv-x="352" 
d="M195 809q15 -9 23 -9q11 0 11 12v8q0 22 22 22h7q22 0 22 -22v-32q0 -47 -46 -47h-2q-15 0 -47 17l-29 16q-16 9 -22 9q-11 0 -11 -12v-8q0 -22 -23 -22h-6q-22 0 -22 22v32q0 47 46 47h2q18 0 50 -19zM120 189h109l-54 391zM291 -2h-2q-33 0 -37 33l-12 86h-130l-12 -87
q-4 -32 -36 -32h-2q-43 0 -36 43l95 624q3 21 13.5 30t31.5 9h24q21 0 31.5 -9t13.5 -30l95 -623q4 -23 -5 -33.5t-32 -10.5z" />
    <glyph glyph-name="Adieresis" unicode="&#xc4;" horiz-adv-x="352" 
d="M115 822h6q18 0 24.5 -7.5t6.5 -25.5v-15q0 -18 -6.5 -25.5t-24.5 -7.5h-6q-18 0 -24.5 7.5t-6.5 25.5v15q0 18 6.5 25.5t24.5 7.5zM237 741h-6q-18 0 -24.5 7.5t-6.5 25.5v15q0 18 6.5 25.5t24.5 7.5h6q18 0 24.5 -7.5t6.5 -25.5v-15q0 -18 -6.5 -25.5t-24.5 -7.5z
M120 189h109l-54 391zM291 -2h-2q-33 0 -37 33l-12 86h-130l-12 -87q-4 -32 -36 -32h-2q-43 0 -36 43l95 624q3 21 13.5 30t31.5 9h24q21 0 31.5 -9t13.5 -30l95 -623q4 -23 -5 -33.5t-32 -10.5z" />
    <glyph glyph-name="Aring" unicode="&#xc5;" horiz-adv-x="353" 
d="M207 742h-60q-40 0 -40 -31q0 -32 40 -32h60q40 0 40 30v3q0 30 -40 30zM121 189h109l-54 393zM98 30q-4 -32 -36 -32h-2q-43 0 -36 43l94 619q-36 9 -36 51q0 53 61 53h68q61 0 61 -51v-5q0 -39 -37 -48l95 -618q4 -23 -5 -33.5t-32 -10.5h-2q-33 0 -37 33l-13 86h-130z
" />
    <glyph glyph-name="AE" unicode="&#xc6;" horiz-adv-x="465" 
d="M131 189h84v446zM404 0h-143q-25 0 -35.5 10.5t-10.5 35.5v71h-97l-16 -89q-5 -30 -36 -30h-15q-16 0 -22 10t-3 24l128 631q5 20 15 28.5t31 8.5h202q20 0 28 -8t8 -28v-2q0 -20 -8 -28t-28 -8h-107v-232h102q19 0 27 -8t8 -27v-2q0 -19 -8 -27.5t-27 -8.5h-102v-247
h109q20 0 28 -8t8 -28v-2q0 -20 -8 -28t-28 -8z" />
    <glyph glyph-name="Ccedilla" unicode="&#xc7;" horiz-adv-x="354" 
d="M198 -70q-5 -28 -31 -28h-17q-11 0 -16.5 8t-0.5 20l26 64q-123 3 -123 130v452q0 130 130 130h26q128 0 128 -128v-90q0 -20 -9 -29t-29 -9h-2q-20 0 -29 9t-9 29v92q0 53 -53 53h-20q-53 0 -53 -53v-460q0 -53 53 -53h22q53 0 53 53v113q0 20 9 29t29 9h2q20 0 29 -9
t9 -29v-109q0 -120 -110 -129z" />
    <glyph glyph-name="Egrave" unicode="&#xc8;" horiz-adv-x="288" 
d="M90 834h22q18 0 26 -15l31 -57q4 -7 0 -13t-11 -6h-15q-16 0 -26 14l-41 52q-5 7 -0.5 16t14.5 9zM38 46v608q0 25 10.5 35.5t35.5 10.5h140q20 0 28 -8t8 -28v-2q0 -20 -8 -28t-28 -8h-106v-232h102q19 0 27 -8t8 -27v-2q0 -19 -8 -27.5t-27 -8.5h-102v-247h108
q20 0 28 -8t8 -28v-2q0 -20 -8 -28t-28 -8h-142q-25 0 -35.5 10.5t-10.5 35.5z" />
    <glyph glyph-name="Eacute" unicode="&#xc9;" horiz-adv-x="288" 
d="M158 743h-14q-10 0 -13.5 6t1.5 15l27 55q7 15 24 15h27q13 0 16 -8t-4 -17l-38 -50q-12 -16 -26 -16zM38 46v608q0 25 10.5 35.5t35.5 10.5h140q20 0 28 -8t8 -28v-2q0 -20 -8 -28t-28 -8h-106v-232h102q19 0 27 -8t8 -27v-2q0 -19 -8 -27.5t-27 -8.5h-102v-247h108
q20 0 28 -8t8 -28v-2q0 -20 -8 -28t-28 -8h-142q-25 0 -35.5 10.5t-10.5 35.5z" />
    <glyph glyph-name="Ecircumflex" unicode="&#xca;" horiz-adv-x="288" 
d="M103 825q13 17 35 17h22q22 0 35 -17l42 -59q6 -9 4 -16t-11 -7h-15q-14 0 -27 12l-39 38l-39 -38q-13 -12 -27 -12h-15q-9 0 -11 7t4 16zM38 46v608q0 25 10.5 35.5t35.5 10.5h140q20 0 28 -8t8 -28v-2q0 -20 -8 -28t-28 -8h-106v-232h102q19 0 27 -8t8 -27v-2
q0 -19 -8 -27.5t-27 -8.5h-102v-247h108q20 0 28 -8t8 -28v-2q0 -20 -8 -28t-28 -8h-142q-25 0 -35.5 10.5t-10.5 35.5z" />
    <glyph glyph-name="Edieresis" unicode="&#xcb;" horiz-adv-x="288" 
d="M88 822h6q18 0 24.5 -7.5t6.5 -25.5v-15q0 -18 -6.5 -25.5t-24.5 -7.5h-6q-18 0 -24.5 7.5t-6.5 25.5v15q0 18 6.5 25.5t24.5 7.5zM210 741h-6q-18 0 -24.5 7.5t-6.5 25.5v15q0 18 6.5 25.5t24.5 7.5h6q18 0 24.5 -7.5t6.5 -25.5v-15q0 -18 -6.5 -25.5t-24.5 -7.5zM38 46
v608q0 25 10.5 35.5t35.5 10.5h140q20 0 28 -8t8 -28v-2q0 -20 -8 -28t-28 -8h-106v-232h102q19 0 27 -8t8 -27v-2q0 -19 -8 -27.5t-27 -8.5h-102v-247h108q20 0 28 -8t8 -28v-2q0 -20 -8 -28t-28 -8h-142q-25 0 -35.5 10.5t-10.5 35.5z" />
    <glyph glyph-name="Igrave" unicode="&#xcc;" horiz-adv-x="158" 
d="M20 834h22q18 0 26 -15l31 -57q4 -7 0 -13t-11 -6h-15q-16 0 -26 14l-41 52q-5 7 -0.5 16t14.5 9zM78 702h2q21 0 30 -9t9 -30v-626q0 -21 -9 -30t-30 -9h-2q-21 0 -30 9t-9 30v626q0 21 9 30t30 9z" />
    <glyph glyph-name="Iacute" unicode="&#xcd;" horiz-adv-x="158" 
d="M88 743h-14q-10 0 -13.5 6t1.5 15l27 55q7 15 24 15h27q13 0 16 -8t-4 -17l-38 -50q-12 -16 -26 -16zM78 702h2q21 0 30 -9t9 -30v-626q0 -21 -9 -30t-30 -9h-2q-21 0 -30 9t-9 30v626q0 21 9 30t30 9z" />
    <glyph glyph-name="Icircumflex" unicode="&#xce;" horiz-adv-x="158" 
d="M33 825q13 17 35 17h22q22 0 35 -17l42 -59q6 -9 4 -16t-11 -7h-15q-14 0 -27 12l-39 38l-39 -38q-13 -12 -27 -12h-15q-9 0 -11 7t4 16zM78 702h2q21 0 30 -9t9 -30v-626q0 -21 -9 -30t-30 -9h-2q-21 0 -30 9t-9 30v626q0 21 9 30t30 9z" />
    <glyph glyph-name="Idieresis" unicode="&#xcf;" horiz-adv-x="158" 
d="M18 822h6q18 0 24.5 -7.5t6.5 -25.5v-15q0 -18 -6.5 -25.5t-24.5 -7.5h-6q-18 0 -24.5 7.5t-6.5 25.5v15q0 18 6.5 25.5t24.5 7.5zM140 741h-6q-18 0 -24.5 7.5t-6.5 25.5v15q0 18 6.5 25.5t24.5 7.5h6q18 0 24.5 -7.5t6.5 -25.5v-15q0 -18 -6.5 -25.5t-24.5 -7.5z
M78 702h2q21 0 30 -9t9 -30v-626q0 -21 -9 -30t-30 -9h-2q-21 0 -30 9t-9 30v626q0 21 9 30t30 9z" />
    <glyph glyph-name="Eth" unicode="&#xd0;" horiz-adv-x="375" 
d="M184 0h-86q-25 0 -35.5 10.5t-10.5 35.5v275h-19q-18 0 -25.5 7.5t-7.5 25.5v2q0 18 7.5 25.5t25.5 7.5h19v265q0 25 10.5 35.5t35.5 10.5h86q155 0 155 -155v-390q0 -155 -155 -155zM132 73h48q79 0 79 81v392q0 81 -79 81h-48v-238h47q18 0 25.5 -7.5t7.5 -25.5v-2
q0 -18 -7.5 -25.5t-25.5 -7.5h-47v-248z" />
    <glyph glyph-name="Ntilde" unicode="&#xd1;" horiz-adv-x="378" 
d="M208 809q15 -9 23 -9q11 0 11 12v8q0 22 22 22h7q22 0 22 -22v-32q0 -47 -46 -47h-2q-15 0 -47 17l-29 16q-17 9 -22 9q-11 0 -11 -12v-8q0 -22 -23 -22h-6q-22 0 -22 22v32q0 47 46 47h2q18 0 50 -19zM294 -2h-17q-37 0 -45 36l-118 516v-515q0 -37 -37 -37h-2
q-37 0 -37 37v621q0 25 10.5 35.5t35.5 10.5h27q37 0 45 -36l108 -472v471q0 37 37 37h2q37 0 37 -37v-621q0 -25 -10.5 -35.5t-35.5 -10.5z" />
    <glyph glyph-name="Ograve" unicode="&#xd2;" horiz-adv-x="362" 
d="M122 834h22q18 0 26 -15l31 -57q4 -7 0 -13t-11 -6h-15q-16 0 -26 14l-41 52q-5 7 -0.5 16t14.5 9zM326 576v-452q0 -130 -130 -130h-30q-130 0 -130 130v452q0 130 130 130h30q130 0 130 -130zM246 120v460q0 53 -53 53h-24q-53 0 -53 -53v-460q0 -53 53 -53h24
q53 0 53 53z" />
    <glyph glyph-name="Oacute" unicode="&#xd3;" horiz-adv-x="362" 
d="M190 743h-14q-10 0 -13.5 6t1.5 15l27 55q7 15 24 15h27q13 0 16 -8t-4 -17l-38 -50q-12 -16 -26 -16zM326 576v-452q0 -130 -130 -130h-30q-130 0 -130 130v452q0 130 130 130h30q130 0 130 -130zM246 120v460q0 53 -53 53h-24q-53 0 -53 -53v-460q0 -53 53 -53h24
q53 0 53 53z" />
    <glyph glyph-name="Ocircumflex" unicode="&#xd4;" horiz-adv-x="362" 
d="M135 825q13 17 35 17h22q22 0 35 -17l42 -59q6 -9 4 -16t-11 -7h-15q-14 0 -27 12l-39 38l-39 -38q-13 -12 -27 -12h-15q-9 0 -11 7t4 16zM326 576v-452q0 -130 -130 -130h-30q-130 0 -130 130v452q0 130 130 130h30q130 0 130 -130zM246 120v460q0 53 -53 53h-24
q-53 0 -53 -53v-460q0 -53 53 -53h24q53 0 53 53z" />
    <glyph glyph-name="Otilde" unicode="&#xd5;" horiz-adv-x="362" 
d="M200 809q15 -9 23 -9q11 0 11 12v8q0 22 22 22h7q22 0 22 -22v-32q0 -47 -46 -47h-2q-15 0 -47 17l-29 16q-17 9 -22 9q-11 0 -11 -12v-8q0 -22 -23 -22h-6q-22 0 -22 22v32q0 47 46 47h2q18 0 50 -19zM326 576v-452q0 -130 -130 -130h-30q-130 0 -130 130v452
q0 130 130 130h30q130 0 130 -130zM246 120v460q0 53 -53 53h-24q-53 0 -53 -53v-460q0 -53 53 -53h24q53 0 53 53z" />
    <glyph glyph-name="Odieresis" unicode="&#xd6;" horiz-adv-x="362" 
d="M120 822h6q18 0 24.5 -7.5t6.5 -25.5v-15q0 -18 -6.5 -25.5t-24.5 -7.5h-6q-18 0 -24.5 7.5t-6.5 25.5v15q0 18 6.5 25.5t24.5 7.5zM242 741h-6q-18 0 -24.5 7.5t-6.5 25.5v15q0 18 6.5 25.5t24.5 7.5h6q18 0 24.5 -7.5t6.5 -25.5v-15q0 -18 -6.5 -25.5t-24.5 -7.5z
M326 576v-452q0 -130 -130 -130h-30q-130 0 -130 130v452q0 130 130 130h30q130 0 130 -130zM246 120v460q0 53 -53 53h-24q-53 0 -53 -53v-460q0 -53 53 -53h24q53 0 53 53z" />
    <glyph glyph-name="multiply" unicode="&#xd7;" horiz-adv-x="314" 
d="M273 242l-2 -2q-24 -24 -48 0l-66 66l-66 -66q-24 -24 -48 0l-1 1q-24 24 0 48l66 66l-66 66q-24 24 0 48l2 2q24 24 48 0l66 -66l66 66q24 24 48 0l1 -1q24 -24 0 -48l-66 -66l66 -66q24 -24 0 -48z" />
    <glyph glyph-name="Oslash" unicode="&#xd8;" horiz-adv-x="362" 
d="M326 576v-452q0 -130 -130 -130h-30q-130 0 -130 130v452q0 130 130 130h30q130 0 130 -130zM116 580l-1 -139l-1 -252l118 432q-14 12 -39 12h-24q-53 0 -53 -53zM130 79q14 -12 39 -12h24q53 0 53 53l1 108l1 283z" />
    <glyph glyph-name="Ugrave" unicode="&#xd9;" horiz-adv-x="359" 
d="M120 834h22q18 0 26 -15l31 -57q4 -7 0 -13t-11 -6h-15q-16 0 -26 14l-41 52q-5 7 -0.5 16t14.5 9zM281 702h2q21 0 30 -9t9 -30v-539q0 -130 -130 -130h-25q-130 0 -130 130v539q0 21 9 30t30 9h2q21 0 30 -9t9 -30v-543q0 -53 53 -53h19q53 0 53 53v543q0 21 9 30t30 9
z" />
    <glyph glyph-name="Uacute" unicode="&#xda;" horiz-adv-x="359" 
d="M188 743h-14q-10 0 -13.5 6t1.5 15l27 55q7 15 24 15h27q13 0 16 -8t-4 -17l-38 -50q-12 -16 -26 -16zM281 702h2q21 0 30 -9t9 -30v-539q0 -130 -130 -130h-25q-130 0 -130 130v539q0 21 9 30t30 9h2q21 0 30 -9t9 -30v-543q0 -53 53 -53h19q53 0 53 53v543q0 21 9 30
t30 9z" />
    <glyph glyph-name="Ucircumflex" unicode="&#xdb;" horiz-adv-x="359" 
d="M133 825q13 17 35 17h22q22 0 35 -17l42 -59q6 -9 4 -16t-11 -7h-15q-14 0 -27 12l-39 38l-39 -38q-13 -12 -27 -12h-15q-9 0 -11 7t4 16zM281 702h2q21 0 30 -9t9 -30v-539q0 -130 -130 -130h-25q-130 0 -130 130v539q0 21 9 30t30 9h2q21 0 30 -9t9 -30v-543
q0 -53 53 -53h19q53 0 53 53v543q0 21 9 30t30 9z" />
    <glyph glyph-name="Udieresis" unicode="&#xdc;" horiz-adv-x="359" 
d="M118 822h6q18 0 24.5 -7.5t6.5 -25.5v-15q0 -18 -6.5 -25.5t-24.5 -7.5h-6q-18 0 -24.5 7.5t-6.5 25.5v15q0 18 6.5 25.5t24.5 7.5zM240 741h-6q-18 0 -24.5 7.5t-6.5 25.5v15q0 18 6.5 25.5t24.5 7.5h6q18 0 24.5 -7.5t6.5 -25.5v-15q0 -18 -6.5 -25.5t-24.5 -7.5z
M281 702h2q21 0 30 -9t9 -30v-539q0 -130 -130 -130h-25q-130 0 -130 130v539q0 21 9 30t30 9h2q21 0 30 -9t9 -30v-543q0 -53 53 -53h19q53 0 53 53v543q0 21 9 30t30 9z" />
    <glyph glyph-name="Yacute" unicode="&#xdd;" horiz-adv-x="313" 
d="M167 743h-14q-10 0 -13.5 6t1.5 15l27 55q7 15 24 15h27q13 0 16 -8t-4 -17l-38 -50q-12 -16 -26 -16zM197 245v-208q0 -21 -9 -30t-30 -9h-2q-21 0 -30 9t-9 30v202l-103 415q-12 48 37 48h2q32 0 37 -30l67 -315l70 316q6 29 36 29h2q46 0 36 -46z" />
    <glyph glyph-name="Thorn" unicode="&#xde;" horiz-adv-x="333" 
d="M176 134h-58v-97q0 -21 -9 -30t-30 -9h-2q-21 0 -30 9t-9 30v626q0 21 9 30t30 9h2q21 0 30 -9t9 -30v-92h58q130 0 130 -130v-177q0 -130 -130 -130zM226 260v185q0 53 -53 53h-55v-291h55q53 0 53 53z" />
    <glyph glyph-name="germandbls" unicode="&#xdf;" horiz-adv-x="336" 
d="M244 368q60 -17 60 -90v-156q0 -122 -122 -122h-8q-34 0 -34 35v2q0 34 34 34h7q48 0 48 48v156q0 51 -51 51h-6q-32 0 -32 32v9q0 31 31 31h5q51 0 51 51v139q0 50 -50 50h-16q-50 0 -50 -50v-553q0 -37 -37 -37h-2q-37 0 -37 37v551q0 124 124 124h19q124 0 124 -124
v-114q0 -82 -58 -104z" />
    <glyph glyph-name="agrave" unicode="&#xe0;" horiz-adv-x="319" 
d="M115 694h17q23 0 30 -20l22 -64q5 -12 0 -19.5t-18 -7.5h-8q-14 0 -24 16l-38 65q-6 10 -0.5 20t19.5 10zM104 105q0 -39 37 -39q29 0 69 35v166l-69 -24q-21 -8 -29 -20.5t-8 -35.5v-82zM210 35v6q-39 -47 -93 -47q-89 0 -89 95v99q0 49 18 74t62 40l102 35v90
q0 49 -51 49t-51 -49v-36q0 -33 -32 -33h-11q-31 0 -31 31v35q0 122 126 122t126 -122v-389q0 -37 -37 -37h-2q-37 0 -37 37z" />
    <glyph glyph-name="aacute" unicode="&#xe1;" horiz-adv-x="319" 
d="M171 583h-11q-9 0 -13 7.5t0 17.5l22 63q9 23 29 23h24q12 0 16.5 -8t-1.5 -19l-38 -67q-9 -17 -28 -17zM104 105q0 -39 37 -39q29 0 69 35v166l-69 -24q-21 -8 -29 -20.5t-8 -35.5v-82zM210 35v6q-39 -47 -93 -47q-89 0 -89 95v99q0 49 18 74t62 40l102 35v90
q0 49 -51 49t-51 -49v-36q0 -33 -32 -33h-11q-31 0 -31 31v35q0 122 126 122t126 -122v-389q0 -37 -37 -37h-2q-37 0 -37 37z" />
    <glyph glyph-name="acircumflex" unicode="&#xe2;" horiz-adv-x="319" 
d="M120 674q11 20 35 20h22q24 0 35 -20l40 -70q5 -10 1.5 -15.5t-11.5 -5.5h-13q-14 0 -27 14l-36 45l-36 -45q-13 -14 -27 -14h-13q-8 0 -11.5 5.5t1.5 15.5zM104 105q0 -39 37 -39q29 0 69 35v166l-69 -24q-21 -8 -29 -20.5t-8 -35.5v-82zM210 35v6q-39 -47 -93 -47
q-89 0 -89 95v99q0 49 18 74t62 40l102 35v90q0 49 -51 49t-51 -49v-36q0 -33 -32 -33h-11q-31 0 -31 31v35q0 122 126 122t126 -122v-389q0 -37 -37 -37h-2q-37 0 -37 37z" />
    <glyph glyph-name="atilde" unicode="&#xe3;" horiz-adv-x="319" 
d="M188 654q14 -11 21 -11q10 0 10 12v15q0 22 22 22h7q22 0 22 -22v-39q0 -47 -46 -47h-2q-25 0 -46 16l-31 23q-12 9 -20 9q-10 0 -10 -12v-15q0 -22 -23 -22h-6q-22 0 -22 22v39q0 47 46 47h2q27 0 49 -17zM104 105q0 -39 37 -39q29 0 69 35v166l-69 -24
q-21 -8 -29 -20.5t-8 -35.5v-82zM210 35v6q-39 -47 -93 -47q-89 0 -89 95v99q0 49 18 74t62 40l102 35v90q0 49 -51 49t-51 -49v-36q0 -33 -32 -33h-11q-31 0 -31 31v35q0 122 126 122t126 -122v-389q0 -37 -37 -37h-2q-37 0 -37 37z" />
    <glyph glyph-name="adieresis" unicode="&#xe4;" horiz-adv-x="319" 
d="M105 682h8q17 0 23 -7t6 -25v-37q0 -18 -6 -25t-23 -7h-8q-17 0 -23 7t-6 25v37q0 18 6 25t23 7zM227 581h-8q-17 0 -23 7t-6 25v37q0 18 6 25t23 7h8q17 0 23 -7t6 -25v-37q0 -18 -6 -25t-23 -7zM104 105q0 -39 37 -39q29 0 69 35v166l-69 -24q-21 -8 -29 -20.5
t-8 -35.5v-82zM210 35v6q-39 -47 -93 -47q-89 0 -89 95v99q0 49 18 74t62 40l102 35v90q0 49 -51 49t-51 -49v-36q0 -33 -32 -33h-11q-31 0 -31 31v35q0 122 126 122t126 -122v-389q0 -37 -37 -37h-2q-37 0 -37 37z" />
    <glyph glyph-name="aring" unicode="&#xe5;" horiz-adv-x="319" 
d="M186 693q63 0 63 -53v-5q0 -53 -63 -53h-40q-63 0 -63 56q0 55 63 55h40zM182 604q42 0 42 31v5q0 31 -42 31h-32q-42 0 -42 -33q0 -34 43 -34h31zM104 105q0 -39 37 -39q29 0 69 35v166l-69 -24q-21 -8 -29 -20.5t-8 -35.5v-82zM210 35v6q-39 -47 -93 -47q-89 0 -89 95
v99q0 49 18 74t62 40l102 35v90q0 49 -51 49t-51 -49v-36q0 -33 -32 -33h-11q-31 0 -31 31v35q0 122 126 122t126 -122v-389q0 -37 -37 -37h-2q-37 0 -37 37z" />
    <glyph glyph-name="ae" unicode="&#xe6;" horiz-adv-x="516" 
d="M485 153v-37q0 -122 -122 -122h-16q-74 0 -104 46q-39 -26 -61 -36t-50 -10q-89 0 -89 95v105q0 49 18 74t62 40l102 35v84q0 49 -51 49t-51 -49v-36q0 -18 -7.5 -25.5t-24.5 -7.5h-11q-31 0 -31 31v35q0 122 126 122q60 0 88 -33q28 33 84 33h16q122 0 122 -122v-136
q0 -25 -10.5 -35.5t-35.5 -10.5h-138v-129q0 -48 48 -48h14q48 0 48 48v38q0 34 34 34h8q17 0 24.5 -7.5t7.5 -24.5zM349 475q-48 0 -48 -48v-113h108v113q0 48 -48 48h-12zM119 105q0 -39 37 -39q32 0 69 25v182l-69 -24q-21 -7 -29 -19.5t-8 -36.5v-88z" />
    <glyph glyph-name="ccedilla" unicode="&#xe7;" horiz-adv-x="325" 
d="M176 -70q-5 -28 -31 -28h-17q-11 0 -16.5 8t-0.5 20l26 65q-105 7 -105 121v308q0 122 122 122h19q120 0 120 -120v-53q0 -20 -8 -28.5t-28 -8.5h-2q-20 0 -28.5 8.5t-8.5 28.5v54q0 48 -48 48h-14q-48 0 -48 -48v-314q0 -48 48 -48h15q48 0 48 48v73q0 20 8.5 28t28.5 8
h2q20 0 28 -8t8 -28v-70q0 -112 -104 -121z" />
    <glyph glyph-name="egrave" unicode="&#xe8;" horiz-adv-x="323" 
d="M111 694h17q23 0 30 -20l22 -64q5 -12 0 -19.5t-18 -7.5h-8q-14 0 -24 16l-38 65q-6 10 -0.5 20t19.5 10zM292 147v-31q0 -122 -122 -122h-16q-122 0 -122 122v308q0 122 122 122h16q122 0 122 -122v-136q0 -25 -10.5 -35.5t-35.5 -10.5h-138v-129q0 -48 48 -48h14
q48 0 48 48v34q0 30 30 30h14q30 0 30 -30zM156 475q-48 0 -48 -48v-113h108v113q0 48 -48 48h-12z" />
    <glyph glyph-name="eacute" unicode="&#xe9;" horiz-adv-x="323" 
d="M167 583h-11q-9 0 -13 7.5t0 17.5l22 63q9 23 29 23h24q12 0 16.5 -8t-1.5 -19l-38 -67q-9 -17 -28 -17zM292 147v-31q0 -122 -122 -122h-16q-122 0 -122 122v308q0 122 122 122h16q122 0 122 -122v-136q0 -25 -10.5 -35.5t-35.5 -10.5h-138v-129q0 -48 48 -48h14
q48 0 48 48v34q0 30 30 30h14q30 0 30 -30zM156 475q-48 0 -48 -48v-113h108v113q0 48 -48 48h-12z" />
    <glyph glyph-name="ecircumflex" unicode="&#xea;" horiz-adv-x="323" 
d="M116 674q11 20 35 20h22q24 0 35 -20l40 -70q5 -10 1.5 -15.5t-11.5 -5.5h-13q-14 0 -27 14l-36 45l-36 -45q-13 -14 -27 -14h-13q-8 0 -11.5 5.5t1.5 15.5zM292 147v-31q0 -122 -122 -122h-16q-122 0 -122 122v308q0 122 122 122h16q122 0 122 -122v-136
q0 -25 -10.5 -35.5t-35.5 -10.5h-138v-129q0 -48 48 -48h14q48 0 48 48v34q0 30 30 30h14q30 0 30 -30zM156 475q-48 0 -48 -48v-113h108v113q0 48 -48 48h-12z" />
    <glyph glyph-name="edieresis" unicode="&#xeb;" horiz-adv-x="323" 
d="M101 682h8q17 0 23 -7t6 -25v-37q0 -18 -6 -25t-23 -7h-8q-17 0 -23 7t-6 25v37q0 18 6 25t23 7zM223 581h-8q-17 0 -23 7t-6 25v37q0 18 6 25t23 7h8q17 0 23 -7t6 -25v-37q0 -18 -6 -25t-23 -7zM292 147v-31q0 -122 -122 -122h-16q-122 0 -122 122v308q0 122 122 122
h16q122 0 122 -122v-136q0 -25 -10.5 -35.5t-35.5 -10.5h-138v-129q0 -48 48 -48h14q48 0 48 48v34q0 30 30 30h14q30 0 30 -30zM156 475q-48 0 -48 -48v-113h108v113q0 48 -48 48h-12z" />
    <glyph glyph-name="igrave" unicode="&#xec;" horiz-adv-x="152" 
d="M25 694h17q23 0 30 -20l22 -64q5 -12 0 -19.5t-18 -7.5h-8q-14 0 -24 16l-38 65q-6 10 -0.5 20t19.5 10zM77 -2h-2q-37 0 -37 37v470q0 37 37 37h2q37 0 37 -37v-470q0 -37 -37 -37z" />
    <glyph glyph-name="iacute" unicode="&#xed;" horiz-adv-x="152" 
d="M81 583h-11q-9 0 -13 7.5t0 17.5l22 63q9 23 29 23h24q12 0 16.5 -8t-1.5 -19l-38 -67q-9 -17 -28 -17zM77 -2h-2q-37 0 -37 37v470q0 37 37 37h2q37 0 37 -37v-470q0 -37 -37 -37z" />
    <glyph glyph-name="icircumflex" unicode="&#xee;" horiz-adv-x="152" 
d="M30 674q11 20 35 20h22q24 0 35 -20l40 -70q5 -10 1.5 -15.5t-11.5 -5.5h-13q-14 0 -27 14l-36 45l-36 -45q-13 -14 -27 -14h-13q-8 0 -11.5 5.5t1.5 15.5zM77 -2h-2q-37 0 -37 37v470q0 37 37 37h2q37 0 37 -37v-470q0 -37 -37 -37z" />
    <glyph glyph-name="idieresis" unicode="&#xef;" horiz-adv-x="152" 
d="M15 682h8q17 0 23 -7t6 -25v-37q0 -18 -6 -25t-23 -7h-8q-17 0 -23 7t-6 25v37q0 18 6 25t23 7zM137 581h-8q-17 0 -23 7t-6 25v37q0 18 6 25t23 7h8q17 0 23 -7t6 -25v-37q0 -18 -6 -25t-23 -7zM77 -2h-2q-37 0 -37 37v470q0 37 37 37h2q37 0 37 -37v-470q0 -37 -37 -37
z" />
    <glyph glyph-name="eth" unicode="&#xf0;" horiz-adv-x="332" 
d="M253 643q45 -29 45 -93v-434q0 -122 -122 -122h-22q-122 0 -122 122v321q0 49 24.5 78t72.5 29h17h18.5t16 -1t17 -2.5t14.5 -5.5t14 -9v14q0 23 -9 34t-34 22l-66 30q-35 14 -17 49l1 2q15 30 45 16l53 -25l21 38q12 21 33 10l11 -6q21 -11 10 -31zM222 427q0 48 -48 48
h-18q-48 0 -48 -48v-314q0 -48 48 -48h18q48 0 48 48v314z" />
    <glyph glyph-name="ntilde" unicode="&#xf1;" horiz-adv-x="333" 
d="M189 654q14 -11 21 -11q10 0 10 12v15q0 22 22 22h7q22 0 22 -22v-39q0 -47 -46 -47h-2q-25 0 -46 16l-31 23q-12 9 -20 9q-10 0 -10 -12v-15q0 -22 -23 -22h-6q-22 0 -22 22v39q0 47 46 47h2q27 0 49 -17zM111 35q0 -37 -37 -37h-2q-37 0 -37 37v470q0 37 37 37h2
q37 0 37 -37v-8q39 49 96 49q92 0 92 -97v-414q0 -37 -37 -37h-2q-37 0 -37 37v398q0 41 -39 41q-31 0 -73 -37v-402z" />
    <glyph glyph-name="ograve" unicode="&#xf2;" horiz-adv-x="330" 
d="M114 694h17q23 0 30 -20l22 -64q5 -12 0 -19.5t-18 -7.5h-8q-14 0 -24 16l-38 65q-6 10 -0.5 20t19.5 10zM298 116q0 -122 -122 -122h-22q-122 0 -122 122v308q0 122 122 122h22q122 0 122 -122v-308zM222 427q0 48 -48 48h-18q-48 0 -48 -48v-314q0 -48 48 -48h18
q48 0 48 48v314z" />
    <glyph glyph-name="oacute" unicode="&#xf3;" horiz-adv-x="330" 
d="M170 583h-11q-9 0 -13 7.5t0 17.5l22 63q9 23 29 23h24q12 0 16.5 -8t-1.5 -19l-38 -67q-9 -17 -28 -17zM298 116q0 -122 -122 -122h-22q-122 0 -122 122v308q0 122 122 122h22q122 0 122 -122v-308zM222 427q0 48 -48 48h-18q-48 0 -48 -48v-314q0 -48 48 -48h18
q48 0 48 48v314z" />
    <glyph glyph-name="ocircumflex" unicode="&#xf4;" horiz-adv-x="330" 
d="M119 674q11 20 35 20h22q24 0 35 -20l40 -70q5 -10 1.5 -15.5t-11.5 -5.5h-13q-14 0 -27 14l-36 45l-36 -45q-13 -14 -27 -14h-13q-8 0 -11.5 5.5t1.5 15.5zM298 116q0 -122 -122 -122h-22q-122 0 -122 122v308q0 122 122 122h22q122 0 122 -122v-308zM222 427
q0 48 -48 48h-18q-48 0 -48 -48v-314q0 -48 48 -48h18q48 0 48 48v314z" />
    <glyph glyph-name="otilde" unicode="&#xf5;" horiz-adv-x="330" 
d="M187 654q14 -11 21 -11q10 0 10 12v15q0 22 22 22h7q22 0 22 -22v-39q0 -47 -46 -47h-2q-25 0 -46 16l-31 23q-12 9 -20 9q-10 0 -10 -12v-15q0 -22 -23 -22h-6q-22 0 -22 22v39q0 47 46 47h2q27 0 49 -17zM298 116q0 -122 -122 -122h-22q-122 0 -122 122v308
q0 122 122 122h22q122 0 122 -122v-308zM222 427q0 48 -48 48h-18q-48 0 -48 -48v-314q0 -48 48 -48h18q48 0 48 48v314z" />
    <glyph glyph-name="odieresis" unicode="&#xf6;" horiz-adv-x="330" 
d="M104 682h8q17 0 23 -7t6 -25v-37q0 -18 -6 -25t-23 -7h-8q-17 0 -23 7t-6 25v37q0 18 6 25t23 7zM226 581h-8q-17 0 -23 7t-6 25v37q0 18 6 25t23 7h8q17 0 23 -7t6 -25v-37q0 -18 -6 -25t-23 -7zM298 116q0 -122 -122 -122h-22q-122 0 -122 122v308q0 122 122 122h22
q122 0 122 -122v-308zM222 427q0 48 -48 48h-18q-48 0 -48 -48v-314q0 -48 48 -48h18q48 0 48 48v314z" />
    <glyph glyph-name="divide" unicode="&#xf7;" horiz-adv-x="314" 
d="M160 438h-6q-19 0 -27 8.5t-8 28.5v8q0 20 8 28.5t27 8.5h6q19 0 27 -8.5t8 -28.5v-8q0 -20 -8 -28.5t-27 -8.5zM6 355v2q0 33 34 33h235q33 0 33 -33v-2q0 -34 -33 -34h-235q-34 0 -34 34zM160 191h-6q-19 0 -27 8.5t-8 28.5v8q0 20 8 28.5t27 8.5h6q19 0 27 -8.5
t8 -28.5v-8q0 -20 -8 -28.5t-27 -8.5z" />
    <glyph glyph-name="oslash" unicode="&#xf8;" horiz-adv-x="330" 
d="M298 116q0 -122 -122 -122h-22q-122 0 -122 122v308q0 122 122 122h22q122 0 122 -122v-308zM108 427v-32l-2 -260l98 333q-11 7 -30 7h-18q-48 0 -48 -48zM126 72q11 -7 30 -7h18q48 0 48 48v37l2 255z" />
    <glyph glyph-name="ugrave" unicode="&#xf9;" horiz-adv-x="333" 
d="M115 694h17q23 0 30 -20l22 -64q5 -12 0 -19.5t-18 -7.5h-8q-14 0 -24 16l-38 65q-6 10 -0.5 20t19.5 10zM222 35v8q-39 -49 -96 -49q-92 0 -92 97v414q0 37 37 37h2q37 0 37 -37v-398q0 -41 39 -41q31 0 73 37v402q0 37 37 37h2q37 0 37 -37v-470q0 -37 -37 -37h-2
q-37 0 -37 37z" />
    <glyph glyph-name="uacute" unicode="&#xfa;" horiz-adv-x="333" 
d="M171 583h-11q-9 0 -13 7.5t0 17.5l22 63q9 23 29 23h24q12 0 16.5 -8t-1.5 -19l-38 -67q-9 -17 -28 -17zM222 35v8q-39 -49 -96 -49q-92 0 -92 97v414q0 37 37 37h2q37 0 37 -37v-398q0 -41 39 -41q31 0 73 37v402q0 37 37 37h2q37 0 37 -37v-470q0 -37 -37 -37h-2
q-37 0 -37 37z" />
    <glyph glyph-name="ucircumflex" unicode="&#xfb;" horiz-adv-x="333" 
d="M120 674q11 20 35 20h22q24 0 35 -20l40 -70q5 -10 1.5 -15.5t-11.5 -5.5h-13q-14 0 -27 14l-36 45l-36 -45q-13 -14 -27 -14h-13q-8 0 -11.5 5.5t1.5 15.5zM222 35v8q-39 -49 -96 -49q-92 0 -92 97v414q0 37 37 37h2q37 0 37 -37v-398q0 -41 39 -41q31 0 73 37v402
q0 37 37 37h2q37 0 37 -37v-470q0 -37 -37 -37h-2q-37 0 -37 37z" />
    <glyph glyph-name="udieresis" unicode="&#xfc;" horiz-adv-x="333" 
d="M105 682h8q17 0 23 -7t6 -25v-37q0 -18 -6 -25t-23 -7h-8q-17 0 -23 7t-6 25v37q0 18 6 25t23 7zM227 581h-8q-17 0 -23 7t-6 25v37q0 18 6 25t23 7h8q17 0 23 -7t6 -25v-37q0 -18 -6 -25t-23 -7zM222 35v8q-39 -49 -96 -49q-92 0 -92 97v414q0 37 37 37h2q37 0 37 -37
v-398q0 -41 39 -41q31 0 73 37v402q0 37 37 37h2q37 0 37 -37v-470q0 -37 -37 -37h-2q-37 0 -37 37z" />
    <glyph glyph-name="yacute" unicode="&#xfd;" horiz-adv-x="305" 
d="M162 583h-11q-9 0 -13 7.5t0 17.5l22 63q9 23 29 23h24q12 0 16.5 -8t-1.5 -19l-38 -67q-9 -17 -28 -17zM287 500l-116 -584q-6 -28 -35 -28h-2q-44 0 -34 43l16 77l-98 490q-9 44 36 44h2q30 0 35 -30l62 -358l62 359q3 16 11 22.5t24 6.5h2q42 0 35 -42z" />
    <glyph glyph-name="thorn" unicode="&#xfe;" horiz-adv-x="334" 
d="M181 474q-35 0 -70 -38v-332q35 -38 70 -38q44 0 44 44v320q0 44 -44 44zM35 -75v750q0 37 37 37h2q37 0 37 -37v-180q38 51 93 51q48 0 72.5 -29t24.5 -78v-338q0 -49 -24.5 -78t-72.5 -29q-56 0 -93 51v-120q0 -37 -37 -37h-2q-37 0 -37 37z" />
    <glyph glyph-name="ydieresis" unicode="&#xff;" horiz-adv-x="305" 
d="M96 682h8q17 0 23 -7t6 -25v-37q0 -18 -6 -25t-23 -7h-8q-17 0 -23 7t-6 25v37q0 18 6 25t23 7zM218 581h-8q-17 0 -23 7t-6 25v37q0 18 6 25t23 7h8q17 0 23 -7t6 -25v-37q0 -18 -6 -25t-23 -7zM287 500l-116 -584q-6 -28 -35 -28h-2q-44 0 -34 43l16 77l-98 490
q-9 44 36 44h2q30 0 35 -30l62 -358l62 359q3 16 11 22.5t24 6.5h2q42 0 35 -42z" />
    <glyph glyph-name="Amacron" unicode="&#x100;" horiz-adv-x="352" 
d="M75 779v2q0 27 27 27h148q27 0 27 -27v-2q0 -27 -27 -27h-148q-27 0 -27 27zM120 189h109l-54 391zM291 -2h-2q-33 0 -37 33l-12 86h-130l-12 -87q-4 -32 -36 -32h-2q-43 0 -36 43l95 624q3 21 13.5 30t31.5 9h24q21 0 31.5 -9t13.5 -30l95 -623q4 -23 -5 -33.5
t-32 -10.5z" />
    <glyph glyph-name="amacron" unicode="&#x101;" horiz-adv-x="319" 
d="M65 624v2q0 17 7.5 24.5t24.5 7.5h138q17 0 24.5 -7.5t7.5 -24.5v-2q0 -17 -7.5 -24.5t-24.5 -7.5h-138q-17 0 -24.5 7.5t-7.5 24.5zM104 105q0 -39 37 -39q29 0 69 35v166l-69 -24q-21 -8 -29 -20.5t-8 -35.5v-82zM210 35v6q-39 -47 -93 -47q-89 0 -89 95v99q0 49 18 74
t62 40l102 35v90q0 49 -51 49t-51 -49v-36q0 -33 -32 -33h-11q-31 0 -31 31v35q0 122 126 122t126 -122v-389q0 -37 -37 -37h-2q-37 0 -37 37z" />
    <glyph glyph-name="Abreve" unicode="&#x102;" horiz-adv-x="352" 
d="M176 794q21 0 29 8q5 5 7 15.5t3 12.5q5 9 18 9h17q18 0 18 -19q0 -78 -92 -78t-92 78q0 19 18 19h17q13 0 18 -9q1 -2 3 -12.5t7 -15.5q8 -8 29 -8zM120 189h109l-54 391zM291 -2h-2q-33 0 -37 33l-12 86h-130l-12 -87q-4 -32 -36 -32h-2q-43 0 -36 43l95 624
q3 21 13.5 30t31.5 9h24q21 0 31.5 -9t13.5 -30l95 -623q4 -23 -5 -33.5t-32 -10.5z" />
    <glyph glyph-name="abreve" unicode="&#x103;" horiz-adv-x="319" 
d="M166 582q-89 0 -89 86q0 26 23 26h10q14 0 20 -11q2 -4 3 -19.5t7 -21.5q8 -8 26 -8t26 8q6 6 7 21.5t3 19.5q6 11 20 11h10q23 0 23 -26q0 -86 -89 -86zM104 105q0 -39 37 -39q29 0 69 35v166l-69 -24q-21 -8 -29 -20.5t-8 -35.5v-82zM210 35v6q-39 -47 -93 -47
q-89 0 -89 95v99q0 49 18 74t62 40l102 35v90q0 49 -51 49t-51 -49v-36q0 -33 -32 -33h-11q-31 0 -31 31v35q0 122 126 122t126 -122v-389q0 -37 -37 -37h-2q-37 0 -37 37z" />
    <glyph glyph-name="Aogonek" unicode="&#x104;" horiz-adv-x="352" 
d="M322 -102h-22q-53 0 -53 43q0 22 18 51l6 9q-16 6 -19 30l-12 86h-130l-12 -87q-4 -32 -36 -32h-2q-43 0 -36 43l95 624q3 21 13.5 30t31.5 9h24q21 0 31.5 -9t13.5 -30l95 -623q3 -22 -7 -43l-5 -10q-11 -24 -11 -32q0 -11 14 -11h7q18 0 18 -18v-10q0 -7 -6 -13.5
t-16 -6.5zM120 189h109l-54 391z" />
    <glyph glyph-name="aogonek" unicode="&#x105;" horiz-adv-x="319" 
d="M275 -102h-22q-53 0 -53 43q0 24 19 52l6 9q-15 9 -15 33v6q-39 -47 -93 -47q-89 0 -89 95v99q0 49 18 74t62 40l102 35v90q0 49 -51 49t-51 -49v-36q0 -33 -32 -33h-11q-31 0 -31 31v35q0 122 126 122t126 -122v-389q0 -14 -7 -28l-11 -21q-10 -18 -10 -29t14 -11h7
q18 0 18 -18v-10q0 -7 -6 -13.5t-16 -6.5zM104 105q0 -39 37 -39q29 0 69 35v166l-69 -24q-21 -8 -29 -20.5t-8 -35.5v-82z" />
    <glyph glyph-name="Cacute" unicode="&#x106;" horiz-adv-x="354" 
d="M188 743h-14q-10 0 -13.5 6t1.5 15l27 55q7 15 24 15h27q13 0 16 -8t-4 -17l-38 -50q-12 -16 -26 -16zM244 120v113q0 20 9 29t29 9h2q20 0 29 -9t9 -29v-109q0 -130 -130 -130h-26q-130 0 -130 130v452q0 130 130 130h26q128 0 128 -128v-90q0 -20 -9 -29t-29 -9h-2
q-20 0 -29 9t-9 29v92q0 53 -53 53h-20q-53 0 -53 -53v-460q0 -53 53 -53h22q53 0 53 53z" />
    <glyph glyph-name="cacute" unicode="&#x107;" horiz-adv-x="325" 
d="M168 583h-11q-9 0 -13 7.5t0 17.5l22 63q9 23 29 23h24q12 0 16.5 -8t-1.5 -19l-38 -67q-9 -17 -28 -17zM257 336h-2q-20 0 -28.5 8.5t-8.5 28.5v54q0 48 -48 48h-14q-48 0 -48 -48v-314q0 -48 48 -48h15q48 0 48 48v73q0 20 8.5 28t28.5 8h2q20 0 28 -8t8 -28v-70
q0 -122 -122 -122h-18q-122 0 -122 122v308q0 122 122 122h19q120 0 120 -120v-53q0 -20 -8 -28.5t-28 -8.5z" />
    <glyph glyph-name="Cdotaccent" unicode="&#x10a;" horiz-adv-x="354" 
d="M174 814h11q16 0 22.5 -7t6.5 -24v-10q0 -18 -6.5 -25t-22.5 -7h-11q-17 0 -23.5 7t-6.5 25v10q0 17 6.5 24t23.5 7zM244 120v113q0 20 9 29t29 9h2q20 0 29 -9t9 -29v-109q0 -130 -130 -130h-26q-130 0 -130 130v452q0 130 130 130h26q128 0 128 -128v-90q0 -20 -9 -29
t-29 -9h-2q-20 0 -29 9t-9 29v92q0 53 -53 53h-20q-53 0 -53 -53v-460q0 -53 53 -53h22q53 0 53 53z" />
    <glyph glyph-name="cdotaccent" unicode="&#x10b;" horiz-adv-x="325" 
d="M160 674h6q18 0 24.5 -7.5t6.5 -25.5v-27q0 -18 -6.5 -25.5t-24.5 -7.5h-6q-18 0 -24.5 7.5t-6.5 25.5v27q0 18 6.5 25.5t24.5 7.5zM257 336h-2q-20 0 -28.5 8.5t-8.5 28.5v54q0 48 -48 48h-14q-48 0 -48 -48v-314q0 -48 48 -48h15q48 0 48 48v73q0 20 8.5 28t28.5 8h2
q20 0 28 -8t8 -28v-70q0 -122 -122 -122h-18q-122 0 -122 122v308q0 122 122 122h19q120 0 120 -120v-53q0 -20 -8 -28.5t-28 -8.5z" />
    <glyph glyph-name="Ccaron" unicode="&#x10c;" horiz-adv-x="354" 
d="M225 758q-13 -17 -35 -17h-22q-22 0 -35 17l-42 59q-6 9 -4 16t11 7h15q14 0 27 -12l39 -38l39 38q13 12 27 12h15q9 0 11 -7t-4 -16zM244 120v113q0 20 9 29t29 9h2q20 0 29 -9t9 -29v-109q0 -130 -130 -130h-26q-130 0 -130 130v452q0 130 130 130h26q128 0 128 -128
v-90q0 -20 -9 -29t-29 -9h-2q-20 0 -29 9t-9 29v92q0 53 -53 53h-20q-53 0 -53 -53v-460q0 -53 53 -53h22q53 0 53 53z" />
    <glyph glyph-name="ccaron" unicode="&#x10d;" horiz-adv-x="325" 
d="M209 601q-11 -20 -35 -20h-22q-24 0 -35 20l-40 70q-5 10 -1.5 15.5t11.5 5.5h13q14 0 27 -14l36 -45l36 45q13 14 27 14h13q8 0 11.5 -5.5t-1.5 -15.5zM257 336h-2q-20 0 -28.5 8.5t-8.5 28.5v54q0 48 -48 48h-14q-48 0 -48 -48v-314q0 -48 48 -48h15q48 0 48 48v73
q0 20 8.5 28t28.5 8h2q20 0 28 -8t8 -28v-70q0 -122 -122 -122h-18q-122 0 -122 122v308q0 122 122 122h19q120 0 120 -120v-53q0 -20 -8 -28.5t-28 -8.5z" />
    <glyph glyph-name="Dcaron" unicode="&#x10e;" horiz-adv-x="361" 
d="M221 758q-13 -17 -35 -17h-22q-22 0 -35 17l-42 59q-6 9 -4 16t11 7h15q14 0 27 -12l39 -38l39 38q13 12 27 12h15q9 0 11 -7t-4 -16zM170 0h-86q-25 0 -35.5 10.5t-10.5 35.5v608q0 25 10.5 35.5t35.5 10.5h86q155 0 155 -155v-390q0 -155 -155 -155zM166 627h-48v-554
h48q79 0 79 81v392q0 81 -79 81z" />
    <glyph glyph-name="dcaron" unicode="&#x10f;" horiz-adv-x="334" 
d="M350 588h-6q-17 0 -17 17v80q0 27 27 27h2q33 0 26 -33l-16 -78q-3 -13 -16 -13zM153 66q35 0 70 38v332q-35 38 -70 38q-44 0 -44 -44v-320q0 -44 44 -44zM223 35v7q-40 -48 -93 -48q-48 0 -72.5 29t-24.5 78v338q0 49 24.5 78t72.5 29q55 0 93 -49v178q0 37 37 37h2
q37 0 37 -37v-640q0 -37 -37 -37h-2q-37 0 -37 37z" />
    <glyph glyph-name="Dcroat" unicode="&#x110;" horiz-adv-x="375" 
d="M184 0h-86q-25 0 -35.5 10.5t-10.5 35.5v275h-19q-18 0 -25.5 7.5t-7.5 25.5v2q0 18 7.5 25.5t25.5 7.5h19v265q0 25 10.5 35.5t35.5 10.5h86q155 0 155 -155v-390q0 -155 -155 -155zM132 73h48q79 0 79 81v392q0 81 -79 81h-48v-238h47q18 0 25.5 -7.5t7.5 -25.5v-2
q0 -18 -7.5 -25.5t-25.5 -7.5h-47v-248z" />
    <glyph glyph-name="dcroat" unicode="&#x111;" horiz-adv-x="348" 
d="M153 66q35 0 70 38v332q-35 38 -70 38q-44 0 -44 -44v-320q0 -44 44 -44zM223 35v7q-40 -48 -93 -48q-48 0 -72.5 29t-24.5 78v338q0 49 24.5 78t72.5 29q55 0 93 -49v90h-75q-16 0 -22.5 6.5t-6.5 22.5v2q0 28 29 28h75v29q0 37 37 37h2q37 0 37 -37v-29h11q28 0 28 -28
v-2q0 -29 -28 -29h-11v-552q0 -37 -37 -37h-2q-37 0 -37 37z" />
    <glyph glyph-name="Emacron" unicode="&#x112;" horiz-adv-x="288" 
d="M48 779v2q0 27 27 27h148q27 0 27 -27v-2q0 -27 -27 -27h-148q-27 0 -27 27zM38 46v608q0 25 10.5 35.5t35.5 10.5h140q20 0 28 -8t8 -28v-2q0 -20 -8 -28t-28 -8h-106v-232h102q19 0 27 -8t8 -27v-2q0 -19 -8 -27.5t-27 -8.5h-102v-247h108q20 0 28 -8t8 -28v-2
q0 -20 -8 -28t-28 -8h-142q-25 0 -35.5 10.5t-10.5 35.5z" />
    <glyph glyph-name="emacron" unicode="&#x113;" horiz-adv-x="323" 
d="M61 624v2q0 17 7.5 24.5t24.5 7.5h138q17 0 24.5 -7.5t7.5 -24.5v-2q0 -17 -7.5 -24.5t-24.5 -7.5h-138q-17 0 -24.5 7.5t-7.5 24.5zM292 147v-31q0 -122 -122 -122h-16q-122 0 -122 122v308q0 122 122 122h16q122 0 122 -122v-136q0 -25 -10.5 -35.5t-35.5 -10.5h-138
v-129q0 -48 48 -48h14q48 0 48 48v34q0 30 30 30h14q30 0 30 -30zM156 475q-48 0 -48 -48v-113h108v113q0 48 -48 48h-12z" />
    <glyph glyph-name="Ebreve" unicode="&#x114;" horiz-adv-x="288" 
d="M149 794q21 0 29 8q5 5 7 15.5t3 12.5q4 9 18 9h17q18 0 18 -19q0 -78 -92 -78t-92 78q0 19 18 19h17q14 0 18 -9q1 -2 3 -12.5t7 -15.5q8 -8 29 -8zM38 46v608q0 25 10.5 35.5t35.5 10.5h140q20 0 28 -8t8 -28v-2q0 -20 -8 -28t-28 -8h-106v-232h102q19 0 27 -8t8 -27
v-2q0 -19 -8 -27.5t-27 -8.5h-102v-247h108q20 0 28 -8t8 -28v-2q0 -20 -8 -28t-28 -8h-142q-25 0 -35.5 10.5t-10.5 35.5z" />
    <glyph glyph-name="ebreve" unicode="&#x115;" horiz-adv-x="323" 
d="M162 582q-89 0 -89 86q0 26 23 26h10q14 0 20 -11q2 -4 3 -19.5t7 -21.5q8 -8 26 -8t26 8q6 6 7 21.5t3 19.5q6 11 20 11h10q23 0 23 -26q0 -86 -89 -86zM292 147v-31q0 -122 -122 -122h-16q-122 0 -122 122v308q0 122 122 122h16q122 0 122 -122v-136q0 -25 -10.5 -35.5
t-35.5 -10.5h-138v-129q0 -48 48 -48h14q48 0 48 48v34q0 30 30 30h14q30 0 30 -30zM156 475q-48 0 -48 -48v-113h108v113q0 48 -48 48h-12z" />
    <glyph glyph-name="Edotaccent" unicode="&#x116;" horiz-adv-x="288" 
d="M144 814h11q16 0 22.5 -7t6.5 -24v-10q0 -18 -6.5 -25t-22.5 -7h-11q-17 0 -23.5 7t-6.5 25v10q0 17 6.5 24t23.5 7zM38 46v608q0 25 10.5 35.5t35.5 10.5h140q20 0 28 -8t8 -28v-2q0 -20 -8 -28t-28 -8h-106v-232h102q19 0 27 -8t8 -27v-2q0 -19 -8 -27.5t-27 -8.5h-102
v-247h108q20 0 28 -8t8 -28v-2q0 -20 -8 -28t-28 -8h-142q-25 0 -35.5 10.5t-10.5 35.5z" />
    <glyph glyph-name="edotaccent" unicode="&#x117;" horiz-adv-x="323" 
d="M159 674h6q18 0 24.5 -7.5t6.5 -25.5v-27q0 -18 -6.5 -25.5t-24.5 -7.5h-6q-18 0 -24.5 7.5t-6.5 25.5v27q0 18 6.5 25.5t24.5 7.5zM292 147v-31q0 -122 -122 -122h-16q-122 0 -122 122v308q0 122 122 122h16q122 0 122 -122v-136q0 -25 -10.5 -35.5t-35.5 -10.5h-138
v-129q0 -48 48 -48h14q48 0 48 48v34q0 30 30 30h14q30 0 30 -30zM156 475q-48 0 -48 -48v-113h108v113q0 48 -48 48h-12z" />
    <glyph glyph-name="Eogonek" unicode="&#x118;" horiz-adv-x="288" 
d="M244 -102h-22q-55 0 -55 43q0 20 22 52l5 7h-110q-25 0 -35.5 10.5t-10.5 35.5v608q0 25 10.5 35.5t35.5 10.5h140q20 0 28 -8t8 -28v-2q0 -20 -8 -28t-28 -8h-106v-232h102q19 0 27 -8t8 -27v-2q0 -19 -8 -27.5t-27 -8.5h-102v-247h108q20 0 28 -8t8 -28v-2
q0 -17 -9 -30l-11 -16q-17 -25 -17 -33q0 -11 16 -11h7q18 0 18 -18v-10q0 -7 -6 -13.5t-16 -6.5z" />
    <glyph glyph-name="eogonek" unicode="&#x119;" horiz-adv-x="323" 
d="M257 -102h-22q-55 0 -55 43q0 19 20 55q-18 -2 -30 -2h-16q-122 0 -122 122v308q0 122 122 122h16q122 0 122 -122v-136q0 -25 -10.5 -35.5t-35.5 -10.5h-138v-129q0 -48 48 -48h14q48 0 48 48v34q0 30 30 30h14q30 0 30 -30v-31q0 -40 -14 -68l-26 -52q-14 -28 -14 -39
t16 -11h7q18 0 18 -18v-10q0 -7 -6 -13.5t-16 -6.5zM156 475q-48 0 -48 -48v-113h108v113q0 48 -48 48h-12z" />
    <glyph glyph-name="Ecaron" unicode="&#x11a;" horiz-adv-x="288" 
d="M195 758q-13 -17 -35 -17h-22q-22 0 -35 17l-42 59q-6 9 -4 16t11 7h15q14 0 27 -12l39 -38l39 38q13 12 27 12h15q9 0 11 -7t-4 -16zM38 46v608q0 25 10.5 35.5t35.5 10.5h140q20 0 28 -8t8 -28v-2q0 -20 -8 -28t-28 -8h-106v-232h102q19 0 27 -8t8 -27v-2
q0 -19 -8 -27.5t-27 -8.5h-102v-247h108q20 0 28 -8t8 -28v-2q0 -20 -8 -28t-28 -8h-142q-25 0 -35.5 10.5t-10.5 35.5z" />
    <glyph glyph-name="ecaron" unicode="&#x11b;" horiz-adv-x="323" 
d="M208 601q-11 -20 -35 -20h-22q-24 0 -35 20l-40 70q-5 10 -1.5 15.5t11.5 5.5h13q14 0 27 -14l36 -45l36 45q13 14 27 14h13q8 0 11.5 -5.5t-1.5 -15.5zM292 147v-31q0 -122 -122 -122h-16q-122 0 -122 122v308q0 122 122 122h16q122 0 122 -122v-136q0 -25 -10.5 -35.5
t-35.5 -10.5h-138v-129q0 -48 48 -48h14q48 0 48 48v34q0 30 30 30h14q30 0 30 -30zM156 475q-48 0 -48 -48v-113h108v113q0 48 -48 48h-12z" />
    <glyph glyph-name="Gbreve" unicode="&#x11e;" horiz-adv-x="360" 
d="M181 794q21 0 29 8q5 5 7 15.5t3 12.5q4 9 18 9h17q18 0 18 -19q0 -78 -92 -78t-92 78q0 19 18 19h17q14 0 18 -9q1 -2 3 -12.5t7 -15.5q8 -8 29 -8zM248 120v179h-35q-17 0 -24.5 7.5t-7.5 24.5v6q0 19 8.5 27t27.5 8h63q25 0 35.5 -10.5t10.5 -35.5v-202
q0 -130 -130 -130h-30q-130 0 -130 130v452q0 130 130 130h30q128 0 128 -128v-60q0 -20 -9 -29t-29 -9h-2q-20 0 -29 9t-9 29v62q0 53 -53 53h-24q-53 0 -53 -53v-460q0 -53 53 -53h26q53 0 53 53z" />
    <glyph glyph-name="gbreve" unicode="&#x11f;" horiz-adv-x="334" 
d="M175 582q-89 0 -89 86q0 26 23 26h10q15 0 20 -11q2 -4 3 -19.5t7 -21.5q8 -8 26 -8t26 8q6 6 7 21.5t3 19.5q5 11 20 11h10q23 0 23 -26q0 -86 -89 -86zM153 127q34 0 70 36v273q-35 38 -70 38q-44 0 -44 -44v-259q0 -44 44 -44zM181 -114h-40q-106 0 -106 104
q0 32 33 32h4q34 0 34 -28q0 -22 8 -32t31 -10h39q39 0 39 42v108q-42 -47 -93 -47q-48 0 -72.5 29t-24.5 78v277q0 49 24.5 78t72.5 29q55 0 93 -46v5q0 37 37 37h2q37 0 37 -37v-502q0 -117 -118 -117z" />
    <glyph glyph-name="Gdotaccent" unicode="&#x120;" horiz-adv-x="360" 
d="M176 814h11q16 0 22.5 -7t6.5 -24v-10q0 -18 -6.5 -25t-22.5 -7h-11q-17 0 -23.5 7t-6.5 25v10q0 17 6.5 24t23.5 7zM248 120v179h-35q-17 0 -24.5 7.5t-7.5 24.5v6q0 19 8.5 27t27.5 8h63q25 0 35.5 -10.5t10.5 -35.5v-202q0 -130 -130 -130h-30q-130 0 -130 130v452
q0 130 130 130h30q128 0 128 -128v-60q0 -20 -9 -29t-29 -9h-2q-20 0 -29 9t-9 29v62q0 53 -53 53h-24q-53 0 -53 -53v-460q0 -53 53 -53h26q53 0 53 53z" />
    <glyph glyph-name="gdotaccent" unicode="&#x121;" horiz-adv-x="334" 
d="M172 674h6q18 0 24.5 -7.5t6.5 -25.5v-27q0 -18 -6.5 -25.5t-24.5 -7.5h-6q-18 0 -24.5 7.5t-6.5 25.5v27q0 18 6.5 25.5t24.5 7.5zM153 127q34 0 70 36v273q-35 38 -70 38q-44 0 -44 -44v-259q0 -44 44 -44zM181 -114h-40q-106 0 -106 104q0 32 33 32h4q34 0 34 -28
q0 -22 8 -32t31 -10h39q39 0 39 42v108q-42 -47 -93 -47q-48 0 -72.5 29t-24.5 78v277q0 49 24.5 78t72.5 29q55 0 93 -46v5q0 37 37 37h2q37 0 37 -37v-502q0 -117 -118 -117z" />
    <glyph glyph-name="Gcommaaccent" unicode="&#x122;" horiz-adv-x="360" 
d="M248 120v179h-35q-17 0 -24.5 7.5t-7.5 24.5v6q0 19 8.5 27t27.5 8h63q25 0 35.5 -10.5t10.5 -35.5v-202q0 -130 -130 -130h-30q-130 0 -130 130v452q0 130 130 130h30q128 0 128 -128v-60q0 -20 -9 -29t-29 -9h-2q-20 0 -29 9t-9 29v62q0 53 -53 53h-24q-53 0 -53 -53
v-460q0 -53 53 -53h26q53 0 53 53zM176 -194q-7 -9 -17 -3l-3 2q-10 6 -4 15l6 10q12 20 15 35h-3q-8 0 -14 6t-6 14v46q0 28 29 28h7q28 0 28 -28v-30q0 -47 -27 -81z" />
    <glyph glyph-name="gcommaaccent" unicode="&#x123;" horiz-adv-x="334" 
d="M178 581h-7q-28 0 -28 28v30q0 47 27 81l11 14q7 9 17 3l3 -2q10 -6 4 -15l-6 -10q-12 -20 -15 -35h3q8 0 14 -6t6 -14v-46q0 -28 -29 -28zM153 127q34 0 70 36v273q-35 38 -70 38q-44 0 -44 -44v-259q0 -44 44 -44zM181 -114h-40q-106 0 -106 104q0 32 33 32h4
q34 0 34 -28q0 -22 8 -32t31 -10h39q39 0 39 42v108q-42 -47 -93 -47q-48 0 -72.5 29t-24.5 78v277q0 49 24.5 78t72.5 29q55 0 93 -46v5q0 37 37 37h2q37 0 37 -37v-502q0 -117 -118 -117z" />
    <glyph glyph-name="Hbar" unicode="&#x126;" horiz-adv-x="394" 
d="M132 395h130v132h-130v-132zM132 37q0 -21 -9 -30t-30 -9h-2q-21 0 -30 9t-9 30v488h-19q-18 0 -25.5 7.5t-7.5 25.5v2q0 33 33 33l19 -1v71q0 21 9 30t30 9h2q21 0 30 -9t9 -30v-73l130 1v72q0 21 9 30t30 9h2q21 0 30 -9t9 -30v-71h23q18 1 25.5 -6.5t7.5 -25.5v-2
q0 -33 -33 -32h-23v-489q0 -21 -9 -30t-30 -9h-2q-21 0 -30 9t-9 30v283h-130v-283z" />
    <glyph glyph-name="hbar" unicode="&#x127;" horiz-adv-x="347" 
d="M125 35q0 -37 -37 -37h-2q-37 0 -37 37v552h-12q-16 0 -22.5 6.5t-6.5 22.5v2q0 28 29 28h12v29q0 37 37 37h2q37 0 37 -37v-29h78q28 0 28 -28v-2q0 -29 -28 -29h-78v-92q43 51 96 51q92 0 92 -97v-414q0 -37 -37 -37h-2q-37 0 -37 37v398q0 41 -39 41q-31 0 -73 -37
v-402z" />
    <glyph glyph-name="Imacron" unicode="&#x12a;" horiz-adv-x="158" 
d="M-22 779v2q0 27 27 27h148q27 0 27 -27v-2q0 -27 -27 -27h-148q-27 0 -27 27zM78 702h2q21 0 30 -9t9 -30v-626q0 -21 -9 -30t-30 -9h-2q-21 0 -30 9t-9 30v626q0 21 9 30t30 9z" />
    <glyph glyph-name="imacron" unicode="&#x12b;" horiz-adv-x="152" 
d="M-25 624v2q0 17 7.5 24.5t24.5 7.5h138q17 0 24.5 -7.5t7.5 -24.5v-2q0 -17 -7.5 -24.5t-24.5 -7.5h-138q-17 0 -24.5 7.5t-7.5 24.5zM77 -2h-2q-37 0 -37 37v470q0 37 37 37h2q37 0 37 -37v-470q0 -37 -37 -37z" />
    <glyph glyph-name="Ibreve" unicode="&#x12c;" horiz-adv-x="158" 
d="M79 794q21 0 29 8q5 5 7 15.5t3 12.5q4 9 18 9h17q18 0 18 -19q0 -78 -92 -78t-92 78q0 19 18 19h17q14 0 18 -9q1 -2 3 -12.5t7 -15.5q8 -8 29 -8zM78 702h2q21 0 30 -9t9 -30v-626q0 -21 -9 -30t-30 -9h-2q-21 0 -30 9t-9 30v626q0 21 9 30t30 9z" />
    <glyph glyph-name="ibreve" unicode="&#x12d;" horiz-adv-x="152" 
d="M76 582q-89 0 -89 86q0 26 23 26h10q14 0 20 -11q2 -4 3 -19.5t7 -21.5q8 -8 26 -8t26 8q6 6 7 21.5t3 19.5q6 11 20 11h10q23 0 23 -26q0 -86 -89 -86zM77 -2h-2q-37 0 -37 37v470q0 37 37 37h2q37 0 37 -37v-470q0 -37 -37 -37z" />
    <glyph glyph-name="Iogonek" unicode="&#x12e;" horiz-adv-x="158" 
d="M107 -102h-22q-53 0 -53 43q0 22 18 51l6 10q-17 7 -17 35v626q0 21 9 30t30 9h2q21 0 30 -9t9 -30v-626q0 -17 -10 -34l-6 -11q-13 -22 -13 -35q0 -11 14 -11h7q18 0 18 -18v-10q0 -7 -6 -13.5t-16 -6.5z" />
    <glyph glyph-name="iogonek" unicode="&#x12f;" horiz-adv-x="152" 
d="M77 591h-2q-21 0 -30 9t-9 30v15q0 21 9 30t30 9h2q21 0 30 -9t9 -30v-15q0 -21 -9 -30t-30 -9zM103 -102h-22q-53 0 -53 43q0 22 18 51l7 10q-15 9 -15 33v470q0 37 37 37h2q37 0 37 -37v-470q0 -15 -9 -32l-7 -13q-12 -21 -12 -33q0 -11 14 -11h7q18 0 18 -18v-10
q0 -7 -6 -13.5t-16 -6.5z" />
    <glyph glyph-name="Idotaccent" unicode="&#x130;" horiz-adv-x="158" 
d="M74 814h11q16 0 22.5 -7t6.5 -24v-10q0 -18 -6.5 -25t-22.5 -7h-11q-17 0 -23.5 7t-6.5 25v10q0 17 6.5 24t23.5 7zM78 702h2q21 0 30 -9t9 -30v-626q0 -21 -9 -30t-30 -9h-2q-21 0 -30 9t-9 30v626q0 21 9 30t30 9z" />
    <glyph glyph-name="dotlessi" unicode="&#x131;" horiz-adv-x="152" 
d="M77 -2h-2q-37 0 -37 37v470q0 37 37 37h2q37 0 37 -37v-470q0 -37 -37 -37z" />
    <glyph glyph-name="Kcommaaccent" unicode="&#x136;" horiz-adv-x="335" 
d="M278 -2h-2q-27 0 -37 25l-121 321v-307q0 -21 -9 -30t-30 -9h-2q-21 0 -30 9t-9 30v626q0 21 9 30t30 9h2q21 0 30 -9t9 -30v-302l128 318q11 23 35 23h2q57 0 36 -53l-122 -292l119 -304q21 -55 -38 -55zM165 -194q-7 -9 -17 -3l-3 2q-10 6 -4 15l6 10q12 20 15 35h-3
q-8 0 -14 6t-6 14v46q0 28 29 28h7q28 0 28 -28v-30q0 -47 -27 -81z" />
    <glyph glyph-name="kcommaaccent" unicode="&#x137;" horiz-adv-x="304" 
d="M287 47q10 -23 -0.5 -36t-33.5 -13h-1q-28 0 -39 26l-102 244v-233q0 -37 -37 -37h-2q-37 0 -37 37v640q0 37 37 37h2q37 0 37 -37v-397l107 237q12 27 39 27h2q23 0 31.5 -10.5t-0.5 -34.5l-106 -220zM155 -194q-7 -9 -17 -3l-3 2q-10 6 -4 15l6 10q12 20 15 35h-3
q-8 0 -14 6t-6 14v46q0 28 29 28h7q28 0 28 -28v-30q0 -47 -27 -81z" />
    <glyph glyph-name="Lacute" unicode="&#x139;" horiz-adv-x="266" 
d="M89 743h-14q-10 0 -13.5 6t1.5 15l27 55q7 15 24 15h27q13 0 16 -8t-4 -17l-38 -50q-12 -16 -26 -16zM38 46v617q0 21 9 30t30 9h2q21 0 30 -9t9 -30v-589h98q20 0 28 -8t8 -28v-2q0 -20 -8 -28t-28 -8h-132q-25 0 -35.5 10.5t-10.5 35.5z" />
    <glyph glyph-name="lacute" unicode="&#x13a;" horiz-adv-x="152" 
d="M82 733h-11q-9 0 -13 7.5t0 17.5l22 63q9 23 29 23h24q12 0 16.5 -8t-1.5 -19l-38 -67q-9 -17 -28 -17zM77 -2h-2q-37 0 -37 37v640q0 37 37 37h2q37 0 37 -37v-640q0 -37 -37 -37z" />
    <glyph glyph-name="Lcommaaccent" unicode="&#x13b;" horiz-adv-x="266" 
d="M38 46v617q0 21 9 30t30 9h2q21 0 30 -9t9 -30v-589h98q20 0 28 -8t8 -28v-2q0 -20 -8 -28t-28 -8h-132q-25 0 -35.5 10.5t-10.5 35.5zM120 -194q-7 -9 -17 -3l-3 2q-10 6 -4 15l6 10q12 20 15 35h-3q-8 0 -14 6t-6 14v46q0 28 29 28h7q28 0 28 -28v-30q0 -47 -27 -81z
" />
    <glyph glyph-name="lcommaaccent" unicode="&#x13c;" horiz-adv-x="152" 
d="M77 -2h-2q-37 0 -37 37v640q0 37 37 37h2q37 0 37 -37v-640q0 -37 -37 -37zM71 -194q-7 -9 -17 -3l-3 2q-10 6 -4 15l6 10q12 20 15 35h-3q-8 0 -14 6t-6 14v46q0 28 29 28h7q28 0 28 -28v-30q0 -47 -27 -81z" />
    <glyph glyph-name="Lcaron" unicode="&#x13d;" horiz-adv-x="266" 
d="M169 578h-6q-17 0 -17 17v80q0 27 27 27h2q33 0 26 -33l-16 -78q-3 -13 -16 -13zM38 46v617q0 21 9 30t30 9h2q21 0 30 -9t9 -30v-589h98q20 0 28 -8t8 -28v-2q0 -20 -8 -28t-28 -8h-132q-25 0 -35.5 10.5t-10.5 35.5z" />
    <glyph glyph-name="lcaron" unicode="&#x13e;" horiz-adv-x="152" 
d="M165 588h-6q-17 0 -17 17v80q0 27 27 27h2q33 0 26 -33l-16 -78q-3 -13 -16 -13zM77 -2h-2q-37 0 -37 37v640q0 37 37 37h2q37 0 37 -37v-640q0 -37 -37 -37z" />
    <glyph glyph-name="Ldot" unicode="&#x13f;" horiz-adv-x="266" 
d="M38 46v617q0 21 9 30t30 9h2q21 0 30 -9t9 -30v-589h98q20 0 28 -8t8 -28v-2q0 -20 -8 -28t-28 -8h-132q-25 0 -35.5 10.5t-10.5 35.5zM189 398h2q31 0 31 -31v-31q0 -31 -31 -31h-2q-31 0 -31 31v31q0 31 31 31z" />
    <glyph glyph-name="ldot" unicode="&#x140;" horiz-adv-x="192" 
d="M77 -2h-2q-37 0 -37 37v640q0 37 37 37h2q37 0 37 -37v-640q0 -37 -37 -37zM171 402h2q16 0 22.5 -6.5t6.5 -22.5v-35q0 -16 -6.5 -22.5t-22.5 -6.5h-2q-16 0 -22.5 6.5t-6.5 22.5v35q0 16 6.5 22.5t22.5 6.5z" />
    <glyph glyph-name="Lslash" unicode="&#x141;" horiz-adv-x="276" 
d="M226 0h-132q-25 0 -35.5 10.5t-10.5 35.5v257l-19 -10q-14 -7 -24.5 -1t-10.5 20v11q0 22 22 33l32 17v290q0 21 9 30t30 9h2q21 0 30 -9t9 -30v-247l39 21q16 7 25.5 1t9.5 -20v-11q0 -22 -22 -33l-52 -28v-272h98q20 0 28 -8t8 -28v-2q0 -20 -8 -28t-28 -8z" />
    <glyph glyph-name="lslash" unicode="&#x142;" horiz-adv-x="166" 
d="M84 -2h-2q-37 0 -37 37v261l-8 -5q-11 -7 -21.5 -3t-10.5 18v14q0 19 18 30l22 15v310q0 37 37 37h2q37 0 37 -37v-259l10 7q11 7 21.5 2t10.5 -19v-12q0 -19 -18 -30l-24 -16v-313q0 -37 -37 -37z" />
    <glyph glyph-name="Nacute" unicode="&#x143;" horiz-adv-x="378" 
d="M198 743h-14q-10 0 -13.5 6t1.5 15l27 55q7 15 24 15h27q13 0 16 -8t-4 -17l-38 -50q-12 -16 -26 -16zM294 -2h-17q-37 0 -45 36l-118 516v-515q0 -37 -37 -37h-2q-37 0 -37 37v621q0 25 10.5 35.5t35.5 10.5h27q37 0 45 -36l108 -472v471q0 37 37 37h2q37 0 37 -37v-621
q0 -25 -10.5 -35.5t-35.5 -10.5z" />
    <glyph glyph-name="nacute" unicode="&#x144;" horiz-adv-x="333" 
d="M172 583h-11q-9 0 -13 7.5t0 17.5l22 63q9 23 29 23h24q12 0 16.5 -8t-1.5 -19l-38 -67q-9 -17 -28 -17zM111 35q0 -37 -37 -37h-2q-37 0 -37 37v470q0 37 37 37h2q37 0 37 -37v-8q39 49 96 49q92 0 92 -97v-414q0 -37 -37 -37h-2q-37 0 -37 37v398q0 41 -39 41
q-31 0 -73 -37v-402z" />
    <glyph glyph-name="Ncommaaccent" unicode="&#x145;" horiz-adv-x="378" 
d="M294 -2h-17q-37 0 -45 36l-118 516v-515q0 -37 -37 -37h-2q-37 0 -37 37v621q0 25 10.5 35.5t35.5 10.5h27q37 0 45 -36l108 -472v471q0 37 37 37h2q37 0 37 -37v-621q0 -25 -10.5 -35.5t-35.5 -10.5zM184 -194q-7 -9 -17 -3l-3 2q-10 6 -4 15l6 10q12 20 15 35h-3
q-8 0 -14 6t-6 14v46q0 28 29 28h7q28 0 28 -28v-30q0 -47 -27 -81z" />
    <glyph glyph-name="ncommaaccent" unicode="&#x146;" horiz-adv-x="333" 
d="M111 35q0 -37 -37 -37h-2q-37 0 -37 37v470q0 37 37 37h2q37 0 37 -37v-8q39 49 96 49q92 0 92 -97v-414q0 -37 -37 -37h-2q-37 0 -37 37v398q0 41 -39 41q-31 0 -73 -37v-402zM162 -194q-7 -9 -17 -3l-3 2q-10 6 -4 15l6 10q12 20 15 35h-3q-8 0 -14 6t-6 14v46
q0 28 29 28h7q28 0 28 -28v-30q0 -47 -27 -81z" />
    <glyph glyph-name="Ncaron" unicode="&#x147;" horiz-adv-x="378" 
d="M235 758q-13 -17 -35 -17h-22q-22 0 -35 17l-42 59q-6 9 -4 16t11 7h15q14 0 27 -12l39 -38l39 38q13 12 27 12h15q9 0 11 -7t-4 -16zM294 -2h-17q-37 0 -45 36l-118 516v-515q0 -37 -37 -37h-2q-37 0 -37 37v621q0 25 10.5 35.5t35.5 10.5h27q37 0 45 -36l108 -472v471
q0 37 37 37h2q37 0 37 -37v-621q0 -25 -10.5 -35.5t-35.5 -10.5z" />
    <glyph glyph-name="ncaron" unicode="&#x148;" horiz-adv-x="333" 
d="M213 601q-11 -20 -35 -20h-22q-24 0 -35 20l-40 70q-5 10 -1.5 15.5t11.5 5.5h13q14 0 27 -14l36 -45l36 45q13 14 27 14h13q8 0 11.5 -5.5t-1.5 -15.5zM111 35q0 -37 -37 -37h-2q-37 0 -37 37v470q0 37 37 37h2q37 0 37 -37v-8q39 49 96 49q92 0 92 -97v-414
q0 -37 -37 -37h-2q-37 0 -37 37v398q0 41 -39 41q-31 0 -73 -37v-402z" />
    <glyph glyph-name="Omacron" unicode="&#x14c;" horiz-adv-x="362" 
d="M80 779v2q0 27 27 27h148q27 0 27 -27v-2q0 -27 -27 -27h-148q-27 0 -27 27zM326 576v-452q0 -130 -130 -130h-30q-130 0 -130 130v452q0 130 130 130h30q130 0 130 -130zM246 120v460q0 53 -53 53h-24q-53 0 -53 -53v-460q0 -53 53 -53h24q53 0 53 53z" />
    <glyph glyph-name="omacron" unicode="&#x14d;" horiz-adv-x="330" 
d="M64 624v2q0 17 7.5 24.5t24.5 7.5h138q17 0 24.5 -7.5t7.5 -24.5v-2q0 -17 -7.5 -24.5t-24.5 -7.5h-138q-17 0 -24.5 7.5t-7.5 24.5zM298 116q0 -122 -122 -122h-22q-122 0 -122 122v308q0 122 122 122h22q122 0 122 -122v-308zM222 427q0 48 -48 48h-18q-48 0 -48 -48
v-314q0 -48 48 -48h18q48 0 48 48v314z" />
    <glyph glyph-name="Obreve" unicode="&#x14e;" horiz-adv-x="362" 
d="M181 794q21 0 29 8q5 5 7 15.5t3 12.5q4 9 18 9h17q18 0 18 -19q0 -78 -92 -78t-92 78q0 19 18 19h17q14 0 18 -9q1 -2 3 -12.5t7 -15.5q8 -8 29 -8zM326 576v-452q0 -130 -130 -130h-30q-130 0 -130 130v452q0 130 130 130h30q130 0 130 -130zM246 120v460q0 53 -53 53
h-24q-53 0 -53 -53v-460q0 -53 53 -53h24q53 0 53 53z" />
    <glyph glyph-name="obreve" unicode="&#x14f;" horiz-adv-x="330" 
d="M165 582q-89 0 -89 86q0 26 23 26h10q15 0 20 -11q2 -4 3 -19.5t7 -21.5q8 -8 26 -8t26 8q6 6 7 21.5t3 19.5q5 11 20 11h10q23 0 23 -26q0 -86 -89 -86zM298 116q0 -122 -122 -122h-22q-122 0 -122 122v308q0 122 122 122h22q122 0 122 -122v-308zM222 427q0 48 -48 48
h-18q-48 0 -48 -48v-314q0 -48 48 -48h18q48 0 48 48v314z" />
    <glyph glyph-name="Ohungarumlaut" unicode="&#x150;" horiz-adv-x="362" 
d="M230 743h-10q-8 0 -10.5 5.5t0.5 11.5l22 56q8 18 25 18h26q10 0 13.5 -8t-2.5 -16l-42 -54q-10 -13 -22 -13zM148 743h-10q-8 0 -10.5 5.5t0.5 11.5l22 56q8 18 25 18h26q10 0 13.5 -8t-2.5 -16l-42 -54q-10 -13 -22 -13zM326 576v-452q0 -130 -130 -130h-30
q-130 0 -130 130v452q0 130 130 130h30q130 0 130 -130zM246 120v460q0 53 -53 53h-24q-53 0 -53 -53v-460q0 -53 53 -53h24q53 0 53 53z" />
    <glyph glyph-name="ohungarumlaut" unicode="&#x151;" horiz-adv-x="330" 
d="M128 583h-4q-19 0 -13 21l16 67q6 23 29 23h14q13 0 18.5 -9.5t-0.5 -22.5l-34 -61q-10 -18 -26 -18zM237 601q-11 -18 -26 -18h-4q-19 0 -13 21l16 67q6 23 29 23h14q13 0 18.5 -9.5t-0.5 -22.5zM298 116q0 -122 -122 -122h-22q-122 0 -122 122v308q0 122 122 122h22
q122 0 122 -122v-308zM222 427q0 48 -48 48h-18q-48 0 -48 -48v-314q0 -48 48 -48h18q48 0 48 48v314z" />
    <glyph glyph-name="OE" unicode="&#x152;" horiz-adv-x="493" 
d="M36 545q0 155 155 155h238q19 0 27.5 -8t8.5 -28v-2q0 -20 -8.5 -28t-27.5 -8h-106v-232h102q19 0 27 -8t8 -27v-2q0 -19 -8 -27.5t-27 -8.5h-102v-247h108q19 0 27.5 -8t8.5 -28v-2q0 -20 -8.5 -28t-27.5 -8h-240q-155 0 -155 155v390zM195 73h48v554h-48q-79 0 -79 -81
v-392q0 -81 79 -81z" />
    <glyph glyph-name="oe" unicode="&#x153;" horiz-adv-x="513" 
d="M346 475q-48 0 -48 -48v-113h108v113q0 48 -48 48h-12zM222 428q0 46 -46 46h-22q-46 0 -46 -46v-316q0 -46 46 -46h22q46 0 46 46v316zM344 -6q-59 0 -84 32q-25 -32 -84 -32h-22q-122 0 -122 122v308q0 122 122 122h22q59 0 84 -33q25 33 84 33h16q122 0 122 -122v-136
q0 -25 -10.5 -35.5t-35.5 -10.5h-138v-129q0 -48 48 -48h14q48 0 48 48v34q0 30 30 30h16q28 0 28 -28v-33q0 -122 -122 -122h-16z" />
    <glyph glyph-name="Racute" unicode="&#x154;" horiz-adv-x="354" 
d="M179 743h-14q-10 0 -13.5 6t1.5 15l27 55q7 15 24 15h27q13 0 16 -8t-4 -17l-38 -50q-12 -16 -26 -16zM237 424v150q0 53 -53 53h-66v-262h60q59 0 59 59zM317 440q0 -85 -62 -110q63 -17 63 -94v-199q0 -21 -9 -30t-30 -9h-2q-21 0 -30 9t-9 30v196q0 61 -61 61h-59
v-257q0 -21 -9 -30t-30 -9h-2q-21 0 -30 9t-9 30v617q0 25 10.5 35.5t35.5 10.5h103q130 0 130 -130v-130z" />
    <glyph glyph-name="racute" unicode="&#x155;" horiz-adv-x="209" 
d="M121 583h-11q-9 0 -13 7.5t0 17.5l22 63q9 23 29 23h24q12 0 16.5 -8t-1.5 -19l-38 -67q-9 -17 -28 -17zM74 -2h-2q-37 0 -37 37v470q0 37 37 37h2q37 0 37 -37v-22q34 63 69 63q26 0 26 -32v-9q0 -16 -8.5 -26t-33.5 -23q-28 -15 -53 -36v-385q0 -37 -37 -37z" />
    <glyph glyph-name="Rcommaaccent" unicode="&#x156;" horiz-adv-x="354" 
d="M237 424v150q0 53 -53 53h-66v-262h60q59 0 59 59zM317 440q0 -85 -62 -110q63 -17 63 -94v-199q0 -21 -9 -30t-30 -9h-2q-21 0 -30 9t-9 30v196q0 61 -61 61h-59v-257q0 -21 -9 -30t-30 -9h-2q-21 0 -30 9t-9 30v617q0 25 10.5 35.5t35.5 10.5h103q130 0 130 -130v-130z
M165 -194q-7 -9 -17 -3l-3 2q-10 6 -4 15l6 10q12 20 15 35h-3q-8 0 -14 6t-6 14v46q0 28 29 28h7q28 0 28 -28v-30q0 -47 -27 -81z" />
    <glyph glyph-name="rcommaaccent" unicode="&#x157;" horiz-adv-x="209" 
d="M74 -2h-2q-37 0 -37 37v470q0 37 37 37h2q37 0 37 -37v-22q34 63 69 63q26 0 26 -32v-9q0 -16 -8.5 -26t-33.5 -23q-28 -15 -53 -36v-385q0 -37 -37 -37zM67 -194q-7 -9 -17 -3l-3 2q-10 6 -4 15l6 10q12 20 15 35h-3q-8 0 -14 6t-6 14v46q0 28 29 28h7q28 0 28 -28v-30
q0 -47 -27 -81z" />
    <glyph glyph-name="Rcaron" unicode="&#x158;" horiz-adv-x="354" 
d="M216 758q-13 -17 -35 -17h-22q-22 0 -35 17l-42 59q-6 9 -4 16t11 7h15q14 0 27 -12l39 -38l39 38q13 12 27 12h15q9 0 11 -7t-4 -16zM237 424v150q0 53 -53 53h-66v-262h60q59 0 59 59zM317 440q0 -85 -62 -110q63 -17 63 -94v-199q0 -21 -9 -30t-30 -9h-2q-21 0 -30 9
t-9 30v196q0 61 -61 61h-59v-257q0 -21 -9 -30t-30 -9h-2q-21 0 -30 9t-9 30v617q0 25 10.5 35.5t35.5 10.5h103q130 0 130 -130v-130z" />
    <glyph glyph-name="rcaron" unicode="&#x159;" horiz-adv-x="209" 
d="M162 601q-11 -20 -35 -20h-22q-24 0 -35 20l-40 70q-5 10 -1.5 15.5t11.5 5.5h13q14 0 27 -14l36 -45l36 45q13 14 27 14h13q8 0 11.5 -5.5t-1.5 -15.5zM74 -2h-2q-37 0 -37 37v470q0 37 37 37h2q37 0 37 -37v-22q34 63 69 63q26 0 26 -32v-9q0 -16 -8.5 -26t-33.5 -23
q-28 -15 -53 -36v-385q0 -37 -37 -37z" />
    <glyph glyph-name="Sacute" unicode="&#x15a;" horiz-adv-x="348" 
d="M184 743h-14q-10 0 -13.5 6t1.5 15l27 55q7 15 24 15h27q13 0 16 -8t-4 -17l-38 -50q-12 -16 -26 -16zM151 426l97 -70q38 -28 52.5 -56.5t14.5 -73.5v-102q0 -130 -130 -130h-22q-128 0 -128 128v111q0 20 9 29t29 9h2q20 0 29 -9t9 -29v-114q0 -53 53 -53h16
q53 0 53 53v105q0 25 -8 39t-27 28l-98 71q-38 27 -52.5 56.5t-14.5 73.5v84q0 130 130 130h20q128 0 128 -128v-90q0 -20 -9 -29t-29 -9h-2q-20 0 -29 9t-9 29v93q0 53 -53 53h-14q-53 0 -53 -53v-88q0 -25 8.5 -39t27.5 -28z" />
    <glyph glyph-name="sacute" unicode="&#x15b;" horiz-adv-x="318" 
d="M164 583h-11q-9 0 -13 7.5t0 17.5l22 63q9 23 29 23h24q12 0 16.5 -8t-1.5 -19l-38 -67q-9 -17 -28 -17zM251 348h-2q-20 0 -28.5 8.5t-8.5 28.5v46q0 46 -46 46h-13q-46 0 -46 -46v-47q0 -34 28 -51l90 -56q34 -22 48.5 -45t14.5 -62v-54q0 -122 -122 -122h-15
q-120 0 -120 120v46q0 20 8.5 28t28.5 8h2q20 0 28 -8t8 -28v-51q0 -46 46 -46h15q46 0 46 46v51q0 33 -28 51l-90 56q-34 22 -48.5 45t-14.5 62v50q0 122 122 122h13q120 0 120 -120v-41q0 -20 -8 -28.5t-28 -8.5z" />
    <glyph glyph-name="Scedilla" unicode="&#x15e;" horiz-adv-x="348" 
d="M162 -98h-17q-11 0 -16.5 8t-0.5 20l26 64q-119 4 -119 128v111q0 20 9 29t29 9h2q20 0 29 -9t9 -29v-114q0 -53 53 -53h16q53 0 53 53v105q0 25 -8 39t-27 28l-98 71q-38 27 -52.5 56.5t-14.5 73.5v84q0 130 130 130h20q128 0 128 -128v-90q0 -20 -9 -29t-29 -9h-2
q-20 0 -29 9t-9 29v93q0 53 -53 53h-14q-53 0 -53 -53v-88q0 -25 8.5 -39t27.5 -28l97 -70q38 -28 52.5 -56.5t14.5 -73.5v-102q0 -118 -108 -129l-14 -65q-5 -28 -31 -28z" />
    <glyph glyph-name="scedilla" unicode="&#x15f;" horiz-adv-x="318" 
d="M142 -98h-17q-11 0 -16.5 8t-0.5 20l26 65q-103 7 -103 119v46q0 20 8.5 28t28.5 8h2q20 0 28 -8t8 -28v-51q0 -46 46 -46h15q46 0 46 46v51q0 33 -28 51l-90 56q-34 22 -48.5 45t-14.5 62v50q0 122 122 122h13q120 0 120 -120v-41q0 -20 -8 -28.5t-28 -8.5h-2
q-20 0 -28.5 8.5t-8.5 28.5v46q0 46 -46 46h-13q-46 0 -46 -46v-47q0 -34 28 -51l90 -56q34 -22 48.5 -45t14.5 -62v-54q0 -110 -101 -121l-14 -65q-5 -28 -31 -28z" />
    <glyph glyph-name="Scaron" unicode="&#x160;" horiz-adv-x="348" 
d="M221 758q-13 -17 -35 -17h-22q-22 0 -35 17l-42 59q-6 9 -4 16t11 7h15q14 0 27 -12l39 -38l39 38q13 12 27 12h15q9 0 11 -7t-4 -16zM151 426l97 -70q38 -28 52.5 -56.5t14.5 -73.5v-102q0 -130 -130 -130h-22q-128 0 -128 128v111q0 20 9 29t29 9h2q20 0 29 -9t9 -29
v-114q0 -53 53 -53h16q53 0 53 53v105q0 25 -8 39t-27 28l-98 71q-38 27 -52.5 56.5t-14.5 73.5v84q0 130 130 130h20q128 0 128 -128v-90q0 -20 -9 -29t-29 -9h-2q-20 0 -29 9t-9 29v93q0 53 -53 53h-14q-53 0 -53 -53v-88q0 -25 8.5 -39t27.5 -28z" />
    <glyph glyph-name="scaron" unicode="&#x161;" horiz-adv-x="318" 
d="M205 601q-11 -20 -35 -20h-22q-24 0 -35 20l-40 70q-5 10 -1.5 15.5t11.5 5.5h13q14 0 27 -14l36 -45l36 45q13 14 27 14h13q8 0 11.5 -5.5t-1.5 -15.5zM251 348h-2q-20 0 -28.5 8.5t-8.5 28.5v46q0 46 -46 46h-13q-46 0 -46 -46v-47q0 -34 28 -51l90 -56
q34 -22 48.5 -45t14.5 -62v-54q0 -122 -122 -122h-15q-120 0 -120 120v46q0 20 8.5 28t28.5 8h2q20 0 28 -8t8 -28v-51q0 -46 46 -46h15q46 0 46 46v51q0 33 -28 51l-90 56q-34 22 -48.5 45t-14.5 62v50q0 122 122 122h13q120 0 120 -120v-41q0 -20 -8 -28.5t-28 -8.5z" />
    <glyph glyph-name="Tcommaaccent" unicode="&#x162;" horiz-adv-x="310" 
d="M195 626v-589q0 -21 -9 -30t-30 -9h-2q-21 0 -30 9t-9 30v589h-71q-20 0 -28 8t-8 28v2q0 20 8 28t28 8h222q20 0 28 -8t8 -28v-2q0 -20 -8 -28t-28 -8h-71zM150 -194q-7 -9 -17 -3l-3 2q-10 6 -4 15l6 10q12 20 15 35h-3q-8 0 -14 6t-6 14v46q0 28 29 28h7q28 0 28 -28
v-30q0 -47 -27 -81z" />
    <glyph glyph-name="tcommaaccent" unicode="&#x163;" horiz-adv-x="197" 
d="M131 35q0 -37 -37 -37h-2q-37 0 -37 37v435h-10q-34 0 -34 34v2q0 34 34 34h10v55q0 37 37 37h2q37 0 37 -37v-55h25q34 0 34 -34v-2q0 -34 -34 -34h-25v-435zM90 -194q-7 -9 -17 -3l-3 2q-10 6 -4 15l6 10q12 20 15 35h-3q-8 0 -14 6t-6 14v46q0 28 29 28h7q28 0 28 -28
v-30q0 -47 -27 -81z" />
    <glyph glyph-name="Tcaron" unicode="&#x164;" horiz-adv-x="310" 
d="M201 758q-13 -17 -35 -17h-22q-22 0 -35 17l-42 59q-6 9 -4 16t11 7h15q14 0 27 -12l39 -38l39 38q13 12 27 12h15q9 0 11 -7t-4 -16zM195 626v-589q0 -21 -9 -30t-30 -9h-2q-21 0 -30 9t-9 30v589h-71q-20 0 -28 8t-8 28v2q0 20 8 28t28 8h222q20 0 28 -8t8 -28v-2
q0 -20 -8 -28t-28 -8h-71z" />
    <glyph glyph-name="tcaron" unicode="&#x165;" horiz-adv-x="197" 
d="M182 590h-6q-17 0 -17 17v80q0 27 27 27h2q33 0 26 -33l-16 -78q-3 -13 -16 -13zM131 35q0 -37 -37 -37h-2q-37 0 -37 37v435h-10q-34 0 -34 34v2q0 34 34 34h10v55q0 37 37 37h2q37 0 37 -37v-55h25q34 0 34 -34v-2q0 -34 -34 -34h-25v-435z" />
    <glyph glyph-name="Umacron" unicode="&#x16a;" horiz-adv-x="359" 
d="M78 779v2q0 27 27 27h148q27 0 27 -27v-2q0 -27 -27 -27h-148q-27 0 -27 27zM281 702h2q21 0 30 -9t9 -30v-539q0 -130 -130 -130h-25q-130 0 -130 130v539q0 21 9 30t30 9h2q21 0 30 -9t9 -30v-543q0 -53 53 -53h19q53 0 53 53v543q0 21 9 30t30 9z" />
    <glyph glyph-name="umacron" unicode="&#x16b;" horiz-adv-x="333" 
d="M65 624v2q0 17 7.5 24.5t24.5 7.5h138q17 0 24.5 -7.5t7.5 -24.5v-2q0 -17 -7.5 -24.5t-24.5 -7.5h-138q-17 0 -24.5 7.5t-7.5 24.5zM222 35v8q-39 -49 -96 -49q-92 0 -92 97v414q0 37 37 37h2q37 0 37 -37v-398q0 -41 39 -41q31 0 73 37v402q0 37 37 37h2q37 0 37 -37
v-470q0 -37 -37 -37h-2q-37 0 -37 37z" />
    <glyph glyph-name="Ubreve" unicode="&#x16c;" horiz-adv-x="359" 
d="M179 789q21 0 29 8q5 5 7 15.5t3 12.5q4 9 18 9h17q18 0 18 -19q0 -78 -92 -78t-92 78q0 19 18 19h17q14 0 18 -9q1 -2 3 -12.5t7 -15.5q8 -8 29 -8zM281 702h2q21 0 30 -9t9 -30v-539q0 -130 -130 -130h-25q-130 0 -130 130v539q0 21 9 30t30 9h2q21 0 30 -9t9 -30v-543
q0 -53 53 -53h19q53 0 53 53v543q0 21 9 30t30 9z" />
    <glyph glyph-name="ubreve" unicode="&#x16d;" horiz-adv-x="333" 
d="M166 582q-89 0 -89 86q0 26 23 26h10q14 0 20 -11q2 -4 3 -19.5t7 -21.5q8 -8 26 -8t26 8q6 6 7 21.5t3 19.5q6 11 20 11h10q23 0 23 -26q0 -86 -89 -86zM222 35v8q-39 -49 -96 -49q-92 0 -92 97v414q0 37 37 37h2q37 0 37 -37v-398q0 -41 39 -41q31 0 73 37v402
q0 37 37 37h2q37 0 37 -37v-470q0 -37 -37 -37h-2q-37 0 -37 37z" />
    <glyph glyph-name="Uring" unicode="&#x16e;" horiz-adv-x="359" 
d="M213 742h-68q-61 0 -61 54q0 53 61 53h68q61 0 61 -51v-5q0 -51 -61 -51zM209 827h-60q-40 0 -40 -31q0 -32 40 -32h60q40 0 40 30v3q0 30 -40 30zM281 702h2q21 0 30 -9t9 -30v-539q0 -130 -130 -130h-25q-130 0 -130 130v539q0 21 9 30t30 9h2q21 0 30 -9t9 -30v-543
q0 -53 53 -53h19q53 0 53 53v543q0 21 9 30t30 9z" />
    <glyph glyph-name="uring" unicode="&#x16f;" horiz-adv-x="333" 
d="M186 693q63 0 63 -53v-5q0 -53 -63 -53h-40q-63 0 -63 56q0 55 63 55h40zM182 604q42 0 42 31v5q0 31 -42 31h-32q-42 0 -42 -33q0 -34 43 -34h31zM222 35v8q-39 -49 -96 -49q-92 0 -92 97v414q0 37 37 37h2q37 0 37 -37v-398q0 -41 39 -41q31 0 73 37v402q0 37 37 37h2
q37 0 37 -37v-470q0 -37 -37 -37h-2q-37 0 -37 37z" />
    <glyph glyph-name="Uhungarumlaut" unicode="&#x170;" horiz-adv-x="359" 
d="M228 743h-10q-8 0 -10.5 5.5t0.5 11.5l22 56q8 18 25 18h26q10 0 13.5 -8t-2.5 -16l-42 -54q-10 -13 -22 -13zM146 743h-10q-8 0 -10.5 5.5t0.5 11.5l22 56q8 18 25 18h26q10 0 13.5 -8t-2.5 -16l-42 -54q-10 -13 -22 -13zM281 702h2q21 0 30 -9t9 -30v-539
q0 -130 -130 -130h-25q-130 0 -130 130v539q0 21 9 30t30 9h2q21 0 30 -9t9 -30v-543q0 -53 53 -53h19q53 0 53 53v543q0 21 9 30t30 9z" />
    <glyph glyph-name="uhungarumlaut" unicode="&#x171;" horiz-adv-x="333" 
d="M129 583h-4q-19 0 -13 21l16 67q6 23 29 23h14q13 0 18.5 -9.5t-0.5 -22.5l-34 -61q-11 -18 -26 -18zM238 601q-10 -18 -26 -18h-4q-19 0 -13 21l16 67q6 23 29 23h14q13 0 18.5 -9.5t-0.5 -22.5zM222 35v8q-39 -49 -96 -49q-92 0 -92 97v414q0 37 37 37h2q37 0 37 -37
v-398q0 -41 39 -41q31 0 73 37v402q0 37 37 37h2q37 0 37 -37v-470q0 -37 -37 -37h-2q-37 0 -37 37z" />
    <glyph glyph-name="Uogonek" unicode="&#x172;" horiz-adv-x="359" 
d="M208 -102h-22q-53 0 -53 43q0 22 18 51l2 2q-116 7 -116 130v539q0 21 9 30t30 9h2q21 0 30 -9t9 -30v-543q0 -53 53 -53h19q53 0 53 53v543q0 21 9 30t30 9h2q21 0 30 -9t9 -30v-539q0 -124 -117 -130l-3 -5q-11 -22 -11 -32q0 -11 14 -11h7q18 0 18 -18v-10
q0 -7 -6 -13.5t-16 -6.5z" />
    <glyph glyph-name="uogonek" unicode="&#x173;" horiz-adv-x="333" 
d="M289 -102h-22q-53 0 -53 43q0 22 18 51l6 10q-16 7 -16 33v8q-39 -49 -96 -49q-92 0 -92 97v414q0 37 37 37h2q37 0 37 -37v-398q0 -41 39 -41q31 0 73 37v402q0 37 37 37h2q37 0 37 -37v-470q0 -17 -9 -34l-6 -12q-11 -22 -11 -32q0 -11 14 -11h7q18 0 18 -18v-10
q0 -7 -6 -13.5t-16 -6.5z" />
    <glyph glyph-name="Wcircumflex" unicode="&#x174;" horiz-adv-x="536" 
d="M222 825q13 17 35 17h22q22 0 35 -17l42 -59q6 -9 4 -16t-11 -7h-15q-14 0 -27 12l-39 38l-39 -38q-13 -12 -27 -12h-15q-9 0 -11 7t4 16zM171 -2h-22q-22 0 -32.5 9t-13.5 31l-75 621q-2 23 7 33t31 10h2q35 0 38 -34l57 -566l62 561q4 39 43 39h2q39 0 43 -39l61 -561
l58 567q2 18 10 25.5t27 7.5h2q41 0 37 -42l-75 -622q-3 -22 -13.5 -31t-32.5 -9h-22q-22 0 -32.5 9t-13.5 32l-52 466l-51 -466q-2 -23 -12.5 -32t-32.5 -9z" />
    <glyph glyph-name="wcircumflex" unicode="&#x175;" horiz-adv-x="461" 
d="M186 674q11 20 35 20h22q24 0 35 -20l40 -70q5 -10 1.5 -15.5t-11.5 -5.5h-13q-14 0 -27 14l-36 45l-36 -45q-13 -14 -27 -14h-13q-8 0 -11.5 5.5t1.5 15.5zM139 -2h-8q-17 0 -25.5 7.5t-11.5 24.5l-72 471q-6 41 36 41h2q31 0 35 -31l44 -382l51 378q3 19 12.5 27
t28.5 8h2q19 0 28 -8t12 -27l52 -378l43 383q2 17 10 23.5t25 6.5h2q40 0 34 -40l-72 -472q-3 -17 -11.5 -24.5t-25.5 -7.5h-8q-21 0 -30.5 8.5t-12.5 29.5l-47 351l-50 -351q-3 -21 -12.5 -29.5t-30.5 -8.5z" />
    <glyph glyph-name="Ycircumflex" unicode="&#x176;" horiz-adv-x="313" 
d="M112 825q13 17 35 17h22q22 0 35 -17l42 -59q6 -9 4 -16t-11 -7h-15q-14 0 -27 12l-39 38l-39 -38q-13 -12 -27 -12h-15q-9 0 -11 7t4 16zM197 245v-208q0 -21 -9 -30t-30 -9h-2q-21 0 -30 9t-9 30v202l-103 415q-12 48 37 48h2q32 0 37 -30l67 -315l70 316q6 29 36 29h2
q46 0 36 -46z" />
    <glyph glyph-name="ycircumflex" unicode="&#x177;" horiz-adv-x="310" 
d="M111 674q11 20 35 20h22q24 0 35 -20l40 -70q5 -10 1.5 -15.5t-11.5 -5.5h-13q-14 0 -27 14l-36 45l-36 -45q-13 -14 -27 -14h-13q-8 0 -11.5 5.5t1.5 15.5zM287 500l-116 -584q-6 -28 -35 -28h-2q-44 0 -34 43l16 77l-98 490q-9 44 36 44h2q30 0 35 -30l62 -358l62 359
q3 16 11 22.5t24 6.5h2q42 0 35 -42z" />
    <glyph glyph-name="Ydieresis" unicode="&#x178;" horiz-adv-x="313" 
d="M96 822h6q18 0 24.5 -7.5t6.5 -25.5v-15q0 -18 -6.5 -25.5t-24.5 -7.5h-6q-18 0 -24.5 7.5t-6.5 25.5v15q0 18 6.5 25.5t24.5 7.5zM218 741h-6q-18 0 -24.5 7.5t-6.5 25.5v15q0 18 6.5 25.5t24.5 7.5h6q18 0 24.5 -7.5t6.5 -25.5v-15q0 -18 -6.5 -25.5t-24.5 -7.5z
M197 245v-208q0 -21 -9 -30t-30 -9h-2q-21 0 -30 9t-9 30v202l-103 415q-12 48 37 48h2q32 0 37 -30l67 -315l70 316q6 29 36 29h2q46 0 36 -46z" />
    <glyph glyph-name="Zacute" unicode="&#x179;" horiz-adv-x="285" 
d="M152 743h-14q-10 0 -13.5 6t1.5 15l27 55q7 15 24 15h27q13 0 16 -8t-4 -17l-38 -50q-12 -16 -26 -16zM26 96l164 531h-128q-20 0 -28 8.5t-8 27.5v2q0 19 8.5 27t27.5 8h172q37 0 37 -39v-6q0 -20 -9 -51l-166 -531h135q19 0 27 -8t8 -27v-2q0 -19 -8 -27.5t-27 -8.5
h-177q-37 0 -37 39v6q0 20 9 51z" />
    <glyph glyph-name="zacute" unicode="&#x17a;" horiz-adv-x="260" 
d="M140 583h-11q-9 0 -13 7.5t0 17.5l22 63q9 23 29 23h24q12 0 16.5 -8t-1.5 -19l-38 -67q-9 -17 -28 -17zM24 97l144 373h-113q-34 0 -34 34v2q0 34 34 34h156q35 0 35 -39v-6q0 -24 -10 -52l-146 -373h120q34 0 34 -34v-2q0 -34 -34 -34h-161q-35 0 -35 39v6q0 24 10 52z
" />
    <glyph glyph-name="Zdotaccent" unicode="&#x17b;" horiz-adv-x="285" 
d="M138 814h11q16 0 22.5 -7t6.5 -24v-10q0 -18 -6.5 -25t-22.5 -7h-11q-17 0 -23.5 7t-6.5 25v10q0 17 6.5 24t23.5 7zM26 96l164 531h-128q-20 0 -28 8.5t-8 27.5v2q0 19 8.5 27t27.5 8h172q37 0 37 -39v-6q0 -20 -9 -51l-166 -531h135q19 0 27 -8t8 -27v-2
q0 -19 -8 -27.5t-27 -8.5h-177q-37 0 -37 39v6q0 20 9 51z" />
    <glyph glyph-name="zdotaccent" unicode="&#x17c;" horiz-adv-x="260" 
d="M132 674h6q18 0 24.5 -7.5t6.5 -25.5v-27q0 -18 -6.5 -25.5t-24.5 -7.5h-6q-18 0 -24.5 7.5t-6.5 25.5v27q0 18 6.5 25.5t24.5 7.5zM24 97l144 373h-113q-34 0 -34 34v2q0 34 34 34h156q35 0 35 -39v-6q0 -24 -10 -52l-146 -373h120q34 0 34 -34v-2q0 -34 -34 -34h-161
q-35 0 -35 39v6q0 24 10 52z" />
    <glyph glyph-name="Zcaron" unicode="&#x17d;" horiz-adv-x="285" 
d="M189 758q-13 -17 -35 -17h-22q-22 0 -35 17l-42 59q-6 9 -4 16t11 7h15q14 0 27 -12l39 -38l39 38q13 12 27 12h15q9 0 11 -7t-4 -16zM26 96l164 531h-128q-20 0 -28 8.5t-8 27.5v2q0 19 8.5 27t27.5 8h172q37 0 37 -39v-6q0 -20 -9 -51l-166 -531h135q19 0 27 -8t8 -27
v-2q0 -19 -8 -27.5t-27 -8.5h-177q-37 0 -37 39v6q0 20 9 51z" />
    <glyph glyph-name="zcaron" unicode="&#x17e;" horiz-adv-x="260" 
d="M181 601q-11 -20 -35 -20h-22q-24 0 -35 20l-40 70q-5 10 -1.5 15.5t11.5 5.5h13q14 0 27 -14l36 -45l36 45q13 14 27 14h13q8 0 11.5 -5.5t-1.5 -15.5zM24 97l144 373h-113q-34 0 -34 34v2q0 34 34 34h156q35 0 35 -39v-6q0 -24 -10 -52l-146 -373h120q34 0 34 -34v-2
q0 -34 -34 -34h-161q-35 0 -35 39v6q0 24 10 52z" />
    <glyph glyph-name="Aringacute" unicode="&#x1fa;" horiz-adv-x="353" 
d="M190 783h-14q-10 0 -13.5 6t1.5 15l27 55q7 15 24 15h27q13 0 16 -8t-4 -17l-38 -50q-12 -16 -26 -16zM207 742h-60q-40 0 -40 -31q0 -32 40 -32h60q40 0 40 30v3q0 30 -40 30zM121 189h109l-54 393zM98 30q-4 -32 -36 -32h-2q-43 0 -36 43l94 619q-36 9 -36 51
q0 53 61 53h68q61 0 61 -51v-5q0 -39 -37 -48l95 -618q4 -23 -5 -33.5t-32 -10.5h-2q-33 0 -37 33l-13 86h-130z" />
    <glyph glyph-name="aringacute" unicode="&#x1fb;" horiz-adv-x="319" 
d="M168 725h-11q-9 0 -13 7.5t0 17.5l22 63q9 23 29 23h24q12 0 16.5 -8t-1.5 -19l-38 -67q-9 -17 -28 -17zM181 693q63 0 63 -53v-5q0 -53 -63 -53h-40q-63 0 -63 56q0 55 63 55h40zM177 604q42 0 42 31v5q0 31 -42 31h-32q-42 0 -42 -33q0 -34 43 -34h31zM104 105
q0 -39 37 -39q29 0 69 35v166l-69 -24q-21 -8 -29 -20.5t-8 -35.5v-82zM210 35v6q-39 -47 -93 -47q-89 0 -89 95v99q0 49 18 74t62 40l102 35v90q0 49 -51 49t-51 -49v-36q0 -33 -32 -33h-11q-31 0 -31 31v35q0 122 126 122t126 -122v-389q0 -37 -37 -37h-2q-37 0 -37 37z
" />
    <glyph glyph-name="AEacute" unicode="&#x1fc;" horiz-adv-x="451" 
d="M259 743h-14q-10 0 -13.5 6t1.5 15l27 55q7 15 24 15h27q13 0 16 -8t-4 -17l-38 -50q-12 -16 -26 -16zM117 189h84v446zM390 0h-143q-25 0 -35.5 10.5t-10.5 35.5v71h-97l-16 -89q-5 -30 -36 -30h-15q-16 0 -22 10t-3 24l128 631q5 20 15 28.5t31 8.5h202q20 0 28 -8
t8 -28v-2q0 -20 -8 -28t-28 -8h-107v-232h102q19 0 27 -8t8 -27v-2q0 -19 -8 -27.5t-27 -8.5h-102v-247h109q20 0 28 -8t8 -28v-2q0 -20 -8 -28t-28 -8z" />
    <glyph glyph-name="aeacute" unicode="&#x1fd;" horiz-adv-x="516" 
d="M273 583h-11q-9 0 -13 7.5t0 17.5l22 63q9 23 29 23h24q12 0 16.5 -8t-1.5 -19l-38 -67q-9 -17 -28 -17zM485 153v-37q0 -122 -122 -122h-16q-74 0 -104 46q-39 -26 -61 -36t-50 -10q-89 0 -89 95v105q0 49 18 74t62 40l102 35v84q0 49 -51 49t-51 -49v-36
q0 -18 -7.5 -25.5t-24.5 -7.5h-11q-31 0 -31 31v35q0 122 126 122q60 0 88 -33q28 33 84 33h16q122 0 122 -122v-136q0 -25 -10.5 -35.5t-35.5 -10.5h-138v-129q0 -48 48 -48h14q48 0 48 48v38q0 34 34 34h8q17 0 24.5 -7.5t7.5 -24.5zM349 475q-48 0 -48 -48v-113h108v113
q0 48 -48 48h-12zM119 105q0 -39 37 -39q32 0 69 25v182l-69 -24q-21 -7 -29 -19.5t-8 -36.5v-88z" />
    <glyph glyph-name="Oslashacute" unicode="&#x1fe;" horiz-adv-x="362" 
d="M190 743h-14q-10 0 -13.5 6t1.5 15l27 55q7 15 24 15h27q13 0 16 -8t-4 -17l-38 -50q-12 -16 -26 -16zM326 576v-452q0 -130 -130 -130h-30q-130 0 -130 130v452q0 130 130 130h30q130 0 130 -130zM116 580l-1 -139l-1 -252l118 432q-14 12 -39 12h-24q-53 0 -53 -53z
M130 79q14 -12 39 -12h24q53 0 53 53l1 108l1 283z" />
    <glyph glyph-name="oslashacute" unicode="&#x1ff;" horiz-adv-x="330" 
d="M170 583h-11q-9 0 -13 7.5t0 17.5l22 63q9 23 29 23h24q12 0 16.5 -8t-1.5 -19l-38 -67q-9 -17 -28 -17zM298 116q0 -122 -122 -122h-22q-122 0 -122 122v308q0 122 122 122h22q122 0 122 -122v-308zM108 427v-32l-2 -260l98 333q-11 7 -30 7h-18q-48 0 -48 -48zM126 72
q11 -7 30 -7h18q48 0 48 48v37l2 255z" />
    <glyph glyph-name="Scommaaccent" unicode="&#x218;" horiz-adv-x="348" 
d="M151 426l97 -70q38 -28 52.5 -56.5t14.5 -73.5v-102q0 -130 -130 -130h-22q-128 0 -128 128v111q0 20 9 29t29 9h2q20 0 29 -9t9 -29v-114q0 -53 53 -53h16q53 0 53 53v105q0 25 -8 39t-27 28l-98 71q-38 27 -52.5 56.5t-14.5 73.5v84q0 130 130 130h20q128 0 128 -128
v-90q0 -20 -9 -29t-29 -9h-2q-20 0 -29 9t-9 29v93q0 53 -53 53h-14q-53 0 -53 -53v-88q0 -25 8.5 -39t27.5 -28zM170 -194q-7 -9 -17 -3l-3 2q-10 6 -4 15l6 10q12 20 15 35h-3q-8 0 -14 6t-6 14v46q0 28 29 28h7q28 0 28 -28v-30q0 -47 -27 -81z" />
    <glyph glyph-name="scommaaccent" unicode="&#x219;" horiz-adv-x="318" 
d="M251 348h-2q-20 0 -28.5 8.5t-8.5 28.5v46q0 46 -46 46h-13q-46 0 -46 -46v-47q0 -34 28 -51l90 -56q34 -22 48.5 -45t14.5 -62v-54q0 -122 -122 -122h-15q-120 0 -120 120v46q0 20 8.5 28t28.5 8h2q20 0 28 -8t8 -28v-51q0 -46 46 -46h15q46 0 46 46v51q0 33 -28 51
l-90 56q-34 22 -48.5 45t-14.5 62v50q0 122 122 122h13q120 0 120 -120v-41q0 -20 -8 -28.5t-28 -8.5zM154 -194q-7 -9 -17 -3l-3 2q-10 6 -4 15l6 10q12 20 15 35h-3q-8 0 -14 6t-6 14v46q0 28 29 28h7q28 0 28 -28v-30q0 -47 -27 -81z" />
    <glyph glyph-name="schwa" unicode="&#x259;" horiz-adv-x="323" 
d="M31 393v31q0 122 122 122h16q122 0 122 -122v-308q0 -122 -122 -122h-16q-122 0 -122 122v136q0 25 10.5 35.5t35.5 10.5h138v129q0 48 -48 48h-14q-48 0 -48 -48v-34q0 -30 -30 -30h-14q-30 0 -30 30zM167 65q48 0 48 48v113h-108v-113q0 -48 48 -48h12z" />
    <glyph glyph-name="circumflex" unicode="&#x2c6;" 
d="M204 674q11 20 35 20h22q24 0 35 -20l40 -70q5 -10 1.5 -15.5t-11.5 -5.5h-13q-14 0 -27 14l-36 45l-36 -45q-13 -14 -27 -14h-13q-8 0 -11.5 5.5t1.5 15.5z" />
    <glyph glyph-name="caron" unicode="&#x2c7;" 
d="M296 601q-11 -20 -35 -20h-22q-24 0 -35 20l-40 70q-5 10 -1.5 15.5t11.5 5.5h13q14 0 27 -14l36 -45l36 45q13 14 27 14h13q8 0 11.5 -5.5t-1.5 -15.5z" />
    <glyph glyph-name="breve" unicode="&#x2d8;" 
d="M250 582q-89 0 -89 86q0 26 23 26h10q14 0 20 -11q2 -4 3 -19.5t7 -21.5q8 -8 26 -8t26 8q6 6 7 21.5t3 19.5q6 11 20 11h10q23 0 23 -26q0 -86 -89 -86z" />
    <glyph glyph-name="dotaccent" unicode="&#x2d9;" 
d="M247 674h6q18 0 24.5 -7.5t6.5 -25.5v-27q0 -18 -6.5 -25.5t-24.5 -7.5h-6q-18 0 -24.5 7.5t-6.5 25.5v27q0 18 6.5 25.5t24.5 7.5z" />
    <glyph glyph-name="ring" unicode="&#x2da;" 
d="M270 693q63 0 63 -53v-5q0 -53 -63 -53h-40q-63 0 -63 56q0 55 63 55h40zM266 604q42 0 42 31v5q0 31 -42 31h-32q-42 0 -42 -33q0 -34 43 -34h31z" />
    <glyph glyph-name="ogonek" unicode="&#x2db;" 
d="M243 -8l7 11q7 11 20 11h21q15 0 9 -13l-6 -12q-11 -22 -11 -32q0 -11 14 -11h7q18 0 18 -18v-10q0 -7 -6 -13.5t-16 -6.5h-22q-53 0 -53 43q0 22 18 51z" />
    <glyph glyph-name="tilde" unicode="&#x2dc;" 
d="M272 654q14 -11 21 -11q10 0 10 12v15q0 22 22 22h7q22 0 22 -22v-39q0 -47 -46 -47h-2q-25 0 -46 16l-31 23q-12 9 -20 9q-10 0 -10 -12v-15q0 -22 -23 -22h-6q-22 0 -22 22v39q0 47 46 47h2q27 0 49 -17z" />
    <glyph glyph-name="hungarumlaut" unicode="&#x2dd;" 
d="M188 583h-4q-19 0 -13 21l16 67q6 23 29 23h14q13 0 18.5 -9.5t-0.5 -22.5l-34 -61q-10 -18 -26 -18zM297 601q-11 -18 -26 -18h-4q-19 0 -13 21l16 67q6 23 29 23h14q13 0 18.5 -9.5t-0.5 -22.5z" />
    <glyph glyph-name="commaaccent" unicode="&#x326;" 
d="M246 -194q-7 -9 -17 -3l-3 2q-10 6 -4 15l6 10q12 20 15 35h-3q-8 0 -14 6t-6 14v46q0 28 29 28h7q28 0 28 -28v-30q0 -47 -27 -81z" />
    <glyph glyph-name="Wgrave" unicode="&#x1e80;" horiz-adv-x="536" 
d="M209 834h22q18 0 26 -15l31 -57q4 -7 0 -13t-11 -6h-15q-16 0 -26 14l-41 52q-5 7 -0.5 16t14.5 9zM171 -2h-22q-22 0 -32.5 9t-13.5 31l-75 621q-2 23 7 33t31 10h2q35 0 38 -34l57 -566l62 561q4 39 43 39h2q39 0 43 -39l61 -561l58 567q2 18 10 25.5t27 7.5h2
q41 0 37 -42l-75 -622q-3 -22 -13.5 -31t-32.5 -9h-22q-22 0 -32.5 9t-13.5 32l-52 466l-51 -466q-2 -23 -12.5 -32t-32.5 -9z" />
    <glyph glyph-name="wgrave" unicode="&#x1e81;" horiz-adv-x="461" 
d="M181 694h17q23 0 30 -20l22 -64q5 -12 0 -19.5t-18 -7.5h-8q-14 0 -24 16l-38 65q-6 10 -0.5 20t19.5 10zM139 -2h-8q-17 0 -25.5 7.5t-11.5 24.5l-72 471q-6 41 36 41h2q31 0 35 -31l44 -382l51 378q3 19 12.5 27t28.5 8h2q19 0 28 -8t12 -27l52 -378l43 383
q2 17 10 23.5t25 6.5h2q40 0 34 -40l-72 -472q-3 -17 -11.5 -24.5t-25.5 -7.5h-8q-21 0 -30.5 8.5t-12.5 29.5l-47 351l-50 -351q-3 -21 -12.5 -29.5t-30.5 -8.5z" />
    <glyph glyph-name="Wacute" unicode="&#x1e82;" horiz-adv-x="536" 
d="M277 743h-14q-10 0 -13.5 6t1.5 15l27 55q7 15 24 15h27q13 0 16 -8t-4 -17l-38 -50q-12 -16 -26 -16zM171 -2h-22q-22 0 -32.5 9t-13.5 31l-75 621q-2 23 7 33t31 10h2q35 0 38 -34l57 -566l62 561q4 39 43 39h2q39 0 43 -39l61 -561l58 567q2 18 10 25.5t27 7.5h2
q41 0 37 -42l-75 -622q-3 -22 -13.5 -31t-32.5 -9h-22q-22 0 -32.5 9t-13.5 32l-52 466l-51 -466q-2 -23 -12.5 -32t-32.5 -9z" />
    <glyph glyph-name="wacute" unicode="&#x1e83;" horiz-adv-x="461" 
d="M237 583h-11q-9 0 -13 7.5t0 17.5l22 63q9 23 29 23h24q12 0 16.5 -8t-1.5 -19l-38 -67q-9 -17 -28 -17zM139 -2h-8q-17 0 -25.5 7.5t-11.5 24.5l-72 471q-6 41 36 41h2q31 0 35 -31l44 -382l51 378q3 19 12.5 27t28.5 8h2q19 0 28 -8t12 -27l52 -378l43 383
q2 17 10 23.5t25 6.5h2q40 0 34 -40l-72 -472q-3 -17 -11.5 -24.5t-25.5 -7.5h-8q-21 0 -30.5 8.5t-12.5 29.5l-47 351l-50 -351q-3 -21 -12.5 -29.5t-30.5 -8.5z" />
    <glyph glyph-name="Wdieresis" unicode="&#x1e84;" horiz-adv-x="536" 
d="M207 822h6q18 0 24.5 -7.5t6.5 -25.5v-15q0 -18 -6.5 -25.5t-24.5 -7.5h-6q-18 0 -24.5 7.5t-6.5 25.5v15q0 18 6.5 25.5t24.5 7.5zM329 741h-6q-18 0 -24.5 7.5t-6.5 25.5v15q0 18 6.5 25.5t24.5 7.5h6q18 0 24.5 -7.5t6.5 -25.5v-15q0 -18 -6.5 -25.5t-24.5 -7.5z
M171 -2h-22q-22 0 -32.5 9t-13.5 31l-75 621q-2 23 7 33t31 10h2q35 0 38 -34l57 -566l62 561q4 39 43 39h2q39 0 43 -39l61 -561l58 567q2 18 10 25.5t27 7.5h2q41 0 37 -42l-75 -622q-3 -22 -13.5 -31t-32.5 -9h-22q-22 0 -32.5 9t-13.5 32l-52 466l-51 -466
q-2 -23 -12.5 -32t-32.5 -9z" />
    <glyph glyph-name="wdieresis" unicode="&#x1e85;" horiz-adv-x="461" 
d="M171 682h8q17 0 23 -7t6 -25v-37q0 -18 -6 -25t-23 -7h-8q-17 0 -23 7t-6 25v37q0 18 6 25t23 7zM293 581h-8q-17 0 -23 7t-6 25v37q0 18 6 25t23 7h8q17 0 23 -7t6 -25v-37q0 -18 -6 -25t-23 -7zM139 -2h-8q-17 0 -25.5 7.5t-11.5 24.5l-72 471q-6 41 36 41h2
q31 0 35 -31l44 -382l51 378q3 19 12.5 27t28.5 8h2q19 0 28 -8t12 -27l52 -378l43 383q2 17 10 23.5t25 6.5h2q40 0 34 -40l-72 -472q-3 -17 -11.5 -24.5t-25.5 -7.5h-8q-21 0 -30.5 8.5t-12.5 29.5l-47 351l-50 -351q-3 -21 -12.5 -29.5t-30.5 -8.5z" />
    <glyph glyph-name="Ygrave" unicode="&#x1ef2;" horiz-adv-x="313" 
d="M97 834h22q18 0 26 -15l31 -57q4 -7 0 -13t-11 -6h-15q-16 0 -26 14l-41 52q-5 7 -0.5 16t14.5 9zM197 245v-208q0 -21 -9 -30t-30 -9h-2q-21 0 -30 9t-9 30v202l-103 415q-12 48 37 48h2q32 0 37 -30l67 -315l70 316q6 29 36 29h2q46 0 36 -46z" />
    <glyph glyph-name="ygrave" unicode="&#x1ef3;" horiz-adv-x="305" 
d="M106 694h17q23 0 30 -20l22 -64q5 -12 0 -19.5t-18 -7.5h-8q-14 0 -24 16l-38 65q-6 10 -0.5 20t19.5 10zM287 500l-116 -584q-6 -28 -35 -28h-2q-44 0 -34 43l16 77l-98 490q-9 44 36 44h2q30 0 35 -30l62 -358l62 359q3 16 11 22.5t24 6.5h2q42 0 35 -42z" />
    <glyph glyph-name="enspace" unicode="&#x2002;" 
 />
    <glyph glyph-name="emspace" unicode="&#x2003;" horiz-adv-x="1000" 
 />
    <glyph glyph-name="threeperemspace" unicode="&#x2004;" horiz-adv-x="333" 
 />
    <glyph glyph-name="fourperemspace" unicode="&#x2005;" horiz-adv-x="250" 
 />
    <glyph glyph-name="thinspace" unicode="&#x2009;" horiz-adv-x="133" 
 />
    <glyph glyph-name="hairspace" unicode="&#x200a;" horiz-adv-x="75" 
 />
    <glyph glyph-name="endash" unicode="&#x2013;" horiz-adv-x="366" 
d="M12 279v2q0 18 7.5 25.5t25.5 7.5h276q18 0 25.5 -7.5t7.5 -25.5v-2q0 -18 -7.5 -25.5t-25.5 -7.5h-276q-18 0 -25.5 7.5t-7.5 25.5z" />
    <glyph glyph-name="emdash" unicode="&#x2014;" horiz-adv-x="556" 
d="M12 279v2q0 18 7.5 25.5t25.5 7.5h466q18 0 25.5 -7.5t7.5 -25.5v-2q0 -18 -7.5 -25.5t-25.5 -7.5h-466q-18 0 -25.5 7.5t-7.5 25.5z" />
    <glyph glyph-name="quoteleft" unicode="&#x2018;" horiz-adv-x="138" 
d="M70 487h-3q-37 0 -37 37v42q0 36 4.5 53.5t20.5 47.5l17 30q5 11 18 8l3 -1q17 -6 10 -22l-7 -17q-13 -36 -15 -58h7q20 0 20 -20v-62q0 -20 -9 -29t-29 -9z" />
    <glyph glyph-name="quoteright" unicode="&#x2019;" horiz-adv-x="138" 
d="M66 492q-5 -11 -18 -8l-3 1q-17 6 -10 22l7 17q13 36 15 58h-7q-20 0 -20 20v62q0 20 9 29t29 9h3q37 0 37 -37v-42q0 -36 -4.5 -53.5t-20.5 -47.5z" />
    <glyph glyph-name="quotesinglbase" unicode="&#x201a;" horiz-adv-x="138" 
d="M66 -92q-5 -11 -18 -8l-3 1q-17 6 -10 22l7 17q13 36 15 58h-7q-20 0 -20 20v62q0 20 9 29t29 9h3q37 0 37 -37v-42q0 -36 -4.5 -53.5t-20.5 -47.5z" />
    <glyph glyph-name="quotedblleft" unicode="&#x201c;" horiz-adv-x="262" 
d="M70 487h-3q-37 0 -37 37v42q0 36 4.5 53.5t20.5 47.5l17 30q5 11 18 8l3 -1q17 -6 10 -22l-7 -17q-13 -36 -15 -58h7q20 0 20 -20v-62q0 -20 -9 -29t-29 -9zM194 487h-3q-37 0 -37 37v42q0 36 4.5 53.5t20.5 47.5l17 30q5 11 18 8l3 -1q17 -6 10 -22l-7 -17
q-13 -36 -15 -58h7q20 0 20 -20v-62q0 -20 -9 -29t-29 -9z" />
    <glyph glyph-name="quotedblright" unicode="&#x201d;" horiz-adv-x="262" 
d="M190 492q-5 -11 -18 -8l-3 1q-17 6 -10 22l7 17q13 36 15 58h-7q-20 0 -20 20v62q0 20 9 29t29 9h3q37 0 37 -37v-42q0 -36 -4.5 -53.5t-20.5 -47.5zM66 492q-5 -11 -18 -8l-3 1q-17 6 -10 22l7 17q13 36 15 58h-7q-20 0 -20 20v62q0 20 9 29t29 9h3q37 0 37 -37v-42
q0 -36 -4.5 -53.5t-20.5 -47.5z" />
    <glyph glyph-name="quotedblbase" unicode="&#x201e;" horiz-adv-x="262" 
d="M190 -92q-5 -11 -18 -8l-3 1q-17 6 -10 22l7 17q13 36 15 58h-7q-20 0 -20 20v62q0 20 9 29t29 9h3q37 0 37 -37v-42q0 -36 -4.5 -53.5t-20.5 -47.5zM66 -92q-5 -11 -18 -8l-3 1q-17 6 -10 22l7 17q13 36 15 58h-7q-20 0 -20 20v62q0 20 9 29t29 9h3q37 0 37 -37v-42
q0 -36 -4.5 -53.5t-20.5 -47.5z" />
    <glyph glyph-name="dagger" unicode="&#x2020;" horiz-adv-x="236" 
d="M230 589v-2q0 -16 -6.5 -22.5t-22.5 -5.5l-56 2l3 -190q0 -16 -6.5 -22.5t-22.5 -6.5h-2q-16 0 -22.5 6.5t-6.5 22.5l3 190l-56 -2q-16 -1 -22.5 5.5t-6.5 22.5v2q0 16 6.5 22.5t22.5 5.5l55 -2l-1 60q-1 16 5.5 22.5t22.5 6.5h2q16 0 22.5 -6.5t5.5 -22.5l-1 -60l55 2
q16 1 22.5 -5.5t6.5 -22.5z" />
    <glyph glyph-name="daggerdbl" unicode="&#x2021;" horiz-adv-x="236" 
d="M230 314v-2q0 -16 -6.5 -22.5t-22.5 -5.5l-55 2l1 -60q1 -16 -5.5 -22.5t-22.5 -6.5h-2q-16 0 -22.5 6.5t-5.5 22.5l1 60l-55 -2q-16 -1 -22.5 5.5t-6.5 22.5v2q0 16 6.5 22.5t22.5 5.5l56 -2l-2 110l2 111l-56 -2q-16 -1 -22.5 5.5t-6.5 22.5v2q0 16 6.5 22.5t22.5 5.5
l55 -2l-1 60q-1 16 5.5 22.5t22.5 6.5h2q16 0 22.5 -6.5t5.5 -22.5l-1 -60l55 2q16 1 22.5 -5.5t6.5 -22.5v-2q0 -16 -6.5 -22.5t-22.5 -5.5l-56 2l2 -111l-2 -110l56 2q16 1 22.5 -5.5t6.5 -22.5z" />
    <glyph glyph-name="bullet" unicode="&#x2022;" horiz-adv-x="238" 
d="M131 442q52 0 52 -46v-88q0 -46 -52 -46h-25q-51 0 -51 46v88q0 46 51 46h25z" />
    <glyph glyph-name="ellipsis" unicode="&#x2026;" horiz-adv-x="414" 
d="M344 118h2q20 0 29 -9t9 -29v-44q0 -20 -9 -29t-29 -9h-2q-20 0 -29 9t-9 29v44q0 20 9 29t29 9zM206 118h2q20 0 29 -9t9 -29v-44q0 -20 -9 -29t-29 -9h-2q-20 0 -29 9t-9 29v44q0 20 9 29t29 9zM68 118h2q20 0 29 -9t9 -29v-44q0 -20 -9 -29t-29 -9h-2q-20 0 -29 9
t-9 29v44q0 20 9 29t29 9z" />
    <glyph glyph-name="guilsinglleft" unicode="&#x2039;" horiz-adv-x="159" 
d="M72 138l-58 123q-9 19 0 39l55 121q8 18 28 18h2q47 0 30 -44l-46 -115l46 -117q17 -42 -28 -42h-2q-19 0 -27 17z" />
    <glyph glyph-name="guilsinglright" unicode="&#x203a;" horiz-adv-x="159" 
d="M145 261l-58 -123q-8 -17 -27 -17h-2q-45 0 -28 42l46 117l-46 115q-17 44 30 44h2q20 0 28 -18l55 -121q9 -20 0 -39z" />
    <glyph glyph-name="Euro" unicode="&#x20ac;" horiz-adv-x="361" 
d="M44 276q-26 0 -26 27v2q0 26 26 26h15v47h-15q-26 0 -26 27v2q0 26 26 26h15v143q0 130 130 130h18q128 0 128 -128v-50q0 -20 -9 -29t-29 -9h-2q-20 0 -29 9t-9 29v52q0 53 -51 53h-16q-51 0 -51 -53v-147h125q26 0 26 -26v-2q0 -27 -26 -27h-125v-47h125q26 0 26 -26
v-2q0 -27 -26 -27h-125v-156q0 -53 51 -53h18q51 0 51 53v59q0 20 9 29t29 9h2q20 0 29 -9t9 -29v-55q0 -130 -130 -130h-18q-130 0 -130 130v152h-15z" />
    <glyph glyph-name="published" unicode="&#x2117;" horiz-adv-x="496" 
d="M40 140v420q0 74 38.5 110t118.5 36h102q80 0 118.5 -36t38.5 -110v-420q0 -74 -38.5 -110t-118.5 -36h-102q-80 0 -118.5 36t-38.5 110zM430 142v416q0 124 -131 124h-102q-131 0 -131 -124v-416q0 -124 131 -124h102q131 0 131 124zM255 283h-41v-162q0 -31 -30 -31h-2
q-31 0 -31 31v440q0 25 10.5 35.5t35.5 10.5h58q96 0 96 -91v-142q0 -91 -96 -91zM288 379v132q0 34 -35 34h-39v-200h39q35 0 35 34z" />
    <glyph glyph-name="servicemark" unicode="&#x2120;" horiz-adv-x="462" 
d="M317 393h-2q-21 0 -25 20l-36 209v-209q0 -20 -20 -20h-2q-20 0 -20 20v258q0 31 32 31h4q30 0 34 -28l35 -210l36 211q4 27 32 27h5q30 0 30 -30v-259q0 -20 -20 -20h-2q-20 0 -20 20v210l-37 -210q-4 -20 -24 -20zM56 510h2q21 0 21 -21v-32q0 -14 6 -19t22 -5
q15 0 21 5.5t6 18.5v30q0 19 -16 29l-52 35q-32 23 -32 57v34q0 61 63 61h20q62 0 62 -61v-27q0 -22 -21 -22h-3q-21 0 -21 21v24q0 13 -6 18.5t-21 5.5t-21 -5.5t-6 -18.5v-21q0 -17 17 -29l51 -34q32 -21 32 -57v-44q0 -61 -63 -61h-20q-63 0 -63 61v36q0 21 22 21z" />
    <glyph glyph-name="trademark" unicode="&#x2122;" horiz-adv-x="438" 
d="M112 656v-240q0 -23 -23 -23h-2q-23 0 -23 23v240h-33q-21 0 -21 21v2q0 21 21 21h114q21 0 21 -21v-2q0 -21 -21 -21h-33zM293 393h-2q-21 0 -25 20l-36 209v-209q0 -20 -20 -20h-2q-20 0 -20 20v258q0 31 32 31h4q30 0 34 -28l35 -210l36 211q4 27 32 27h5q30 0 30 -30
v-259q0 -20 -20 -20h-2q-20 0 -20 20v210l-37 -210q-4 -20 -24 -20z" />
    <glyph glyph-name="minus" unicode="&#x2212;" horiz-adv-x="314" 
d="M6 355v2q0 19 8.5 27t27.5 8h231q19 0 27 -8t8 -27v-2q0 -19 -8 -27.5t-27 -8.5h-231q-20 0 -28 8.5t-8 27.5z" />
    <glyph glyph-name="f_f" unicode="&#xfb00;" horiz-adv-x="392" 
d="M324 35q0 -37 -37 -37h-2q-37 0 -37 37v435h-5q-34 0 -34 34v2q0 34 34 34h5v61q0 109 104 109q21 0 29.5 -8t8.5 -26v-2q0 -34 -34 -34q-32 0 -32 -36v-64h29q34 0 34 -34v-2q0 -34 -34 -34h-29v-435zM128 35q0 -37 -37 -37h-2q-37 0 -37 37v435h-5q-34 0 -34 34v2
q0 34 34 34h5v61q0 109 104 109q21 0 29.5 -8t8.5 -26v-2q0 -34 -34 -34q-32 0 -32 -36v-64h29q34 0 34 -34v-2q0 -34 -34 -34h-29v-435z" />
    <glyph glyph-name="fi" unicode="&#xfb01;" horiz-adv-x="348" 
d="M273 591h-2q-21 0 -30 9t-9 30v15q0 21 9 30t30 9h2q21 0 30 -9t9 -30v-15q0 -21 -9 -30t-30 -9zM273 -2h-2q-37 0 -37 37v470q0 37 37 37h2q37 0 37 -37v-470q0 -37 -37 -37zM128 35q0 -37 -37 -37h-2q-37 0 -37 37v435h-5q-34 0 -34 34v2q0 34 34 34h5v61
q0 109 104 109q21 0 29.5 -8t8.5 -26v-2q0 -34 -34 -34q-32 0 -32 -36v-64h29q34 0 34 -34v-2q0 -34 -34 -34h-29v-435z" />
    <glyph glyph-name="fl" unicode="&#xfb02;" horiz-adv-x="348" 
d="M273 -2h-2q-37 0 -37 37v640q0 37 37 37h2q37 0 37 -37v-640q0 -37 -37 -37zM128 35q0 -37 -37 -37h-2q-37 0 -37 37v435h-5q-34 0 -34 34v2q0 34 34 34h5v61q0 109 104 109q21 0 29.5 -8t8.5 -26v-2q0 -34 -34 -34q-32 0 -32 -36v-64h29q34 0 34 -34v-2q0 -34 -34 -34
h-29v-435z" />
    <glyph glyph-name="f_f_i" unicode="&#xfb03;" horiz-adv-x="544" 
d="M469 591h-2q-21 0 -30 9t-9 30v15q0 21 9 30t30 9h2q21 0 30 -9t9 -30v-15q0 -21 -9 -30t-30 -9zM469 -2h-2q-37 0 -37 37v470q0 37 37 37h2q37 0 37 -37v-470q0 -37 -37 -37zM324 35q0 -37 -37 -37h-2q-37 0 -37 37v435h-5q-34 0 -34 34v2q0 34 34 34h5v61
q0 109 104 109q21 0 29.5 -8t8.5 -26v-2q0 -34 -34 -34q-32 0 -32 -36v-64h29q34 0 34 -34v-2q0 -34 -34 -34h-29v-435zM128 35q0 -37 -37 -37h-2q-37 0 -37 37v435h-5q-34 0 -34 34v2q0 34 34 34h5v61q0 109 104 109q21 0 29.5 -8t8.5 -26v-2q0 -34 -34 -34q-32 0 -32 -36
v-64h29q34 0 34 -34v-2q0 -34 -34 -34h-29v-435z" />
    <glyph glyph-name="f_f_l" unicode="&#xfb04;" horiz-adv-x="544" 
d="M469 -2h-2q-37 0 -37 37v640q0 37 37 37h2q37 0 37 -37v-640q0 -37 -37 -37zM324 35q0 -37 -37 -37h-2q-37 0 -37 37v435h-5q-34 0 -34 34v2q0 34 34 34h5v61q0 109 104 109q21 0 29.5 -8t8.5 -26v-2q0 -34 -34 -34q-32 0 -32 -36v-64h29q34 0 34 -34v-2q0 -34 -34 -34
h-29v-435zM128 35q0 -37 -37 -37h-2q-37 0 -37 37v435h-5q-34 0 -34 34v2q0 34 34 34h5v61q0 109 104 109q21 0 29.5 -8t8.5 -26v-2q0 -34 -34 -34q-32 0 -32 -36v-64h29q34 0 34 -34v-2q0 -34 -34 -34h-29v-435z" />
    <glyph glyph-name="Q.alt" horiz-adv-x="362" 
d="M193 67q21 0 34 8l-41 39q-23 21 -5 39q16 16 37 0l28 -19v446q0 53 -53 53h-24q-53 0 -53 -53v-460q0 -53 53 -53h24zM299 7l-13 12q-32 -25 -90 -25h-30q-130 0 -130 130v452q0 130 130 130h30q130 0 130 -130v-452q0 -25 -4 -42l22 -15q18 -10 20 -26.5t-8 -26.5
l-5 -6q-23 -28 -52 -1z" />
    <glyph glyph-name="a.alt" horiz-adv-x="334" 
d="M153 66q35 0 70 38v332q-35 38 -70 38q-44 0 -44 -44v-320q0 -44 44 -44zM223 35v7q-40 -48 -93 -48q-48 0 -72.5 29t-24.5 78v338q0 49 24.5 78t72.5 29q55 0 93 -46v5q0 37 37 37h2q37 0 37 -37v-470q0 -37 -37 -37h-2q-37 0 -37 37z" />
    <glyph glyph-name="y.alt" horiz-adv-x="307" 
d="M92 -42h2q27 0 20 36l-95 505q-9 43 36 43h2q31 0 36 -31l60 -372l64 374q3 16 11 22.5t24 6.5h2q42 0 35 -42l-112 -560q-10 -50 -61 -50h-24q-31 0 -31 32v4q0 32 31 32z" />
    <glyph glyph-name="aacute.alt" horiz-adv-x="334" 
d="M180 583h-11q-9 0 -13 7.5t0 17.5l22 63q9 23 29 23h24q12 0 16.5 -8t-1.5 -19l-38 -67q-9 -17 -28 -17zM153 66q35 0 70 38v332q-35 38 -70 38q-44 0 -44 -44v-320q0 -44 44 -44zM223 35v7q-40 -48 -93 -48q-48 0 -72.5 29t-24.5 78v338q0 49 24.5 78t72.5 29
q55 0 93 -46v5q0 37 37 37h2q37 0 37 -37v-470q0 -37 -37 -37h-2q-37 0 -37 37z" />
    <glyph glyph-name="abreve.alt" horiz-adv-x="334" 
d="M175 582q-89 0 -89 86q0 26 23 26h10q15 0 20 -11q2 -4 3 -19.5t7 -21.5q8 -8 26 -8t26 8q6 6 7 21.5t3 19.5q5 11 20 11h10q23 0 23 -26q0 -86 -89 -86zM153 66q35 0 70 38v332q-35 38 -70 38q-44 0 -44 -44v-320q0 -44 44 -44zM223 35v7q-40 -48 -93 -48
q-48 0 -72.5 29t-24.5 78v338q0 49 24.5 78t72.5 29q55 0 93 -46v5q0 37 37 37h2q37 0 37 -37v-470q0 -37 -37 -37h-2q-37 0 -37 37z" />
    <glyph glyph-name="acircumflex.alt" horiz-adv-x="334" 
d="M129 674q11 20 35 20h22q24 0 35 -20l40 -70q5 -10 1.5 -15.5t-11.5 -5.5h-13q-14 0 -27 14l-36 45l-36 -45q-13 -14 -27 -14h-13q-8 0 -11.5 5.5t1.5 15.5zM153 66q35 0 70 38v332q-35 38 -70 38q-44 0 -44 -44v-320q0 -44 44 -44zM223 35v7q-40 -48 -93 -48
q-48 0 -72.5 29t-24.5 78v338q0 49 24.5 78t72.5 29q55 0 93 -46v5q0 37 37 37h2q37 0 37 -37v-470q0 -37 -37 -37h-2q-37 0 -37 37z" />
    <glyph glyph-name="adieresis.alt" horiz-adv-x="334" 
d="M114 682h8q17 0 23 -7t6 -25v-37q0 -18 -6 -25t-23 -7h-8q-17 0 -23 7t-6 25v37q0 18 6 25t23 7zM236 581h-8q-17 0 -23 7t-6 25v37q0 18 6 25t23 7h8q17 0 23 -7t6 -25v-37q0 -18 -6 -25t-23 -7zM153 66q35 0 70 38v332q-35 38 -70 38q-44 0 -44 -44v-320q0 -44 44 -44z
M223 35v7q-40 -48 -93 -48q-48 0 -72.5 29t-24.5 78v338q0 49 24.5 78t72.5 29q55 0 93 -46v5q0 37 37 37h2q37 0 37 -37v-470q0 -37 -37 -37h-2q-37 0 -37 37z" />
    <glyph glyph-name="agrave.alt" horiz-adv-x="334" 
d="M124 694h17q23 0 30 -20l22 -64q5 -12 0 -19.5t-18 -7.5h-8q-14 0 -24 16l-38 65q-6 10 -0.5 20t19.5 10zM153 66q35 0 70 38v332q-35 38 -70 38q-44 0 -44 -44v-320q0 -44 44 -44zM223 35v7q-40 -48 -93 -48q-48 0 -72.5 29t-24.5 78v338q0 49 24.5 78t72.5 29
q55 0 93 -46v5q0 37 37 37h2q37 0 37 -37v-470q0 -37 -37 -37h-2q-37 0 -37 37z" />
    <glyph glyph-name="amacron.alt" horiz-adv-x="334" 
d="M74 624v2q0 17 7.5 24.5t24.5 7.5h138q17 0 24.5 -7.5t7.5 -24.5v-2q0 -17 -7.5 -24.5t-24.5 -7.5h-138q-17 0 -24.5 7.5t-7.5 24.5zM153 66q35 0 70 38v332q-35 38 -70 38q-44 0 -44 -44v-320q0 -44 44 -44zM223 35v7q-40 -48 -93 -48q-48 0 -72.5 29t-24.5 78v338
q0 49 24.5 78t72.5 29q55 0 93 -46v5q0 37 37 37h2q37 0 37 -37v-470q0 -37 -37 -37h-2q-37 0 -37 37z" />
    <glyph glyph-name="aogonek.alt" horiz-adv-x="334" 
d="M292 -102h-22q-53 0 -53 43q0 22 18 51l6 9q-18 7 -18 34v7q-40 -48 -93 -48q-48 0 -72.5 29t-24.5 78v338q0 49 24.5 78t72.5 29q55 0 93 -46v5q0 37 37 37h2q37 0 37 -37v-470q0 -19 -7 -34l-7 -14q-10 -20 -10 -30q0 -11 14 -11h7q18 0 18 -18v-10q0 -7 -6 -13.5
t-16 -6.5zM153 66q35 0 70 38v332q-35 38 -70 38q-44 0 -44 -44v-320q0 -44 44 -44z" />
    <glyph glyph-name="aring.alt" horiz-adv-x="334" 
d="M195 693q63 0 63 -53v-5q0 -53 -63 -53h-40q-63 0 -63 56q0 55 63 55h40zM191 604q42 0 42 31v5q0 31 -42 31h-32q-42 0 -42 -33q0 -34 43 -34h31zM153 66q35 0 70 38v332q-35 38 -70 38q-44 0 -44 -44v-320q0 -44 44 -44zM223 35v7q-40 -48 -93 -48q-48 0 -72.5 29
t-24.5 78v338q0 49 24.5 78t72.5 29q55 0 93 -46v5q0 37 37 37h2q37 0 37 -37v-470q0 -37 -37 -37h-2q-37 0 -37 37z" />
    <glyph glyph-name="aringacute.alt" horiz-adv-x="334" 
d="M177 725h-11q-9 0 -13 7.5t0 17.5l22 63q9 23 29 23h24q12 0 16.5 -8t-1.5 -19l-38 -67q-9 -17 -28 -17zM190 693q63 0 63 -53v-5q0 -53 -63 -53h-40q-63 0 -63 56q0 55 63 55h40zM186 604q42 0 42 31v5q0 31 -42 31h-32q-42 0 -42 -33q0 -34 43 -34h31zM153 66
q35 0 70 38v332q-35 38 -70 38q-44 0 -44 -44v-320q0 -44 44 -44zM223 35v7q-40 -48 -93 -48q-48 0 -72.5 29t-24.5 78v338q0 49 24.5 78t72.5 29q55 0 93 -46v5q0 37 37 37h2q37 0 37 -37v-470q0 -37 -37 -37h-2q-37 0 -37 37z" />
    <glyph glyph-name="atilde.alt" horiz-adv-x="334" 
d="M197 654q14 -11 21 -11q10 0 10 12v15q0 22 22 22h7q22 0 22 -22v-39q0 -47 -46 -47h-2q-25 0 -46 16l-31 23q-12 9 -20 9q-10 0 -10 -12v-15q0 -22 -23 -22h-6q-22 0 -22 22v39q0 47 46 47h2q27 0 49 -17zM153 66q35 0 70 38v332q-35 38 -70 38q-44 0 -44 -44v-320
q0 -44 44 -44zM223 35v7q-40 -48 -93 -48q-48 0 -72.5 29t-24.5 78v338q0 49 24.5 78t72.5 29q55 0 93 -46v5q0 37 37 37h2q37 0 37 -37v-470q0 -37 -37 -37h-2q-37 0 -37 37z" />
    <glyph glyph-name="Gcommaaccent.alt" horiz-adv-x="360" 
d="M248 120v179h-35q-17 0 -24.5 7.5t-7.5 24.5v6q0 19 8.5 27t27.5 8h63q25 0 35.5 -10.5t10.5 -35.5v-202q0 -130 -130 -130h-30q-130 0 -130 130v452q0 130 130 130h30q128 0 128 -128v-60q0 -20 -9 -29t-29 -9h-2q-20 0 -29 9t-9 29v62q0 53 -53 53h-24q-53 0 -53 -53
v-460q0 -53 53 -53h26q53 0 53 53zM173 -41h25q16 0 16 -15v-7q0 -35 -17 -78q-8 -19 -21 -19h-11q-20 0 -17 20q8 45 8 76v7q0 6 5 11t12 5z" />
    <glyph glyph-name="gcommaaccent.alt" horiz-adv-x="334" 
d="M184 581h-25q-16 0 -16 15v7q0 35 17 78q8 19 21 19h11q20 0 17 -20q-8 -45 -8 -76v-7q0 -6 -5 -11t-12 -5zM153 127q34 0 70 36v273q-35 38 -70 38q-44 0 -44 -44v-259q0 -44 44 -44zM181 -114h-40q-106 0 -106 104q0 32 33 32h4q34 0 34 -28q0 -22 8 -32t31 -10h39
q39 0 39 42v108q-42 -47 -93 -47q-48 0 -72.5 29t-24.5 78v277q0 49 24.5 78t72.5 29q55 0 93 -46v5q0 37 37 37h2q37 0 37 -37v-502q0 -117 -118 -117z" />
    <glyph glyph-name="Kcommaaccent.alt" horiz-adv-x="335" 
d="M278 -2h-2q-27 0 -37 25l-121 321v-307q0 -21 -9 -30t-30 -9h-2q-21 0 -30 9t-9 30v626q0 21 9 30t30 9h2q21 0 30 -9t9 -30v-302l128 318q11 23 35 23h2q57 0 36 -53l-122 -292l119 -304q21 -55 -38 -55zM162 -41h25q16 0 16 -15v-7q0 -35 -17 -78q-8 -19 -21 -19h-11
q-20 0 -17 20q8 45 8 76v7q0 6 5 11t12 5z" />
    <glyph glyph-name="kcommaaccent.alt" horiz-adv-x="304" 
d="M287 47q10 -23 -0.5 -36t-33.5 -13h-1q-28 0 -39 26l-102 244v-233q0 -37 -37 -37h-2q-37 0 -37 37v640q0 37 37 37h2q37 0 37 -37v-397l107 237q12 27 39 27h2q23 0 31.5 -10.5t-0.5 -34.5l-106 -220zM152 -41h25q16 0 16 -15v-7q0 -35 -17 -78q-8 -19 -21 -19h-11
q-20 0 -17 20q8 45 8 76v7q0 6 5 11t12 5z" />
    <glyph glyph-name="Lcommaaccent.alt" horiz-adv-x="266" 
d="M38 46v617q0 21 9 30t30 9h2q21 0 30 -9t9 -30v-589h98q20 0 28 -8t8 -28v-2q0 -20 -8 -28t-28 -8h-132q-25 0 -35.5 10.5t-10.5 35.5zM117 -41h25q16 0 16 -15v-7q0 -35 -17 -78q-8 -19 -21 -19h-11q-20 0 -17 20q8 45 8 76v7q0 6 5 11t12 5z" />
    <glyph glyph-name="lcommaaccent.alt" horiz-adv-x="152" 
d="M77 -2h-2q-37 0 -37 37v640q0 37 37 37h2q37 0 37 -37v-640q0 -37 -37 -37zM68 -41h25q16 0 16 -15v-7q0 -35 -17 -78q-8 -19 -21 -19h-11q-20 0 -17 20q8 45 8 76v7q0 6 5 11t12 5z" />
    <glyph glyph-name="Ncommaaccent.alt" horiz-adv-x="378" 
d="M294 -2h-17q-37 0 -45 36l-118 516v-515q0 -37 -37 -37h-2q-37 0 -37 37v621q0 25 10.5 35.5t35.5 10.5h27q37 0 45 -36l108 -472v471q0 37 37 37h2q37 0 37 -37v-621q0 -25 -10.5 -35.5t-35.5 -10.5zM181 -41h25q16 0 16 -15v-7q0 -35 -17 -78q-8 -19 -21 -19h-11
q-20 0 -17 20q8 45 8 76v7q0 6 5 11t12 5z" />
    <glyph glyph-name="ncommaaccent.alt" horiz-adv-x="333" 
d="M111 35q0 -37 -37 -37h-2q-37 0 -37 37v470q0 37 37 37h2q37 0 37 -37v-8q39 49 96 49q92 0 92 -97v-414q0 -37 -37 -37h-2q-37 0 -37 37v398q0 41 -39 41q-31 0 -73 -37v-402zM159 -41h25q16 0 16 -15v-7q0 -35 -17 -78q-8 -19 -21 -19h-11q-20 0 -17 20q8 45 8 76v7
q0 6 5 11t12 5z" />
    <glyph glyph-name="Oslash.alt" horiz-adv-x="362" 
d="M116 580v-72l-2 -322l117 436q-14 11 -38 11h-24q-53 0 -53 -53zM131 78q14 -11 38 -11h24q53 0 53 53v80l2 314zM260 715q6 21 29 21h4q15 0 23.5 -8.5t4.5 -21.5l-14 -49q19 -31 19 -81v-452q0 -130 -130 -130h-30q-34 0 -59 9l-5 -18q-6 -21 -29 -21h-4
q-15 0 -23.5 8.5t-4.5 21.5l14 49q-19 31 -19 81v452q0 130 130 130h30q34 0 59 -9z" />
    <glyph glyph-name="oslash.alt" horiz-adv-x="330" 
d="M108 427v-32l-2 -260l98 333q-11 7 -30 7h-18q-48 0 -48 -48zM126 72q11 -7 30 -7h18q48 0 48 48v24l2 268zM96 -17q-6 -17 -27 -17h-3q-14 0 -22 8t-4 18l14 43q-22 29 -22 81v308q0 122 122 122h22q31 0 52 -7l6 19q6 17 27 17h3q14 0 22 -8t4 -18l-14 -44
q22 -29 22 -81v-308q0 -122 -122 -122h-22q-31 0 -52 7z" />
    <glyph glyph-name="Oslashacute.alt" horiz-adv-x="362" 
d="M190 743h-14q-10 0 -13.5 6t1.5 15l27 55q7 15 24 15h27q13 0 16 -8t-4 -17l-38 -50q-12 -16 -26 -16zM116 580v-72l-2 -322l117 436q-14 11 -38 11h-24q-53 0 -53 -53zM131 78q14 -11 38 -11h24q53 0 53 53v80l2 314zM260 715q6 21 29 21h4q15 0 23.5 -8.5t4.5 -21.5
l-14 -49q19 -31 19 -81v-452q0 -130 -130 -130h-30q-34 0 -59 9l-5 -18q-6 -21 -29 -21h-4q-15 0 -23.5 8.5t-4.5 21.5l14 49q-19 31 -19 81v452q0 130 130 130h30q34 0 59 -9z" />
    <glyph glyph-name="oslashacute.alt" horiz-adv-x="330" 
d="M170 583h-11q-9 0 -13 7.5t0 17.5l22 63q9 23 29 23h24q12 0 16.5 -8t-1.5 -19l-38 -67q-9 -17 -28 -17zM108 427v-32l-2 -260l98 333q-11 7 -30 7h-18q-48 0 -48 -48zM126 72q11 -7 30 -7h18q48 0 48 48v24l2 268zM96 -17q-6 -17 -27 -17h-3q-14 0 -22 8t-4 18l14 43
q-22 29 -22 81v308q0 122 122 122h22q31 0 52 -7l6 19q6 17 27 17h3q14 0 22 -8t4 -18l-14 -44q22 -29 22 -81v-308q0 -122 -122 -122h-22q-31 0 -52 7z" />
    <glyph glyph-name="Rcommaaccent.alt" horiz-adv-x="354" 
d="M237 424v150q0 53 -53 53h-66v-262h60q59 0 59 59zM317 440q0 -85 -62 -110q63 -17 63 -94v-199q0 -21 -9 -30t-30 -9h-2q-21 0 -30 9t-9 30v196q0 61 -61 61h-59v-257q0 -21 -9 -30t-30 -9h-2q-21 0 -30 9t-9 30v617q0 25 10.5 35.5t35.5 10.5h103q130 0 130 -130v-130z
M162 -41h25q16 0 16 -15v-7q0 -35 -17 -78q-8 -19 -21 -19h-11q-20 0 -17 20q8 45 8 76v7q0 6 5 11t12 5z" />
    <glyph glyph-name="rcommaaccent.alt" horiz-adv-x="209" 
d="M74 -2h-2q-37 0 -37 37v470q0 37 37 37h2q37 0 37 -37v-22q34 63 69 63q26 0 26 -32v-9q0 -16 -8.5 -26t-33.5 -23q-28 -15 -53 -36v-385q0 -37 -37 -37zM64 -41h25q16 0 16 -15v-7q0 -35 -17 -78q-8 -19 -21 -19h-11q-20 0 -17 20q8 45 8 76v7q0 6 5 11t12 5z" />
    <glyph glyph-name="Scommaaccent.alt" horiz-adv-x="348" 
d="M151 426l97 -70q38 -28 52.5 -56.5t14.5 -73.5v-102q0 -130 -130 -130h-22q-128 0 -128 128v111q0 20 9 29t29 9h2q20 0 29 -9t9 -29v-114q0 -53 53 -53h16q53 0 53 53v105q0 25 -8 39t-27 28l-98 71q-38 27 -52.5 56.5t-14.5 73.5v84q0 130 130 130h20q128 0 128 -128
v-90q0 -20 -9 -29t-29 -9h-2q-20 0 -29 9t-9 29v93q0 53 -53 53h-14q-53 0 -53 -53v-88q0 -25 8.5 -39t27.5 -28zM167 -41h25q16 0 16 -15v-7q0 -35 -17 -78q-8 -19 -21 -19h-11q-20 0 -17 20q8 45 8 76v7q0 6 5 11t12 5z" />
    <glyph glyph-name="scommaaccent.alt" horiz-adv-x="318" 
d="M251 348h-2q-20 0 -28.5 8.5t-8.5 28.5v46q0 46 -46 46h-13q-46 0 -46 -46v-47q0 -34 28 -51l90 -56q34 -22 48.5 -45t14.5 -62v-54q0 -122 -122 -122h-15q-120 0 -120 120v46q0 20 8.5 28t28.5 8h2q20 0 28 -8t8 -28v-51q0 -46 46 -46h15q46 0 46 46v51q0 33 -28 51
l-90 56q-34 22 -48.5 45t-14.5 62v50q0 122 122 122h13q120 0 120 -120v-41q0 -20 -8 -28.5t-28 -8.5zM151 -41h25q16 0 16 -15v-7q0 -35 -17 -78q-8 -19 -21 -19h-11q-20 0 -17 20q8 45 8 76v7q0 6 5 11t12 5z" />
    <glyph glyph-name="Tcommaaccent.alt" horiz-adv-x="310" 
d="M195 626v-589q0 -21 -9 -30t-30 -9h-2q-21 0 -30 9t-9 30v589h-71q-20 0 -28 8t-8 28v2q0 20 8 28t28 8h222q20 0 28 -8t8 -28v-2q0 -20 -8 -28t-28 -8h-71zM147 -41h25q16 0 16 -15v-7q0 -35 -17 -78q-8 -19 -21 -19h-11q-20 0 -17 20q8 45 8 76v7q0 6 5 11t12 5z" />
    <glyph glyph-name="tcommaaccent.alt" horiz-adv-x="200" 
d="M131 35q0 -37 -37 -37h-2q-37 0 -37 37v435h-10q-34 0 -34 34v2q0 34 34 34h10v55q0 37 37 37h2q37 0 37 -37v-55h25q34 0 34 -34v-2q0 -34 -34 -34h-25v-435zM87 -41h25q16 0 16 -15v-7q0 -35 -17 -78q-8 -19 -21 -19h-11q-20 0 -17 20q8 45 8 76v7q0 6 5 11t12 5z" />
    <glyph glyph-name="yacute.alt" horiz-adv-x="307" 
d="M163 583h-11q-9 0 -13 7.5t0 17.5l22 63q9 23 29 23h24q12 0 16.5 -8t-1.5 -19l-38 -67q-9 -17 -28 -17zM92 -42h2q27 0 20 36l-95 505q-9 43 36 43h2q31 0 36 -31l60 -372l64 374q3 16 11 22.5t24 6.5h2q42 0 35 -42l-112 -560q-10 -50 -61 -50h-24q-31 0 -31 32v4
q0 32 31 32z" />
    <glyph glyph-name="ycircumflex.alt" horiz-adv-x="307" 
d="M112 674q11 20 35 20h22q24 0 35 -20l40 -70q5 -10 1.5 -15.5t-11.5 -5.5h-13q-14 0 -27 14l-36 45l-36 -45q-13 -14 -27 -14h-13q-8 0 -11.5 5.5t1.5 15.5zM92 -42h2q27 0 20 36l-95 505q-9 43 36 43h2q31 0 36 -31l60 -372l64 374q3 16 11 22.5t24 6.5h2q42 0 35 -42
l-112 -560q-10 -50 -61 -50h-24q-31 0 -31 32v4q0 32 31 32z" />
    <glyph glyph-name="ydieresis.alt" horiz-adv-x="307" 
d="M97 682h8q17 0 23 -7t6 -25v-37q0 -18 -6 -25t-23 -7h-8q-17 0 -23 7t-6 25v37q0 18 6 25t23 7zM219 581h-8q-17 0 -23 7t-6 25v37q0 18 6 25t23 7h8q17 0 23 -7t6 -25v-37q0 -18 -6 -25t-23 -7zM92 -42h2q27 0 20 36l-95 505q-9 43 36 43h2q31 0 36 -31l60 -372l64 374
q3 16 11 22.5t24 6.5h2q42 0 35 -42l-112 -560q-10 -50 -61 -50h-24q-31 0 -31 32v4q0 32 31 32z" />
    <glyph glyph-name="ygrave.alt" horiz-adv-x="307" 
d="M107 694h17q23 0 30 -20l22 -64q5 -12 0 -19.5t-18 -7.5h-8q-14 0 -24 16l-38 65q-6 10 -0.5 20t19.5 10zM92 -42h2q27 0 20 36l-95 505q-9 43 36 43h2q31 0 36 -31l60 -372l64 374q3 16 11 22.5t24 6.5h2q42 0 35 -42l-112 -560q-10 -50 -61 -50h-24q-31 0 -31 32v4
q0 32 31 32z" />
    <glyph glyph-name="comma.alt" horiz-adv-x="138" 
d="M57 118h27q24 0 24 -23v-19q0 -70 -27 -149q-7 -20 -28 -20h-2q-37 0 -30 36q13 60 13 136v18q0 21 23 21z" />
    <glyph glyph-name="semicolon.alt" horiz-adv-x="138" 
d="M68 542h2q20 0 29 -9t9 -29v-44q0 -20 -9 -29t-29 -9h-2q-20 0 -29 9t-9 29v44q0 20 9 29t29 9zM57 118h27q24 0 24 -23v-19q0 -70 -27 -149q-7 -20 -28 -20h-2q-37 0 -30 36q13 60 13 136v18q0 21 23 21z" />
    <glyph glyph-name="colon.fig" horiz-adv-x="138" 
d="M68 531h2q20 0 29 -9t9 -29v-44q0 -20 -9 -29t-29 -9h-2q-20 0 -29 9t-9 29v44q0 20 9 29t29 9zM68 290h2q20 0 29 -9t9 -29v-44q0 -20 -9 -29t-29 -9h-2q-20 0 -29 9t-9 29v44q0 20 9 29t29 9z" />
    <glyph glyph-name="ampersand.alt" horiz-adv-x="358" 
d="M312 124q0 -130 -130 -130h-16q-130 0 -130 130v148q0 73 60 90q-58 22 -58 104v110q0 130 130 130h14q128 0 128 -128v-75q0 -15 -8.5 -24t-22.5 -9h-12q-32 0 -32 33v77q0 53 -51 53h-16q-51 0 -51 -53v-136q0 -53 51 -53h151q15 0 24.5 -8t9.5 -22v-13q0 -27 -34 -27
h-7v-197zM184 67q53 0 53 53v201h-71q-51 0 -51 -53v-148q0 -53 53 -53h16z" />
    <glyph glyph-name="quotedblleft.alt" horiz-adv-x="262" 
d="M203 493h-24q-25 0 -25 26v16q0 74 21 145q7 22 30 22h2q39 0 32 -38q-11 -65 -11 -132v-13q0 -26 -25 -26zM30 519v16q0 66 27 146q7 21 29 21h1q39 0 32 -38q-14 -67 -14 -132v-13q0 -26 -25 -26h-25q-25 0 -25 26z" />
    <glyph glyph-name="quotedblright.alt" horiz-adv-x="262" 
d="M59 702h24q25 0 25 -26v-16q0 -74 -21 -145q-7 -22 -30 -22h-2q-39 0 -32 38q11 65 11 132v13q0 26 25 26zM232 676v-16q0 -66 -27 -146q-7 -21 -29 -21h-1q-39 0 -32 38q14 67 14 132v13q0 26 25 26h25q25 0 25 -26z" />
    <glyph glyph-name="quoteleft.alt" horiz-adv-x="138" 
d="M79 493h-24q-25 0 -25 26v16q0 74 21 145q7 22 30 22h2q39 0 32 -38q-11 -65 -11 -132v-13q0 -26 -25 -26z" />
    <glyph glyph-name="quoteright.alt" horiz-adv-x="138" 
d="M59 702h24q25 0 25 -26v-16q0 -74 -21 -145q-7 -22 -30 -22h-2q-39 0 -32 38q11 65 11 132v13q0 26 25 26z" />
    <glyph glyph-name="quotedblbase.alt" horiz-adv-x="262" 
d="M80 118h24q25 0 25 -26v-16q0 -74 -21 -145q-7 -22 -30 -22h-2q-39 0 -32 38q11 65 11 132v13q0 26 25 26zM253 92v-16q0 -66 -27 -146q-7 -21 -29 -21h-1q-39 0 -32 38q14 67 14 132v13q0 26 25 26h25q25 0 25 -26z" />
    <glyph glyph-name="quotesinglbase.alt" horiz-adv-x="138" 
d="M59 118h24q25 0 25 -26v-16q0 -74 -21 -145q-7 -22 -30 -22h-2q-39 0 -32 38q11 65 11 132v13q0 26 25 26z" />
    <glyph glyph-name="guillemotleft.cap" horiz-adv-x="244" 
d="M164 206l-46 135q-5 15 0 30l43 134q7 20 28 20h2q40 0 30 -38l-36 -131l36 -132q10 -37 -28 -37h-2q-20 0 -27 19zM63 205l-52 135q-5 16 0 32l49 134q7 19 27 19h2q41 0 29 -39l-41 -130l41 -132q12 -37 -27 -37h-2q-19 0 -26 18z" />
    <glyph glyph-name="guillemotright.cap" horiz-adv-x="244" 
d="M126 341l-46 -135q-7 -19 -27 -19h-2q-38 0 -28 37l36 132l-36 131q-10 38 30 38h2q21 0 28 -20l43 -134q5 -15 0 -30zM233 340l-52 -135q-7 -18 -26 -18h-2q-39 0 -27 37l41 132l-41 130q-12 39 29 39h2q20 0 27 -19l49 -134q5 -16 0 -32z" />
    <glyph glyph-name="guilsinglleft.cap" horiz-adv-x="163" 
d="M76 204l-62 133q-10 19 0 38l59 132q8 18 28 18h2q47 0 30 -44l-50 -125l50 -127q16 -42 -28 -42h-2q-19 0 -27 17z" />
    <glyph glyph-name="guilsinglright.cap" horiz-adv-x="163" 
d="M149 337l-62 -133q-8 -17 -27 -17h-2q-45 0 -28 42l50 127l-50 125q-17 44 30 44h2q20 0 28 -18l59 -132q9 -19 0 -38z" />
    <glyph glyph-name="hyphen.cap" horiz-adv-x="206" 
d="M12 355v2q0 19 8 27t27 8h112q19 0 27 -8t8 -27v-2q0 -19 -8 -27t-27 -8h-112q-19 0 -27 8t-8 27z" />
    <glyph glyph-name="endash.cap" horiz-adv-x="366" 
d="M12 355v2q0 18 7.5 25.5t25.5 7.5h276q18 0 25.5 -7.5t7.5 -25.5v-2q0 -18 -7.5 -25.5t-25.5 -7.5h-276q-18 0 -25.5 7.5t-7.5 25.5z" />
    <glyph glyph-name="emdash.cap" horiz-adv-x="556" 
d="M12 355v2q0 18 7.5 25.5t25.5 7.5h466q18 0 25.5 -7.5t7.5 -25.5v-2q0 -18 -7.5 -25.5t-25.5 -7.5h-466q-18 0 -25.5 7.5t-7.5 25.5z" />
    <glyph glyph-name="at.alt" horiz-adv-x="496" 
d="M432 12v-2q0 -16 -16 -16h-220q-87 0 -121.5 35.5t-34.5 128.5v385q0 91 35.5 127.5t120.5 36.5h104q85 0 120.5 -36.5t35.5 -127.5v-350q0 -43 -17 -62t-53 -19h-24q-30 0 -44 9.5t-20 32.5q-34 -43 -84 -43q-35 0 -53.5 20.5t-18.5 56.5v107q0 37 13 56t46 30l88 30v80
q0 40 -39 40q-41 0 -41 -40v-33q0 -28 -27 -28h-6q-16 0 -22.5 6.5t-6.5 22.5v35q0 98 97 98h11q97 0 97 -98v-320q0 -28 30 -28q38 0 38 49v348q0 74 -26.5 102t-93.5 28h-104q-67 0 -93.5 -28t-26.5 -102v-385q0 -74 26.5 -102t93.5 -28h220q16 0 16 -16zM205 204
q0 -33 29 -33q22 0 55 22v157l-57 -20q-27 -9 -27 -40v-86z" />
    <glyph glyph-name="registered.alt" horiz-adv-x="496" 
d="M40 140v420q0 74 38.5 110t118.5 36h102q80 0 118.5 -36t38.5 -110v-420q0 -74 -38.5 -110t-118.5 -36h-102q-80 0 -118.5 36t-38.5 110zM430 142v416q0 124 -131 124h-102q-131 0 -131 -124v-416q0 -124 131 -124h102q131 0 131 124zM291 398v113q0 34 -35 34h-47v-188
h40q42 0 42 41zM354 404q0 -33 -11 -50t-35 -27q26 -8 36.5 -23t10.5 -44v-139q0 -31 -30 -31h-2q-31 0 -31 31v133q0 23 -10 33t-34 10h-39v-176q0 -31 -30 -31h-2q-31 0 -31 31v440q0 25 10.5 35.5t35.5 10.5h66q96 0 96 -91v-112z" />
    <glyph glyph-name="percent.alt" horiz-adv-x="480" 
d="M222 471q0 -50 -21 -74t-69 -24h-14q-48 0 -69 23.5t-21 74.5v137q0 51 21 74.5t69 23.5h14q48 0 69 -24t21 -74v-137zM266 333l-112 -315q-7 -20 -28 -20h-22q-10 0 -14 6.5t-1 13.5l127 345l112 319q7 20 28 20h22q10 0 14 -6.5t1 -13.5zM158 603q0 22 -6 30.5t-24 8.5
h-4q-19 0 -25.5 -9t-6.5 -30v-127q0 -21 7 -30t28 -9q19 0 25 8.5t6 30.5v127zM258 219q0 50 21 74t69 24h14q48 0 69 -23.5t21 -74.5v-127q0 -51 -21 -74.5t-69 -23.5h-14q-48 0 -69 24t-21 74v127zM388 214q0 21 -6 30t-25 9h-5q-18 0 -24 -9t-6 -30v-117q0 -22 6 -30.5
t26 -8.5t27 9t7 30v117z" />
    <glyph glyph-name="NUL" horiz-adv-x="0" 
 />
    <glyph glyph-name="hcoslug" horiz-adv-x="694" 
d="M644 -100h-594v800h594v-800zM247 428q0 13 7.5 21t19.5 8q13 0 21 -10.5t8 -27.5q0 -22 -18 -50q-15 14 -21 20.5t-11.5 17t-5.5 21.5zM312 342q30 20 42 34q29 -29 -1 -80q-33 38 -41 46zM261 219q-22 0 -37 15.5t-15 38.5q0 24 16 40q34 -32 74 -82q-15 -12 -38 -12z
M428 306q15 -25 43 -25q21 0 35.5 15.5t14.5 38.5t-14.5 37.5t-35.5 14.5q-35 0 -60 -38q-3 39 -49 37q9 15 9 34q0 29 -25.5 51.5t-69.5 22.5q-48 0 -78.5 -25.5t-30.5 -59.5q0 -37 31 -69q-82 -28 -82 -91q0 -39 32 -66t77 -27q63 0 104 45q44 -45 85 -45q33 0 56 25.5
t24 68.5l-7 2q-17 -29 -43 -29q-27 0 -62 41q20 26 46 42zM274 122v-9h-7v-7h7v-20q0 -13 12 -13q11 0 14 13l-5 2q-1 -7 -5 -7t-4 5v20h13v7h-13v11zM195 73q9 0 15 6t6 15q0 20 -21 20t-21 -20q0 -21 21 -21zM195 78q-8 0 -8 16q0 15 8 15t8 -15q0 -16 -8 -16zM219 74h22
v7h-4v15q0 10 7 10q6 0 6 -7v-18h-4v-7h22v7h-6v19q0 14 -12 14q-9 0 -14 -11v10h-17v-7h6v-25h-6v-7zM372 80q-8 0 -8 13t8 13q7 0 7 -13t-7 -13zM125 74h30v7h-10v16h4q5 0 6 -8h7v23h-7q-1 -8 -6 -8h-4v18h12q9 0 11 -13h8v20h-51v-7h7v-41h-7v-7zM302 74h7l1 4
q8 -5 13 -5q14 0 14 13q0 9 -12 12t-12 6q0 4 5 4t10 -7h7v13h-6l-2 -5q-3 5 -11 5q-14 0 -14 -12q0 -9 12 -12.5t12 -6.5q0 -4 -5 -4q-6 0 -12 9h-7v-14zM352 73h6l4 8q5 -8 14 -8q16 0 16 21q0 20 -15 20q-10 0 -13 -9v27h-18v-7h6v-52zM400 75q-7 0 -7 -7q0 -9 11 -9
q12 0 18 16l13 31h5v7h-17v-7h5l-8 -20l-9 20h6v7h-25v-7h5q12 -23 16 -33q-2 -8 -8 -8q3 2 1.5 6t-6.5 4zM294 42q0 12 6 12l3 -1q-1 -1 -1 -3q0 -6 6 -6v-5h-14v3zM446 33v-7h6q-2 -4 -6 -9q-2 2 -5.5 6t-6.5 7q11 5 11 12q0 12 -14 12q-17 0 -17 -14q0 -6 6 -12
q-13 -4 -13 -15q0 -14 18 -14q9 0 15 6q5 -6 12 -6q10 0 13 12l-5 1q-1 -5 -4 -5t-6 5q6 8 9 14h5v7h-18zM498 -1q22 0 24 23h-8q-2 -16 -14 -16q-16 0 -16 22t14 22q10 0 15 -16h8v22h-8l-1 -6q-7 7 -16 7q-11 0 -19 -8.5t-8 -21.5q0 -28 29 -28zM425 43q0 5 5 5q6 0 6 -6
t-5 -9q-6 6 -6 10zM366 18q2 22 -19 22q-8 0 -14 -6t-6 -15q0 -20 21 -20q14 0 18 14h-7q-1 -7 -9 -7q-10 0 -10 12h26zM546 -1q9 0 15 6t6 15q0 20 -21 20t-21 -20q0 -21 21 -21zM210 -1q9 0 15 6t6 15q0 20 -21 20t-21 -20q0 -21 21 -21zM273 18q2 22 -19 22q-8 0 -14 -6
t-6 -15q0 -20 21 -20q15 0 18 14h-7q-1 -7 -9 -7q-10 0 -10 12h26zM347 35q7 0 7 -12h-14q0 12 7 12zM546 4q-8 0 -8 16q0 15 8 15t8 -15q0 -16 -8 -16zM210 4q-8 0 -8 16q0 15 8 15t8 -15q0 -16 -8 -16zM254 35q7 0 7 -12h-14q0 12 7 12zM368 0h26v7h-8v16q4 9 7 9v-1
q0 -6 6 -6q7 0 7 7q0 8 -8 8t-12 -11v10h-18v-7h6v-25h-6v-7zM276 0h23v7h-5v25h14v-25h-5v-7h23v7h-6v52l-10 -2q-4 2 -9 2q-19 0 -19 -19v-1h-7v-7h7v-25h-6v-7zM124 0h29v7h-8v18h22v-18h-8v-7h29v7h-8v41h8v7h-29v-7h8v-16h-22v16h8v7h-29v-7h8v-41h-8v-7zM429 6
q-10 0 -10 10q0 5 4 9q4 -4 14 -16q-5 -3 -8 -3zM576 13q-7 0 -7 -7t7 -7t7 7t-7 7z" />
    <glyph glyph-name="i.dot" horiz-adv-x="152" 
d="M77 591h-2q-21 0 -30 9t-9 30v15q0 21 9 30t30 9h2q21 0 30 -9t9 -30v-15q0 -21 -9 -30t-30 -9zM77 -2h-2q-37 0 -37 37v470q0 37 37 37h2q37 0 37 -37v-470q0 -37 -37 -37z" />
    <glyph glyph-name="caron.alt" 
d="M219 590h-6q-17 0 -17 17v80q0 27 27 27h2q33 0 26 -33l-16 -78q-3 -13 -16 -13z" />
    <glyph glyph-name="acute.cap" 
d="M234 743h-14q-10 0 -13.5 6t1.5 15l27 55q7 15 24 15h27q13 0 16 -8t-4 -17l-38 -50q-12 -16 -26 -16z" />
    <glyph glyph-name="hungarumlaut.cap" 
d="M274 743h-10q-8 0 -10.5 5.5t0.5 11.5l22 56q8 18 25 18h26q10 0 13.5 -8t-2.5 -16l-42 -54q-10 -13 -22 -13zM192 743h-10q-8 0 -10.5 5.5t0.5 11.5l22 56q8 18 25 18h26q10 0 13.5 -8t-2.5 -16l-42 -54q-10 -13 -22 -13z" />
    <glyph glyph-name="grave.cap" 
d="M236 834h22q18 0 26 -15l31 -57q4 -7 0 -13t-11 -6h-15q-16 0 -26 14l-41 52q-5 7 -0.5 16t14.5 9z" />
    <glyph glyph-name="circumflex.cap" 
d="M204 825q13 17 35 17h22q22 0 35 -17l42 -59q6 -9 4 -16t-11 -7h-15q-14 0 -27 12l-39 38l-39 -38q-13 -12 -27 -12h-15q-9 0 -11 7t4 16z" />
    <glyph glyph-name="caron.cap" 
d="M296 758q-13 -17 -35 -17h-22q-22 0 -35 17l-42 59q-6 9 -4 16t11 7h15q14 0 27 -12l39 -38l39 38q13 12 27 12h15q9 0 11 -7t-4 -16z" />
    <glyph glyph-name="breve.cap" 
d="M250 794q21 0 29 8q5 5 7 15.5t3 12.5q5 9 18 9h17q18 0 18 -19q0 -78 -92 -78t-92 78q0 19 18 19h17q13 0 18 -9q1 -2 3 -12.5t7 -15.5q8 -8 29 -8z" />
    <glyph glyph-name="tilde.cap" 
d="M269 809q15 -9 23 -9q11 0 11 12v8q0 22 22 22h7q22 0 22 -22v-32q0 -47 -46 -47h-2q-15 0 -47 17l-29 16q-17 9 -22 9q-11 0 -11 -12v-8q0 -22 -23 -22h-6q-22 0 -22 22v32q0 47 46 47h2q18 0 50 -19z" />
    <glyph glyph-name="macron.cap" 
d="M149 779v2q0 27 27 27h148q27 0 27 -27v-2q0 -27 -27 -27h-148q-27 0 -27 27z" />
    <glyph glyph-name="dieresis.cap" 
d="M189 822h6q18 0 24.5 -7.5t6.5 -25.5v-15q0 -18 -6.5 -25.5t-24.5 -7.5h-6q-18 0 -24.5 7.5t-6.5 25.5v15q0 18 6.5 25.5t24.5 7.5zM311 741h-6q-18 0 -24.5 7.5t-6.5 25.5v15q0 18 6.5 25.5t24.5 7.5h6q18 0 24.5 -7.5t6.5 -25.5v-15q0 -18 -6.5 -25.5t-24.5 -7.5z" />
    <glyph glyph-name="dotaccent.cap" 
d="M245 814h11q16 0 22.5 -7t6.5 -24v-10q0 -18 -6.5 -25t-22.5 -7h-11q-17 0 -23.5 7t-6.5 25v10q0 17 6.5 24t23.5 7z" />
    <glyph glyph-name="ring.cap" 
d="M284 742h-68q-61 0 -61 54q0 53 61 53h68q61 0 61 -51v-5q0 -51 -61 -51zM280 827h-60q-40 0 -40 -31q0 -32 40 -32h60q40 0 40 30v3q0 30 -40 30z" />
    <glyph glyph-name="commaaccent.alt" 
d="M243 -41h25q16 0 16 -15v-7q0 -35 -17 -78q-8 -19 -21 -19h-11q-20 0 -17 20q8 45 8 76v7q0 6 5 11t12 5z" />
    </font>
</defs>
</svg>
